<svg
	xmlns="http://www.w3.org/2000/svg"
	xml:space="preserve"
	width="800"
	height="800"
	viewBox="0 0 512 512"
><circle cx="256" cy="120.889" r="120.889" style="fill:#d1e5f5" /><path
		d="M412.444 512c31.418 0 56.889-25.471 56.889-56.889 0-117.82-95.514-213.333-213.333-213.333S42.667 337.291 42.667 455.111c0 31.418 25.471 56.889 56.889 56.889h312.888z"
		style="fill:#d1e5f5"
	/><path
		d="M255.999 241.778H256zM376.889 120.889C376.889 54.124 322.765 0 256 0h-.001v241.778H256c66.765 0 120.889-54.124 120.889-120.889zM256 241.778 255.999 512h156.446c31.418 0 56.889-25.471 56.889-56.889-.001-117.82-95.514-213.333-213.334-213.333z"
		style="fill:#b4d8f1"
	/></svg>
