<svg
	width="24"
	height="24"
	viewBox="0 0 24 24"
	fill="none"
	xmlns="http://www.w3.org/2000/svg"
>
<path
		d="M12 15C12.7956 15 13.5587 14.6839 14.1213 14.1213C14.6839 13.5587 15 12.7956 15 12C15 11.2044 14.6839 10.4413 14.1213 9.87868C13.5587 9.31607 12.7956 9 12 9C11.2044 9 10.4413 9.31607 9.87868 9.87868C9.31607 10.4413 9 11.2044 9 12C9 12.7956 9.31607 13.5587 9.87868 14.1213C10.4413 14.6839 11.2044 15 12 15V15Z"
		fill="#BD93F9"
	/>
<path
		d="M0 6C0 5.60218 0.158035 5.22064 0.43934 4.93934C0.720644 4.65804 1.10218 4.5 1.5 4.5H22.5C22.8978 4.5 23.2794 4.65804 23.5607 4.93934C23.842 5.22064 24 5.60218 24 6V18C24 18.3978 23.842 18.7794 23.5607 19.0607C23.2794 19.342 22.8978 19.5 22.5 19.5H1.5C1.10218 19.5 0.720644 19.342 0.43934 19.0607C0.158035 18.7794 0 18.3978 0 18V6ZM4.5 6C4.5 6.79565 4.18393 7.55871 3.62132 8.12132C3.05871 8.68393 2.29565 9 1.5 9V15C2.29565 15 3.05871 15.3161 3.62132 15.8787C4.18393 16.4413 4.5 17.2044 4.5 18H19.5C19.5 17.2044 19.8161 16.4413 20.3787 15.8787C20.9413 15.3161 21.7044 15 22.5 15V9C21.7044 9 20.9413 8.68393 20.3787 8.12132C19.8161 7.55871 19.5 6.79565 19.5 6H4.5Z"
		fill="#BD93F9"
	/>
</svg>
