<svg
	width="16"
	height="16"
	viewBox="0 0 16 16"
	fill="none"
	xmlns="http://www.w3.org/2000/svg"
>
<g clip-path="url(#clip0_300_32384)">
<path
			fill-rule="evenodd"
			clip-rule="evenodd"
			d="M5.184 9.536C5.61067 9.536 6.464 9.51467 7.65867 9.024C9.04533 8.448 11.776 7.424 13.76 6.35733C15.1467 5.61067 15.744 4.62933 15.744 3.30667C15.744 1.49333 14.272 0 12.4373 0H4.75733C2.13333 0 0 2.13333 0 4.75733C0 7.38133 2.00533 9.536 5.184 9.536Z"
			fill="#39594D"
		/>
<path
			fill-rule="evenodd"
			clip-rule="evenodd"
			d="M6.48535 12.8002C6.48535 11.5202 7.25335 10.3468 8.44802 9.85617L10.8587 8.8535C13.312 7.85083 16 9.64283 16 12.2882C16 14.3362 14.336 16.0002 12.288 16.0002H9.66402C7.91468 16.0002 6.48535 14.5708 6.48535 12.8002Z"
			fill="#D18EE2"
		/>
<path
			d="M2.752 10.1543C1.23733 10.1543 0 11.3916 0 12.9063V13.269C0 14.7623 1.23733 15.9996 2.752 15.9996C4.26667 15.9996 5.504 14.7623 5.504 13.2476V12.885C5.48267 11.3916 4.26667 10.1543 2.752 10.1543Z"
			fill="#FF7759"
		/>
</g>
<defs>
<clipPath id="clip0_300_32384">
<rect width="16" height="16" fill="white" />
</clipPath>
</defs>
</svg>
