<svg xmlns="http://www.w3.org/2000/svg" width="16" height="16" fill="none"><g
		clip-path="url(#a)"
	><path
			fill="#39594D"
			fill-rule="evenodd"
			d="M5.184 9.536c.427 0 1.28-.021 2.475-.512 1.386-.576 4.117-1.6 6.101-2.667 1.387-.746 1.984-1.728 1.984-3.05A3.31 3.31 0 0 0 12.437 0h-7.68A4.762 4.762 0 0 0 0 4.757c0 2.624 2.005 4.779 5.184 4.779Z"
			clip-rule="evenodd"
		/><path
			fill="#D18EE2"
			fill-rule="evenodd"
			d="M6.485 12.8c0-1.28.768-2.453 1.963-2.944l2.41-1.002C13.313 7.85 16 9.643 16 12.288A3.715 3.715 0 0 1 12.288 16H9.664c-1.75 0-3.179-1.43-3.179-3.2Z"
			clip-rule="evenodd"
		/><path
			fill="#FF7759"
			d="M2.752 10.154A2.759 2.759 0 0 0 0 12.906v.363c0 1.493 1.237 2.73 2.752 2.73a2.759 2.759 0 0 0 2.752-2.751v-.363c-.021-1.493-1.237-2.73-2.752-2.73Z"
		/></g><defs><clipPath id="a"><path
				fill="#fff"
				d="M0 0h16v16H0z"
			/></clipPath></defs></svg>
