<svg
	xmlns="http://www.w3.org/2000/svg"
	xml:space="preserve"
	style="enable-background:new 0 0 2268.6 1823.7"
	viewBox="0 0 2268.6 1823.7"
><path
		d="m1508.7 503.5 197.2-197.2 13.1-83C1359.7-103.5 788.5-66.4 464.5 300.6c-90 101.9-156.7 229-192.3 360.3l70.6-10 394.4-65 30.4-31.1c175.4-192.7 472.1-218.6 674.6-54.7l66.5 3.4z"
		style="fill:#ea4335"
	/><path
		d="M1986.9 655c-45.3-166.9-138.4-317-267.8-431.8L1442.3 500c116.9 95.5 183.4 239.3 180.6 390.2v49.1c136 0 246.3 110.3 246.3 246.3s-110.3 243.6-246.3 243.6h-493.3l-48.4 52.6v295.5l48.4 46.4h493.3c353.8 2.8 642.9-279.1 645.7-632.9 1.7-214.5-104.1-415.6-281.7-535.8"
		style="fill:#4285f4"
	/><path
		d="M636.9 1823.7h492.7v-394.4H636.9c-34.9 0-69.3-7.6-101-22.1l-69.9 21.4-198.6 197.2-17.3 67.1c111.4 84.1 247.3 131.4 386.8 130.8"
		style="fill:#34a853"
	/><path
		d="M636.9 544.3C283 546.4-2.1 835 0 1188.9c1.2 197.6 93.5 383.6 250.1 504.1l285.8-285.8c-124-56-179.1-201.9-123.1-325.9 56-124 201.9-179.1 325.9-123.1 54.6 24.7 98.4 68.4 123.1 123.1l285.8-285.8C1026 636.5 837 543.6 636.9 544.3"
		style="fill:#fbbc05"
	/></svg>
