<svg
	width="16"
	height="16"
	viewBox="0 0 16 16"
	fill="none"
	xmlns="http://www.w3.org/2000/svg"
>
<g clip-path="url(#clip0_587_6743)">
<path
			d="M4.71611 3.56357C5.17916 3.56357 5.55454 3.1882 5.55454 2.72515C5.55454 2.2621 5.17916 1.88672 4.71611 1.88672C4.25306 1.88672 3.87769 2.2621 3.87769 2.72515C3.87769 3.1882 4.25306 3.56357 4.71611 3.56357Z"
			fill="#EA4335"
		/>
<path
			d="M4.71611 7.05674C5.17916 7.05674 5.55454 6.68136 5.55454 6.21831C5.55454 5.75526 5.17916 5.37988 4.71611 5.37988C4.25306 5.37988 3.87769 5.75526 3.87769 6.21831C3.87769 6.68136 4.25306 7.05674 4.71611 7.05674Z"
			fill="#EA4335"
		/>
<path
			d="M4.71611 10.5499C5.17916 10.5499 5.55454 10.1745 5.55454 9.71147C5.55454 9.24842 5.17916 8.87305 4.71611 8.87305C4.25306 8.87305 3.87769 9.24842 3.87769 9.71147C3.87769 10.1745 4.25306 10.5499 4.71611 10.5499Z"
			fill="#EA4335"
		/>
<path
			d="M4.71611 14.044C5.17916 14.044 5.55454 13.6687 5.55454 13.2056C5.55454 12.7426 5.17916 12.3672 4.71611 12.3672C4.25306 12.3672 3.87769 12.7426 3.87769 13.2056C3.87769 13.6687 4.25306 14.044 4.71611 14.044Z"
			fill="#EA4335"
		/>
<path
			d="M7.72048 1.95633C8.2607 1.95633 8.69864 1.51839 8.69864 0.978166C8.69864 0.43794 8.2607 0 7.72048 0C7.18025 0 6.74231 0.43794 6.74231 0.978166C6.74231 1.51839 7.18025 1.95633 7.72048 1.95633Z"
			fill="#FBBC04"
		/>
<path
			d="M7.72048 5.4495C8.2607 5.4495 8.69864 5.01156 8.69864 4.47133C8.69864 3.9311 8.2607 3.49316 7.72048 3.49316C7.18025 3.49316 6.74231 3.9311 6.74231 4.47133C6.74231 5.01156 7.18025 5.4495 7.72048 5.4495Z"
			fill="#FBBC04"
		/>
<path
			d="M7.72048 8.94364C8.2607 8.94364 8.69864 8.5057 8.69864 7.96547C8.69864 7.42524 8.2607 6.9873 7.72048 6.9873C7.18025 6.9873 6.74231 7.42524 6.74231 7.96547C6.74231 8.5057 7.18025 8.94364 7.72048 8.94364Z"
			fill="#FBBC04"
		/>
<path
			d="M7.72048 12.4368C8.2607 12.4368 8.69864 11.9989 8.69864 11.4586C8.69864 10.9184 8.2607 10.4805 7.72048 10.4805C7.18025 10.4805 6.74231 10.9184 6.74231 11.4586C6.74231 11.9989 7.18025 12.4368 7.72048 12.4368Z"
			fill="#FBBC04"
		/>
<path
			d="M7.72048 16.0003C8.2607 16.0003 8.69864 15.5623 8.69864 15.0221C8.69864 14.4819 8.2607 14.0439 7.72048 14.0439C7.18025 14.0439 6.74231 14.4819 6.74231 15.0221C6.74231 15.5623 7.18025 16.0003 7.72048 16.0003Z"
			fill="#FBBC04"
		/>
<path
			d="M10.6899 3.9131C11.3266 3.9131 11.8428 3.39696 11.8428 2.76026C11.8428 2.12357 11.3266 1.60742 10.6899 1.60742C10.0533 1.60742 9.53711 2.12357 9.53711 2.76026C9.53711 3.39696 10.0533 3.9131 10.6899 3.9131Z"
			fill="#34A853"
		/>
<path
			d="M10.6899 7.40626C11.3266 7.40626 11.8428 6.89012 11.8428 6.25342C11.8428 5.61673 11.3266 5.10059 10.6899 5.10059C10.0533 5.10059 9.53711 5.61673 9.53711 6.25342C9.53711 6.89012 10.0533 7.40626 10.6899 7.40626Z"
			fill="#34A853"
		/>
<path
			d="M10.6899 10.8994C11.3266 10.8994 11.8428 10.3833 11.8428 9.74659C11.8428 9.10989 11.3266 8.59375 10.6899 8.59375C10.0533 8.59375 9.53711 9.10989 9.53711 9.74659C9.53711 10.3833 10.0533 10.8994 10.6899 10.8994Z"
			fill="#34A853"
		/>
<path
			d="M10.6899 14.3926C11.3266 14.3926 11.8428 13.8764 11.8428 13.2398C11.8428 12.6031 11.3266 12.0869 10.6899 12.0869C10.0533 12.0869 9.53711 12.6031 9.53711 13.2398C9.53711 13.8764 10.0533 14.3926 10.6899 14.3926Z"
			fill="#34A853"
		/>
<path
			d="M13.6593 5.79955C14.3925 5.79955 14.9868 5.20521 14.9868 4.47204C14.9868 3.73888 14.3925 3.14453 13.6593 3.14453C12.9261 3.14453 12.3318 3.73888 12.3318 4.47204C12.3318 5.20521 12.9261 5.79955 13.6593 5.79955Z"
			fill="#4285F4"
		/>
<path
			d="M1.71175 5.17082C2.09763 5.17082 2.41044 4.858 2.41044 4.47213C2.41044 4.08625 2.09763 3.77344 1.71175 3.77344C1.32588 3.77344 1.01306 4.08625 1.01306 4.47213C1.01306 4.858 1.32588 5.17082 1.71175 5.17082Z"
			fill="#4285F4"
		/>
<path
			d="M1.71175 8.66398C2.09763 8.66398 2.41044 8.35117 2.41044 7.96529C2.41044 7.57942 2.09763 7.2666 1.71175 7.2666C1.32588 7.2666 1.01306 7.57942 1.01306 7.96529C1.01306 8.35117 1.32588 8.66398 1.71175 8.66398Z"
			fill="#4285F4"
		/>
<path
			d="M1.71175 12.1571C2.09763 12.1571 2.41044 11.8443 2.41044 11.4585C2.41044 11.0726 2.09763 10.7598 1.71175 10.7598C1.32588 10.7598 1.01306 11.0726 1.01306 11.4585C1.01306 11.8443 1.32588 12.1571 1.71175 12.1571Z"
			fill="#4285F4"
		/>
<path
			d="M13.6593 9.29272C14.3925 9.29272 14.9868 8.69837 14.9868 7.96521C14.9868 7.23204 14.3925 6.6377 13.6593 6.6377C12.9261 6.6377 12.3318 7.23204 12.3318 7.96521C12.3318 8.69837 12.9261 9.29272 13.6593 9.29272Z"
			fill="#4285F4"
		/>
<path
			d="M13.6593 12.7869C14.3925 12.7869 14.9868 12.1925 14.9868 11.4593C14.9868 10.7262 14.3925 10.1318 13.6593 10.1318C12.9261 10.1318 12.3318 10.7262 12.3318 11.4593C12.3318 12.1925 12.9261 12.7869 13.6593 12.7869Z"
			fill="#4285F4"
		/>
</g>
<defs>
<clipPath id="clip0_587_6743">
<rect width="16" height="16" fill="white" />
</clipPath>
</defs>
</svg>
