<svg
	width="24"
	height="18"
	viewBox="0 0 24 18"
	fill="none"
	xmlns="http://www.w3.org/2000/svg"
>
<path
		fill-rule="evenodd"
		clip-rule="evenodd"
		d="M9 0C9.15414 6.55797e-05 9.30451 0.0476192 9.43065 0.13619C9.5568 0.224761 9.65259 0.350047 9.705 0.495L15 15.054L17.295 8.742C17.3479 8.59761 17.4439 8.47297 17.57 8.38496C17.6961 8.29696 17.8462 8.24984 18 8.25H23.25C23.4489 8.25 23.6397 8.32902 23.7803 8.46967C23.921 8.61032 24 8.80109 24 9C24 9.19891 23.921 9.38968 23.7803 9.53033C23.6397 9.67098 23.4489 9.75 23.25 9.75H18.525L15.705 17.505C15.6524 17.6498 15.5566 17.7749 15.4305 17.8633C15.3043 17.9517 15.154 17.9991 15 17.9991C14.846 17.9991 14.6957 17.9517 14.5695 17.8633C14.4434 17.7749 14.3476 17.6498 14.295 17.505L9 2.946L6.705 9.2565C6.65235 9.40117 6.55645 9.52614 6.43032 9.61442C6.3042 9.70271 6.15396 9.75005 6 9.75H0.75C0.551088 9.75 0.360322 9.67098 0.21967 9.53033C0.0790176 9.38968 0 9.19891 0 9C0 8.80109 0.0790176 8.61032 0.21967 8.46967C0.360322 8.32902 0.551088 8.25 0.75 8.25H5.475L8.295 0.495C8.34741 0.350047 8.4432 0.224761 8.56935 0.13619C8.69549 0.0476192 8.84586 6.55797e-05 9 0Z"
		fill="#BD93F9"
	/>
</svg>
