<svg
	width="570"
	height="620"
	viewBox="0 0 570 620"
	fill="none"
	xmlns="http://www.w3.org/2000/svg"
>
<g filter="url(#filter0_d_598_9201)">
<rect y="72" width="75" height="75" rx="15" fill="#272935" />
<path
			d="M36.5747 112.974L41.6162 108.063H54.1397L43.0457 119.157L36.5747 112.974Z"
			fill="#40D0FD"
		/>
<path
			d="M20.8604 109.688L27.1589 116.136L54.1394 88.9307H41.6158L20.8604 109.688Z"
			fill="#41D0FD"
		/>
<path
			d="M30.2642 119.218L36.6527 125.512L43.0457 119.157L36.5747 112.974L30.2642 119.218Z"
			fill="#1FBCFD"
		/>
<path
			d="M36.6523 125.513L43.0453 119.157L53.9833 130.22H41.3893L36.6523 125.513Z"
			fill="#095A9D"
		/>
<path
			d="M36.6523 125.513L42.6088 123.531L40.6018 121.586L36.6523 125.513Z"
			fill="#0E5199"
		/>
</g>
<g filter="url(#filter1_d_598_9201)">
<rect y="189" width="75" height="75" rx="15" fill="#272935" />
<path
			d="M53.66 219.38C52.9952 219.38 52.3576 219.644 51.8875 220.114C51.4173 220.584 51.1533 221.222 51.1533 221.886V233.246C51.1533 233.911 51.4173 234.549 51.8875 235.019C52.3576 235.489 52.9952 235.753 53.66 235.753C54.3248 235.753 54.9624 235.489 55.4325 235.019C55.9027 234.549 56.1667 233.911 56.1667 233.246V221.886C56.1667 221.222 55.9027 220.584 55.4325 220.114C54.9624 219.644 54.3248 219.38 53.66 219.38Z"
			fill="#78C257"
		/>
<path
			d="M21.3402 219.38C20.6754 219.38 20.0378 219.644 19.5677 220.114C19.0976 220.584 18.8335 221.222 18.8335 221.886V233.246C18.8335 233.911 19.0976 234.549 19.5677 235.019C20.0378 235.489 20.6754 235.753 21.3402 235.753C22.005 235.753 22.6426 235.489 23.1126 235.019C23.5827 234.549 23.8468 233.911 23.8468 233.246V221.886C23.8468 221.222 23.5827 220.584 23.1126 220.114C22.6426 219.644 22.005 219.38 21.3402 219.38Z"
			fill="#78C257"
		/>
<path
			d="M25.6602 219.38V236.446C25.6602 236.821 25.7339 237.192 25.8774 237.538C26.0207 237.885 26.2309 238.199 26.4959 238.464C26.7608 238.729 27.0754 238.939 27.4216 239.083C27.7677 239.226 28.1388 239.3 28.5135 239.3H30.3268V245.353C30.3268 246.018 30.5909 246.656 31.061 247.126C31.5311 247.596 32.1687 247.86 32.8335 247.86C33.4983 247.86 34.1359 247.596 34.606 247.126C35.0762 246.656 35.3402 246.018 35.3402 245.353V239.3H39.6602V245.353C39.6602 246.018 39.9242 246.656 40.3943 247.126C40.8644 247.596 41.502 247.86 42.1668 247.86C42.8316 247.86 43.4692 247.596 43.9394 247.126C44.4095 246.656 44.6735 246.018 44.6735 245.353V239.3H46.4868C47.2436 239.3 47.9692 238.999 48.5044 238.464C49.0396 237.929 49.3402 237.203 49.3402 236.446V219.38H25.6602Z"
			fill="#78C257"
		/>
<path
			d="M49.0202 215.834C48.2354 213.201 46.4948 210.956 44.1402 209.54L43.7402 209.3L43.3135 209.087L43.7935 208.26L45.2068 205.594C45.2335 205.518 45.2351 205.435 45.2111 205.358C45.1871 205.281 45.1388 205.214 45.0735 205.167H44.8868C44.8188 205.17 44.7522 205.188 44.6922 205.221C44.6322 205.253 44.5802 205.299 44.5402 205.354L43.1002 207.834L42.6468 208.66L42.2202 208.474L41.7668 208.314C39.0034 207.355 35.997 207.355 33.2335 208.314L32.8068 208.474L32.3535 208.66L31.9002 207.834L30.4602 205.167C30.4356 205.123 30.4027 205.085 30.3633 205.054C30.3239 205.023 30.2788 205 30.2305 204.986C30.1822 204.972 30.1317 204.968 30.0819 204.974C30.0321 204.98 29.9839 204.996 29.9402 205.02C29.8964 205.045 29.8579 205.078 29.8268 205.117C29.7957 205.157 29.7727 205.202 29.7591 205.25C29.7455 205.298 29.7415 205.349 29.7474 205.399C29.7533 205.448 29.769 205.497 29.7935 205.54L31.2068 208.207L31.6868 209.034L31.2602 209.247L30.8602 209.487C28.4942 210.909 26.7587 213.178 26.0068 215.834C25.7987 216.527 25.6822 217.244 25.6602 217.967H49.3402C49.314 217.246 49.2066 216.531 49.0202 215.834ZM32.1668 214.42C31.9559 214.42 31.7496 214.358 31.5742 214.241C31.3988 214.123 31.2621 213.957 31.1814 213.762C31.1006 213.567 31.0795 213.353 31.1206 213.146C31.1618 212.939 31.2634 212.749 31.4126 212.599C31.5618 212.45 31.7518 212.349 31.9587 212.308C32.1656 212.266 32.3802 212.288 32.5751 212.368C32.77 212.449 32.9364 212.586 33.0538 212.761C33.1708 212.937 33.2335 213.143 33.2335 213.354C33.2335 213.637 33.1212 213.908 32.921 214.108C32.721 214.308 32.4498 214.42 32.1668 214.42ZM42.8335 214.42C42.6226 214.42 42.4162 214.358 42.241 214.241C42.0655 214.123 41.9287 213.957 41.8479 213.762C41.7674 213.567 41.746 213.353 41.7874 213.146C41.8284 212.939 41.93 212.749 42.0794 212.599C42.2284 212.45 42.4186 212.349 42.6255 212.308C42.8324 212.266 43.0468 212.288 43.2418 212.368C43.4367 212.449 43.6031 212.586 43.7204 212.761C43.8375 212.937 43.9002 213.143 43.9002 213.354C43.9002 213.637 43.7879 213.908 43.5876 214.108C43.3876 214.308 43.1164 214.42 42.8335 214.42Z"
			fill="#78C257"
		/>
</g>
<g filter="url(#filter2_d_598_9201)">
<rect y="306" width="75" height="75" rx="15" fill="#272935" />
<path
			d="M46.736 319.5C46.8477 319.5 46.9594 319.5 47.0774 319.5C47.3514 322.885 46.0594 325.414 44.4891 327.246C42.9483 329.065 40.8385 330.829 37.426 330.562C37.1984 327.225 38.4925 324.883 40.0607 323.056C41.515 321.353 44.1814 319.837 46.736 319.5Z"
			fill="white"
			fill-opacity="0.8"
		/>
<path
			d="M57.0663 354.734C57.0663 354.767 57.0663 354.797 57.0663 354.829C56.1072 357.733 54.7393 360.222 53.0699 362.532C51.546 364.63 49.6786 367.452 46.3441 367.452C43.4628 367.452 41.5489 365.599 38.596 365.549C35.4723 365.498 33.7544 367.098 30.8984 367.5C30.5717 367.5 30.245 367.5 29.9246 367.5C27.8274 367.197 26.1349 365.536 24.9018 364.04C21.266 359.617 18.4563 353.905 17.9336 346.596C17.9336 345.879 17.9336 345.165 17.9336 344.448C18.1549 339.216 20.6969 334.963 24.0756 332.902C25.8588 331.806 28.3101 330.872 31.0396 331.289C32.2094 331.47 33.4045 331.871 34.4521 332.267C35.4449 332.649 36.6863 333.325 37.8625 333.289C38.6592 333.266 39.4517 332.851 40.2548 332.558C42.607 331.709 44.9129 330.735 47.9523 331.192C51.605 331.744 54.1976 333.367 55.7995 335.871C52.7095 337.838 50.2666 340.801 50.684 345.862C51.0549 350.459 53.7276 353.149 57.0663 354.734Z"
			fill="white"
			fill-opacity="0.8"
		/>
</g>
<g filter="url(#filter3_d_598_9201)">
<rect y="423" width="75" height="75" rx="15" fill="#272935" />
<path
			d="M37.5 464.211C39.5711 464.211 41.25 462.532 41.25 460.461C41.25 458.39 39.5711 456.711 37.5 456.711C35.4289 456.711 33.75 458.39 33.75 460.461C33.75 462.532 35.4289 464.211 37.5 464.211Z"
			fill="#00D8FF"
		/>
<path
			d="M37.5 469.059C32.9927 469.168 28.4967 468.56 24.18 467.259C22.1859 466.627 20.3261 465.631 18.6945 464.322C18.0719 463.875 17.5534 463.298 17.1746 462.632C16.7958 461.965 16.5657 461.225 16.5 460.461C16.5 457.981 19.224 455.551 23.787 453.961C28.2191 452.553 32.8499 451.87 37.5 451.939C42.0881 451.875 46.6568 452.546 51.033 453.925C52.9534 454.538 54.7502 455.485 56.34 456.724C56.952 457.151 57.4627 457.706 57.8359 458.352C58.2092 458.998 58.4359 459.718 58.5 460.461C58.5 463.038 55.455 465.649 50.55 467.272C46.3169 468.531 41.9157 469.134 37.5 469.059ZM37.5 453.733C33.0512 453.674 28.6212 454.323 24.3765 455.656C20.1765 457.122 18.294 459.126 18.294 460.456C18.294 461.848 20.3175 464.037 24.7605 465.556C28.8901 466.795 33.1899 467.372 37.5 467.265C41.7246 467.34 45.9359 466.769 49.9875 465.57C54.6 464.041 56.7 461.85 56.7 460.461C56.6243 459.984 56.4506 459.528 56.1898 459.122C55.9291 458.716 55.5869 458.369 55.185 458.101C53.7626 457.002 52.1575 456.162 50.4435 455.62C46.257 454.306 41.8875 453.669 37.5 453.733Z"
			fill="#00D8FF"
		/>
<path
			d="M28.9799 479.165C28.2802 479.181 27.5887 479.011 26.9759 478.673C24.8279 477.434 24.0839 473.861 24.9854 469.113C25.9794 464.57 27.7016 460.217 30.0854 456.224C32.3215 452.217 35.1842 448.595 38.5649 445.493C40.0546 444.135 41.7732 443.052 43.6409 442.293C44.3164 441.977 45.0534 441.812 45.7994 441.812C46.5455 441.812 47.2824 441.977 47.9579 442.293C50.1914 443.58 50.9309 447.522 49.8884 452.582C48.8637 456.879 47.1862 460.993 44.9144 464.781C42.757 468.74 39.9845 472.331 36.7004 475.421C35.1566 476.832 33.3649 477.945 31.4159 478.704C30.6356 478.994 29.812 479.149 28.9799 479.165ZM31.6394 457.115C29.3655 460.939 27.7149 465.1 26.7494 469.443C25.9199 473.816 26.7164 476.445 27.8744 477.114C29.0744 477.809 31.9874 477.15 35.5244 474.06C38.6594 471.101 41.3058 467.663 43.3649 463.875C45.5413 460.253 47.1504 456.32 48.1364 452.211C49.1174 447.449 48.2699 444.533 47.0669 443.84C46.616 443.667 46.1342 443.59 45.6519 443.613C45.1696 443.636 44.6973 443.758 44.2649 443.973C42.6024 444.659 41.074 445.633 39.7499 446.85C36.5199 449.821 33.7854 453.29 31.6499 457.124L31.6394 457.115Z"
			fill="#00D8FF"
		/>
<path
			d="M46.0156 479.184C43.9831 479.184 41.4016 477.954 38.7136 475.642C35.2736 472.512 32.3625 468.847 30.0931 464.787C27.7392 460.849 26.0306 456.559 25.0321 452.08C24.599 450.11 24.5188 448.079 24.7951 446.08C24.8589 445.339 25.0847 444.621 25.4563 443.976C25.828 443.332 26.3365 442.777 26.9461 442.35C29.1766 441.058 32.9611 442.386 36.8236 445.815C40.0345 448.848 42.7612 452.356 44.9086 456.216C47.261 460.062 48.9875 464.258 50.0236 468.646C50.4752 470.689 50.5449 472.798 50.2291 474.865C50.1539 475.628 49.9147 476.365 49.5279 477.027C49.1411 477.688 48.6158 478.258 47.9881 478.698C47.3853 479.032 46.7045 479.2 46.0156 479.184ZM31.6456 463.884C33.8227 467.764 36.6035 471.272 39.8836 474.277C43.2571 477.18 45.9331 477.804 47.0836 477.127C48.2836 476.43 49.1686 473.583 48.2566 468.976C47.2574 464.787 45.6014 460.782 43.3501 457.11C41.3008 453.416 38.6982 450.057 35.6326 447.15C31.9966 443.922 29.0476 443.2 27.8461 443.896C27.4716 444.201 27.1643 444.579 26.9435 445.009C26.7228 445.438 26.5934 445.908 26.5636 446.389C26.3251 448.172 26.4028 449.982 26.7931 451.737C27.7535 456.02 29.3922 460.121 31.6471 463.887L31.6456 463.884Z"
			fill="#00D8FF"
		/>
</g>
<g filter="url(#filter4_dd_598_9201)">
<rect
			x="231.25"
			y="231.25"
			width="107.5"
			height="107.5"
			rx="15"
			fill="#272935"
		/>
<path
			d="M284.998 275.257C288.385 273.53 291.877 271.959 295.469 270.536C284.449 263.073 285.547 263.073 274.528 270.536C278.12 271.959 281.61 273.53 284.999 275.257M278.148 258.282C280.484 259.265 282.768 260.323 284.999 261.461C287.232 260.323 289.515 259.265 291.85 258.282C285.248 252.573 284.749 252.573 278.147 258.282M267.952 268.133C269.094 268.516 270.225 268.912 271.348 269.323C274.746 266.938 278.277 264.748 281.934 262.745L281.966 262.728C273.499 258.587 272.948 260.107 267.952 268.133ZM264.59 274.469C265.911 273.38 267.255 272.323 268.622 271.3C265.557 270.227 265.815 271.719 264.59 274.469ZM262.501 280.009C262.449 280.176 262.397 280.345 262.346 280.513C265.409 281.398 268.412 282.378 271.35 283.454C274.748 281.069 278.278 278.879 281.936 276.876L281.967 276.859C271.544 271.761 271.016 272.248 262.501 280.009ZM260.5 292.146C263.111 289.765 265.82 287.528 268.622 285.431C260.406 282.554 260.578 283.484 260.5 292.146ZM260.828 297.097C262.118 305.807 262.789 303.928 268.622 299.56C266.073 298.668 263.474 297.846 260.828 297.097ZM264.336 306.634C270.629 316.103 273.991 309.487 281.934 305.136L281.966 305.119C278.671 303.509 275.277 302.042 271.787 300.716C269.224 302.572 266.74 304.543 264.336 306.634ZM273.176 313.858C276.422 315.229 280.339 316 284.999 316C289.659 316 293.58 315.23 296.822 313.858C284.45 305.201 285.547 305.201 273.175 313.858M305.662 306.634C303.258 304.543 300.773 302.572 298.211 300.716C294.721 302.042 291.326 303.509 288.033 305.119L288.066 305.136C296.006 309.484 299.375 316.104 305.663 306.634M309.172 297.097C306.526 297.848 303.927 298.668 301.378 299.56C307.208 303.925 307.885 305.809 309.172 297.097ZM309.5 292.146C309.421 283.484 309.594 282.553 301.378 285.431C304.18 287.529 306.889 289.765 309.5 292.146ZM307.656 280.513C307.605 280.345 307.553 280.176 307.5 280.009C298.986 272.248 298.458 271.761 288.034 276.859L288.067 276.876C291.725 278.879 295.255 281.069 298.653 283.454C301.591 282.378 304.592 281.4 307.657 280.513M305.411 274.469C304.186 271.719 304.444 270.227 301.379 271.3C302.746 272.323 304.089 273.38 305.411 274.469ZM302.049 268.133C297.052 260.107 296.503 258.587 288.036 262.728L288.067 262.745C291.725 264.748 295.255 266.938 298.653 269.323C299.775 268.912 300.908 268.515 302.049 268.133ZM285.002 303.516C288.39 301.789 291.881 300.217 295.473 298.795C284.453 291.332 285.551 291.332 274.533 298.795C278.125 300.218 281.615 301.789 285.004 303.516M271.353 297.583C274.751 295.199 278.281 293.008 281.939 291.006L281.97 290.988C271.305 285.773 270.717 286.562 262.049 294.556C265.217 295.466 268.319 296.473 271.351 297.583M307.957 294.556C299.289 286.562 298.701 285.773 288.036 290.988L288.069 291.006C291.726 293.008 295.257 295.199 298.655 297.583C301.688 296.473 304.789 295.465 307.959 294.556M285.004 289.386C288.391 287.66 291.883 286.087 295.475 284.665C284.455 277.202 285.553 277.202 274.534 284.665C278.126 286.089 281.616 287.66 285.005 289.386"
			fill="#FF79C6"
		/>
</g>
<g filter="url(#filter5_d_598_9201)">
<rect x="495" width="75" height="75" rx="15" fill="#272935" />
<path
			d="M551.76 45.8814C551.659 45.5013 551.496 45.1408 551.277 44.8142C551.324 44.6422 551.36 44.4675 551.384 44.2908C551.539 43.1703 551.151 42.1445 550.419 41.3508C550.022 40.9173 549.597 40.631 549.147 40.4553C549.442 39.191 549.592 37.8971 549.592 36.5988C549.592 36.0058 549.559 35.4249 549.503 34.8527C549.473 34.5669 549.438 34.2819 549.396 33.9977C549.268 33.159 549.076 32.331 548.824 31.5208C548.659 30.9884 548.468 30.4644 548.252 29.9507C547.927 29.1898 547.549 28.4533 547.119 27.7468C546.837 27.2767 546.53 26.8222 546.199 26.3852C546.037 26.1645 545.868 25.949 545.692 25.739C545.171 25.106 544.605 24.5116 543.998 23.9604C543.797 23.7751 543.589 23.5961 543.377 23.4238C543.167 23.2491 542.953 23.08 542.735 22.9168C542.295 22.5895 541.841 22.2825 541.373 21.9967C538.789 20.4273 535.759 19.5273 532.52 19.5273C523.09 19.5273 515.448 27.1702 515.448 36.5994C515.448 37.9142 515.6 39.2244 515.902 40.5039C515.497 40.6798 515.109 40.9539 514.749 41.3505C514.017 42.1438 513.628 43.1658 513.784 44.2863C513.807 44.4643 513.843 44.6405 513.89 44.8138C513.671 45.1406 513.508 45.5013 513.407 45.8814C513.182 46.7366 513.256 47.5078 513.542 48.1835C513.232 49.0667 513.309 50.0072 513.714 50.8248C514.008 51.422 514.43 51.884 514.949 52.2969C515.566 52.7878 516.339 53.2048 517.272 53.6049C518.384 54.0793 519.742 54.525 520.359 54.6885C521.954 55.1013 523.483 55.3631 525.033 55.3758C527.241 55.3963 529.143 54.8771 530.504 53.5483C531.173 53.6302 531.846 53.6713 532.52 53.6709C533.232 53.6694 533.943 53.6246 534.65 53.5368C536.008 54.8741 537.917 55.398 540.133 55.377C541.683 55.3646 543.212 55.1028 544.803 54.6894C545.425 54.5259 546.782 54.0802 547.894 53.6058C548.827 53.2052 549.6 52.7882 550.221 52.298C550.737 51.885 551.158 51.4232 551.452 50.826C551.861 50.0081 551.935 49.0676 551.628 48.1845C551.911 47.5087 551.985 46.7358 551.76 45.8814ZM550.177 48.1263C550.491 48.7209 550.511 49.3927 550.234 50.0184C549.815 50.9666 548.774 51.7136 546.751 52.5155C545.494 53.0143 544.342 53.3332 544.332 53.336C542.668 53.7675 541.164 53.9867 539.861 53.9867C537.705 53.9867 536.1 53.3915 535.082 52.2163C533.361 52.5095 531.604 52.5195 529.88 52.2459C528.861 53.4017 527.265 53.9867 525.127 53.9867C523.824 53.9867 522.32 53.7675 520.656 53.336C520.646 53.3332 519.495 53.0143 518.236 52.5155C516.214 51.7136 515.172 50.9672 514.753 50.0184C514.477 49.3927 514.497 48.7209 514.81 48.1263C514.839 48.071 514.87 48.0172 514.903 47.9651C514.716 47.6831 514.59 47.3645 514.534 47.0302C514.478 46.6961 514.494 46.3539 514.579 46.0262C514.704 45.5531 514.961 45.1597 515.31 44.8772C515.142 44.6008 515.032 44.2933 514.986 43.973C514.885 43.2767 515.116 42.5814 515.636 42.0144C516.041 41.5732 516.614 41.3304 517.248 41.3304H517.264C516.787 39.7987 516.544 38.2033 516.546 36.5988C516.546 27.848 523.64 20.7532 532.392 20.7532C541.144 20.7532 548.239 27.8473 548.239 36.5988C548.24 38.2076 547.996 39.8072 547.515 41.3424C547.591 41.3349 547.666 41.3312 547.74 41.331C548.374 41.331 548.947 41.5738 549.351 42.015C549.871 42.5814 550.102 43.2772 550.002 43.9736C549.956 44.2938 549.846 44.6013 549.678 44.8777C550.027 45.1603 550.284 45.5537 550.408 46.0267C550.494 46.3545 550.51 46.6967 550.454 47.031C550.398 47.3651 550.272 47.6837 550.084 47.9657C550.117 48.0172 550.149 48.071 550.177 48.1263Z"
			fill="white"
		/>
<path
			d="M550.085 47.9659C550.273 47.6839 550.399 47.3654 550.454 47.0313C550.51 46.6969 550.495 46.3548 550.409 46.027C550.284 45.554 550.027 45.1606 549.678 44.878C549.846 44.6016 549.956 44.2941 550.002 43.9739C550.103 43.2775 549.872 42.5823 549.352 42.0153C548.947 41.5741 548.374 41.3313 547.741 41.3313C547.667 41.3313 547.592 41.3352 547.515 41.3427C547.996 39.8075 548.239 38.2081 548.238 36.5995C548.238 27.8485 541.143 20.7539 532.392 20.7539C523.641 20.7539 516.546 27.8478 516.546 36.5995C516.544 38.204 516.786 39.7994 517.264 41.3311H517.247C516.614 41.3311 516.041 41.5737 515.636 42.0149C515.116 42.5813 514.885 43.2773 514.986 43.9735C515.032 44.2938 515.142 44.6014 515.31 44.8778C514.961 45.1602 514.704 45.5536 514.579 46.0266C514.493 46.3546 514.478 46.6968 514.534 47.0311C514.59 47.3652 514.716 47.6839 514.904 47.9659C514.87 48.0181 514.84 48.0719 514.81 48.1272C514.497 48.7218 514.477 49.3936 514.754 50.0193C515.173 50.9674 516.214 51.7145 518.237 52.5164C519.494 53.0151 520.646 53.3341 520.656 53.3369C522.32 53.7683 523.824 53.9875 525.127 53.9875C527.265 53.9875 528.861 53.4025 529.88 52.2468C531.604 52.5203 533.362 52.5102 535.083 52.2171C536.1 53.3924 537.705 53.9875 539.862 53.9875C541.164 53.9875 542.669 53.7683 544.332 53.3369C544.342 53.3341 545.494 53.0151 546.752 52.5164C548.774 51.7145 549.816 50.9674 550.235 50.0193C550.511 49.3936 550.491 48.7218 550.178 48.1272C550.149 48.0715 550.118 48.0175 550.085 47.9659ZM529.151 50.4374C529.063 50.5908 528.969 50.7406 528.869 50.8863C528.606 51.272 528.259 51.5667 527.857 51.7857C527.088 52.2049 526.115 52.3514 525.127 52.3514C523.565 52.3514 521.964 51.9859 521.067 51.7533C521.023 51.7418 515.567 50.2008 516.258 48.889C516.374 48.6683 516.565 48.5802 516.806 48.5802C517.779 48.5802 519.55 50.0284 520.311 50.0284C520.481 50.0284 520.601 49.9561 520.65 49.7795C520.974 48.6162 515.72 48.1272 516.162 46.4427C516.24 46.1446 516.452 46.0234 516.75 46.0234C518.036 46.0233 520.922 48.2847 521.525 48.2847C521.572 48.2847 521.605 48.271 521.623 48.2425C521.625 48.2382 521.628 48.2341 521.63 48.2296C521.914 47.7618 521.751 47.4216 519.81 46.2329L519.624 46.1194C517.488 44.8268 515.989 44.0489 516.842 43.1208C516.94 43.0137 517.079 42.9663 517.248 42.9663C517.448 42.9663 517.69 43.0332 517.957 43.1457C519.085 43.6214 520.649 44.9187 521.302 45.4844C521.405 45.5736 521.507 45.6638 521.608 45.7546C521.608 45.7546 522.435 46.6144 522.935 46.6144C523.05 46.6144 523.148 46.5691 523.214 46.457C523.568 45.8592 519.921 43.0951 519.715 41.9545C519.576 41.1818 519.813 40.7903 520.252 40.7903C520.46 40.7903 520.715 40.8792 520.996 41.0575C521.868 41.6108 523.551 44.5036 524.168 45.629C524.374 46.006 524.727 46.1654 525.045 46.1654C525.675 46.1654 526.168 45.5386 525.103 44.7421C523.501 43.5436 524.063 41.5846 524.827 41.464C524.86 41.4588 524.893 41.4561 524.926 41.4561C525.621 41.4561 525.928 42.6541 525.928 42.6541C525.928 42.6541 526.826 44.9112 528.37 46.4541C529.771 47.8546 529.967 49.0038 529.151 50.4374ZM534.144 50.7018L534.064 50.7113L533.927 50.7269C533.855 50.7344 533.783 50.7415 533.711 50.7481L533.641 50.7544L533.577 50.7599L533.485 50.7672L533.385 50.7745L533.284 50.7811L533.262 50.7826C533.236 50.7841 533.209 50.7858 533.183 50.7871L533.149 50.7889C533.118 50.7906 533.087 50.7921 533.056 50.7934L532.947 50.7981L532.848 50.8015L532.782 50.8034H532.748C532.728 50.8034 532.707 50.8045 532.687 50.8047H532.654C532.633 50.8047 532.613 50.8047 532.592 50.8056L532.508 50.8068H532.391C532.299 50.8068 532.207 50.8058 532.116 50.8039L532.041 50.8023C532.02 50.8023 531.999 50.8013 531.978 50.8006L531.899 50.7983L531.802 50.7946L531.714 50.7906L531.691 50.7897L531.607 50.7854C531.584 50.7841 531.561 50.7829 531.537 50.7813L531.483 50.7781C531.415 50.7738 531.347 50.7691 531.279 50.7638L531.208 50.758C531.178 50.7558 531.148 50.7529 531.118 50.7503C531.083 50.7473 531.048 50.7439 531.013 50.7406C530.954 50.7351 530.895 50.7291 530.837 50.7228H530.834C531.691 48.8112 531.257 47.0258 529.526 45.2958C528.39 44.1616 527.635 42.4868 527.478 42.1191C527.161 41.0307 526.321 39.8208 524.927 39.8208C524.809 39.8208 524.691 39.8301 524.575 39.8485C523.964 39.9447 523.43 40.2963 523.049 40.8254C522.637 40.3133 522.237 39.9063 521.875 39.6764C521.329 39.3304 520.785 39.155 520.254 39.155C519.592 39.155 519.001 39.4268 518.588 39.92L518.578 39.9325C518.57 39.9001 518.562 39.8676 518.554 39.835L518.554 39.8307C518.475 39.4951 518.409 39.1566 518.356 38.816C518.356 38.8137 518.356 38.8114 518.355 38.8092C518.351 38.7835 518.347 38.7576 518.343 38.7319C518.331 38.6558 518.321 38.5795 518.311 38.5032C518.306 38.4685 518.301 38.4338 518.297 38.3991L518.284 38.2951C518.28 38.2604 518.277 38.2289 518.273 38.1959L518.272 38.1876C518.257 38.0526 518.244 37.9176 518.232 37.7823L518.228 37.7303L518.222 37.6418C518.22 37.6176 518.218 37.5933 518.217 37.5689C518.217 37.5631 518.216 37.5574 518.215 37.552C518.211 37.4841 518.207 37.4161 518.203 37.348C518.201 37.3126 518.2 37.2773 518.198 37.2417L518.194 37.1487L518.193 37.1206L518.19 37.0349L518.188 36.962C518.188 36.9329 518.187 36.9038 518.187 36.8748C518.186 36.8457 518.185 36.8138 518.185 36.7831C518.185 36.7523 518.185 36.7219 518.184 36.6914C518.183 36.6606 518.184 36.6301 518.184 36.5995C518.184 28.7521 524.546 22.39 532.394 22.39C540.242 22.39 546.604 28.7519 546.604 36.5995V36.7831C546.604 36.8136 546.603 36.8444 546.603 36.8748C546.603 36.9001 546.602 36.925 546.601 36.9507C546.601 36.9732 546.6 36.9959 546.599 37.0176C546.599 37.0463 546.598 37.075 546.597 37.1037V37.106L546.593 37.2055C546.591 37.2346 546.59 37.2638 546.589 37.2929L546.588 37.3135L546.583 37.4065C546.572 37.6058 546.556 37.8048 546.538 38.0035V38.0059C546.534 38.0386 546.531 38.0712 546.528 38.1038L546.519 38.1809L546.502 38.3316L546.493 38.4079L546.481 38.4978C546.477 38.5304 546.472 38.5632 546.468 38.5956C546.463 38.6322 546.457 38.6686 546.452 38.7049L546.439 38.791L546.424 38.8885C546.418 38.9209 546.413 38.9532 546.407 38.9854C546.4 39.0179 546.396 39.0501 546.39 39.0824C546.379 39.1469 546.367 39.2114 546.355 39.2757C546.336 39.3719 546.316 39.4679 546.296 39.5639L546.276 39.6589C546.269 39.6906 546.262 39.7225 546.255 39.7542C545.855 39.3655 545.325 39.1538 544.741 39.1538C544.211 39.1538 543.666 39.3291 543.12 39.6751C542.758 39.905 542.359 40.3122 541.947 40.8241C541.565 40.2949 541.031 39.9434 540.421 39.8472C540.304 39.8288 540.186 39.8194 540.068 39.8194C538.674 39.8194 537.835 41.0294 537.517 42.1178C537.36 42.4855 536.604 44.1603 535.467 45.2961C533.737 47.0208 533.3 48.7981 534.144 50.7018ZM548.814 46.8751L548.808 46.8918C548.794 46.9295 548.778 46.9662 548.759 47.0018C548.745 47.0281 548.73 47.0536 548.713 47.0783C548.682 47.125 548.648 47.1696 548.61 47.2116C548.602 47.2214 548.593 47.2311 548.584 47.2407C548.57 47.2551 548.557 47.2694 548.542 47.2833C548.29 47.5334 547.905 47.7528 547.47 47.9539C547.421 47.9763 547.371 47.9986 547.321 48.0211L547.27 48.0434C547.237 48.0582 547.203 48.0728 547.168 48.0873C547.134 48.1019 547.099 48.1165 547.065 48.1308L546.96 48.1739C546.715 48.2746 546.465 48.3706 546.22 48.4653L546.115 48.5059L546.012 48.5464C545.943 48.5733 545.875 48.6001 545.809 48.6269L545.709 48.667L545.611 48.707L545.563 48.7272C545.531 48.7405 545.5 48.7538 545.469 48.7671C544.749 49.076 544.231 49.39 544.34 49.7796C544.343 49.7907 544.347 49.8012 544.35 49.8115C544.36 49.8404 544.373 49.8676 544.39 49.8933C544.4 49.9084 544.411 49.9229 544.424 49.936C544.552 50.0689 544.784 50.0479 545.078 49.9424C545.119 49.9272 545.16 49.9114 545.201 49.8949L545.226 49.8844C545.293 49.8559 545.364 49.8241 545.437 49.7896C545.455 49.781 545.473 49.7727 545.492 49.7631C545.851 49.5876 546.257 49.3514 546.661 49.1363C546.822 49.0491 546.986 48.9664 547.152 48.8879C547.534 48.7081 547.893 48.5806 548.182 48.5806C548.317 48.5806 548.437 48.6083 548.537 48.6721L548.554 48.6831C548.616 48.7272 548.669 48.7838 548.708 48.8494C548.716 48.862 548.723 48.8753 548.73 48.889C548.873 49.1599 548.754 49.4404 548.474 49.7155C548.206 49.9797 547.788 50.2386 547.314 50.4783C547.279 50.4961 547.243 50.5139 547.208 50.5313C545.796 51.2247 543.947 51.7469 543.921 51.7535C543.428 51.8811 542.724 52.0488 541.93 52.1742L541.813 52.1926L541.793 52.1954C541.704 52.2089 541.615 52.2215 541.526 52.2331C541.435 52.2453 541.344 52.2563 541.252 52.2666L541.235 52.2685C540.901 52.3069 540.566 52.3325 540.23 52.3446H540.226C540.104 52.349 539.983 52.3512 539.861 52.3512H539.721C539.536 52.3488 539.351 52.3403 539.166 52.3261C539.162 52.3261 539.157 52.3261 539.153 52.3249C539.087 52.3199 539.021 52.3137 538.955 52.3064C538.886 52.2991 538.818 52.2908 538.75 52.2816C538.705 52.2756 538.661 52.2689 538.616 52.2616C538.571 52.2543 538.525 52.2468 538.48 52.2389L538.418 52.2273L538.414 52.2263C538.349 52.2139 538.284 52.2003 538.219 52.1853C538.182 52.1768 538.145 52.1686 538.108 52.1584L538.085 52.1528C538.067 52.1483 538.049 52.1435 538.031 52.1386L538.021 52.1359L537.963 52.1191C537.942 52.1133 537.921 52.1069 537.9 52.1007L537.893 52.0986L537.838 52.082C537.818 52.0756 537.797 52.0688 537.777 52.0621L537.727 52.0454L537.69 52.0324C537.654 52.0199 537.619 52.007 537.583 51.9935L537.55 51.9803L537.523 51.9694C537.469 51.9481 537.416 51.9258 537.364 51.9023L537.329 51.8854L537.324 51.8828C537.311 51.877 537.299 51.8712 537.287 51.8661C537.262 51.8545 537.238 51.8425 537.215 51.8303L537.207 51.8268L537.173 51.8086C537.112 51.7765 537.052 51.7424 536.993 51.7062L536.96 51.6863C536.944 51.6764 536.928 51.6661 536.912 51.6556L536.87 51.6278L536.825 51.5967L536.798 51.5774C536.77 51.5571 536.742 51.5361 536.714 51.5146L536.671 51.481C536.653 51.4669 536.636 51.4527 536.619 51.4383C536.605 51.4265 536.59 51.4141 536.576 51.4017L536.575 51.4008C536.56 51.3874 536.545 51.3741 536.53 51.3604C536.516 51.3471 536.501 51.3336 536.487 51.3199L536.485 51.3183C536.47 51.304 536.456 51.2896 536.441 51.2748C536.427 51.2601 536.412 51.2455 536.398 51.2305C536.384 51.2157 536.369 51.2005 536.356 51.1849C536.342 51.1696 536.329 51.1555 536.316 51.1403L536.311 51.1353C536.299 51.1206 536.286 51.1058 536.274 51.0906C536.247 51.0586 536.221 51.0258 536.196 50.9922C536.17 50.9584 536.146 50.9239 536.122 50.8889L536.098 50.8544C536.068 50.8094 536.038 50.764 536.009 50.7179C535.987 50.6847 535.966 50.6513 535.945 50.6174C535.932 50.5962 535.919 50.5748 535.906 50.5538L535.901 50.5452C535.889 50.5246 535.877 50.5043 535.865 50.4839C535.858 50.4728 535.852 50.4618 535.846 50.4503C535.84 50.4387 535.833 50.4269 535.826 50.4151L535.816 50.3965L535.809 50.3845C535.796 50.362 535.784 50.3393 535.772 50.3165C535.766 50.3063 535.761 50.2962 535.755 50.2864L535.738 50.254L535.722 50.222C535.679 50.1376 535.639 50.0521 535.602 49.9654L535.589 49.9338C535.58 49.9126 535.572 49.8916 535.563 49.8708C535.559 49.8606 535.555 49.8507 535.552 49.8406C535.531 49.7886 535.513 49.7361 535.495 49.6833C535.489 49.6643 535.483 49.6458 535.478 49.627C535.464 49.5844 535.452 49.5415 535.441 49.4982C535.428 49.4478 535.416 49.3969 535.406 49.3458C535.404 49.3354 535.402 49.3251 535.4 49.3152C535.39 49.2651 535.383 49.2147 535.376 49.1641C535.375 49.1541 535.374 49.1442 535.373 49.1343L535.369 49.1039C535.365 49.0641 535.362 49.0242 535.36 48.9843C535.36 48.9741 535.359 48.964 535.359 48.9543C535.358 48.9344 535.358 48.9145 535.357 48.8946C535.347 48.0934 535.752 47.3232 536.619 46.4568C538.163 44.9142 539.062 42.6569 539.062 42.6569C539.062 42.6569 539.086 42.5622 539.137 42.4259C539.143 42.4069 539.151 42.3874 539.159 42.367C539.188 42.2907 539.221 42.2157 539.258 42.1426L539.265 42.1285C539.296 42.0663 539.33 42.0055 539.367 41.9465C539.376 41.9328 539.384 41.9193 539.394 41.9056C539.421 41.8649 539.45 41.8251 539.481 41.7867C539.497 41.7659 539.516 41.7453 539.534 41.7252C539.541 41.7173 539.548 41.7095 539.556 41.702C539.645 41.6095 539.748 41.5341 539.863 41.494L539.878 41.4891C539.888 41.4859 539.897 41.483 539.907 41.4801C539.919 41.4771 539.93 41.4745 539.942 41.4721L539.947 41.4709C539.972 41.4661 539.997 41.4629 540.022 41.4612H540.024C540.037 41.4612 540.05 41.4599 540.063 41.4599C540.08 41.4599 540.095 41.4599 540.112 41.4616C540.128 41.4631 540.145 41.465 540.162 41.4676C540.301 41.4897 540.433 41.5726 540.547 41.7004C540.591 41.7492 540.63 41.8017 540.664 41.8572C540.686 41.8932 540.708 41.9313 540.728 41.9714C540.736 41.9881 540.743 42.0034 540.751 42.0199C540.77 42.0623 540.788 42.1054 540.803 42.1495C540.84 42.2526 540.868 42.3588 540.886 42.4668C540.901 42.5614 540.911 42.6571 540.914 42.7529C540.915 42.8041 540.915 42.856 540.914 42.9083C540.904 43.1517 540.854 43.3919 540.766 43.6193C540.758 43.6401 540.75 43.6611 540.741 43.6821C540.724 43.7245 540.705 43.7661 540.685 43.8068C540.669 43.8378 540.653 43.8689 540.636 43.8998C540.625 43.9205 540.613 43.9411 540.601 43.9617C540.571 44.0131 540.538 44.0641 540.503 44.1149L540.482 44.1453C540.399 44.2608 540.307 44.3691 540.206 44.4693C540.107 44.5688 540 44.6609 539.888 44.7449C539.775 44.8285 539.669 44.9211 539.571 45.0218C539.289 45.3175 539.224 45.5785 539.287 45.7763C539.297 45.8074 539.31 45.8376 539.326 45.8661C539.345 45.8988 539.368 45.9288 539.393 45.9561L539.403 45.9664L539.413 45.9766C539.424 45.9863 539.434 45.9959 539.446 46.0053L539.457 46.0143C539.484 46.0353 539.513 46.054 539.543 46.0705C539.552 46.0752 539.56 46.0799 539.57 46.0844C539.602 46.1003 539.636 46.114 539.671 46.1251C539.68 46.1283 539.69 46.1311 539.699 46.1341L539.712 46.1373L539.728 46.1418L539.743 46.1453L539.759 46.1487L539.774 46.1519L539.789 46.1543C539.8 46.1562 539.811 46.1581 539.822 46.1594L539.833 46.1611L539.853 46.1629L539.865 46.1643L539.884 46.1656H539.896L539.917 46.1667H539.981L540 46.1656L540.021 46.1643L540.047 46.1618L540.072 46.159C540.077 46.159 540.083 46.1575 540.089 46.1564C540.164 46.1455 540.237 46.1256 540.307 46.0971L540.337 46.0846C540.354 46.0773 540.371 46.0696 540.386 46.0613C540.419 46.0448 540.451 46.0261 540.482 46.0056C540.525 45.9775 540.565 45.946 540.603 45.9113C540.612 45.9033 540.621 45.8946 540.63 45.8864C540.634 45.8823 540.638 45.8783 540.642 45.8738C540.651 45.8654 540.659 45.8571 540.667 45.8479C540.727 45.7819 540.779 45.7092 540.822 45.631C541.189 44.9637 541.573 44.3063 541.975 43.6596L542.03 43.5713L542.086 43.483C542.114 43.4382 542.142 43.3941 542.17 43.3503L542.198 43.3064C542.291 43.1601 542.386 43.0148 542.483 42.8706L542.54 42.7851C542.655 42.6151 542.769 42.4497 542.883 42.2926L542.939 42.2148C543.062 42.0447 543.191 41.8782 543.324 41.7158L543.377 41.6524C543.386 41.6419 543.394 41.6314 543.403 41.6213C543.421 41.6007 543.438 41.5806 543.455 41.5611C543.464 41.5512 543.472 41.5414 543.481 41.5317L543.532 41.4751L543.557 41.4475C543.582 41.4203 543.607 41.3943 543.631 41.3693C543.648 41.3524 543.664 41.3358 543.68 41.32C543.775 41.2229 543.88 41.1357 543.993 41.0601L544.019 41.0433C544.044 41.0264 544.07 41.0106 544.097 40.9964C544.54 40.7448 544.907 40.7262 545.118 40.9375C545.246 41.0654 545.317 41.2774 545.313 41.5726C545.313 41.5855 545.313 41.5986 545.312 41.6121V41.6266C545.312 41.6401 545.311 41.6536 545.31 41.6673C545.31 41.6841 545.308 41.7008 545.306 41.7177C545.305 41.7344 545.304 41.7471 545.302 41.7621C545.302 41.7663 545.301 41.7706 545.3 41.7751C545.299 41.788 545.298 41.8013 545.296 41.8146C545.296 41.8186 545.296 41.8227 545.294 41.8268C545.292 41.8446 545.29 41.8623 545.287 41.8799C545.284 41.8968 545.282 41.9125 545.279 41.929L545.274 41.957C545.269 41.9836 545.263 42.0098 545.255 42.0357C545.24 42.0843 545.223 42.1317 545.202 42.1778C545.173 42.2412 545.141 42.3029 545.106 42.3629C545.086 42.3963 545.066 42.4291 545.045 42.4615C545.024 42.4951 545.001 42.529 544.978 42.5633C544.919 42.6481 544.857 42.7311 544.793 42.8123L544.764 42.8493C544.66 42.9792 544.552 43.1065 544.441 43.2308L544.406 43.2702C544.359 43.3229 544.311 43.3759 544.262 43.4292L544.225 43.4693C544.2 43.4961 544.175 43.523 544.15 43.55C544.125 43.5768 544.1 43.604 544.074 43.6311L543.997 43.7123L543.919 43.7941L543.84 43.8758C543.787 43.9306 543.734 43.9853 543.68 44.0401C542.92 44.8199 542.119 45.5971 541.848 46.0816C541.83 46.1131 541.813 46.1457 541.799 46.1789C541.76 46.267 541.744 46.3424 541.755 46.4033C541.759 46.4234 541.766 46.4425 541.776 46.4601C541.791 46.4866 541.81 46.5109 541.831 46.5327C541.841 46.5424 541.852 46.5514 541.863 46.5597C541.919 46.5994 541.986 46.6199 542.055 46.618H542.076L542.098 46.6163L542.12 46.6139L542.138 46.6113C542.14 46.6109 542.143 46.6105 542.146 46.6098L542.162 46.6066L542.167 46.6056L542.185 46.6017L542.192 46.6C542.198 46.5983 542.205 46.5966 542.211 46.5948C542.218 46.5929 542.227 46.5904 542.235 46.5878C542.268 46.5779 542.3 46.5661 542.332 46.5526C542.348 46.5458 542.365 46.5385 542.381 46.5306C542.389 46.5269 542.398 46.523 542.405 46.5188L542.431 46.5064C542.491 46.4753 542.549 46.4414 542.606 46.405L542.631 46.3881C542.639 46.3829 542.648 46.3774 542.656 46.3714L542.681 46.3548L542.694 46.3456L542.73 46.3203C542.764 46.2972 542.795 46.2734 542.827 46.2492L542.83 46.2469L542.88 46.2079C542.949 46.1536 543.014 46.0988 543.073 46.0473L543.113 46.0128L543.116 46.0094L543.137 45.9912C543.185 45.9477 543.228 45.9072 543.264 45.8738L543.279 45.8594C543.292 45.8472 543.304 45.8358 543.314 45.826L543.335 45.8052L543.343 45.7979L543.345 45.7958L543.367 45.7739L543.381 45.7594L543.382 45.7581L543.389 45.7521L543.397 45.7446L543.4 45.7422L543.407 45.7358L543.445 45.7023L543.466 45.6831C543.478 45.6732 543.489 45.6631 543.5 45.6528L543.526 45.6301C543.53 45.6263 543.535 45.6222 543.539 45.6181L543.566 45.5946L543.606 45.5599L543.627 45.5418C543.708 45.4709 543.807 45.3852 543.921 45.2886L543.968 45.2491L544.045 45.1844L544.124 45.1186C544.227 45.0329 544.338 44.9419 544.456 44.8476L544.533 44.7858C544.598 44.7334 544.666 44.6802 544.734 44.6266C544.761 44.605 544.789 44.5834 544.818 44.5621C544.888 44.5079 544.958 44.4541 545.028 44.401C545.189 44.2795 545.355 44.1578 545.523 44.0393L545.595 43.9891C545.646 43.9544 545.696 43.9195 545.746 43.8856L545.792 43.8548C545.881 43.7939 545.973 43.7344 546.064 43.6765L546.11 43.6478L546.155 43.6197C546.201 43.5916 546.246 43.564 546.29 43.5372L546.335 43.5104L546.425 43.4583L546.513 43.4078L546.531 43.3981L546.6 43.3598C546.629 43.3441 546.658 43.3289 546.687 43.3141L546.73 43.2919L546.772 43.2709C546.786 43.264 546.801 43.2567 546.815 43.2498C546.909 43.2033 547.005 43.1605 547.103 43.1215C547.129 43.1103 547.155 43.1001 547.181 43.0913L547.258 43.0643C547.281 43.0566 547.304 43.0493 547.325 43.0428L547.333 43.0405C547.345 43.0368 547.356 43.0334 547.368 43.0304L547.371 43.0295C547.395 43.0225 547.419 43.0165 547.442 43.0109H547.444C547.51 42.995 547.578 42.9835 547.646 42.9766C547.677 42.9734 547.708 42.9717 547.74 42.9719H547.756C547.777 42.9719 547.797 42.9732 547.817 42.9753C547.826 42.9753 547.835 42.9771 547.844 42.9783H547.848C547.857 42.9794 547.866 42.9807 547.875 42.9828C547.884 42.9844 547.893 42.9859 547.902 42.988H547.904C547.913 42.9899 547.921 42.9921 547.93 42.9948C547.978 43.0081 548.023 43.0287 548.065 43.0557C548.085 43.069 548.104 43.084 548.122 43.1007L548.127 43.1056C548.131 43.1086 548.134 43.1118 548.137 43.1149L548.146 43.1249C548.221 43.2038 548.284 43.2944 548.33 43.393L548.338 43.4099C548.353 43.4474 548.366 43.4862 548.375 43.5258C548.402 43.6469 548.391 43.7733 548.345 43.8886C548.328 43.9351 548.307 43.9799 548.282 44.0226C548.224 44.1209 548.154 44.2122 548.076 44.2949L548.059 44.3127C548.034 44.3389 548.008 44.3652 547.981 44.3914C547.969 44.4033 547.957 44.4149 547.944 44.4267L547.906 44.4621L547.885 44.4799C547.837 44.5231 547.787 44.5649 547.737 44.6054C547.706 44.6301 547.676 44.6543 547.645 44.6781C547.535 44.7621 547.423 44.8431 547.309 44.9213C547.24 44.9686 547.171 45.0149 547.101 45.0606C546.928 45.1737 546.754 45.2839 546.578 45.3912C546.209 45.6181 545.8 45.8607 545.364 46.1245L545.251 46.1929C545.128 46.2683 545.011 46.3403 544.901 46.4089L544.846 46.4436L544.741 46.5108C544.672 46.5552 544.603 46.6 544.534 46.6448L544.478 46.6816C544.451 46.6992 544.424 46.7172 544.397 46.7352L544.37 46.7521L544.289 46.8066L544.246 46.8361L544.196 46.8709L544.15 46.9034C544.071 46.9587 543.999 47.0114 543.932 47.0615L543.907 47.0806C543.867 47.1104 543.828 47.1408 543.79 47.1717C543.732 47.2184 543.679 47.263 543.631 47.306L543.608 47.3271C543.595 47.3393 543.582 47.3515 543.569 47.3635C543.561 47.3719 543.553 47.3804 543.544 47.3884L543.532 47.4004C543.505 47.4274 543.478 47.455 543.453 47.4833L543.441 47.4976C543.413 47.5294 543.389 47.56 543.368 47.5898L543.359 47.6031C543.342 47.6271 543.327 47.6519 543.313 47.6774C543.31 47.6838 543.307 47.6901 543.304 47.6965L543.294 47.7156L543.288 47.7295L543.284 47.7389L543.281 47.7473L543.277 47.7588C543.265 47.7904 543.257 47.8234 543.252 47.8568L543.251 47.8685L543.25 47.8793V47.9384C543.25 47.9433 543.25 47.9481 543.251 47.9534L543.252 47.9624C543.252 47.9673 543.253 47.972 543.254 47.9772C543.255 47.9821 543.256 47.9909 543.257 47.9978V47.9988C543.259 48.0053 543.26 48.0117 543.262 48.0183C543.263 48.0248 543.265 48.0323 543.267 48.0391C543.271 48.0524 543.275 48.0655 543.28 48.0786C543.283 48.0865 543.286 48.0942 543.289 48.1019C543.289 48.1034 543.29 48.1051 543.291 48.1066L543.298 48.1218L543.307 48.1426C543.317 48.1641 543.328 48.1851 543.34 48.2056L543.352 48.2269L543.365 48.2483C543.367 48.2519 543.37 48.2553 543.373 48.2585L543.377 48.2628L543.382 48.2671L543.387 48.2708C543.394 48.2759 543.401 48.2798 543.409 48.2826C543.414 48.2841 543.418 48.2853 543.423 48.2864C543.531 48.3108 543.753 48.2213 544.049 48.0653C544.066 48.0563 544.084 48.0469 544.102 48.0372L544.192 47.9881L544.236 47.9637C544.267 47.947 544.299 47.9281 544.331 47.9095L544.391 47.8759C544.781 47.6511 545.248 47.3624 545.73 47.0804C545.775 47.0539 545.821 47.0275 545.866 47.0014L545.957 46.9431C546.063 46.8826 546.169 46.8228 546.276 46.7637C546.41 46.6898 546.546 46.6178 546.682 46.5481L546.772 46.5029C546.831 46.4736 546.89 46.4451 546.948 46.4174C547.06 46.3641 547.173 46.3135 547.288 46.2657L547.351 46.2402L547.358 46.2372C547.691 46.1054 547.993 46.024 548.237 46.024C548.29 46.0234 548.342 46.0279 548.394 46.0369H548.396C548.413 46.0399 548.428 46.0433 548.443 46.0471H548.446C548.486 46.0572 548.525 46.0716 548.562 46.0902C548.613 46.1168 548.66 46.1523 548.699 46.195C548.717 46.2149 548.733 46.2365 548.747 46.2593C548.773 46.2996 548.794 46.3433 548.809 46.3891C548.815 46.4069 548.82 46.4243 548.825 46.4429C548.865 46.5848 548.861 46.7354 548.814 46.8751Z"
			fill="#FF9D00"
		/>
<path
			fill-rule="evenodd"
			clip-rule="evenodd"
			d="M546.602 36.691V36.599C546.602 28.7513 540.242 22.3896 532.394 22.3896C524.546 22.3896 518.184 28.7517 518.184 36.599V36.6297C518.183 36.6501 518.183 36.6706 518.184 36.691C518.185 36.7216 518.185 36.7521 518.185 36.7827L518.186 36.8502L518.186 36.8744C518.186 36.8856 518.187 36.8967 518.187 36.908C518.188 36.9258 518.188 36.9438 518.188 36.9616L518.19 37.0345L518.193 37.1202L518.194 37.1483L518.198 37.237V37.2413C518.199 37.276 518.201 37.3105 518.203 37.345L518.203 37.3476C518.205 37.3829 518.207 37.4183 518.209 37.4538C518.211 37.4864 518.213 37.519 518.215 37.5516L518.216 37.5575C518.217 37.5854 518.219 37.6135 518.221 37.6415L518.222 37.649L518.228 37.73L518.228 37.7352C518.23 37.751 518.231 37.7667 518.232 37.7819C518.243 37.9171 518.257 38.0523 518.271 38.1871L518.272 38.1955L518.284 38.2947L518.297 38.3988L518.306 38.4695L518.31 38.5026C518.32 38.5791 518.331 38.6555 518.343 38.7316L518.343 38.7366L518.354 38.8087C518.408 39.1516 518.474 39.4925 518.553 39.8305L518.554 39.8347L518.56 39.86L518.577 39.9321L518.588 39.9196C519 39.4265 519.592 39.1546 520.254 39.1546C520.785 39.1546 521.329 39.3301 521.875 39.676C522.236 39.9059 522.637 40.313 523.048 40.825C523.429 40.2959 523.963 39.9441 524.574 39.8481C524.691 39.8298 524.808 39.8206 524.926 39.8204C526.321 39.8204 527.16 41.0303 527.478 42.1188C527.634 42.4865 528.39 44.1612 529.529 45.2941C531.261 47.0241 531.694 48.8093 530.837 50.7209H530.84C530.898 50.7275 530.957 50.7335 531.016 50.7389C531.051 50.7423 531.086 50.7456 531.121 50.7486L531.134 50.7498L531.211 50.7563L531.282 50.762C531.35 50.7672 531.418 50.7721 531.487 50.7764L531.541 50.7796L531.584 50.7822L531.61 50.7837L531.694 50.788L531.717 50.789L531.805 50.7929L531.903 50.7966L531.981 50.7989L531.995 50.7993C532.011 50.8 532.028 50.8006 532.045 50.8006L532.063 50.8011C532.173 50.8038 532.284 50.8051 532.394 50.8049H532.512L532.595 50.804C532.616 50.803 532.637 50.803 532.657 50.803H532.69L532.718 50.8023C532.729 50.8019 532.74 50.8015 532.752 50.8015H532.785L532.851 50.7998L532.95 50.7965L533.059 50.7916C533.09 50.7905 533.122 50.7888 533.153 50.7873L533.186 50.7852L533.236 50.7826L533.265 50.7809L533.288 50.7794L533.388 50.7728L533.489 50.7655L533.58 50.7582L533.644 50.7528L533.715 50.7464C533.832 50.7359 533.95 50.7235 534.067 50.7095L534.147 50.6999C533.304 48.7964 533.74 47.0189 535.465 45.2958C536.602 44.1599 537.357 42.4851 537.515 42.1173C537.832 41.029 538.671 39.8191 540.066 39.8191C540.184 39.8191 540.302 39.8285 540.418 39.8468C541.028 39.9428 541.562 40.2946 541.944 40.8237C542.356 40.3118 542.756 39.9044 543.118 39.6745C543.663 39.3288 544.208 39.1533 544.738 39.1533C545.323 39.1533 545.852 39.3652 546.252 39.7538C546.259 39.7222 546.266 39.6905 546.273 39.6586L546.294 39.5637C546.301 39.529 546.308 39.4943 546.315 39.4597C546.328 39.3983 546.34 39.337 546.352 39.2751C546.364 39.211 546.376 39.1465 546.387 39.082L546.393 39.0472C546.397 39.0265 546.4 39.0059 546.404 38.9851C546.41 38.9528 546.416 38.9206 546.421 38.888L546.423 38.8756L546.436 38.7906L546.449 38.7046V38.7038C546.459 38.6403 546.468 38.5767 546.476 38.5131L546.479 38.4974L546.49 38.4078L546.5 38.3313L546.517 38.1805L546.523 38.12L546.525 38.1035C546.529 38.0708 546.532 38.0382 546.535 38.0056V38.003C546.537 37.9771 546.54 37.951 546.542 37.925C546.556 37.7772 546.567 37.6287 546.576 37.4796C546.578 37.4553 546.579 37.4307 546.58 37.4061V37.405L546.585 37.313L546.586 37.2923C546.589 37.2301 546.592 37.1678 546.594 37.1056V37.1033L546.595 37.079C546.596 37.0585 546.597 37.0379 546.597 37.0173L546.597 37.009C546.598 36.9897 546.599 36.9698 546.599 36.9501L546.599 36.9333C546.6 36.9136 546.6 36.8941 546.6 36.8744L546.601 36.8577C546.601 36.8328 546.602 36.8076 546.602 36.7827V36.691ZM528.869 50.8859C529.995 49.2357 529.915 47.9971 528.371 46.454C526.827 44.9106 525.928 42.6539 525.928 42.6539C525.928 42.6539 525.593 41.3431 524.828 41.4635C524.063 41.5838 523.502 43.5426 525.103 44.7417C526.705 45.9408 524.785 46.7538 524.168 45.6286C523.552 44.5032 521.868 41.6106 520.996 41.0573C520.123 40.504 519.509 40.8142 519.715 41.9545C519.817 42.5206 520.768 43.4868 521.655 44.3894C522.556 45.3051 523.393 46.1557 523.214 46.4566C522.859 47.0542 521.609 45.7544 521.609 45.7544C521.609 45.7544 517.694 42.1923 516.842 43.1206C516.057 43.9761 517.268 44.7035 519.135 45.8245C519.294 45.9198 519.457 46.018 519.625 46.1193C521.76 47.4123 521.927 47.7533 521.623 48.2425C521.511 48.4233 520.796 47.9941 519.917 47.4663C518.418 46.5661 516.441 45.3794 516.162 46.4416C515.921 47.3609 517.375 47.9242 518.694 48.4351C519.793 48.8607 520.798 49.25 520.65 49.7783C520.496 50.3262 519.666 49.8693 518.758 49.3698C517.739 48.809 516.623 48.1947 516.257 48.8879C515.567 50.1985 521.022 51.7415 521.067 51.7529C522.829 52.21 527.305 53.1787 528.869 50.8859ZM536.119 50.8859C534.994 49.2357 535.074 47.9971 536.618 46.454C538.162 44.9106 539.06 42.6539 539.06 42.6539C539.06 42.6539 539.396 41.3431 540.161 41.4635C540.926 41.5838 541.487 43.5426 539.885 44.7417C538.284 45.9408 540.204 46.7538 540.821 45.6286C541.437 44.5032 543.119 41.6106 543.992 41.0573C544.865 40.504 545.479 40.8142 545.273 41.9545C545.171 42.5206 544.22 43.4868 543.332 44.3896C542.432 45.3053 541.595 46.1557 541.774 46.4566C542.129 47.0542 543.38 45.7536 543.38 45.7536C543.38 45.7536 547.294 42.1917 548.146 43.12C548.932 43.9754 547.72 44.7029 545.853 45.824C545.69 45.922 545.527 46.0203 545.364 46.1187C543.228 47.4117 543.062 47.7528 543.365 48.2418C543.477 48.4227 544.192 47.9933 545.071 47.4655C546.571 46.5655 548.547 45.3786 548.826 46.441C549.068 47.3603 547.614 47.9236 546.295 48.4345C545.196 48.8601 544.191 49.2494 544.339 49.7778C544.492 50.3255 545.322 49.8685 546.23 49.369C547.249 48.8082 548.365 48.1936 548.731 48.8873C549.421 50.1987 543.965 51.7401 543.921 51.7514C542.159 52.21 537.683 53.1787 536.119 50.8859Z"
			fill="#FFD21E"
		/>
<path
			fill-rule="evenodd"
			clip-rule="evenodd"
			d="M537.009 32.7316C537.23 32.81 537.395 33.0485 537.552 33.2755C537.764 33.5823 537.961 33.8678 538.264 33.707C538.621 33.517 538.913 33.2257 539.105 32.8694C539.296 32.5132 539.378 32.1083 539.339 31.7058C539.31 31.4048 539.215 31.114 539.06 30.8543C538.905 30.5946 538.695 30.3725 538.444 30.2039C538.193 30.0354 537.907 29.9247 537.608 29.8797C537.309 29.8347 537.004 29.8566 536.715 29.9438C536.425 30.031 536.159 30.1813 535.934 30.3838C535.71 30.5863 535.533 30.8361 535.417 31.1152C535.3 31.3942 535.247 31.6956 535.261 31.9975C535.276 32.2996 535.357 32.5945 535.499 32.8615C535.639 33.1253 535.95 33.0008 536.278 32.8694C536.536 32.7665 536.804 32.6592 537.009 32.7316ZM527.376 32.7316C527.154 32.81 526.99 33.0487 526.833 33.2755C526.621 33.5825 526.423 33.8678 526.121 33.707C525.672 33.4692 525.328 33.0727 525.155 32.5949C524.983 32.1171 524.994 31.5921 525.188 31.1223C525.381 30.6525 525.743 30.2716 526.201 30.0538C526.66 29.836 527.184 29.797 527.67 29.9442C528.058 30.0608 528.401 30.2895 528.659 30.6015C528.916 30.9135 529.075 31.2947 529.115 31.697C529.156 32.0992 529.076 32.5045 528.886 32.8615C528.746 33.1253 528.435 33.0008 528.106 32.8696C527.849 32.7665 527.581 32.6592 527.376 32.7316ZM535.519 41.4974C537.045 40.2946 537.606 38.3307 537.606 37.121C537.606 36.1647 536.963 36.4657 535.933 36.9757L535.875 37.0043C534.929 37.4725 533.671 38.096 532.289 38.096C530.908 38.096 529.649 37.4725 528.704 37.0042C527.641 36.4775 526.974 36.1471 526.974 37.1212C526.974 38.3692 527.57 40.4183 529.208 41.6088C529.424 41.1702 529.729 40.781 530.102 40.4652C530.475 40.1495 530.91 39.9142 531.378 39.7739C531.542 39.7252 531.71 40.0066 531.883 40.2948C532.049 40.5727 532.219 40.8569 532.392 40.8569C532.576 40.8569 532.757 40.5768 532.934 40.3034C533.119 40.0175 533.299 39.739 533.473 39.7947C534.349 40.0762 535.083 40.6865 535.519 41.4974Z"
			fill="#32343D"
		/>
<path
			d="M535.518 41.4966C534.723 42.1232 533.666 42.5434 532.29 42.5434C530.996 42.5434 529.985 42.1726 529.208 41.608C529.424 41.1694 529.729 40.78 530.102 40.4644C530.475 40.1487 530.91 39.9134 531.378 39.7731C531.699 39.6773 532.04 40.8561 532.392 40.8561C532.769 40.8561 533.132 39.685 533.473 39.7939C534.349 40.0756 535.082 40.6859 535.518 41.4966Z"
			fill="#FF323D"
		/>
<path
			fill-rule="evenodd"
			clip-rule="evenodd"
			d="M523.725 34.4323C523.543 34.5538 523.335 34.6287 523.117 34.65C522.9 34.6716 522.68 34.639 522.478 34.5552C522.317 34.4886 522.17 34.3907 522.047 34.2672C521.923 34.1438 521.825 33.9972 521.759 33.8357C521.675 33.6338 521.643 33.4144 521.664 33.1969C521.686 32.9794 521.76 32.7705 521.882 32.5888C522.028 32.3702 522.236 32.1998 522.478 32.0992C522.721 31.9986 522.989 31.9723 523.246 32.0236C523.504 32.0749 523.741 32.2016 523.927 32.3875C524.113 32.5735 524.239 32.8105 524.29 33.0683C524.342 33.3261 524.315 33.5933 524.215 33.8361C524.114 34.0789 523.944 34.2863 523.725 34.4323ZM542.74 34.4323C542.558 34.5538 542.349 34.6287 542.132 34.65C541.914 34.6716 541.695 34.639 541.493 34.5552C541.332 34.4884 541.185 34.3907 541.062 34.2672C540.938 34.1438 540.84 33.9972 540.774 33.8357C540.69 33.6338 540.658 33.4144 540.679 33.1969C540.701 32.9794 540.775 32.7705 540.897 32.5888C541.006 32.4253 541.15 32.2883 541.319 32.1872C541.487 32.0861 541.676 32.0238 541.872 32.0045C542.067 31.9853 542.265 32.0097 542.45 32.076C542.635 32.1423 542.803 32.2488 542.942 32.3878C543.128 32.5737 543.254 32.8105 543.305 33.0683C543.357 33.3261 543.33 33.5933 543.23 33.8361C543.129 34.0789 542.959 34.2863 542.74 34.4323Z"
			fill="#FFAD03"
		/>
</g>
<g filter="url(#filter6_d_598_9201)">
<rect x="495" y="123.75" width="75" height="75" rx="15" fill="#272935" />
<path
			d="M532.5 182.73C534.158 182.73 535.5 181.388 535.5 179.73V153.73H529.5V179.73C529.5 181.388 530.842 182.73 532.5 182.73Z"
			fill="#F9AB00"
		/>
<path
			d="M544.452 163.218C541.217 159.985 536.385 159.33 532.5 161.25L545.342 174.093C545.872 174.623 546.785 174.413 547.01 173.7C548.14 170.123 547.287 166.055 544.452 163.218Z"
			fill="#5BB974"
		/>
<path
			d="M520.547 163.218C523.782 159.985 528.615 159.33 532.5 161.25L519.657 174.093C519.127 174.623 518.215 174.413 517.99 173.7C516.86 170.123 517.712 166.055 520.547 163.218Z"
			fill="#129EAF"
		/>
<path
			d="M543.5 153.25C538.39 153.25 534.053 156.6 532.5 161.25H552.81C553.643 161.25 554.197 160.37 553.82 159.628C551.89 155.84 547.995 153.25 543.5 153.25Z"
			fill="#AF5CF7"
		/>
<path
			d="M534.622 147.815C531.007 151.43 530.31 156.863 532.5 161.25L546.862 146.888C547.452 146.298 547.222 145.283 546.43 145.025C542.385 143.713 537.8 144.638 534.622 147.815Z"
			fill="#FF8BCB"
		/>
<path
			d="M530.377 147.815C533.992 151.43 534.69 156.863 532.5 161.25L518.137 146.888C517.547 146.298 517.777 145.283 518.57 145.025C522.615 143.713 527.2 144.638 530.377 147.815Z"
			fill="#FA7B17"
		/>
<path
			d="M521.5 153.25C526.61 153.25 530.947 156.6 532.5 161.25H512.19C511.357 161.25 510.802 160.37 511.18 159.628C513.11 155.84 517.005 153.25 521.5 153.25Z"
			fill="#4285F4"
		/>
</g>
<g filter="url(#filter7_d_598_9201)">
<g clip-path="url(#clip0_598_9201)">
<rect x="495" y="247.5" width="75" height="75" rx="15" fill="#272935" />
<g filter="url(#filter8_d_598_9201)">
<rect x="495" y="247.5" width="75" height="75" rx="15" fill="#272935" />
<g clip-path="url(#clip1_598_9201)">
<mask
						id="mask0_598_9201"
						style="mask-type:luminance"
						maskUnits="userSpaceOnUse"
						x="508"
						y="261"
						width="49"
						height="48"
					>
<path d="M556.5 261H508.5V309H556.5V261Z" fill="white" />
</mask>
<g mask="url(#mask0_598_9201)">
<path
							d="M553.059 280.646C554.148 277.377 553.773 273.797 552.031 270.824C549.412 266.264 544.147 263.918 539.005 265.022C536.718 262.445 533.431 260.979 529.986 261C524.73 260.988 520.066 264.372 518.449 269.373C515.073 270.065 512.158 272.178 510.453 275.174C507.814 279.722 508.416 285.455 511.941 289.355C510.852 292.623 511.227 296.204 512.968 299.177C515.587 303.737 520.852 306.083 525.994 304.979C528.28 307.556 531.568 309.021 535.014 308.999C540.273 309.012 544.938 305.625 546.555 300.62C549.931 299.928 552.846 297.815 554.551 294.819C557.187 290.271 556.584 284.543 553.06 280.643L553.059 280.646ZM535.017 305.862C532.912 305.865 530.874 305.129 529.258 303.78C529.332 303.741 529.459 303.671 529.542 303.62L539.1 298.1C539.589 297.822 539.889 297.302 539.886 296.739V283.265L543.925 285.597C543.969 285.618 543.997 285.66 544.003 285.708V296.867C543.997 301.829 539.979 305.852 535.017 305.862ZM515.691 297.608C514.636 295.787 514.257 293.652 514.618 291.581C514.689 291.623 514.813 291.699 514.902 291.75L524.46 297.27C524.944 297.554 525.544 297.554 526.03 297.27L537.699 290.532V295.197C537.702 295.245 537.679 295.292 537.642 295.322L527.98 300.9C523.677 303.378 518.179 301.905 515.691 297.608ZM513.175 276.744C514.225 274.92 515.883 273.525 517.857 272.801C517.857 272.883 517.852 273.029 517.852 273.131V284.172C517.849 284.733 518.149 285.254 518.637 285.531L530.305 292.268L526.266 294.6C526.225 294.627 526.174 294.632 526.129 294.612L516.466 289.029C512.172 286.542 510.7 281.046 513.175 276.744ZM546.364 284.468L534.696 277.73L538.735 275.399C538.776 275.372 538.827 275.367 538.872 275.387L548.535 280.965C552.837 283.451 554.311 288.954 551.826 293.256C550.774 295.077 549.118 296.472 547.146 297.198V285.827C547.15 285.266 546.85 284.747 546.364 284.468ZM550.384 278.417C550.314 278.373 550.189 278.298 550.101 278.247L540.543 272.727C540.058 272.444 539.458 272.444 538.972 272.727L527.304 279.465V274.8C527.301 274.752 527.323 274.706 527.361 274.676L537.022 269.102C541.326 266.619 546.828 268.097 549.309 272.402C550.357 274.22 550.737 276.348 550.381 278.417H550.384ZM525.108 286.731L521.067 284.399C521.023 284.378 520.995 284.336 520.989 284.288V273.129C520.992 268.161 525.022 264.135 529.99 264.138C532.092 264.138 534.126 264.876 535.741 266.22C535.668 266.259 535.542 266.33 535.458 266.381L525.9 271.901C525.411 272.178 525.111 272.697 525.114 273.26L525.108 286.728V286.731ZM527.302 282L532.5 278.999L537.697 281.999V288L532.5 291L527.302 288V282Z"
							fill="#F8F8F2"
						/>
</g>
</g>
</g>
</g>
</g>
<g filter="url(#filter9_d_598_9201)">
<rect x="495" y="371.25" width="75" height="75" rx="15" fill="#272935" />
<g clip-path="url(#clip2_598_9201)">
<mask
				id="mask1_598_9201"
				style="mask-type:luminance"
				maskUnits="userSpaceOnUse"
				x="508"
				y="384"
				width="49"
				height="49"
			>
<path d="M556.5 384.75H508.5V432.75H556.5V384.75Z" fill="white" />
</mask>
<g mask="url(#mask1_598_9201)">
<path
					fill-rule="evenodd"
					clip-rule="evenodd"
					d="M524.052 413.358C525.332 413.358 527.892 413.294 531.476 411.822C535.636 410.094 543.828 407.022 549.78 403.822C553.94 401.582 555.732 398.638 555.732 394.67C555.732 389.23 551.316 384.75 545.812 384.75H522.772C514.9 384.75 508.5 391.15 508.5 399.022C508.5 406.894 514.516 413.358 524.052 413.358Z"
					fill="#39594D"
				/>
<path
					fill-rule="evenodd"
					clip-rule="evenodd"
					d="M527.956 423.151C527.956 419.311 530.26 415.79 533.844 414.319L541.076 411.31C548.436 408.302 556.5 413.678 556.5 421.615C556.5 427.759 551.508 432.751 545.364 432.751H537.492C532.244 432.751 527.956 428.462 527.956 423.151Z"
					fill="#D18EE2"
				/>
<path
					d="M516.756 415.213C512.212 415.213 508.5 418.925 508.5 423.469V424.557C508.5 429.037 512.212 432.749 516.756 432.749C521.3 432.749 525.012 429.037 525.012 424.493V423.405C524.948 418.925 521.3 415.213 516.756 415.213Z"
					fill="#FF7759"
				/>
</g>
</g>
</g>
<g filter="url(#filter10_d_598_9201)">
<rect x="495" y="495" width="75" height="75" rx="15" fill="#272935" />
<g clip-path="url(#clip3_598_9201)">
<path
				d="M542.23 516.5H535.285L547.95 548.5H554.895L542.23 516.5ZM522.165 516.5L509.5 548.5H516.582L519.172 541.78H532.422L535.012 548.5H542.094L529.429 516.5H522.165ZM521.463 535.837L525.797 524.591L530.131 535.837H521.463Z"
				fill="#FAFAF7"
			/>
</g>
</g>
<defs>
<filter
			id="filter0_d_598_9201"
			x="-25"
			y="72"
			width="125"
			height="125"
			filterUnits="userSpaceOnUse"
			color-interpolation-filters="sRGB"
		>
<feFlood flood-opacity="0" result="BackgroundImageFix" />
<feColorMatrix
				in="SourceAlpha"
				type="matrix"
				values="0 0 0 0 0 0 0 0 0 0 0 0 0 0 0 0 0 0 127 0"
				result="hardAlpha"
			/>
<feOffset dy="25" />
<feGaussianBlur stdDeviation="12.5" />
<feComposite in2="hardAlpha" operator="out" />
<feColorMatrix
				type="matrix"
				values="0 0 0 0 0 0 0 0 0 0 0 0 0 0 0 0 0 0 0.15 0"
			/>
<feBlend
				mode="normal"
				in2="BackgroundImageFix"
				result="effect1_dropShadow_598_9201"
			/>
<feBlend
				mode="normal"
				in="SourceGraphic"
				in2="effect1_dropShadow_598_9201"
				result="shape"
			/>
</filter>
<filter
			id="filter1_d_598_9201"
			x="-25"
			y="189"
			width="125"
			height="125"
			filterUnits="userSpaceOnUse"
			color-interpolation-filters="sRGB"
		>
<feFlood flood-opacity="0" result="BackgroundImageFix" />
<feColorMatrix
				in="SourceAlpha"
				type="matrix"
				values="0 0 0 0 0 0 0 0 0 0 0 0 0 0 0 0 0 0 127 0"
				result="hardAlpha"
			/>
<feOffset dy="25" />
<feGaussianBlur stdDeviation="12.5" />
<feComposite in2="hardAlpha" operator="out" />
<feColorMatrix
				type="matrix"
				values="0 0 0 0 0 0 0 0 0 0 0 0 0 0 0 0 0 0 0.15 0"
			/>
<feBlend
				mode="normal"
				in2="BackgroundImageFix"
				result="effect1_dropShadow_598_9201"
			/>
<feBlend
				mode="normal"
				in="SourceGraphic"
				in2="effect1_dropShadow_598_9201"
				result="shape"
			/>
</filter>
<filter
			id="filter2_d_598_9201"
			x="-25"
			y="306"
			width="125"
			height="125"
			filterUnits="userSpaceOnUse"
			color-interpolation-filters="sRGB"
		>
<feFlood flood-opacity="0" result="BackgroundImageFix" />
<feColorMatrix
				in="SourceAlpha"
				type="matrix"
				values="0 0 0 0 0 0 0 0 0 0 0 0 0 0 0 0 0 0 127 0"
				result="hardAlpha"
			/>
<feOffset dy="25" />
<feGaussianBlur stdDeviation="12.5" />
<feComposite in2="hardAlpha" operator="out" />
<feColorMatrix
				type="matrix"
				values="0 0 0 0 0 0 0 0 0 0 0 0 0 0 0 0 0 0 0.15 0"
			/>
<feBlend
				mode="normal"
				in2="BackgroundImageFix"
				result="effect1_dropShadow_598_9201"
			/>
<feBlend
				mode="normal"
				in="SourceGraphic"
				in2="effect1_dropShadow_598_9201"
				result="shape"
			/>
</filter>
<filter
			id="filter3_d_598_9201"
			x="-25"
			y="423"
			width="125"
			height="125"
			filterUnits="userSpaceOnUse"
			color-interpolation-filters="sRGB"
		>
<feFlood flood-opacity="0" result="BackgroundImageFix" />
<feColorMatrix
				in="SourceAlpha"
				type="matrix"
				values="0 0 0 0 0 0 0 0 0 0 0 0 0 0 0 0 0 0 127 0"
				result="hardAlpha"
			/>
<feOffset dy="25" />
<feGaussianBlur stdDeviation="12.5" />
<feComposite in2="hardAlpha" operator="out" />
<feColorMatrix
				type="matrix"
				values="0 0 0 0 0 0 0 0 0 0 0 0 0 0 0 0 0 0 0.15 0"
			/>
<feBlend
				mode="normal"
				in2="BackgroundImageFix"
				result="effect1_dropShadow_598_9201"
			/>
<feBlend
				mode="normal"
				in="SourceGraphic"
				in2="effect1_dropShadow_598_9201"
				result="shape"
			/>
</filter>
<filter
			id="filter4_dd_598_9201"
			x="225.25"
			y="228.25"
			width="119.5"
			height="119.5"
			filterUnits="userSpaceOnUse"
			color-interpolation-filters="sRGB"
		>
<feFlood flood-opacity="0" result="BackgroundImageFix" />
<feColorMatrix
				in="SourceAlpha"
				type="matrix"
				values="0 0 0 0 0 0 0 0 0 0 0 0 0 0 0 0 0 0 127 0"
				result="hardAlpha"
			/>
<feOffset dy="2" />
<feGaussianBlur stdDeviation="1" />
<feComposite in2="hardAlpha" operator="out" />
<feColorMatrix
				type="matrix"
				values="0 0 0 0 0 0 0 0 0 0 0 0 0 0 0 0 0 0 0.06 0"
			/>
<feBlend
				mode="normal"
				in2="BackgroundImageFix"
				result="effect1_dropShadow_598_9201"
			/>
<feColorMatrix
				in="SourceAlpha"
				type="matrix"
				values="0 0 0 0 0 0 0 0 0 0 0 0 0 0 0 0 0 0 127 0"
				result="hardAlpha"
			/>
<feOffset dy="3" />
<feGaussianBlur stdDeviation="3" />
<feComposite in2="hardAlpha" operator="out" />
<feColorMatrix
				type="matrix"
				values="0 0 0 0 0.611765 0 0 0 0 0.639216 0 0 0 0 0.686275 0 0 0 0.35 0"
			/>
<feBlend
				mode="normal"
				in2="effect1_dropShadow_598_9201"
				result="effect2_dropShadow_598_9201"
			/>
<feBlend
				mode="normal"
				in="SourceGraphic"
				in2="effect2_dropShadow_598_9201"
				result="shape"
			/>
</filter>
<filter
			id="filter5_d_598_9201"
			x="470"
			y="0"
			width="125"
			height="125"
			filterUnits="userSpaceOnUse"
			color-interpolation-filters="sRGB"
		>
<feFlood flood-opacity="0" result="BackgroundImageFix" />
<feColorMatrix
				in="SourceAlpha"
				type="matrix"
				values="0 0 0 0 0 0 0 0 0 0 0 0 0 0 0 0 0 0 127 0"
				result="hardAlpha"
			/>
<feOffset dy="25" />
<feGaussianBlur stdDeviation="12.5" />
<feComposite in2="hardAlpha" operator="out" />
<feColorMatrix
				type="matrix"
				values="0 0 0 0 0 0 0 0 0 0 0 0 0 0 0 0 0 0 0.15 0"
			/>
<feBlend
				mode="normal"
				in2="BackgroundImageFix"
				result="effect1_dropShadow_598_9201"
			/>
<feBlend
				mode="normal"
				in="SourceGraphic"
				in2="effect1_dropShadow_598_9201"
				result="shape"
			/>
</filter>
<filter
			id="filter6_d_598_9201"
			x="470"
			y="123.75"
			width="125"
			height="125"
			filterUnits="userSpaceOnUse"
			color-interpolation-filters="sRGB"
		>
<feFlood flood-opacity="0" result="BackgroundImageFix" />
<feColorMatrix
				in="SourceAlpha"
				type="matrix"
				values="0 0 0 0 0 0 0 0 0 0 0 0 0 0 0 0 0 0 127 0"
				result="hardAlpha"
			/>
<feOffset dy="25" />
<feGaussianBlur stdDeviation="12.5" />
<feComposite in2="hardAlpha" operator="out" />
<feColorMatrix
				type="matrix"
				values="0 0 0 0 0 0 0 0 0 0 0 0 0 0 0 0 0 0 0.15 0"
			/>
<feBlend
				mode="normal"
				in2="BackgroundImageFix"
				result="effect1_dropShadow_598_9201"
			/>
<feBlend
				mode="normal"
				in="SourceGraphic"
				in2="effect1_dropShadow_598_9201"
				result="shape"
			/>
</filter>
<filter
			id="filter7_d_598_9201"
			x="470"
			y="247.5"
			width="125"
			height="125"
			filterUnits="userSpaceOnUse"
			color-interpolation-filters="sRGB"
		>
<feFlood flood-opacity="0" result="BackgroundImageFix" />
<feColorMatrix
				in="SourceAlpha"
				type="matrix"
				values="0 0 0 0 0 0 0 0 0 0 0 0 0 0 0 0 0 0 127 0"
				result="hardAlpha"
			/>
<feOffset dy="25" />
<feGaussianBlur stdDeviation="12.5" />
<feComposite in2="hardAlpha" operator="out" />
<feColorMatrix
				type="matrix"
				values="0 0 0 0 0 0 0 0 0 0 0 0 0 0 0 0 0 0 0.15 0"
			/>
<feBlend
				mode="normal"
				in2="BackgroundImageFix"
				result="effect1_dropShadow_598_9201"
			/>
<feBlend
				mode="normal"
				in="SourceGraphic"
				in2="effect1_dropShadow_598_9201"
				result="shape"
			/>
</filter>
<filter
			id="filter8_d_598_9201"
			x="470"
			y="247.5"
			width="125"
			height="125"
			filterUnits="userSpaceOnUse"
			color-interpolation-filters="sRGB"
		>
<feFlood flood-opacity="0" result="BackgroundImageFix" />
<feColorMatrix
				in="SourceAlpha"
				type="matrix"
				values="0 0 0 0 0 0 0 0 0 0 0 0 0 0 0 0 0 0 127 0"
				result="hardAlpha"
			/>
<feOffset dy="25" />
<feGaussianBlur stdDeviation="12.5" />
<feComposite in2="hardAlpha" operator="out" />
<feColorMatrix
				type="matrix"
				values="0 0 0 0 0 0 0 0 0 0 0 0 0 0 0 0 0 0 0.15 0"
			/>
<feBlend
				mode="normal"
				in2="BackgroundImageFix"
				result="effect1_dropShadow_598_9201"
			/>
<feBlend
				mode="normal"
				in="SourceGraphic"
				in2="effect1_dropShadow_598_9201"
				result="shape"
			/>
</filter>
<filter
			id="filter9_d_598_9201"
			x="470"
			y="371.25"
			width="125"
			height="125"
			filterUnits="userSpaceOnUse"
			color-interpolation-filters="sRGB"
		>
<feFlood flood-opacity="0" result="BackgroundImageFix" />
<feColorMatrix
				in="SourceAlpha"
				type="matrix"
				values="0 0 0 0 0 0 0 0 0 0 0 0 0 0 0 0 0 0 127 0"
				result="hardAlpha"
			/>
<feOffset dy="25" />
<feGaussianBlur stdDeviation="12.5" />
<feComposite in2="hardAlpha" operator="out" />
<feColorMatrix
				type="matrix"
				values="0 0 0 0 0 0 0 0 0 0 0 0 0 0 0 0 0 0 0.15 0"
			/>
<feBlend
				mode="normal"
				in2="BackgroundImageFix"
				result="effect1_dropShadow_598_9201"
			/>
<feBlend
				mode="normal"
				in="SourceGraphic"
				in2="effect1_dropShadow_598_9201"
				result="shape"
			/>
</filter>
<filter
			id="filter10_d_598_9201"
			x="470"
			y="495"
			width="125"
			height="125"
			filterUnits="userSpaceOnUse"
			color-interpolation-filters="sRGB"
		>
<feFlood flood-opacity="0" result="BackgroundImageFix" />
<feColorMatrix
				in="SourceAlpha"
				type="matrix"
				values="0 0 0 0 0 0 0 0 0 0 0 0 0 0 0 0 0 0 127 0"
				result="hardAlpha"
			/>
<feOffset dy="25" />
<feGaussianBlur stdDeviation="12.5" />
<feComposite in2="hardAlpha" operator="out" />
<feColorMatrix
				type="matrix"
				values="0 0 0 0 0 0 0 0 0 0 0 0 0 0 0 0 0 0 0.15 0"
			/>
<feBlend
				mode="normal"
				in2="BackgroundImageFix"
				result="effect1_dropShadow_598_9201"
			/>
<feBlend
				mode="normal"
				in="SourceGraphic"
				in2="effect1_dropShadow_598_9201"
				result="shape"
			/>
</filter>
<clipPath id="clip0_598_9201">
<rect x="495" y="247.5" width="75" height="75" rx="15" fill="white" />
</clipPath>
<clipPath id="clip1_598_9201">
<rect width="48" height="48" fill="white" transform="translate(508.5 261)" />
</clipPath>
<clipPath id="clip2_598_9201">
<rect width="48" height="48" fill="white" transform="translate(508.5 384.75)" />
</clipPath>
<clipPath id="clip3_598_9201">
<rect width="46" height="32" fill="white" transform="translate(509.5 516.5)" />
</clipPath>
</defs>
</svg>
