<svg xmlns="http://www.w3.org/2000/svg" width="570" height="524" fill="none"><g
		filter="url(#a)"
	><rect
			width="63.25"
			height="63.25"
			x="-3"
			y=".648"
			fill="#272935"
			rx="12.65"
		/><path
			fill="#40D0FD"
			d="m27.845 35.203 4.251-4.142h10.562l-9.356 9.356-5.457-5.214Z"
		/><path
			fill="#41D0FD"
			d="m14.593 32.432 5.311 5.438 22.754-22.943H32.097L14.593 32.432Z"
		/><path
			fill="#1FBCFD"
			d="m22.523 40.47 5.388 5.307 5.391-5.36-5.457-5.214-5.322 5.266Z"
		/><path
			fill="#095A9D"
			d="m27.91 45.777 5.392-5.36 9.224 9.33h-10.62l-3.995-3.97Z"
		/><path
			fill="#0E5199"
			d="m27.91 45.778 5.024-1.672-1.693-1.64-3.33 3.312Z"
		/></g><g filter="url(#b)"><rect
			width="90.659"
			height="90.659"
			x="253.375"
			y="195.46"
			fill="#272935"
			rx="12.65"
		/><path
			fill="#FF79C6"
			d="M298.702 232.572a102.921 102.921 0 0 1 8.831-3.981c-9.294-6.294-8.368-6.294-17.66 0a103.06 103.06 0 0 1 8.831 3.981m-5.778-14.315a86.786 86.786 0 0 1 5.778 2.68 86.995 86.995 0 0 1 5.777-2.68c-5.567-4.815-5.989-4.815-11.556 0m-8.598 8.307c.963.323 1.917.658 2.864 1.004a94.721 94.721 0 0 1 8.928-5.547l.026-.015c-7.14-3.492-7.605-2.21-11.818 4.558Zm-2.835 5.343a92.573 92.573 0 0 1 3.4-2.672c-2.585-.905-2.367.354-3.4 2.672Zm-1.762 4.673-.131.425c2.584.746 5.116 1.573 7.594 2.48a94.706 94.706 0 0 1 8.927-5.547l.026-.015c-8.79-4.299-9.235-3.888-16.416 2.657Zm-1.688 10.235a92.319 92.319 0 0 1 6.85-5.663c-6.929-2.426-6.784-1.642-6.85 5.663Zm.277 4.176c1.088 7.346 1.654 5.76 6.573 2.077a112.852 112.852 0 0 0-6.573-2.077Zm2.959 8.043c5.307 7.985 8.142 2.406 14.841-1.263l.026-.015a101.936 101.936 0 0 0-8.584-3.713 89.548 89.548 0 0 0-6.283 4.991Zm7.455 6.092c2.737 1.156 6.041 1.806 9.971 1.806 3.93 0 7.236-.649 9.97-1.806-10.433-7.301-9.509-7.301-19.942 0m27.397-6.092a89.78 89.78 0 0 0-6.283-4.991 101.795 101.795 0 0 0-8.584 3.713l.028.015c6.696 3.666 9.538 9.25 14.841 1.263m2.958-8.043a114.117 114.117 0 0 0-6.573 2.077c4.917 3.681 5.488 5.27 6.573-2.077Zm.277-4.176c-.067-7.305.079-8.09-6.85-5.663a92.156 92.156 0 0 1 6.85 5.663Zm-1.555-9.81a52.735 52.735 0 0 0-.131-.425c-7.181-6.545-7.626-6.956-16.417-2.657l.028.015a94.706 94.706 0 0 1 8.927 5.547 115.42 115.42 0 0 1 7.594-2.48m-1.894-5.098c-1.033-2.318-.816-3.577-3.4-2.672a94.303 94.303 0 0 1 3.4 2.672Zm-2.835-5.343c-4.215-6.768-4.678-8.05-11.818-4.558l.026.015a94.706 94.706 0 0 1 8.927 5.547c.947-.346 1.902-.682 2.865-1.004Zm-14.377 29.84a102.614 102.614 0 0 1 8.831-3.981c-9.294-6.294-8.368-6.294-17.66 0a103.04 103.04 0 0 1 8.83 3.981m-11.512-5.003a94.721 94.721 0 0 1 8.928-5.547l.026-.015c-8.994-4.398-9.49-3.732-16.8 3.009 2.671.767 5.288 1.617 7.845 2.553m30.871-2.553c-7.31-6.741-7.806-7.407-16.8-3.009l.027.015a94.721 94.721 0 0 1 8.928 5.547 115.084 115.084 0 0 1 7.846-2.553m-19.359-4.36a102.614 102.614 0 0 1 8.831-3.981c-9.294-6.294-8.367-6.294-17.66 0a103.06 103.06 0 0 1 8.831 3.981"
		/></g><path
		fill="#9747FF"
		d="M64.25 30.773a1.5 1.5 0 0 0 0 3v-3ZM238.376 242.29l13.268 6.16c.718.415 1.732-.171 1.732-1v-13.32c0-.828-1.014-1.414-1.732-1l-13.268 6.16v3ZM71.283 33.773a1.5 1.5 0 1 0 0-3v3Zm8.79-3a1.5 1.5 0 1 0 0 3v-3Zm14.064 3a1.5 1.5 0 1 0 0-3v3Zm8.79-3a1.5 1.5 0 1 0 0 3v-3Zm14.064 3a1.5 1.5 0 0 0 0-3v3Zm8.79-3a1.5 1.5 0 1 0 0 3v-3Zm17.489 5.573a1.5 1.5 0 0 0 1.397-2.655l-1.397 2.655Zm12.126 8.074a1.5 1.5 0 0 0-2.656 1.396l2.656-1.396Zm-.083 20.085a1.5 1.5 0 1 0 3 0h-3Zm3 10.29a1.5 1.5 0 0 0-3 0h3Zm-3 16.463a1.5 1.5 0 1 0 3 0h-3Zm3 10.289a1.5 1.5 0 0 0-3 0h3Zm-3 16.463a1.5 1.5 0 1 0 3 0h-3Zm3 10.29a1.5 1.5 0 1 0-3 0h3Zm-3 16.463a1.5 1.5 0 1 0 3 0h-3Zm3 10.289a1.5 1.5 0 0 0-3 0h3Zm-3 16.464a1.5 1.5 0 1 0 3 0h-3Zm3 10.289a1.5 1.5 0 0 0-3 0h3Zm-3 16.463a1.5 1.5 0 1 0 3 0h-3Zm3 10.29a1.5 1.5 0 1 0-3 0h3Zm-.083 20.085a1.5 1.5 0 0 0 2.655-1.396l-2.655 1.396Zm12.125 8.074a1.499 1.499 0 1 0-1.396 2.655l1.396-2.655Zm17.9 5.572a1.5 1.5 0 1 0 0-3v3Zm9.303-3a1.5 1.5 0 0 0 0 3v-3Zm14.885 3a1.5 1.5 0 1 0 0-3v3Zm9.302-3a1.5 1.5 0 0 0 0 3v-3Zm14.885 3a1.5 1.5 0 1 0 0-3v3Zm9.303-3a1.5 1.5 0 1 0 0 3v-3ZM64.251 33.773h7.031v-3h-7.031v3Zm15.822 0h14.064v-3H80.073v3Zm22.854 0h14.064v-3h-14.064v3Zm22.854 0h7.032v-3h-7.032v3Zm7.032 0c3.778 0 7.334.93 10.457 2.573l1.397-2.655a25.397 25.397 0 0 0-11.854-2.918v3Zm19.927 12.043a22.388 22.388 0 0 1 2.573 10.457h3a25.4 25.4 0 0 0-2.917-11.853l-2.656 1.396Zm2.573 10.457v8.232h3v-8.232h-3Zm0 18.521v16.464h3V74.795h-3Zm0 26.753v16.463h3v-16.463h-3Zm0 26.753v16.463h3V128.3h-3Zm0 26.752v16.464h3v-16.464h-3Zm0 26.753v16.463h3v-16.463h-3Zm0 26.753v8.231h3v-8.231h-3Zm0 8.231c0 4.276 1.054 8.311 2.917 11.854l2.655-1.396a22.403 22.403 0 0 1-2.572-10.458h-3Zm13.646 22.583a25.401 25.401 0 0 0 11.854 2.917v-3c-3.778 0-7.335-.93-10.458-2.572l-1.396 2.655Zm11.854 2.917h7.442v-3h-7.442v3Zm16.745 0h14.885v-3h-14.885v3Zm24.187 0h14.885v-3h-14.885v3Z"
	/><g filter="url(#c)"><rect
			width="63.25"
			height="63.25"
			x="-3"
			y="146.546"
			fill="#272935"
			rx="12.65"
		/><path
			fill="#78C257"
			d="M42.253 172.167a2.116 2.116 0 0 0-2.114 2.114v9.58a2.113 2.113 0 1 0 4.228 0v-9.58a2.115 2.115 0 0 0-2.114-2.114ZM14.997 172.167a2.116 2.116 0 0 0-2.114 2.114v9.58a2.113 2.113 0 1 0 4.228 0v-9.58a2.115 2.115 0 0 0-2.114-2.114ZM18.64 172.167v14.393a2.408 2.408 0 0 0 2.406 2.406h1.53v5.105a2.113 2.113 0 1 0 4.227 0v-5.105h3.643v5.105a2.113 2.113 0 1 0 4.228 0v-5.105h1.53a2.404 2.404 0 0 0 2.406-2.406v-14.393H18.64ZM38.34 169.176a9.283 9.283 0 0 0-4.116-5.307l-.337-.203-.36-.18.405-.697 1.192-2.249a.314.314 0 0 0-.112-.36h-.158a.379.379 0 0 0-.292.158l-1.215 2.091-.382.697-.36-.157-.382-.135a10.973 10.973 0 0 0-7.196 0l-.36.135-.383.157-.382-.697-1.214-2.249a.316.316 0 0 0-.194-.152.312.312 0 0 0-.245.029.314.314 0 0 0-.152.193.325.325 0 0 0 .028.245l1.192 2.249.405.697-.36.18-.337.203a9.149 9.149 0 0 0-4.093 5.352 6.992 6.992 0 0 0-.292 1.799h19.97a8.097 8.097 0 0 0-.27-1.799Zm-14.213-1.192a.899.899 0 1 1 0-1.798.899.899 0 0 1 0 1.798Zm8.996 0a.898.898 0 0 1-.883-1.075.902.902 0 0 1 1.227-.656.907.907 0 0 1 .555.832.9.9 0 0 1-.9.899Z"
		/></g><g filter="url(#d)"><rect
			width="63.25"
			height="63.25"
			x="-3"
			y="418.101"
			fill="#272935"
			rx="12.65"
		/><path
			fill="#00D8FF"
			d="M28.625 452.855a3.162 3.162 0 1 0 0-6.325 3.162 3.162 0 0 0 0 6.325Z"
		/><path
			fill="#00D8FF"
			d="M28.625 456.944a35.922 35.922 0 0 1-11.233-1.518 14.313 14.313 0 0 1-4.626-2.477 4.482 4.482 0 0 1-1.851-3.256c0-2.092 2.297-4.141 6.145-5.482a36.373 36.373 0 0 1 11.565-1.705 36.26 36.26 0 0 1 11.413 1.675 14.382 14.382 0 0 1 4.476 2.36 4.3 4.3 0 0 1 1.821 3.152c0 2.173-2.568 4.375-6.704 5.744a36.436 36.436 0 0 1-11.006 1.507Zm0-12.925a35.343 35.343 0 0 0-11.067 1.622c-3.542 1.236-5.13 2.926-5.13 4.048 0 1.174 1.706 3.019 5.453 4.301a34.448 34.448 0 0 0 10.744 1.441 34.94 34.94 0 0 0 10.531-1.43c3.89-1.289 5.661-3.137 5.661-4.308a2.94 2.94 0 0 0-1.277-1.99 12.9 12.9 0 0 0-4-2.093 34.761 34.761 0 0 0-10.915-1.591Z"
		/><path
			fill="#00D8FF"
			d="M21.44 465.466a3.326 3.326 0 0 1-1.69-.415c-1.811-1.044-2.439-4.058-1.678-8.061a36.377 36.377 0 0 1 4.3-10.871 36.29 36.29 0 0 1 7.152-9.05 14.404 14.404 0 0 1 4.28-2.698 4.29 4.29 0 0 1 3.641 0c1.884 1.086 2.507 4.41 1.628 8.677a36.436 36.436 0 0 1-4.194 10.288 35.9 35.9 0 0 1-6.928 8.973 14.294 14.294 0 0 1-4.456 2.769 6.216 6.216 0 0 1-2.055.388Zm2.243-18.595a35.35 35.35 0 0 0-4.124 10.397c-.7 3.687-.028 5.905.949 6.469 1.012.586 3.469.03 6.451-2.575a34.412 34.412 0 0 0 6.613-8.59 34.91 34.91 0 0 0 4.024-9.837c.827-4.016.112-6.475-.902-7.06a2.962 2.962 0 0 0-2.363.113 12.91 12.91 0 0 0-3.808 2.426 34.755 34.755 0 0 0-6.831 8.664l-.009-.007Z"
		/><path
			fill="#00D8FF"
			d="M35.807 465.482c-1.714 0-3.891-1.037-6.158-2.987a36.358 36.358 0 0 1-7.27-9.155 36.272 36.272 0 0 1-4.268-10.715 14.396 14.396 0 0 1-.2-5.061 4.291 4.291 0 0 1 1.814-3.146c1.881-1.089 5.073.031 8.33 2.923a36.434 36.434 0 0 1 6.819 8.771 35.914 35.914 0 0 1 4.313 10.483c.381 1.723.44 3.501.174 5.245a4.484 4.484 0 0 1-1.89 3.232 3.277 3.277 0 0 1-1.664.41Zm-12.119-12.903a35.357 35.357 0 0 0 6.948 8.765c2.845 2.448 5.101 2.974 6.072 2.404 1.012-.589 1.758-2.99.989-6.874a34.422 34.422 0 0 0-4.138-10.008 34.939 34.939 0 0 0-6.508-8.4c-3.067-2.722-5.554-3.33-6.567-2.743a2.942 2.942 0 0 0-1.082 2.102 12.896 12.896 0 0 0 .194 4.51 34.732 34.732 0 0 0 4.093 10.246v-.002Z"
		/></g><g filter="url(#e)"><rect
			width="63.25"
			height="63.25"
			x="-3"
			y="273.047"
			fill="#272935"
			rx="12.65"
		/><path
			fill="#fff"
			fill-opacity=".8"
			d="M36.415 284.432h.287c.232 2.854-.858 4.987-2.182 6.532-1.3 1.534-3.08 3.022-5.957 2.796-.192-2.814.9-4.788 2.222-6.33 1.226-1.436 3.475-2.714 5.63-2.998ZM45.126 314.146v.08c-.809 2.449-1.962 4.548-3.37 6.496-1.285 1.769-2.86 4.149-5.672 4.149-2.43 0-4.044-1.562-6.535-1.605-2.634-.043-4.083 1.307-6.491 1.646h-.822c-1.768-.256-3.195-1.657-4.235-2.919-3.067-3.729-5.436-8.546-5.877-14.711v-1.811c.187-4.412 2.33-7.999 5.18-9.737 1.504-.925 3.57-1.712 5.873-1.36.986.153 1.994.49 2.878.825.837.321 1.884.892 2.876.862.672-.02 1.34-.37 2.017-.617 1.984-.716 3.929-1.538 6.492-1.152 3.08.466 5.267 1.834 6.618 3.946-2.606 1.659-4.666 4.158-4.314 8.426.313 3.877 2.566 6.145 5.382 7.482Z"
		/></g><path
		fill="#BD93F9"
		d="M64.25 30.773a1.5 1.5 0 0 0 0 3v-3ZM238.376 242.29l13.268 6.16c.718.415 1.732-.171 1.732-1v-13.32c0-.828-1.014-1.414-1.732-1l-13.268 6.16v3ZM71.283 33.773a1.5 1.5 0 1 0 0-3v3Zm8.79-3a1.5 1.5 0 1 0 0 3v-3Zm14.064 3a1.5 1.5 0 1 0 0-3v3Zm8.79-3a1.5 1.5 0 1 0 0 3v-3Zm14.064 3a1.5 1.5 0 0 0 0-3v3Zm8.79-3a1.5 1.5 0 1 0 0 3v-3Zm17.489 5.573a1.5 1.5 0 0 0 1.397-2.655l-1.397 2.655Zm12.126 8.074a1.5 1.5 0 0 0-2.656 1.396l2.656-1.396Zm-.083 20.085a1.5 1.5 0 1 0 3 0h-3Zm3 10.29a1.5 1.5 0 0 0-3 0h3Zm-3 16.463a1.5 1.5 0 1 0 3 0h-3Zm3 10.289a1.5 1.5 0 0 0-3 0h3Zm-3 16.463a1.5 1.5 0 1 0 3 0h-3Zm3 10.29a1.5 1.5 0 1 0-3 0h3Zm-3 16.463a1.5 1.5 0 1 0 3 0h-3Zm3 10.289a1.5 1.5 0 0 0-3 0h3Zm-3 16.464a1.5 1.5 0 1 0 3 0h-3Zm3 10.289a1.5 1.5 0 0 0-3 0h3Zm-3 16.463a1.5 1.5 0 1 0 3 0h-3Zm3 10.29a1.5 1.5 0 1 0-3 0h3Zm-.083 20.085a1.5 1.5 0 0 0 2.655-1.396l-2.655 1.396Zm12.125 8.074a1.499 1.499 0 1 0-1.396 2.655l1.396-2.655Zm17.9 5.572a1.5 1.5 0 1 0 0-3v3Zm9.303-3a1.5 1.5 0 0 0 0 3v-3Zm14.885 3a1.5 1.5 0 1 0 0-3v3Zm9.302-3a1.5 1.5 0 0 0 0 3v-3Zm14.885 3a1.5 1.5 0 1 0 0-3v3Zm9.303-3a1.5 1.5 0 1 0 0 3v-3ZM64.251 33.773h7.031v-3h-7.031v3Zm15.822 0h14.064v-3H80.073v3Zm22.854 0h14.064v-3h-14.064v3Zm22.854 0h7.032v-3h-7.032v3Zm7.032 0c3.778 0 7.334.93 10.457 2.573l1.397-2.655a25.397 25.397 0 0 0-11.854-2.918v3Zm19.927 12.043a22.388 22.388 0 0 1 2.573 10.457h3a25.4 25.4 0 0 0-2.917-11.853l-2.656 1.396Zm2.573 10.457v8.232h3v-8.232h-3Zm0 18.521v16.464h3V74.795h-3Zm0 26.753v16.463h3v-16.463h-3Zm0 26.753v16.463h3V128.3h-3Zm0 26.752v16.464h3v-16.464h-3Zm0 26.753v16.463h3v-16.463h-3Zm0 26.753v8.231h3v-8.231h-3Zm0 8.231c0 4.276 1.054 8.311 2.917 11.854l2.655-1.396a22.403 22.403 0 0 1-2.572-10.458h-3Zm13.646 22.583a25.401 25.401 0 0 0 11.854 2.917v-3c-3.778 0-7.335-.93-10.458-2.572l-1.396 2.655Zm11.854 2.917h7.442v-3h-7.442v3Zm16.745 0h14.885v-3h-14.885v3Zm24.187 0h14.885v-3h-14.885v3Z"
		opacity=".8"
	/><path
		fill="#BD93F9"
		d="M64.25 303.172a1.5 1.5 0 1 0 0 3v-3Zm174.125-60.883 13.268 6.16c.718.415 1.732-.171 1.732-1v-13.32c0-.829-1.014-1.414-1.732-1l-13.268 6.16v3ZM71.283 306.172a1.5 1.5 0 0 0 0-3v3Zm8.79-3a1.5 1.5 0 1 0 0 3v-3Zm14.064 3a1.5 1.5 0 0 0 0-3v3Zm8.79-3a1.5 1.5 0 1 0 0 3v-3Zm14.064 3a1.5 1.5 0 0 0 0-3v3Zm8.79-3a1.5 1.5 0 1 0 0 3v-3Zm18.886.083a1.5 1.5 0 0 0-1.397-2.656l1.397 2.656Zm8.073-12.126a1.501 1.501 0 0 0 2.656 1.397l-2.656-1.397Zm5.573-15.344a1.5 1.5 0 1 0-3 0h3Zm-3-6.109a1.5 1.5 0 1 0 3 0h-3Zm5.572-15.344a1.5 1.5 0 1 0-2.655-1.397l2.655 1.397Zm8.074-12.126a1.5 1.5 0 0 0 1.396 2.655l-1.396-2.655Zm19.296.083a1.5 1.5 0 1 0 0-3v3Zm9.303-3a1.5 1.5 0 0 0 0 3v-3Zm14.885 3a1.5 1.5 0 0 0 0-3v3Zm9.302-3a1.5 1.5 0 0 0 0 3v-3Zm14.885 3a1.5 1.5 0 0 0 0-3v3Zm9.303-3a1.5 1.5 0 1 0 0 3v-3ZM64.251 306.172h7.031v-3h-7.031v3Zm15.822 0h14.064v-3H80.073v3Zm22.854 0h14.064v-3h-14.064v3Zm22.854 0h7.032v-3h-7.032v3Zm7.032 0c4.276 0 8.311-1.054 11.854-2.917l-1.397-2.656a22.388 22.388 0 0 1-10.457 2.573v3Zm22.583-13.646a25.401 25.401 0 0 0 2.917-11.854h-3c0 3.778-.93 7.334-2.573 10.457l2.656 1.397Zm2.917-11.854v-4.887h-3v4.887h3Zm0-10.996v-4.887h-3v4.887h3Zm0-4.887c0-3.778.93-7.335 2.572-10.457l-2.655-1.397a25.401 25.401 0 0 0-2.917 11.854h3Zm12.042-19.928a22.403 22.403 0 0 1 10.458-2.572v-3a25.401 25.401 0 0 0-11.854 2.917l1.396 2.655Zm10.458-2.572h7.442v-3h-7.442v3Zm16.745 0h14.885v-3h-14.885v3Zm24.187 0h14.885v-3h-14.885v3Z"
		opacity=".8"
	/><path
		fill="#BD93F9"
		d="M64.25 448.225a1.5 1.5 0 0 0 0 3v-3Zm174.125-205.936 13.268 6.16c.718.415 1.732-.171 1.732-1v-13.32c0-.829-1.014-1.414-1.732-1l-13.268 6.16v3ZM71.283 451.225a1.5 1.5 0 1 0 0-3v3Zm8.79-3a1.5 1.5 0 0 0 0 3v-3Zm14.064 3a1.5 1.5 0 1 0 0-3v3Zm8.79-3a1.5 1.5 0 1 0 0 3v-3Zm14.064 3a1.5 1.5 0 1 0 0-3v3Zm8.79-3a1.5 1.5 0 1 0 0 3v-3Zm18.886.083a1.5 1.5 0 0 0-1.397-2.655l1.397 2.655Zm8.073-12.125a1.501 1.501 0 0 0 2.656 1.396l-2.656-1.396Zm5.573-18.711a1.5 1.5 0 0 0-3 0h3Zm-3-10.316a1.5 1.5 0 1 0 3 0h-3Zm3-16.506a1.5 1.5 0 1 0-3 0h3Zm-3-10.317a1.5 1.5 0 1 0 3 0h-3Zm3-16.506a1.5 1.5 0 1 0-3 0h3Zm-3-10.317a1.5 1.5 0 1 0 3 0h-3Zm3-16.506a1.5 1.5 0 0 0-3 0h3Zm-3-10.316a1.5 1.5 0 1 0 3 0h-3Zm3-16.507a1.5 1.5 0 0 0-3 0h3Zm-3-10.316a1.5 1.5 0 1 0 3 0h-3Zm3-16.506a1.5 1.5 0 1 0-3 0h3Zm-3-10.317a1.5 1.5 0 1 0 3 0h-3Zm5.572-18.71a1.5 1.5 0 1 0-2.655-1.397l2.655 1.397Zm8.074-12.126a1.5 1.5 0 0 0 1.396 2.655l-1.396-2.655Zm19.296.083a1.5 1.5 0 1 0 0-3v3Zm9.303-3a1.5 1.5 0 0 0 0 3v-3Zm14.885 3a1.5 1.5 0 0 0 0-3v3Zm9.302-3a1.5 1.5 0 0 0 0 3v-3Zm14.885 3a1.5 1.5 0 0 0 0-3v3Zm9.303-3a1.5 1.5 0 1 0 0 3v-3ZM64.251 451.225h7.031v-3h-7.031v3Zm15.822 0h14.064v-3H80.073v3Zm22.854 0h14.064v-3h-14.064v3Zm22.854 0h7.032v-3h-7.032v3Zm7.032 0a25.39 25.39 0 0 0 11.854-2.917l-1.397-2.655a22.399 22.399 0 0 1-10.457 2.572v3Zm22.583-13.646a25.398 25.398 0 0 0 2.917-11.854h-3c0 3.779-.93 7.335-2.573 10.458l2.656 1.396Zm2.917-11.854v-8.253h-3v8.253h3Zm0-18.569V390.65h-3v16.506h3Zm0-26.823v-16.506h-3v16.506h3Zm0-26.823v-16.506h-3v16.506h3Zm0-26.822v-16.507h-3v16.507h3Zm0-26.823v-16.506h-3v16.506h3Zm0-26.823v-8.253h-3v8.253h3Zm0-8.253c0-3.778.93-7.335 2.572-10.457l-2.655-1.397a25.401 25.401 0 0 0-2.917 11.854h3Zm12.042-19.928a22.403 22.403 0 0 1 10.458-2.572v-3a25.401 25.401 0 0 0-11.854 2.917l1.396 2.655Zm10.458-2.572h7.442v-3h-7.442v3Zm16.745 0h14.885v-3h-14.885v3Zm24.187 0h14.885v-3h-14.885v3Z"
		opacity=".8"
	/><g filter="url(#f)"><rect
			width="63.25"
			height="63.25"
			x="509.75"
			y=".648"
			fill="#272935"
			rx="12.65"
		/><path
			fill="#fff"
			d="M557.618 39.342a2.99 2.99 0 0 0-.408-.9c.04-.145.07-.293.09-.442.131-.945-.196-1.81-.814-2.48a2.846 2.846 0 0 0-1.072-.754 14.36 14.36 0 0 0-.272-7.535c-.139-.45-.301-.891-.483-1.324a14.553 14.553 0 0 0-3.587-5.052 11.31 11.31 0 0 0-.524-.453c-.177-.147-.358-.29-.542-.427a14.335 14.335 0 0 0-8.614-2.858c-7.952 0-14.398 6.445-14.398 14.397 0 1.109.128 2.214.383 3.293-.342.148-.669.379-.972.713-.618.67-.945 1.531-.814 2.476.02.15.049.3.089.445-.184.276-.322.58-.407.9-.189.722-.127 1.372.114 1.942a2.857 2.857 0 0 0 .145 2.228c.248.503.604.893 1.042 1.241.52.414 1.172.766 1.958 1.103.938.4 2.083.776 2.604.914 1.345.348 2.635.569 3.942.58 1.862.017 3.466-.421 4.614-1.542.564.07 1.132.104 1.7.104.6-.002 1.2-.04 1.796-.113 1.145 1.127 2.755 1.57 4.624 1.552 1.307-.01 2.597-.232 3.939-.58a22.723 22.723 0 0 0 2.607-.914c.786-.338 1.438-.69 1.962-1.103.435-.348.79-.738 1.038-1.242.345-.69.407-1.482.148-2.227.239-.57.301-1.222.112-1.942Zm-1.335 1.893a1.8 1.8 0 0 1 .048 1.596c-.353.8-1.232 1.43-2.937 2.105-1.061.421-2.032.69-2.041.692-1.403.364-2.672.55-3.77.55-1.819 0-3.172-.503-4.03-1.494a13.517 13.517 0 0 1-4.388.025c-.859.975-2.205 1.468-4.008 1.468-1.099 0-2.368-.185-3.771-.549-.008-.002-.979-.271-2.04-.692-1.706-.676-2.584-1.305-2.938-2.105a1.797 1.797 0 0 1 .127-1.732 2.016 2.016 0 0 1-.273-1.635c.105-.4.322-.731.616-.97a2.001 2.001 0 0 1-.273-.762c-.085-.587.11-1.173.548-1.652a1.818 1.818 0 0 1 1.359-.576h.014a13.365 13.365 0 0 1-.606-3.99c0-7.38 5.983-13.364 13.364-13.364 7.381 0 13.364 5.983 13.364 13.363a13.367 13.367 0 0 1-.61 4c.064-.006.127-.009.19-.009.534 0 1.017.205 1.358.577.439.478.634 1.064.549 1.652a2.02 2.02 0 0 1-.274.762c.295.238.512.57.617.97a2.034 2.034 0 0 1-.274 1.634c.028.044.055.09.079.136Z"
		/><path
			fill="#FF9D00"
			d="M556.204 41.1a2.013 2.013 0 0 0 .274-1.636 1.83 1.83 0 0 0-.617-.969 2.02 2.02 0 0 0 .274-.762c.085-.588-.11-1.174-.549-1.652a1.815 1.815 0 0 0-1.359-.577 1.93 1.93 0 0 0-.189.01c.405-1.295.61-2.644.609-4 0-7.38-5.983-13.364-13.363-13.364-7.381 0-13.364 5.983-13.364 13.364a13.333 13.333 0 0 0 .606 3.99h-.015c-.534 0-1.017.205-1.358.577-.439.477-.634 1.064-.549 1.651.039.27.132.53.274.763-.295.238-.512.57-.617.969a2.034 2.034 0 0 0 .274 1.635 1.8 1.8 0 0 0-.127 1.732c.354.8 1.232 1.43 2.938 2.106 1.06.42 2.032.69 2.04.692 1.403.364 2.672.549 3.77.549 1.804 0 3.15-.494 4.009-1.468a13.52 13.52 0 0 0 4.388-.026c.858.992 2.211 1.494 4.03 1.494 1.098 0 2.367-.185 3.77-.55.009-.002.98-.27 2.041-.691 1.705-.676 2.584-1.306 2.937-2.106a1.8 1.8 0 0 0-.127-1.732Zm-17.654 2.084c-.074.129-.153.255-.237.378a2.422 2.422 0 0 1-.854.759c-.648.353-1.469.477-2.303.477-1.317 0-2.667-.308-3.423-.505-.038-.01-4.639-1.309-4.056-2.415.098-.186.259-.26.462-.26.82 0 2.314 1.22 2.956 1.22.143 0 .244-.06.286-.21.273-.98-4.158-1.393-3.785-2.813.066-.252.245-.354.496-.354 1.084 0 3.518 1.907 4.027 1.907.039 0 .067-.011.082-.035a.063.063 0 0 0 .007-.011c.239-.395.102-.682-1.535-1.684l-.157-.096c-1.802-1.09-3.066-1.746-2.347-2.529.083-.09.2-.13.343-.13.169 0 .373.056.598.151.952.401 2.27 1.495 2.821 1.973.086.075.173.15.258.227 0 0 .697.726 1.119.726a.256.256 0 0 0 .235-.133c.299-.504-2.777-2.835-2.95-3.797-.118-.652.082-.982.452-.982.176 0 .391.075.628.225.735.467 2.155 2.906 2.675 3.855a.838.838 0 0 0 .739.453c.532 0 .948-.529.049-1.2-1.351-1.011-.877-2.663-.232-2.765a.518.518 0 0 1 .083-.007c.586 0 .845 1.01.845 1.01s.758 1.904 2.06 3.205c1.181 1.181 1.347 2.15.658 3.36Zm4.211.223-.068.008-.115.013-.182.018-.059.005-.054.005-.077.006-.085.006-.085.005-.019.002-.067.003-.028.002a5.997 5.997 0 0 1-.079.004l-.092.004-.083.003-.056.001h-.028l-.052.001h-.028l-.052.001-.07.001h-.099c-.078 0-.155 0-.233-.002l-.062-.002-.054-.001-.066-.002-.082-.003-.075-.004h-.019l-.07-.004-.059-.003-.046-.003a12.417 12.417 0 0 1-.172-.012l-.06-.005-.076-.007-.089-.008-.148-.015h-.003c.723-1.612.358-3.117-1.103-4.577-.957-.956-1.595-2.368-1.727-2.678-.267-.918-.975-1.939-2.151-1.939-.1 0-.199.008-.297.024-.515.08-.966.377-1.287.823-.347-.431-.685-.775-.99-.969-.46-.291-.919-.44-1.367-.44-.558 0-1.057.23-1.405.646l-.009.01-.019-.082-.001-.003a11.838 11.838 0 0 1-.167-.856l-.001-.006-.01-.065-.027-.193-.012-.088-.01-.087a2.858 2.858 0 0 1-.01-.084l-.001-.007a19.463 19.463 0 0 1-.033-.342l-.003-.044-.006-.074-.004-.062-.001-.014a4.947 4.947 0 0 1-.01-.172l-.005-.09-.003-.078-.001-.024-.002-.072-.002-.062-.001-.073a1.924 1.924 0 0 1-.002-.078l-.001-.077v-.077c0-6.618 5.366-11.984 11.985-11.984 6.618 0 11.983 5.365 11.983 11.984v.154l-.001.078-.002.064-.001.056-.002.073v.002l-.004.084-.003.073-.001.018-.004.078c-.009.168-.022.336-.038.504v.002l-.008.082-.008.065-.014.127-.008.065-.01.075a2.3 2.3 0 0 1-.011.083l-.013.092-.011.073-.013.082-.014.082c-.006.027-.01.054-.014.081l-.03.163-.049.244-.018.08-.018.08a1.804 1.804 0 0 0-1.276-.506c-.447 0-.907.148-1.367.44-.305.193-.642.537-.99.968-.322-.446-.772-.742-1.287-.824a1.898 1.898 0 0 0-.297-.023c-1.176 0-1.884 1.02-2.151 1.938-.133.31-.77 1.723-1.729 2.68-1.459 1.455-1.827 2.954-1.116 4.56Zm12.372-3.228-.005.014a.798.798 0 0 1-.167.27l-.022.025-.035.036c-.213.21-.538.396-.904.565l-.127.057-.042.019a5.047 5.047 0 0 1-.086.037l-.088.036-.088.037c-.206.085-.418.166-.624.245l-.088.035-.087.034-.172.068-.084.034-.082.033-.041.017-.08.034c-.606.26-1.043.525-.951.854l.008.027a.348.348 0 0 0 .062.105c.108.112.304.094.552.005l.104-.04.021-.009c.057-.024.117-.05.178-.08l.046-.022c.303-.148.646-.347.986-.529.136-.073.274-.143.414-.21.322-.15.625-.258.869-.258.114 0 .215.023.299.077l.014.01a.456.456 0 0 1 .149.173c.121.228.02.465-.216.697-.226.223-.578.441-.978.643l-.09.045c-1.191.585-2.75 1.025-2.772 1.03-.415.108-1.009.25-1.679.355l-.099.016-.016.002a10.865 10.865 0 0 1-.457.06l-.014.002c-.281.032-.564.054-.847.064h-.004a8.775 8.775 0 0 1-.307.006h-.119a7.334 7.334 0 0 1-.467-.022h-.012a5.216 5.216 0 0 1-.453-.054 11.29 11.29 0 0 1-.114-.02l-.052-.009h-.004a4.142 4.142 0 0 1-.164-.035c-.032-.008-.063-.014-.094-.023l-.019-.005-.046-.012-.008-.002-.049-.014-.053-.016-.006-.001-.046-.014a1.681 1.681 0 0 1-.052-.017l-.043-.014-.031-.011c-.03-.01-.06-.022-.089-.033l-.028-.011-.024-.01a3.401 3.401 0 0 1-.133-.056l-.03-.014-.005-.002-.031-.014-.06-.03-.007-.004-.029-.015a2.882 2.882 0 0 1-.152-.086l-.027-.017-.04-.026-.036-.023-.038-.027-.023-.016a1.736 1.736 0 0 1-.07-.053l-.037-.028-.044-.036a1.978 1.978 0 0 1-.036-.031h-.001l-.037-.035a1.025 1.025 0 0 1-.037-.034l-.001-.002-.038-.036a4.3 4.3 0 0 1-.072-.076l-.033-.038-.004-.004-.032-.038a2.732 2.732 0 0 1-.128-.17l-.02-.029a2.903 2.903 0 0 1-.075-.115 1.677 1.677 0 0 1-.054-.085l-.033-.053-.004-.007-.03-.052-.017-.029-.016-.03-.009-.015-.006-.01-.031-.057-.014-.026-.014-.027-.015-.027a4.235 4.235 0 0 1-.1-.216l-.012-.027a9.9 9.9 0 0 0-.021-.053l-.01-.026a2.135 2.135 0 0 1-.047-.132l-.015-.048a2.79 2.79 0 0 1-.086-.39l-.003-.025-.002-.026a1.136 1.136 0 0 1-.008-.1l-.001-.026-.002-.05c-.008-.676.333-1.326 1.064-2.056 1.303-1.301 2.061-3.205 2.061-3.205s.02-.08.062-.195l.019-.05c.025-.064.053-.127.084-.189l.006-.012a1.817 1.817 0 0 1 .182-.288l.044-.052.019-.02a.684.684 0 0 1 .259-.175l.013-.004a.739.739 0 0 1 .054-.014l.004-.001a.523.523 0 0 1 .063-.008h.002l.033-.002c.014 0 .027 0 .041.002a.563.563 0 0 1 .367.201.928.928 0 0 1 .152.229l.02.04a1.643 1.643 0 0 1 .137.75 1.868 1.868 0 0 1-.193.758c-.013.026-.026.052-.041.078l-.029.052a2.195 2.195 0 0 1-.083.13l-.018.025a2.17 2.17 0 0 1-.232.273 2.466 2.466 0 0 1-.269.233c-.095.07-.185.148-.267.233-.238.25-.293.47-.24.637a.421.421 0 0 0 .09.151l.008.01.009.008.027.024.01.007a.593.593 0 0 0 .072.048l.023.012a.63.63 0 0 0 .085.034l.024.008.01.002.015.004.012.003.013.003.013.002.013.002a.414.414 0 0 0 .028.005l.009.001.016.002h.01l.017.002h.01l.017.001h.055l.016-.001.018-.001.022-.002.02-.003c.005 0 .01 0 .014-.002a.788.788 0 0 0 .185-.05l.025-.01a.742.742 0 0 0 .224-.146l.023-.021.01-.011.021-.022a.934.934 0 0 0 .131-.183c.309-.563.634-1.117.972-1.662l.047-.075.047-.074a4.6 4.6 0 0 1 .071-.112l.023-.037c.079-.124.159-.246.24-.368l.049-.072c.096-.143.193-.283.289-.415l.047-.066c.104-.143.213-.284.325-.42l.045-.054.022-.026.044-.051a.416.416 0 0 1 .022-.025l.042-.048.021-.023a2.11 2.11 0 0 1 .063-.066l.041-.041c.08-.082.168-.156.264-.22l.022-.014a.805.805 0 0 1 .065-.04c.374-.212.684-.227.862-.049.108.108.168.287.164.536l-.001.033v.012l-.001.034c0 .015-.002.029-.003.043a.557.557 0 0 0-.004.037l-.001.011-.004.034c0 .003 0 .007-.002.01l-.006.045a.561.561 0 0 1-.007.041l-.004.024a1.005 1.005 0 0 1-.06.186 1.81 1.81 0 0 1-.133.24l-.056.085c-.05.072-.102.142-.156.21l-.025.031c-.088.11-.178.217-.272.322l-.029.033-.122.134-.031.034-.064.068a2.33 2.33 0 0 1-.064.069l-.065.068-.066.069-.066.069-.135.139c-.641.657-1.316 1.313-1.545 1.721a.847.847 0 0 0-.041.082.33.33 0 0 0-.037.19.16.16 0 0 0 .017.047.311.311 0 0 0 .074.084c.047.034.103.051.161.05h.018l.019-.002.018-.002.016-.002.006-.001.014-.003h.004l.015-.004.006-.002.016-.004a.803.803 0 0 0 .143-.054l.021-.01.021-.01c.051-.027.1-.055.148-.086l.021-.014a.126.126 0 0 0 .021-.014l.021-.014.012-.008.03-.021.081-.06.003-.002.042-.033c.058-.046.113-.092.163-.136l.034-.029.003-.003.017-.015.107-.099.013-.012.03-.028.017-.018.007-.006.002-.002.018-.018.012-.012.001-.002.006-.005.007-.006.002-.002.006-.005.032-.029.018-.016a.537.537 0 0 0 .028-.026l.022-.019a.268.268 0 0 0 .012-.01l.022-.02.033-.029.018-.015c.069-.06.152-.132.249-.213l.039-.034.065-.054.067-.056c.087-.072.18-.149.279-.228l.065-.053.17-.134.071-.054c.058-.046.118-.091.177-.136.136-.103.276-.205.417-.305l.061-.042c.043-.03.085-.06.128-.088l.038-.026c.076-.051.153-.101.23-.15l.038-.024.039-.024.114-.07.037-.022.076-.044.074-.043.015-.008.059-.032c.024-.014.049-.026.073-.039l.036-.018.035-.018.037-.018a3.196 3.196 0 0 1 .309-.134l.065-.022.056-.019.007-.002.029-.008h.003c.02-.007.04-.012.06-.016h.001a1.283 1.283 0 0 1 .25-.033h.013c.018 0 .035 0 .052.003l.023.002h.003a.262.262 0 0 1 .023.004l.022.004h.003a.412.412 0 0 1 .183.095l.005.004a.075.075 0 0 0 .008.008l.007.009a.867.867 0 0 1 .156.226l.006.014a.533.533 0 0 1 .007.404.772.772 0 0 1-.054.113 1.29 1.29 0 0 1-.174.23l-.014.014a1.962 1.962 0 0 1-.097.097l-.032.03-.017.014a3.118 3.118 0 0 1-.203.168 7.142 7.142 0 0 1-.459.322c-.146.096-.292.188-.441.279-.311.191-.656.396-1.023.618l-.096.058-.295.182-.046.03-.089.056-.175.113-.047.031-.068.045-.023.015-.068.046-.036.025-.043.029-.039.027-.184.133-.021.017a3.68 3.68 0 0 0-.232.19l-.019.018a.557.557 0 0 0-.033.03l-.022.021-.01.01a1.44 1.44 0 0 0-.066.07l-.011.012a1.153 1.153 0 0 0-.061.078l-.008.011a.75.75 0 0 0-.038.063l-.008.016-.008.016-.005.012-.004.008-.002.007-.004.01a.395.395 0 0 0-.021.082l-.001.01-.001.01v.05l.001.012.001.007.002.013.003.017v.001l.003.017.005.017a.42.42 0 0 0 .011.033l.007.02.002.004.006.013.007.017a.89.89 0 0 0 .028.053l.011.018.011.018a.209.209 0 0 0 .006.009l.004.004.004.003.004.003a.075.075 0 0 0 .03.014c.091.02.279-.055.528-.187l.045-.024.076-.041.037-.02.08-.046.051-.029c.329-.19.722-.433 1.129-.67l.115-.067.077-.05.268-.15c.114-.063.228-.124.343-.182l.075-.039.149-.072a6.07 6.07 0 0 1 .287-.127l.053-.022.006-.003c.281-.11.535-.18.741-.18.044 0 .089.004.133.011h.001a.7.7 0 0 1 .04.01h.003a.408.408 0 0 1 .305.288l.014.045a.62.62 0 0 1-.009.364Z"
		/><path
			fill="#FFD21E"
			fill-rule="evenodd"
			d="M553.267 31.591v-.078c0-6.618-5.363-11.983-11.982-11.983-6.618 0-11.984 5.366-11.984 11.984v.077c.001.026.002.052.001.078l.001.056.001.02v.03l.001.044.002.062.002.072.001.024.003.075v.003l.004.088.001.002.005.09.005.082v.005l.005.07v.007l.006.068v.005a13.605 13.605 0 0 0 .036.38l.001.008.01.084.011.087.007.06.004.028c.008.065.018.129.027.193l.001.004.009.061c.046.29.101.577.168.862l.001.003.005.022.014.06.009-.01a1.799 1.799 0 0 1 1.405-.645c.448 0 .907.148 1.367.44.305.193.643.537.99.968.321-.446.772-.742 1.287-.823.098-.016.197-.023.297-.024 1.176 0 1.884 1.02 2.151 1.939.132.31.77 1.722 1.73 2.678 1.461 1.459 1.826 2.964 1.103 4.576h.003c.049.006.099.01.148.015l.089.008.011.002.065.005.06.005.172.012.046.003.036.002.023.001.07.004h.02l.074.004.082.003.066.002h.012l.042.001h.015c.093.003.186.004.28.004h.169c.018-.002.035-.002.053-.002h.107l.056-.002.083-.003.092-.004.079-.004.029-.002.042-.002.024-.001.019-.002.085-.005.085-.006.077-.006.054-.005.059-.005c.099-.01.198-.02.297-.032l.068-.008c-.711-1.605-.343-3.104 1.111-4.557.959-.958 1.596-2.37 1.729-2.68.267-.918.975-1.939 2.151-1.939.1 0 .199.008.298.024.514.08.965.377 1.286.823.348-.431.685-.775.99-.969.46-.291.92-.44 1.367-.44.493 0 .939.18 1.276.507.007-.027.013-.053.018-.08l.018-.08.018-.088.031-.156.03-.162.005-.03c.003-.017.005-.035.009-.052l.014-.082.002-.01.011-.072.011-.073.023-.161.001-.013.01-.076.008-.065.015-.127.005-.05.002-.015.008-.082v-.002l.006-.066a15.342 15.342 0 0 0 .032-.438l.004-.078.001-.018.007-.157v-.002l.001-.02.001-.053v-.007a.816.816 0 0 0 .002-.05v-.014l.001-.05v-.013l.001-.063v-.078Zm-14.954 11.971c.949-1.391.882-2.436-.42-3.737-1.303-1.302-2.06-3.205-2.06-3.205s-.283-1.106-.928-1.004c-.646.102-1.119 1.753.232 2.765 1.351 1.01-.269 1.697-.789.748-.52-.95-1.939-3.389-2.675-3.856-.736-.466-1.254-.205-1.08.757.086.477.887 1.292 1.636 2.053.76.773 1.465 1.49 1.314 1.744-.299.504-1.353-.592-1.353-.592s-3.301-3.004-4.02-2.221c-.662.721.359 1.334 1.934 2.28l.413.248c1.801 1.09 1.941 1.378 1.685 1.791-.094.152-.697-.21-1.439-.655-1.264-.759-2.931-1.76-3.166-.864-.204.776 1.022 1.25 2.135 1.681.926.36 1.774.688 1.649 1.133-.129.462-.83.077-1.595-.344-.859-.473-1.801-.991-2.109-.407-.583 1.106 4.018 2.407 4.056 2.416 1.486.386 5.261 1.203 6.58-.73Zm6.114 0c-.949-1.391-.882-2.436.42-3.737 1.303-1.302 2.061-3.205 2.061-3.205s.282-1.106.928-1.004c.645.102 1.118 1.753-.233 2.765-1.351 1.01.269 1.697.789.748.52-.95 1.938-3.389 2.674-3.856.736-.466 1.254-.205 1.081.757-.086.477-.888 1.292-1.637 2.054-.759.772-1.465 1.49-1.314 1.743.299.504 1.354-.593 1.354-.593s3.301-3.004 4.02-2.221c.662.721-.359 1.335-1.934 2.28l-.412.249c-1.802 1.09-1.942 1.378-1.686 1.79.094.153.697-.21 1.439-.654 1.264-.76 2.931-1.76 3.167-.864.203.775-1.023 1.25-2.136 1.68-.926.36-1.774.688-1.649 1.134.129.462.829.076 1.594-.345.86-.473 1.802-.991 2.11-.406.582 1.106-4.019 2.406-4.056 2.415-1.486.387-5.261 1.204-6.58-.73Z"
			clip-rule="evenodd"
		/><path
			fill="#32343D"
			fill-rule="evenodd"
			d="M545.177 28.252c.187.066.326.267.458.459.179.258.345.5.601.363a1.727 1.727 0 0 0 .671-2.405 1.726 1.726 0 0 0-2.636-.397 1.725 1.725 0 0 0-.368 2.09c.119.222.381.117.658.006.217-.087.444-.177.616-.116Zm-8.124 0c-.186.066-.325.267-.458.459-.178.258-.345.5-.6.363a1.723 1.723 0 1 1 2.14-2.619 1.722 1.722 0 0 1 .192 1.906c-.118.223-.381.118-.658.007-.217-.087-.443-.177-.616-.116Zm6.867 7.392c1.288-1.014 1.761-2.67 1.761-3.69 0-.807-.543-.553-1.411-.123l-.049.024c-.797.395-1.859.92-3.024.92s-2.226-.525-3.024-.92c-.896-.444-1.459-.723-1.459.099 0 1.052.503 2.78 1.885 3.784a2.993 2.993 0 0 1 1.83-1.547c.138-.041.28.196.425.44.14.233.284.473.43.473.155 0 .308-.236.457-.466.155-.242.307-.477.454-.43.74.238 1.358.753 1.725 1.436Z"
			clip-rule="evenodd"
		/><path
			fill="#FF323D"
			d="M543.92 35.644c-.67.528-1.562.883-2.723.883-1.09 0-1.943-.313-2.598-.79a2.995 2.995 0 0 1 1.83-1.547c.271-.08.558.914.855.914.317 0 .624-.988.911-.896a3 3 0 0 1 1.725 1.436Z"
		/><path
			fill="#FFAD03"
			fill-rule="evenodd"
			d="M533.974 29.687a1.117 1.117 0 0 1-1.415-.14 1.116 1.116 0 0 1-.323-.902 1.12 1.12 0 1 1 1.738 1.042Zm16.037 0a1.125 1.125 0 0 1-1.416-.14 1.116 1.116 0 0 1-.323-.902 1.123 1.123 0 0 1 1.908-.682 1.117 1.117 0 0 1 .243 1.22c-.085.206-.228.38-.412.504Z"
			clip-rule="evenodd"
		/></g><g filter="url(#g)"><rect
			width="63.25"
			height="63.25"
			x="509.75"
			y="105.012"
			fill="#272935"
			rx="12.65"
		/><path
			fill="#F9AB00"
			d="M541.375 154.752a2.53 2.53 0 0 0 2.53-2.53v-21.927h-5.06v21.927a2.53 2.53 0 0 0 2.53 2.53Z"
		/><path
			fill="#5BB974"
			d="M551.455 138.296a8.768 8.768 0 0 0-10.08-1.659l10.831 10.83c.447.447 1.216.27 1.406-.331a8.76 8.76 0 0 0-2.157-8.84Z"
		/><path
			fill="#129EAF"
			d="M531.295 138.296a8.768 8.768 0 0 1 10.08-1.659l-10.831 10.83c-.447.447-1.216.27-1.406-.331a8.76 8.76 0 0 1 2.157-8.84Z"
		/><path
			fill="#AF5CF7"
			d="M550.652 129.89c-4.31 0-7.968 2.825-9.277 6.746h17.128c.702 0 1.17-.742.852-1.368-1.628-3.194-4.912-5.378-8.703-5.378Z"
		/><path
			fill="#FF8BCB"
			d="M543.165 125.306c-3.049 3.049-3.637 7.63-1.79 11.331l12.112-12.113c.498-.497.304-1.353-.364-1.571-3.412-1.106-7.278-.326-9.958 2.353Z"
		/><path
			fill="#FA7B17"
			d="M539.585 125.306c3.049 3.049 3.637 7.63 1.79 11.331l-12.113-12.113c-.497-.497-.303-1.353.365-1.571 3.412-1.106 7.278-.326 9.958 2.353Z"
		/><path
			fill="#4285F4"
			d="M532.098 129.89c4.309 0 7.967 2.825 9.277 6.746h-17.128c-.703 0-1.171-.742-.852-1.368 1.627-3.194 4.912-5.378 8.703-5.378Z"
		/></g><g filter="url(#h)"><g clip-path="url(#i)"><rect
				width="63.25"
				height="63.25"
				x="509.75"
				y="209.375"
				fill="#272935"
				rx="12.65"
			/><g filter="url(#j)"><rect
					width="63.25"
					height="63.25"
					x="509.75"
					y="209.375"
					fill="#272935"
					rx="12.65"
				/><g clip-path="url(#k)"><mask
						id="l"
						width="41"
						height="42"
						x="521"
						y="220"
						maskUnits="userSpaceOnUse"
						style="mask-type:luminance"
					><path
							fill="#fff"
							d="M561.615 220.76h-40.48v40.48h40.48v-40.48Z"
						/></mask><g mask="url(#l)"><path
							fill="#F8F8F2"
							d="M558.713 237.328a10.086 10.086 0 0 0-.866-8.284 10.201 10.201 0 0 0-10.986-4.893 10.086 10.086 0 0 0-7.606-3.391 10.2 10.2 0 0 0-9.729 7.061 10.088 10.088 0 0 0-6.744 4.892 10.202 10.202 0 0 0 1.255 11.959 10.086 10.086 0 0 0 .866 8.284 10.201 10.201 0 0 0 10.986 4.893 10.08 10.08 0 0 0 7.606 3.39 10.201 10.201 0 0 0 9.733-7.066 10.091 10.091 0 0 0 6.744-4.892 10.203 10.203 0 0 0-1.257-11.956l-.002.003Zm-15.215 21.266a7.568 7.568 0 0 1-4.857-1.756c.062-.033.17-.092.239-.135l8.061-4.656c.413-.234.666-.673.663-1.147v-11.364l3.407 1.968c.036.017.06.053.065.093v9.411a7.595 7.595 0 0 1-7.578 7.586Zm-16.299-6.961a7.555 7.555 0 0 1-.904-5.083c.059.035.164.1.239.143l8.061 4.655c.408.239.914.239 1.324 0l9.841-5.683v3.935a.129.129 0 0 1-.049.105l-8.147 4.704a7.597 7.597 0 0 1-10.365-2.776Zm-2.121-17.596a7.558 7.558 0 0 1 3.948-3.325c0 .069-.004.192-.004.278v9.312c-.002.473.251.912.662 1.146l9.84 5.681-3.406 1.967a.12.12 0 0 1-.116.01l-8.149-4.708a7.598 7.598 0 0 1-2.775-10.361Zm27.99 6.514-9.841-5.682 3.407-1.966a.118.118 0 0 1 .115-.01l8.149 4.704a7.588 7.588 0 0 1-1.171 13.69v-9.59a1.314 1.314 0 0 0-.659-1.146Zm3.39-5.103c-.06-.037-.165-.1-.239-.143l-8.061-4.655a1.312 1.312 0 0 0-1.324 0l-9.841 5.682v-3.934a.124.124 0 0 1 .048-.105l8.148-4.701a7.587 7.587 0 0 1 11.266 7.856h.003Zm-21.317 7.012-3.408-1.967a.119.119 0 0 1-.066-.094v-9.41a7.589 7.589 0 0 1 12.442-5.827 5.319 5.319 0 0 0-.239.136l-8.061 4.655a1.31 1.31 0 0 0-.663 1.146l-.005 11.358v.003Zm1.851-3.99 4.383-2.531 4.383 2.53v5.061l-4.383 2.53-4.383-2.53v-5.06Z"
						/></g></g></g></g></g><g filter="url(#m)"><rect
			width="63.25"
			height="63.25"
			x="509.75"
			y="313.738"
			fill="#272935"
			rx="12.65"
		/><g clip-path="url(#n)"><mask
				id="o"
				width="41"
				height="41"
				x="521"
				y="325"
				maskUnits="userSpaceOnUse"
				style="mask-type:luminance"
			><path
					fill="#fff"
					d="M561.615 325.123h-40.48v40.48h40.48v-40.48Z"
				/></mask><g mask="url(#o)"><path
					fill="#39594D"
					fill-rule="evenodd"
					d="M534.25 349.249c1.08 0 3.239-.054 6.261-1.295 3.509-1.457 10.417-4.048 15.437-6.747 3.508-1.889 5.019-4.372 5.019-7.718 0-4.588-3.724-8.366-8.366-8.366h-19.43c-6.639 0-12.036 5.397-12.036 12.036 0 6.639 5.073 12.09 13.115 12.09Z"
					clip-rule="evenodd"
				/><path
					fill="#D18EE2"
					fill-rule="evenodd"
					d="M537.543 357.508c0-3.239 1.943-6.207 4.966-7.449l6.099-2.536c6.206-2.537 13.007 1.997 13.007 8.689 0 5.182-4.21 9.392-9.391 9.392h-6.639c-4.426 0-8.042-3.617-8.042-8.096Z"
					clip-rule="evenodd"
				/><path
					fill="#FF7759"
					d="M528.097 350.813c-3.832 0-6.962 3.131-6.962 6.963v.918c0 3.778 3.13 6.908 6.962 6.908 3.833 0 6.963-3.13 6.963-6.962v-.918c-.054-3.778-3.13-6.909-6.963-6.909Z"
				/></g></g></g><g filter="url(#p)"><rect
			width="63.25"
			height="63.25"
			x="509.75"
			y="418.101"
			fill="#272935"
			rx="12.65"
		/><g clip-path="url(#q)"><path
				fill="#FAFAF7"
				d="M549.58 436.232h-5.856l10.68 26.987h5.857l-10.681-26.987Zm-16.921 0-10.681 26.987h5.973l2.184-5.667h11.174l2.184 5.667h5.973l-10.681-26.987h-6.126Zm-.592 16.308 3.655-9.484 3.655 9.484h-7.31Z"
			/></g></g><path
		fill="#BD93F9"
		d="M490.749 38.934c0 .828 1.015 1.414 1.732 1l11.536-6.66c.718-.415.718-1.586 0-2l-11.536-6.66c-.717-.415-1.732.17-1.732 1v13.32ZM359.034 239.289l-13.268-6.16c-.718-.414-1.732.172-1.732 1v13.32c0 .829 1.014 1.415 1.732 1l13.268-6.16v-3Zm-5.945 3a1.5 1.5 0 1 0 0-3v3Zm11.319-3a1.5 1.5 0 1 0 0 3v-3Zm18.11 3a1.5 1.5 0 1 0 0-3v3Zm11.318-3a1.5 1.5 0 0 0 0 3v-3Zm20.909.083a1.5 1.5 0 1 0-1.396-2.655l1.396 2.655Zm8.074-12.125a1.499 1.499 0 1 0 2.655 1.396l-2.655-1.396Zm5.573-18.689a1.5 1.5 0 1 0-3 0h3Zm-3-10.29a1.5 1.5 0 1 0 3 0h-3Zm3-16.463a1.5 1.5 0 0 0-3 0h3Zm-3-10.289a1.5 1.5 0 1 0 3 0h-3Zm3-16.464a1.5 1.5 0 0 0-3 0h3Zm-3-10.289a1.5 1.5 0 1 0 3 0h-3Zm3-16.463a1.5 1.5 0 1 0-3 0h3Zm-3-10.29a1.5 1.5 0 1 0 3 0h-3Zm3-16.463a1.5 1.5 0 0 0-3 0h3Zm-3-10.29a1.5 1.5 0 1 0 3 0h-3Zm3-16.463a1.5 1.5 0 0 0-3 0h3Zm-3-10.289a1.5 1.5 0 1 0 3 0h-3Zm5.572-18.689a1.5 1.5 0 0 0-2.655-1.396l2.655 1.396Zm8.074-12.125a1.5 1.5 0 0 0 1.396 2.655l-1.396-2.655Zm20.293.082a1.5 1.5 0 1 0 0-3v3Zm10.55-3a1.5 1.5 0 1 0 0 3v-3Zm16.879 3a1.5 1.5 0 1 0 0-3v3Zm10.55-3a1.5 1.5 0 1 0 0 3v-3ZM364.408 242.29h18.11v-3h-18.11v3Zm29.428 0h9.056v-3h-9.056v3Zm9.056 0c4.276 0 8.31-1.054 11.853-2.917l-1.396-2.655a22.399 22.399 0 0 1-10.457 2.572v3Zm22.582-13.646a25.39 25.39 0 0 0 2.918-11.854h-3c0 3.778-.93 7.335-2.573 10.458l2.655 1.396Zm2.918-11.854v-8.231h-3v8.231h3Zm0-18.521v-16.463h-3v16.463h3Zm0-26.752v-16.464h-3v16.464h3Zm0-26.753V128.3h-3v16.463h3Zm0-26.753v-16.463h-3v16.463h3Zm0-26.752V74.795h-3v16.463h3Zm0-26.753v-8.232h-3v8.232h3Zm0-8.232c0-3.778.93-7.334 2.572-10.457l-2.655-1.396a25.387 25.387 0 0 0-2.917 11.853h3Zm12.042-19.927a22.395 22.395 0 0 1 10.458-2.573v-3a25.394 25.394 0 0 0-11.854 2.918l1.396 2.655Zm10.458-2.573h8.439v-3h-8.439v3Zm18.989 0h16.879v-3h-16.879v3Z"
		opacity=".8"
	/><path
		fill="#BD93F9"
		d="M490.749 143.297c0 .828 1.015 1.414 1.732 1l11.536-6.66c.718-.414.718-1.586 0-2l-11.536-6.661c-.717-.414-1.732.172-1.732 1v13.321Zm-131.715 95.992-13.268-6.16c-.718-.414-1.732.172-1.732 1v13.32c0 .829 1.014 1.415 1.732 1l13.268-6.16v-3Zm-5.945 3a1.5 1.5 0 1 0 0-3v3Zm11.319-3a1.5 1.5 0 1 0 0 3v-3Zm18.11 3a1.5 1.5 0 1 0 0-3v3Zm11.318-3a1.5 1.5 0 0 0 0 3v-3Zm20.909.083a1.5 1.5 0 1 0-1.396-2.655l1.396 2.655Zm8.074-12.125a1.499 1.499 0 1 0 2.655 1.396l-2.655-1.396Zm5.573-19.097a1.5 1.5 0 0 0-3 0h3Zm-3-10.798a1.5 1.5 0 1 0 3 0h-3Zm3-17.278a1.5 1.5 0 0 0-3 0h3Zm-3-10.798a1.5 1.5 0 1 0 3 0h-3Zm5.572-19.097a1.499 1.499 0 1 0-2.655-1.396l2.655 1.396Zm8.074-12.125a1.5 1.5 0 0 0 1.396 2.655l-1.396-2.655Zm20.293.083a1.5 1.5 0 1 0 0-3v3Zm10.55-3a1.5 1.5 0 1 0 0 3v-3Zm16.879 3a1.5 1.5 0 1 0 0-3v3Zm10.55-3a1.5 1.5 0 1 0 0 3v-3ZM364.408 242.289h18.11v-3h-18.11v3Zm29.428 0h9.056v-3h-9.056v3Zm9.056 0c4.276 0 8.31-1.054 11.853-2.917l-1.396-2.655a22.399 22.399 0 0 1-10.457 2.572v3Zm22.582-13.646a25.39 25.39 0 0 0 2.918-11.854h-3c0 3.778-.93 7.335-2.573 10.458l2.655 1.396Zm2.918-11.854v-8.639h-3v8.639h3Zm0-19.437v-17.278h-3v17.278h3Zm0-28.076v-8.639h-3v8.639h3Zm0-8.639c0-3.778.93-7.335 2.572-10.458l-2.655-1.396a25.386 25.386 0 0 0-2.917 11.854h3Zm12.042-19.928a22.4 22.4 0 0 1 10.458-2.572v-3a25.398 25.398 0 0 0-11.854 2.917l1.396 2.655Zm10.458-2.572h8.439v-3h-8.439v3Zm18.989 0h16.879v-3h-16.879v3Z"
		opacity=".8"
	/><path
		fill="#BD93F9"
		d="M490.749 247.449c0 .829 1.015 1.415 1.732 1l11.536-6.66c.718-.414.718-1.586 0-2l-11.536-6.66c-.717-.414-1.732.171-1.732 1v13.32Zm-131.715-8.16-13.268-6.16c-.718-.414-1.732.171-1.732 1v13.32c0 .829 1.014 1.415 1.732 1l13.268-6.16v-3Zm-6.707 3a1.5 1.5 0 0 0 0-3v3Zm10.366-3a1.5 1.5 0 0 0 0 3v-3Zm16.586 3a1.5 1.5 0 1 0 0-3v3Zm10.367-3a1.5 1.5 0 1 0 0 3v-3Zm16.586 3a1.5 1.5 0 0 0 0-3v3Zm10.366-3a1.5 1.5 0 0 0 0 3v-3Zm16.587 3a1.5 1.5 0 0 0 0-3v3Zm10.366-3a1.5 1.5 0 0 0 0 3v-3Zm16.586 3a1.5 1.5 0 1 0 0-3v3Zm10.367-3a1.5 1.5 0 1 0 0 3v-3Zm16.586 3a1.5 1.5 0 0 0 0-3v3Zm10.366-3a1.5 1.5 0 0 0 0 3v-3Zm-134.763 3h16.586v-3h-16.586v3Zm26.953 0h16.586v-3h-16.586v3Zm26.952 0h16.587v-3h-16.587v3Zm26.953 0h16.586v-3h-16.586v3Zm26.953 0h16.586v-3h-16.586v3Z"
		opacity=".8"
	/><path
		fill="#BD93F9"
		d="M490.749 352.023c0 .829 1.015 1.415 1.732 1l11.536-6.66c.718-.414.718-1.586 0-2l-11.536-6.66c-.717-.414-1.732.171-1.732 1v13.32ZM359.034 239.289l-13.268-6.16c-.718-.414-1.732.171-1.732 1v13.32c0 .829 1.014 1.415 1.732 1l13.268-6.16v-3Zm-5.945 3a1.5 1.5 0 0 0 0-3v3Zm11.319-3a1.5 1.5 0 1 0 0 3v-3Zm18.11 3a1.5 1.5 0 0 0 0-3v3Zm11.318-3a1.5 1.5 0 0 0 0 3v-3Zm19.513 5.572a1.5 1.5 0 1 0 1.396-2.655l-1.396 2.655Zm12.125 8.074a1.5 1.5 0 0 0-2.655 1.397l2.655-1.397Zm-.082 20.558a1.5 1.5 0 1 0 3 0h-3Zm3 10.879a1.5 1.5 0 0 0-3 0h3Zm-3 17.408a1.5 1.5 0 1 0 3 0h-3Zm3 10.879a1.5 1.5 0 0 0-3 0h3Zm-.083 20.558a1.5 1.5 0 0 0 2.655-1.397l-2.655 1.397Zm12.125 8.074a1.5 1.5 0 1 0-1.396 2.655l1.396-2.655Zm18.897 5.572a1.5 1.5 0 1 0 0-3v3Zm10.55-3a1.5 1.5 0 1 0 0 3v-3Zm16.879 3a1.5 1.5 0 1 0 0-3v3Zm10.55-3a1.5 1.5 0 1 0 0 3v-3ZM364.408 242.289h18.11v-3h-18.11v3Zm29.428 0h9.056v-3h-9.056v3Zm9.056 0c3.778 0 7.334.93 10.457 2.572l1.396-2.655a25.397 25.397 0 0 0-11.853-2.917v3Zm19.927 12.043a22.385 22.385 0 0 1 2.573 10.457h3a25.39 25.39 0 0 0-2.918-11.854l-2.655 1.397Zm2.573 10.457v8.704h3v-8.704h-3Zm0 19.583v17.408h3v-17.408h-3Zm0 28.287v8.704h3v-8.704h-3Zm0 8.704a25.39 25.39 0 0 0 2.917 11.854l2.655-1.397a22.396 22.396 0 0 1-2.572-10.457h-3Zm13.646 22.583a25.398 25.398 0 0 0 11.854 2.917v-3a22.4 22.4 0 0 1-10.458-2.572l-1.396 2.655Zm11.854 2.917h8.439v-3h-8.439v3Zm18.989 0h16.879v-3h-16.879v3Z"
		opacity=".8"
	/><path
		fill="#BD93F9"
		d="M490.749 456.386c0 .828 1.015 1.414 1.732 1l11.536-6.661c.718-.414.718-1.585 0-2l-11.536-6.66c-.717-.414-1.732.172-1.732 1v13.321ZM359.034 239.289l-13.268-6.16c-.718-.414-1.732.171-1.732 1v13.32c0 .829 1.014 1.415 1.732 1l13.268-6.16v-3Zm-5.945 3a1.5 1.5 0 0 0 0-3v3Zm11.319-3a1.5 1.5 0 1 0 0 3v-3Zm18.11 3a1.5 1.5 0 0 0 0-3v3Zm11.318-3a1.5 1.5 0 0 0 0 3v-3Zm19.513 5.572a1.5 1.5 0 1 0 1.396-2.655l-1.396 2.655Zm12.125 8.074a1.5 1.5 0 0 0-2.655 1.397l2.655-1.397Zm-.082 20.107a1.5 1.5 0 1 0 3 0h-3Zm3 10.317a1.5 1.5 0 1 0-3 0h3Zm-3 16.506a1.5 1.5 0 1 0 3 0h-3Zm3 10.316a1.5 1.5 0 0 0-3 0h3Zm-3 16.507a1.5 1.5 0 1 0 3 0h-3Zm3 10.316a1.5 1.5 0 0 0-3 0h3Zm-3 16.506a1.5 1.5 0 1 0 3 0h-3Zm3 10.317a1.5 1.5 0 1 0-3 0h3Zm-3 16.506a1.5 1.5 0 1 0 3 0h-3Zm3 10.317a1.5 1.5 0 1 0-3 0h3Zm-3 16.506a1.5 1.5 0 1 0 3 0h-3Zm3 10.316a1.5 1.5 0 0 0-3 0h3Zm-.083 20.107a1.5 1.5 0 1 0 2.655-1.396l-2.655 1.396Zm12.125 8.074a1.5 1.5 0 0 0-1.396 2.655l1.396-2.655Zm18.897 5.572a1.5 1.5 0 1 0 0-3v3Zm10.55-3a1.5 1.5 0 1 0 0 3v-3Zm16.879 3a1.5 1.5 0 1 0 0-3v3Zm10.55-3a1.5 1.5 0 1 0 0 3v-3ZM364.408 242.289h18.11v-3h-18.11v3Zm29.428 0h9.056v-3h-9.056v3Zm9.056 0c3.778 0 7.334.93 10.457 2.572l1.396-2.655a25.397 25.397 0 0 0-11.853-2.917v3Zm19.927 12.043a22.385 22.385 0 0 1 2.573 10.457h3a25.39 25.39 0 0 0-2.918-11.854l-2.655 1.397Zm2.573 10.457v8.253h3v-8.253h-3Zm0 18.57v16.506h3v-16.506h-3Zm0 26.822v16.507h3v-16.507h-3Zm0 26.823v16.506h3v-16.506h-3Zm0 26.823v16.506h3v-16.506h-3Zm0 26.823v16.506h3V390.65h-3Zm0 26.822v8.253h3v-8.253h-3Zm0 8.253c0 4.277 1.053 8.311 2.917 11.854l2.655-1.396a22.4 22.4 0 0 1-2.572-10.458h-3Zm13.646 22.583a25.386 25.386 0 0 0 11.854 2.917v-3a22.4 22.4 0 0 1-10.458-2.572l-1.396 2.655Zm11.854 2.917h8.439v-3h-8.439v3Zm18.989 0h16.879v-3h-16.879v3ZM64.25 176.671a1.5 1.5 0 1 0 0 3v-3Zm174.125 65.618 13.268 6.16c.718.415 1.732-.171 1.732-1v-13.32c0-.828-1.014-1.414-1.732-1l-13.268 6.16v3ZM71.283 179.671a1.5 1.5 0 0 0 0-3v3Zm8.79-3a1.5 1.5 0 1 0 0 3v-3Zm14.064 3a1.5 1.5 0 0 0 0-3v3Zm8.79-3a1.5 1.5 0 1 0 0 3v-3Zm14.064 3a1.5 1.5 0 0 0 0-3v3Zm8.79-3a1.5 1.5 0 1 0 0 3v-3Zm17.489 5.572a1.5 1.5 0 0 0 1.397-2.655l-1.397 2.655Zm12.126 8.074a1.5 1.5 0 0 0-2.656 1.397l2.656-1.397Zm-.083 16.352a1.5 1.5 0 1 0 3 0h-3Zm3 5.622a1.5 1.5 0 0 0-3 0h3Zm-.083 16.352a1.5 1.5 0 0 0 2.655-1.396l-2.655 1.396Zm12.125 8.074a1.499 1.499 0 1 0-1.396 2.655l1.396-2.655Zm17.9 5.572a1.5 1.5 0 1 0 0-3v3Zm9.303-3a1.5 1.5 0 0 0 0 3v-3Zm14.885 3a1.5 1.5 0 1 0 0-3v3Zm9.302-3a1.5 1.5 0 0 0 0 3v-3Zm14.885 3a1.5 1.5 0 1 0 0-3v3Zm9.303-3a1.5 1.5 0 1 0 0 3v-3ZM64.251 179.671h7.031v-3h-7.031v3Zm15.822 0h14.064v-3H80.073v3Zm22.854 0h14.064v-3h-14.064v3Zm22.854 0h7.032v-3h-7.032v3Zm7.032 0c3.778 0 7.334.93 10.457 2.572l1.397-2.655a25.401 25.401 0 0 0-11.854-2.917v3Zm19.927 12.043a22.385 22.385 0 0 1 2.573 10.457h3c0-4.276-1.054-8.311-2.917-11.854l-2.656 1.397Zm2.573 10.457v4.498h3v-4.498h-3Zm0 10.12v4.498h3v-4.498h-3Zm0 4.498c0 4.276 1.054 8.311 2.917 11.854l2.655-1.396a22.403 22.403 0 0 1-2.572-10.458h-3Zm13.646 22.583a25.401 25.401 0 0 0 11.854 2.917v-3c-3.778 0-7.335-.93-10.458-2.572l-1.396 2.655Zm11.854 2.917h7.442v-3h-7.442v3Zm16.745 0h14.885v-3h-14.885v3Zm24.187 0h14.885v-3h-14.885v3Z"
		opacity=".8"
	/><defs><filter
			id="a"
			width="105.417"
			height="105.417"
			x="-24.084"
			y=".648"
			color-interpolation-filters="sRGB"
			filterUnits="userSpaceOnUse"
		><feFlood flood-opacity="0" result="BackgroundImageFix" /><feColorMatrix
				in="SourceAlpha"
				result="hardAlpha"
				values="0 0 0 0 0 0 0 0 0 0 0 0 0 0 0 0 0 0 127 0"
			/><feOffset dy="21.084" /><feGaussianBlur
				stdDeviation="10.542"
			/><feComposite in2="hardAlpha" operator="out" /><feColorMatrix
				values="0 0 0 0 0 0 0 0 0 0 0 0 0 0 0 0 0 0 0.15 0"
			/><feBlend
				in2="BackgroundImageFix"
				result="effect1_dropShadow_625_9573"
			/><feBlend
				in="SourceGraphic"
				in2="effect1_dropShadow_625_9573"
				result="shape"
			/></filter><filter
			id="b"
			width="100.779"
			height="100.779"
			x="248.315"
			y="192.93"
			color-interpolation-filters="sRGB"
			filterUnits="userSpaceOnUse"
		><feFlood flood-opacity="0" result="BackgroundImageFix" /><feColorMatrix
				in="SourceAlpha"
				result="hardAlpha"
				values="0 0 0 0 0 0 0 0 0 0 0 0 0 0 0 0 0 0 127 0"
			/><feOffset dy="1.687" /><feGaussianBlur
				stdDeviation=".843"
			/><feComposite in2="hardAlpha" operator="out" /><feColorMatrix
				values="0 0 0 0 0 0 0 0 0 0 0 0 0 0 0 0 0 0 0.06 0"
			/><feBlend
				in2="BackgroundImageFix"
				result="effect1_dropShadow_625_9573"
			/><feColorMatrix
				in="SourceAlpha"
				result="hardAlpha"
				values="0 0 0 0 0 0 0 0 0 0 0 0 0 0 0 0 0 0 127 0"
			/><feOffset dy="2.53" /><feGaussianBlur
				stdDeviation="2.53"
			/><feComposite in2="hardAlpha" operator="out" /><feColorMatrix
				values="0 0 0 0 0.611765 0 0 0 0 0.639216 0 0 0 0 0.686275 0 0 0 0.35 0"
			/><feBlend
				in2="effect1_dropShadow_625_9573"
				result="effect2_dropShadow_625_9573"
			/><feBlend
				in="SourceGraphic"
				in2="effect2_dropShadow_625_9573"
				result="shape"
			/></filter><filter
			id="c"
			width="105.417"
			height="105.417"
			x="-24.084"
			y="146.546"
			color-interpolation-filters="sRGB"
			filterUnits="userSpaceOnUse"
		><feFlood flood-opacity="0" result="BackgroundImageFix" /><feColorMatrix
				in="SourceAlpha"
				result="hardAlpha"
				values="0 0 0 0 0 0 0 0 0 0 0 0 0 0 0 0 0 0 127 0"
			/><feOffset dy="21.084" /><feGaussianBlur
				stdDeviation="10.542"
			/><feComposite in2="hardAlpha" operator="out" /><feColorMatrix
				values="0 0 0 0 0 0 0 0 0 0 0 0 0 0 0 0 0 0 0.15 0"
			/><feBlend
				in2="BackgroundImageFix"
				result="effect1_dropShadow_625_9573"
			/><feBlend
				in="SourceGraphic"
				in2="effect1_dropShadow_625_9573"
				result="shape"
			/></filter><filter
			id="d"
			width="105.417"
			height="105.417"
			x="-24.084"
			y="418.101"
			color-interpolation-filters="sRGB"
			filterUnits="userSpaceOnUse"
		><feFlood flood-opacity="0" result="BackgroundImageFix" /><feColorMatrix
				in="SourceAlpha"
				result="hardAlpha"
				values="0 0 0 0 0 0 0 0 0 0 0 0 0 0 0 0 0 0 127 0"
			/><feOffset dy="21.084" /><feGaussianBlur
				stdDeviation="10.542"
			/><feComposite in2="hardAlpha" operator="out" /><feColorMatrix
				values="0 0 0 0 0 0 0 0 0 0 0 0 0 0 0 0 0 0 0.15 0"
			/><feBlend
				in2="BackgroundImageFix"
				result="effect1_dropShadow_625_9573"
			/><feBlend
				in="SourceGraphic"
				in2="effect1_dropShadow_625_9573"
				result="shape"
			/></filter><filter
			id="e"
			width="105.417"
			height="105.417"
			x="-24.084"
			y="273.047"
			color-interpolation-filters="sRGB"
			filterUnits="userSpaceOnUse"
		><feFlood flood-opacity="0" result="BackgroundImageFix" /><feColorMatrix
				in="SourceAlpha"
				result="hardAlpha"
				values="0 0 0 0 0 0 0 0 0 0 0 0 0 0 0 0 0 0 127 0"
			/><feOffset dy="21.084" /><feGaussianBlur
				stdDeviation="10.542"
			/><feComposite in2="hardAlpha" operator="out" /><feColorMatrix
				values="0 0 0 0 0 0 0 0 0 0 0 0 0 0 0 0 0 0 0.15 0"
			/><feBlend
				in2="BackgroundImageFix"
				result="effect1_dropShadow_625_9573"
			/><feBlend
				in="SourceGraphic"
				in2="effect1_dropShadow_625_9573"
				result="shape"
			/></filter><filter
			id="f"
			width="105.417"
			height="105.417"
			x="488.666"
			y=".648"
			color-interpolation-filters="sRGB"
			filterUnits="userSpaceOnUse"
		><feFlood flood-opacity="0" result="BackgroundImageFix" /><feColorMatrix
				in="SourceAlpha"
				result="hardAlpha"
				values="0 0 0 0 0 0 0 0 0 0 0 0 0 0 0 0 0 0 127 0"
			/><feOffset dy="21.084" /><feGaussianBlur
				stdDeviation="10.542"
			/><feComposite in2="hardAlpha" operator="out" /><feColorMatrix
				values="0 0 0 0 0 0 0 0 0 0 0 0 0 0 0 0 0 0 0.15 0"
			/><feBlend
				in2="BackgroundImageFix"
				result="effect1_dropShadow_625_9573"
			/><feBlend
				in="SourceGraphic"
				in2="effect1_dropShadow_625_9573"
				result="shape"
			/></filter><filter
			id="g"
			width="105.417"
			height="105.417"
			x="488.666"
			y="105.012"
			color-interpolation-filters="sRGB"
			filterUnits="userSpaceOnUse"
		><feFlood flood-opacity="0" result="BackgroundImageFix" /><feColorMatrix
				in="SourceAlpha"
				result="hardAlpha"
				values="0 0 0 0 0 0 0 0 0 0 0 0 0 0 0 0 0 0 127 0"
			/><feOffset dy="21.084" /><feGaussianBlur
				stdDeviation="10.542"
			/><feComposite in2="hardAlpha" operator="out" /><feColorMatrix
				values="0 0 0 0 0 0 0 0 0 0 0 0 0 0 0 0 0 0 0.15 0"
			/><feBlend
				in2="BackgroundImageFix"
				result="effect1_dropShadow_625_9573"
			/><feBlend
				in="SourceGraphic"
				in2="effect1_dropShadow_625_9573"
				result="shape"
			/></filter><filter
			id="h"
			width="105.417"
			height="105.417"
			x="488.666"
			y="209.375"
			color-interpolation-filters="sRGB"
			filterUnits="userSpaceOnUse"
		><feFlood flood-opacity="0" result="BackgroundImageFix" /><feColorMatrix
				in="SourceAlpha"
				result="hardAlpha"
				values="0 0 0 0 0 0 0 0 0 0 0 0 0 0 0 0 0 0 127 0"
			/><feOffset dy="21.084" /><feGaussianBlur
				stdDeviation="10.542"
			/><feComposite in2="hardAlpha" operator="out" /><feColorMatrix
				values="0 0 0 0 0 0 0 0 0 0 0 0 0 0 0 0 0 0 0.15 0"
			/><feBlend
				in2="BackgroundImageFix"
				result="effect1_dropShadow_625_9573"
			/><feBlend
				in="SourceGraphic"
				in2="effect1_dropShadow_625_9573"
				result="shape"
			/></filter><filter
			id="j"
			width="105.417"
			height="105.417"
			x="488.666"
			y="209.375"
			color-interpolation-filters="sRGB"
			filterUnits="userSpaceOnUse"
		><feFlood flood-opacity="0" result="BackgroundImageFix" /><feColorMatrix
				in="SourceAlpha"
				result="hardAlpha"
				values="0 0 0 0 0 0 0 0 0 0 0 0 0 0 0 0 0 0 127 0"
			/><feOffset dy="21.084" /><feGaussianBlur
				stdDeviation="10.542"
			/><feComposite in2="hardAlpha" operator="out" /><feColorMatrix
				values="0 0 0 0 0 0 0 0 0 0 0 0 0 0 0 0 0 0 0.15 0"
			/><feBlend
				in2="BackgroundImageFix"
				result="effect1_dropShadow_625_9573"
			/><feBlend
				in="SourceGraphic"
				in2="effect1_dropShadow_625_9573"
				result="shape"
			/></filter><filter
			id="m"
			width="105.417"
			height="105.417"
			x="488.666"
			y="313.738"
			color-interpolation-filters="sRGB"
			filterUnits="userSpaceOnUse"
		><feFlood flood-opacity="0" result="BackgroundImageFix" /><feColorMatrix
				in="SourceAlpha"
				result="hardAlpha"
				values="0 0 0 0 0 0 0 0 0 0 0 0 0 0 0 0 0 0 127 0"
			/><feOffset dy="21.084" /><feGaussianBlur
				stdDeviation="10.542"
			/><feComposite in2="hardAlpha" operator="out" /><feColorMatrix
				values="0 0 0 0 0 0 0 0 0 0 0 0 0 0 0 0 0 0 0.15 0"
			/><feBlend
				in2="BackgroundImageFix"
				result="effect1_dropShadow_625_9573"
			/><feBlend
				in="SourceGraphic"
				in2="effect1_dropShadow_625_9573"
				result="shape"
			/></filter><filter
			id="p"
			width="105.417"
			height="105.417"
			x="488.666"
			y="418.101"
			color-interpolation-filters="sRGB"
			filterUnits="userSpaceOnUse"
		><feFlood flood-opacity="0" result="BackgroundImageFix" /><feColorMatrix
				in="SourceAlpha"
				result="hardAlpha"
				values="0 0 0 0 0 0 0 0 0 0 0 0 0 0 0 0 0 0 127 0"
			/><feOffset dy="21.084" /><feGaussianBlur
				stdDeviation="10.542"
			/><feComposite in2="hardAlpha" operator="out" /><feColorMatrix
				values="0 0 0 0 0 0 0 0 0 0 0 0 0 0 0 0 0 0 0.15 0"
			/><feBlend
				in2="BackgroundImageFix"
				result="effect1_dropShadow_625_9573"
			/><feBlend
				in="SourceGraphic"
				in2="effect1_dropShadow_625_9573"
				result="shape"
			/></filter><clipPath id="i"><rect
				width="63.25"
				height="63.25"
				x="509.75"
				y="209.375"
				fill="#fff"
				rx="12.65"
			/></clipPath><clipPath id="k"><path
				fill="#fff"
				d="M521.135 220.76h40.48v40.48h-40.48z"
			/></clipPath><clipPath id="n"><path
				fill="#fff"
				d="M521.135 325.123h40.48v40.48h-40.48z"
			/></clipPath><clipPath id="q"><path
				fill="#fff"
				d="M521.978 436.232h38.794v26.987h-38.794z"
			/></clipPath></defs></svg>
