<svg xmlns="http://www.w3.org/2000/svg" width="620" height="524" fill="none"><g
		filter="url(#a)"
	><rect
			width="63.25"
			height="63.25"
			x="22"
			y=".649"
			fill="#272935"
			rx="12.65"
		/><path
			fill="#40D0FD"
			d="m52.845 35.204 4.252-4.142h10.561l-9.356 9.356-5.457-5.214Z"
		/><path
			fill="#41D0FD"
			d="m39.593 32.432 5.311 5.438 22.754-22.943H57.096L39.594 32.432Z"
		/><path
			fill="#1FBCFD"
			d="m47.523 40.47 5.388 5.308 5.391-5.36-5.457-5.214-5.322 5.266Z"
		/><path
			fill="#095A9D"
			d="m52.91 45.778 5.392-5.36 9.224 9.33h-10.62l-3.995-3.97Z"
		/><path
			fill="#0E5199"
			d="m52.91 45.778 5.024-1.671-1.693-1.64-3.33 3.31Z"
		/></g><g filter="url(#b)"><rect
			width="90.659"
			height="90.659"
			x="278.375"
			y="195.46"
			fill="#272935"
			rx="12.65"
		/><path
			fill="#BD93F9"
			d="M323.703 232.573a102.762 102.762 0 0 1 8.83-3.981c-9.293-6.294-8.367-6.294-17.66 0a103.06 103.06 0 0 1 8.831 3.981m-5.778-14.316a87.067 87.067 0 0 1 5.778 2.681 87.754 87.754 0 0 1 5.777-2.681c-5.567-4.815-5.988-4.815-11.556 0m-8.598 8.308c.963.323 1.917.657 2.865 1.003a94.706 94.706 0 0 1 8.927-5.547l.027-.014c-7.141-3.493-7.605-2.21-11.819 4.558Zm-2.835 5.343a92.342 92.342 0 0 1 3.4-2.672c-2.584-.905-2.367.353-3.4 2.672Zm-1.762 4.673-.131.424c2.584.747 5.116 1.573 7.594 2.481a94.509 94.509 0 0 1 8.927-5.548l.027-.014c-8.79-4.3-9.236-3.888-16.417 2.657Zm-1.687 10.235a91.85 91.85 0 0 1 6.849-5.663c-6.929-2.426-6.784-1.642-6.849 5.663Zm.277 4.175c1.087 7.346 1.653 5.761 6.572 2.078a113.067 113.067 0 0 0-6.572-2.078Zm2.958 8.044c5.307 7.985 8.142 2.405 14.841-1.264l.027-.014a102.22 102.22 0 0 0-8.584-3.713 89.505 89.505 0 0 0-6.284 4.991Zm7.455 6.092c2.737 1.156 6.041 1.806 9.971 1.806 3.93 0 7.236-.649 9.971-1.806-10.434-7.301-9.509-7.301-19.943 0m27.398-6.092a89.737 89.737 0 0 0-6.284-4.991 102.077 102.077 0 0 0-8.584 3.713l.028.014c6.696 3.667 9.538 9.25 14.841 1.264m2.958-8.044a114.627 114.627 0 0 0-6.572 2.078c4.916 3.681 5.488 5.269 6.572-2.078Zm.277-4.175c-.066-7.305.08-8.09-6.849-5.663a92.098 92.098 0 0 1 6.849 5.663Zm-1.555-9.811a68.708 68.708 0 0 0-.131-.424c-7.181-6.545-7.626-6.957-16.416-2.657l.027.014a94.524 94.524 0 0 1 8.928 5.548 114.805 114.805 0 0 1 7.593-2.481m-1.894-5.097c-1.033-2.319-.815-3.577-3.4-2.672a92.342 92.342 0 0 1 3.4 2.672Zm-2.835-5.343c-4.215-6.768-4.678-8.051-11.818-4.558l.026.014a94.721 94.721 0 0 1 8.928 5.547c.946-.346 1.901-.681 2.864-1.003Zm-14.377 29.84a102.621 102.621 0 0 1 8.831-3.982c-9.294-6.294-8.367-6.294-17.66 0a103.068 103.068 0 0 1 8.831 3.982m-11.513-5.003a94.524 94.524 0 0 1 8.928-5.548l.026-.014c-8.994-4.399-9.49-3.733-16.8 3.009 2.672.767 5.288 1.616 7.845 2.553m30.871-2.553c-7.31-6.742-7.806-7.408-16.8-3.009l.028.014a94.637 94.637 0 0 1 8.927 5.548 114.532 114.532 0 0 1 7.846-2.553m-19.358-4.36a102.77 102.77 0 0 1 8.83-3.982c-9.293-6.293-8.367-6.293-17.66 0a103.237 103.237 0 0 1 8.831 3.982"
		/></g><path
		fill="#9747FF"
		d="M89.25 30.774a1.5 1.5 0 0 0 0 3v-3Zm174.125 211.515 13.268 6.161c.718.414 1.732-.172 1.732-1v-13.321c0-.828-1.014-1.414-1.732-1l-13.268 6.16v3ZM96.283 33.774a1.5 1.5 0 1 0 0-3v3Zm8.79-3a1.5 1.5 0 1 0 0 3v-3Zm14.064 3a1.5 1.5 0 0 0 0-3v3Zm8.79-3a1.5 1.5 0 1 0 0 3v-3Zm14.064 3a1.5 1.5 0 0 0 0-3v3Zm8.79-3a1.5 1.5 0 1 0 0 3v-3Zm17.489 5.572a1.5 1.5 0 0 0 1.397-2.655l-1.397 2.655Zm12.126 8.074a1.5 1.5 0 0 0-2.655 1.396l2.655-1.396Zm-.083 20.085a1.5 1.5 0 1 0 3 0h-3Zm3 10.29a1.5 1.5 0 0 0-3 0h3Zm-3 16.463a1.5 1.5 0 1 0 3 0h-3Zm3 10.289a1.5 1.5 0 0 0-3 0h3Zm-3 16.464a1.5 1.5 0 1 0 3 0h-3Zm3 10.289a1.5 1.5 0 0 0-3 0h3Zm-3 16.463a1.5 1.5 0 1 0 3 0h-3Zm3 10.29a1.5 1.5 0 1 0-3 0h3Zm-3 16.463a1.5 1.5 0 1 0 3 0h-3Zm3 10.289a1.5 1.5 0 0 0-3 0h3Zm-3 16.463a1.5 1.5 0 1 0 3 0h-3Zm3 10.29a1.5 1.5 0 1 0-3 0h3Zm-.083 20.085a1.5 1.5 0 1 0 2.655-1.396l-2.655 1.396Zm12.126 8.074a1.5 1.5 0 0 0-1.397 2.655l1.397-2.655Zm17.899 5.572a1.5 1.5 0 1 0 0-3v3Zm9.303-3a1.5 1.5 0 0 0 0 3v-3Zm14.885 3a1.5 1.5 0 1 0 0-3v3Zm9.303-3a1.5 1.5 0 1 0 0 3v-3Zm14.884 3a1.5 1.5 0 1 0 0-3v3Zm9.303-3a1.5 1.5 0 0 0 0 3v-3ZM89.251 33.774h7.032v-3H89.25v3Zm15.822 0h14.064v-3h-14.064v3Zm22.854 0h14.064v-3h-14.064v3Zm22.854 0h7.032v-3h-7.032v3Zm7.032 0c3.778 0 7.335.93 10.457 2.572l1.397-2.655a25.398 25.398 0 0 0-11.854-2.917v3Zm19.928 12.042a22.399 22.399 0 0 1 2.572 10.458h3a25.4 25.4 0 0 0-2.917-11.854l-2.655 1.396Zm2.572 10.458v8.231h3v-8.231h-3Zm0 18.52v16.464h3V74.795h-3Zm0 26.753v16.464h3v-16.464h-3Zm0 26.753v16.463h3V128.3h-3Zm0 26.753v16.463h3v-16.463h-3Zm0 26.752v16.463h3v-16.463h-3Zm0 26.753v8.231h3v-8.231h-3Zm0 8.231c0 4.277 1.054 8.311 2.917 11.854l2.655-1.396a22.4 22.4 0 0 1-2.572-10.458h-3Zm13.646 22.583a25.39 25.39 0 0 0 11.854 2.917v-3c-3.778 0-7.335-.93-10.457-2.572l-1.397 2.655Zm11.854 2.917h7.442v-3h-7.442v3Zm16.745 0h14.885v-3h-14.885v3Zm24.188 0h14.884v-3h-14.884v3Z"
	/><g filter="url(#c)"><rect
			width="63.25"
			height="63.25"
			x="22"
			y="146.546"
			fill="#272935"
			rx="12.65"
		/><path
			fill="#78C257"
			d="M67.254 172.167a2.112 2.112 0 0 0-2.114 2.114v9.58a2.115 2.115 0 1 0 4.228 0v-9.58a2.113 2.113 0 0 0-2.114-2.114ZM39.997 172.167a2.111 2.111 0 0 0-2.114 2.114v9.58a2.115 2.115 0 0 0 4.228 0v-9.58a2.113 2.113 0 0 0-2.114-2.114ZM43.64 172.167v14.393a2.408 2.408 0 0 0 2.407 2.406h1.529v5.105a2.115 2.115 0 0 0 4.228 0v-5.105h3.643v5.105a2.115 2.115 0 0 0 4.228 0v-5.105h1.53a2.403 2.403 0 0 0 2.405-2.406v-14.393H43.64ZM63.34 169.176a9.29 9.29 0 0 0-4.115-5.308l-.337-.202-.36-.18.405-.697 1.192-2.249a.316.316 0 0 0-.113-.36h-.157a.388.388 0 0 0-.292.158l-1.215 2.091-.382.697-.36-.157-.383-.135a10.973 10.973 0 0 0-7.196 0l-.36.135-.382.157-.382-.697-1.215-2.249a.316.316 0 0 0-.082-.095.319.319 0 0 0-.452.053.318.318 0 0 0-.067.237.325.325 0 0 0 .039.12l1.192 2.249.405.697-.36.18-.337.202a9.154 9.154 0 0 0-4.094 5.353 6.988 6.988 0 0 0-.292 1.799h19.97a8.088 8.088 0 0 0-.27-1.799Zm-14.213-1.192a.899.899 0 1 1 .001-1.798.899.899 0 0 1 0 1.798Zm8.996 0a.898.898 0 0 1-.882-1.075.898.898 0 0 1 1.63-.324.896.896 0 0 1-.112 1.135.899.899 0 0 1-.636.264Z"
		/></g><g filter="url(#d)"><rect
			width="63.25"
			height="63.25"
			x="22"
			y="418.101"
			fill="#272935"
			rx="12.65"
		/><path
			fill="#00D8FF"
			d="M53.625 452.856a3.163 3.163 0 1 0 0-6.325 3.163 3.163 0 0 0 0 6.325Z"
		/><path
			fill="#00D8FF"
			d="M53.625 456.944a35.893 35.893 0 0 1-11.233-1.518 14.294 14.294 0 0 1-4.626-2.477 4.48 4.48 0 0 1-1.85-3.256c0-2.091 2.296-4.14 6.145-5.481a36.373 36.373 0 0 1 11.564-1.705 36.26 36.26 0 0 1 11.413 1.675 14.383 14.383 0 0 1 4.476 2.36 4.29 4.29 0 0 1 1.821 3.151c0 2.173-2.568 4.376-6.704 5.745a36.467 36.467 0 0 1-11.006 1.506Zm0-12.924a35.343 35.343 0 0 0-11.067 1.621c-3.542 1.236-5.13 2.926-5.13 4.048 0 1.174 1.707 3.02 5.454 4.301a34.417 34.417 0 0 0 10.743 1.441 34.908 34.908 0 0 0 10.531-1.429c3.89-1.289 5.661-3.137 5.661-4.309a2.947 2.947 0 0 0-1.277-1.99 12.895 12.895 0 0 0-3.999-2.092 34.732 34.732 0 0 0-10.916-1.591Z"
		/><path
			fill="#00D8FF"
			d="M46.44 465.467a3.347 3.347 0 0 1-1.69-.415c-1.812-1.045-2.439-4.058-1.679-8.062a36.361 36.361 0 0 1 4.301-10.87 36.272 36.272 0 0 1 7.151-9.05 14.407 14.407 0 0 1 4.281-2.699 4.29 4.29 0 0 1 3.64 0c1.885 1.086 2.508 4.41 1.629 8.677a36.42 36.42 0 0 1-4.195 10.288 35.9 35.9 0 0 1-6.927 8.973 14.292 14.292 0 0 1-4.457 2.769 6.242 6.242 0 0 1-2.054.389Zm2.243-18.596a35.36 35.36 0 0 0-4.124 10.397c-.7 3.688-.028 5.905.949 6.469 1.012.586 3.468.031 6.451-2.575a34.414 34.414 0 0 0 6.612-8.59 34.908 34.908 0 0 0 4.025-9.836c.827-4.017.112-6.476-.902-7.06a2.945 2.945 0 0 0-2.364.112 12.894 12.894 0 0 0-3.807 2.427 34.717 34.717 0 0 0-6.831 8.664l-.01-.008Z"
		/><path
			fill="#00D8FF"
			d="M60.807 465.483c-1.714 0-3.891-1.037-6.158-2.987a36.358 36.358 0 0 1-7.27-9.155 36.272 36.272 0 0 1-4.268-10.715 14.391 14.391 0 0 1-.2-5.06 4.29 4.29 0 0 1 1.814-3.146c1.88-1.09 5.072.03 8.33 2.922a36.432 36.432 0 0 1 6.818 8.771 35.917 35.917 0 0 1 4.314 10.483c.38 1.723.44 3.501.173 5.245a4.484 4.484 0 0 1-1.89 3.232 3.277 3.277 0 0 1-1.663.41ZM48.688 452.58a35.341 35.341 0 0 0 6.947 8.765c2.845 2.448 5.102 2.974 6.072 2.404 1.012-.589 1.759-2.99.99-6.874a34.422 34.422 0 0 0-4.138-10.008 34.914 34.914 0 0 0-6.509-8.399c-3.066-2.723-5.553-3.331-6.566-2.744a2.935 2.935 0 0 0-1.082 2.102 12.896 12.896 0 0 0 .194 4.51 34.732 34.732 0 0 0 4.093 10.246l-.001-.002Z"
		/></g><g filter="url(#e)"><rect
			width="63.25"
			height="63.25"
			x="22"
			y="273.047"
			fill="#272935"
			rx="12.65"
		/><path
			fill="#fff"
			fill-opacity=".8"
			d="M61.415 284.432h.288c.23 2.855-.859 4.988-2.183 6.533-1.3 1.534-3.079 3.021-5.957 2.796-.192-2.814.9-4.789 2.222-6.33 1.227-1.436 3.475-2.714 5.63-2.999ZM70.126 314.146v.08c-.809 2.449-1.962 4.549-3.37 6.497-1.285 1.768-2.86 4.149-5.672 4.149-2.43 0-4.044-1.563-6.534-1.606-2.635-.042-4.083 1.307-6.492 1.646h-.821c-1.769-.256-3.196-1.656-4.236-2.918-3.066-3.73-5.436-8.547-5.877-14.711v-1.812c.187-4.412 2.33-7.999 5.18-9.737 1.504-.924 3.571-1.712 5.873-1.36.987.153 1.995.491 2.878.825.837.322 1.884.892 2.876.862.672-.02 1.34-.37 2.018-.617 1.983-.716 3.928-1.537 6.491-1.152 3.08.466 5.267 1.835 6.618 3.946-2.606 1.659-4.666 4.158-4.314 8.426.313 3.877 2.567 6.145 5.382 7.482Z"
		/></g><path
		fill="#976FD2"
		d="M89.25 30.774a1.5 1.5 0 0 0 0 3v-3Zm174.125 211.515 13.268 6.161c.718.414 1.732-.172 1.732-1v-13.321c0-.828-1.014-1.414-1.732-1l-13.268 6.16v3ZM96.283 33.774a1.5 1.5 0 1 0 0-3v3Zm8.79-3a1.5 1.5 0 1 0 0 3v-3Zm14.064 3a1.5 1.5 0 0 0 0-3v3Zm8.79-3a1.5 1.5 0 1 0 0 3v-3Zm14.064 3a1.5 1.5 0 0 0 0-3v3Zm8.79-3a1.5 1.5 0 1 0 0 3v-3Zm17.489 5.572a1.5 1.5 0 0 0 1.397-2.655l-1.397 2.655Zm12.126 8.074a1.5 1.5 0 0 0-2.655 1.396l2.655-1.396Zm-.083 20.085a1.5 1.5 0 1 0 3 0h-3Zm3 10.29a1.5 1.5 0 0 0-3 0h3Zm-3 16.463a1.5 1.5 0 1 0 3 0h-3Zm3 10.289a1.5 1.5 0 0 0-3 0h3Zm-3 16.464a1.5 1.5 0 1 0 3 0h-3Zm3 10.289a1.5 1.5 0 0 0-3 0h3Zm-3 16.463a1.5 1.5 0 1 0 3 0h-3Zm3 10.29a1.5 1.5 0 1 0-3 0h3Zm-3 16.463a1.5 1.5 0 1 0 3 0h-3Zm3 10.289a1.5 1.5 0 0 0-3 0h3Zm-3 16.463a1.5 1.5 0 1 0 3 0h-3Zm3 10.29a1.5 1.5 0 1 0-3 0h3Zm-.083 20.085a1.5 1.5 0 1 0 2.655-1.396l-2.655 1.396Zm12.126 8.074a1.5 1.5 0 0 0-1.397 2.655l1.397-2.655Zm17.899 5.572a1.5 1.5 0 1 0 0-3v3Zm9.303-3a1.5 1.5 0 0 0 0 3v-3Zm14.885 3a1.5 1.5 0 1 0 0-3v3Zm9.303-3a1.5 1.5 0 1 0 0 3v-3Zm14.884 3a1.5 1.5 0 1 0 0-3v3Zm9.303-3a1.5 1.5 0 0 0 0 3v-3ZM89.251 33.774h7.032v-3H89.25v3Zm15.822 0h14.064v-3h-14.064v3Zm22.854 0h14.064v-3h-14.064v3Zm22.854 0h7.032v-3h-7.032v3Zm7.032 0c3.778 0 7.335.93 10.457 2.572l1.397-2.655a25.398 25.398 0 0 0-11.854-2.917v3Zm19.928 12.042a22.399 22.399 0 0 1 2.572 10.458h3a25.4 25.4 0 0 0-2.917-11.854l-2.655 1.396Zm2.572 10.458v8.231h3v-8.231h-3Zm0 18.52v16.464h3V74.795h-3Zm0 26.753v16.464h3v-16.464h-3Zm0 26.753v16.463h3V128.3h-3Zm0 26.753v16.463h3v-16.463h-3Zm0 26.752v16.463h3v-16.463h-3Zm0 26.753v8.231h3v-8.231h-3Zm0 8.231c0 4.277 1.054 8.311 2.917 11.854l2.655-1.396a22.4 22.4 0 0 1-2.572-10.458h-3Zm13.646 22.583a25.39 25.39 0 0 0 11.854 2.917v-3c-3.778 0-7.335-.93-10.457-2.572l-1.397 2.655Zm11.854 2.917h7.442v-3h-7.442v3Zm16.745 0h14.885v-3h-14.885v3Zm24.188 0h14.884v-3h-14.884v3Z"
		opacity=".8"
	/><path
		fill="#976FD2"
		d="M89.25 303.172a1.5 1.5 0 0 0 0 3v-3Zm174.125-60.882 13.268 6.16c.717.414 1.732-.172 1.732-1v-13.321c0-.828-1.015-1.414-1.732-1l-13.268 6.161v3ZM96.282 306.172a1.5 1.5 0 1 0 0-3v3Zm8.79-3a1.5 1.5 0 0 0 0 3v-3Zm14.064 3a1.5 1.5 0 1 0 0-3v3Zm8.791-3a1.5 1.5 0 1 0 0 3v-3Zm14.064 3a1.5 1.5 0 1 0 0-3v3Zm8.79-3a1.5 1.5 0 1 0 0 3v-3Zm18.885.083a1.5 1.5 0 1 0-1.396-2.655l1.396 2.655Zm8.074-12.125a1.5 1.5 0 0 0 2.656 1.396l-2.656-1.396Zm5.573-15.345a1.5 1.5 0 0 0-3 0h3Zm-3-6.108a1.5 1.5 0 1 0 3 0h-3Zm5.572-15.345a1.5 1.5 0 1 0-2.655-1.396l2.655 1.396Zm8.074-12.125a1.499 1.499 0 1 0 1.396 2.655l-1.396-2.655Zm19.296.083a1.5 1.5 0 0 0 0-3v3Zm9.303-3a1.5 1.5 0 1 0 0 3v-3Zm14.884 3a1.5 1.5 0 1 0 0-3v3Zm9.303-3a1.5 1.5 0 1 0 0 3v-3Zm14.885 3a1.5 1.5 0 0 0 0-3v3Zm9.303-3a1.5 1.5 0 1 0 0 3v-3ZM89.25 306.172h7.032v-3H89.25v3Zm15.822 0h14.064v-3h-14.064v3Zm22.855 0h14.064v-3h-14.064v3Zm22.854 0h7.032v-3h-7.032v3Zm7.032 0c4.276 0 8.31-1.054 11.853-2.917l-1.396-2.655a22.399 22.399 0 0 1-10.457 2.572v3Zm22.583-13.646a25.401 25.401 0 0 0 2.917-11.854h-3c0 3.778-.93 7.335-2.573 10.458l2.656 1.396Zm2.917-11.854v-4.887h-3v4.887h3Zm0-10.995v-4.887h-3v4.887h3Zm0-4.887a22.4 22.4 0 0 1 2.572-10.458l-2.655-1.396a25.386 25.386 0 0 0-2.917 11.854h3Zm12.042-19.928a22.403 22.403 0 0 1 10.458-2.572v-3a25.386 25.386 0 0 0-11.854 2.917l1.396 2.655Zm10.458-2.572h7.442v-3h-7.442v3Zm16.745 0h14.884v-3h-14.884v3Zm24.187 0h14.885v-3h-14.885v3Z"
		opacity=".8"
	/><path
		fill="#976FD2"
		d="M89.25 448.226a1.5 1.5 0 1 0 0 3v-3ZM263.375 242.29l13.268 6.16c.717.414 1.732-.172 1.732-1v-13.321c0-.828-1.015-1.414-1.732-1l-13.268 6.161v3ZM96.282 451.226a1.5 1.5 0 0 0 0-3v3Zm8.79-3a1.5 1.5 0 1 0 0 3v-3Zm14.064 3a1.5 1.5 0 1 0 0-3v3Zm8.791-3a1.5 1.5 0 1 0 0 3v-3Zm14.064 3a1.5 1.5 0 0 0 0-3v3Zm8.79-3a1.5 1.5 0 1 0 0 3v-3Zm18.885.083a1.5 1.5 0 1 0-1.396-2.655l1.396 2.655Zm8.074-12.126a1.501 1.501 0 0 0 2.656 1.397l-2.656-1.397Zm5.573-18.71a1.5 1.5 0 1 0-3 0h3Zm-3-10.317a1.5 1.5 0 1 0 3 0h-3Zm3-16.506a1.5 1.5 0 0 0-3 0h3Zm-3-10.316a1.5 1.5 0 1 0 3 0h-3Zm3-16.507a1.5 1.5 0 0 0-3 0h3Zm-3-10.316a1.5 1.5 0 1 0 3 0h-3Zm3-16.506a1.5 1.5 0 1 0-3 0h3Zm-3-10.317a1.5 1.5 0 1 0 3 0h-3Zm3-16.506a1.5 1.5 0 1 0-3 0h3Zm-3-10.317a1.5 1.5 0 1 0 3 0h-3Zm3-16.506a1.5 1.5 0 0 0-3 0h3Zm-3-10.316a1.5 1.5 0 1 0 3 0h-3Zm5.572-18.711a1.5 1.5 0 1 0-2.655-1.396l2.655 1.396Zm8.074-12.125a1.499 1.499 0 1 0 1.396 2.655l-1.396-2.655Zm19.296.083a1.5 1.5 0 0 0 0-3v3Zm9.303-3a1.5 1.5 0 1 0 0 3v-3Zm14.884 3a1.5 1.5 0 1 0 0-3v3Zm9.303-3a1.5 1.5 0 1 0 0 3v-3Zm14.885 3a1.5 1.5 0 0 0 0-3v3Zm9.303-3a1.5 1.5 0 1 0 0 3v-3ZM89.25 451.226h7.032v-3H89.25v3Zm15.822 0h14.064v-3h-14.064v3Zm22.855 0h14.064v-3h-14.064v3Zm22.854 0h7.032v-3h-7.032v3Zm7.032 0c4.276 0 8.31-1.054 11.853-2.917l-1.396-2.655a22.399 22.399 0 0 1-10.457 2.572v3Zm22.583-13.646a25.401 25.401 0 0 0 2.917-11.854h-3c0 3.778-.93 7.335-2.573 10.457l2.656 1.397Zm2.917-11.854v-8.253h-3v8.253h3Zm0-18.57V390.65h-3v16.506h3Zm0-26.822v-16.507h-3v16.507h3Zm0-26.823v-16.506h-3v16.506h3Zm0-26.823v-16.506h-3v16.506h3Zm0-26.823v-16.506h-3v16.506h3Zm0-26.822v-8.253h-3v8.253h3Zm0-8.253a22.4 22.4 0 0 1 2.572-10.458l-2.655-1.396a25.386 25.386 0 0 0-2.917 11.854h3Zm12.042-19.928a22.403 22.403 0 0 1 10.458-2.572v-3a25.386 25.386 0 0 0-11.854 2.917l1.396 2.655Zm10.458-2.572h7.442v-3h-7.442v3Zm16.745 0h14.884v-3h-14.884v3Zm24.187 0h14.885v-3h-14.885v3Z"
		opacity=".8"
	/><g filter="url(#f)"><rect
			width="63.25"
			height="63.25"
			x="534.75"
			y=".649"
			fill="#272935"
			rx="12.65"
		/><path
			fill="#fff"
			d="M582.618 39.342a2.99 2.99 0 0 0-.408-.9c.04-.145.07-.292.09-.441.131-.945-.196-1.81-.814-2.48a2.837 2.837 0 0 0-1.072-.755 14.36 14.36 0 0 0-.272-7.535c-.139-.449-.301-.89-.483-1.324a14.553 14.553 0 0 0-3.587-5.052 11.31 11.31 0 0 0-.524-.452c-.177-.148-.358-.29-.542-.428a14.335 14.335 0 0 0-8.614-2.858c-7.952 0-14.398 6.445-14.398 14.397 0 1.109.128 2.214.383 3.293-.342.148-.669.38-.972.714-.618.669-.945 1.53-.814 2.476.02.15.049.299.089.445a3.04 3.04 0 0 0-.407.9c-.189.721-.127 1.372.114 1.942a2.857 2.857 0 0 0 .145 2.227c.248.504.604.893 1.042 1.241.52.414 1.172.766 1.958 1.104.938.4 2.083.776 2.604.913 1.345.349 2.635.57 3.942.58 1.862.017 3.466-.42 4.614-1.541.564.069 1.132.104 1.7.103.6-.001 1.2-.039 1.796-.113 1.146 1.128 2.755 1.57 4.624 1.552 1.307-.01 2.597-.231 3.939-.58a22.723 22.723 0 0 0 2.607-.914c.786-.337 1.438-.69 1.962-1.102.435-.349.79-.738 1.038-1.242.345-.69.407-1.483.148-2.228.239-.57.301-1.221.112-1.942Zm-1.335 1.893a1.8 1.8 0 0 1 .048 1.596c-.353.8-1.232 1.43-2.937 2.106-1.061.42-2.032.69-2.041.692-1.403.364-2.672.549-3.77.549-1.819 0-3.172-.502-4.03-1.493a13.517 13.517 0 0 1-4.388.024c-.859.975-2.205 1.469-4.008 1.469-1.099 0-2.367-.185-3.771-.55-.008-.002-.979-.27-2.04-.691-1.706-.676-2.584-1.306-2.937-2.106a1.794 1.794 0 0 1 .126-1.732 2.026 2.026 0 0 1-.273-1.635c.105-.399.322-.73.616-.969a2.001 2.001 0 0 1-.273-.762c-.085-.588.11-1.174.548-1.652a1.818 1.818 0 0 1 1.359-.577h.014a13.366 13.366 0 0 1-.606-3.99c0-7.38 5.983-13.363 13.364-13.363 7.381 0 13.364 5.982 13.364 13.363a13.368 13.368 0 0 1-.61 4c.064-.006.127-.01.19-.01.534 0 1.017.205 1.358.577.439.478.634 1.065.549 1.652-.039.27-.132.53-.273.763.294.238.511.57.616.969a2.034 2.034 0 0 1-.274 1.635c.028.043.055.089.079.135Z"
		/><path
			fill="#FF9D00"
			d="M581.205 41.1a2.027 2.027 0 0 0 .273-1.635 1.834 1.834 0 0 0-.616-.97c.141-.232.234-.492.273-.762.085-.587-.11-1.173-.549-1.652a1.814 1.814 0 0 0-1.358-.577c-.063 0-.126.004-.19.01.405-1.295.61-2.643.609-4 0-7.38-5.983-13.363-13.363-13.363-7.381 0-13.364 5.982-13.364 13.363a13.364 13.364 0 0 0 .606 3.99h-.014c-.535 0-1.018.205-1.359.577-.438.478-.634 1.065-.549 1.652.039.27.132.53.274.763-.295.238-.512.57-.617.968a2.034 2.034 0 0 0 .274 1.636 1.797 1.797 0 0 0-.126 1.732c.353.8 1.231 1.43 2.937 2.105 1.061.421 2.032.69 2.04.692 1.403.364 2.672.549 3.771.549 1.803 0 3.149-.493 4.008-1.468a13.52 13.52 0 0 0 4.388-.025c.858.991 2.211 1.493 4.03 1.493 1.099 0 2.367-.185 3.77-.549.009-.002.98-.271 2.041-.692 1.705-.676 2.584-1.306 2.937-2.105a1.8 1.8 0 0 0-.126-1.732Zm-17.655 2.084c-.074.13-.153.256-.237.379a2.413 2.413 0 0 1-.854.758c-.648.354-1.469.477-2.302.477-1.318 0-2.668-.308-3.424-.504-.038-.01-4.639-1.31-4.056-2.416.098-.186.259-.26.462-.26.821 0 2.314 1.221 2.956 1.221.143 0 .245-.06.286-.21.273-.98-4.158-1.393-3.785-2.814.066-.251.245-.353.496-.353 1.084 0 3.518 1.907 4.027 1.907.039 0 .067-.012.082-.036a.063.063 0 0 0 .007-.01c.239-.395.102-.682-1.535-1.685l-.157-.095c-1.801-1.09-3.066-1.747-2.347-2.53.083-.09.2-.13.343-.13.169 0 .373.057.598.152.952.4 2.27 1.495 2.821 1.972.087.075.173.151.258.228 0 0 .697.725 1.119.725a.256.256 0 0 0 .235-.133c.299-.504-2.777-2.835-2.95-3.797-.118-.651.082-.982.452-.982.176 0 .391.075.628.226.735.466 2.155 2.906 2.675 3.855a.838.838 0 0 0 .739.452c.532 0 .948-.528.049-1.2-1.351-1.01-.877-2.663-.232-2.764a.528.528 0 0 1 .083-.007c.586 0 .845 1.01.845 1.01s.758 1.904 2.06 3.205c1.182 1.18 1.347 2.15.658 3.36Zm4.211.223-.068.008-.115.013c-.06.007-.121.013-.182.018l-.059.006-.054.004-.077.006-.085.006-.085.006-.019.001-.066.004-.029.002a5.997 5.997 0 0 1-.079.003l-.092.004-.083.003-.056.002h-.108c-.017 0-.034 0-.052.002h-.169c-.078 0-.155 0-.232-.002l-.063-.001-.053-.002-.067-.002-.082-.003-.075-.003h-.019l-.07-.004-.059-.004-.046-.003a12.417 12.417 0 0 1-.172-.012l-.06-.005-.076-.006-.089-.008-.148-.015h-.002c.722-1.612.357-3.118-1.104-4.577-.957-.956-1.594-2.369-1.727-2.679-.267-.918-.975-1.938-2.151-1.938-.1 0-.199.008-.297.023-.515.081-.966.378-1.287.824-.347-.432-.685-.775-.99-.97-.46-.29-.919-.439-1.367-.439-.558 0-1.057.23-1.405.645l-.009.01-.019-.081-.001-.004a11.838 11.838 0 0 1-.167-.856l-.001-.005-.009-.066a12.437 12.437 0 0 1-.039-.28l-.011-.088-.01-.084-.001-.007a19.382 19.382 0 0 1-.033-.342l-.003-.043-.006-.075-.004-.061-.001-.015-.01-.172-.005-.09-.003-.078-.001-.024-.002-.072-.002-.061-.001-.074-.002-.077v-.155c0-6.618 5.365-11.983 11.984-11.983 6.618 0 11.983 5.365 11.983 11.983v.155l-.001.077-.001.064-.002.057-.002.072v.002l-.003.084-.004.074-.001.017-.004.079a12.12 12.12 0 0 1-.038.503v.002l-.008.083-.007.065-.014.127-.009.064-.01.076a2.275 2.275 0 0 1-.011.082l-.013.093-.011.072-.013.082-.014.082c-.006.028-.01.055-.014.082l-.03.163-.049.243-.018.08c-.005.027-.012.054-.018.08a1.804 1.804 0 0 0-1.276-.506c-.447 0-.907.148-1.367.44-.305.194-.642.537-.99.969-.321-.446-.772-.743-1.287-.824a1.898 1.898 0 0 0-.297-.023c-1.176 0-1.883 1.02-2.151 1.938-.133.31-.77 1.722-1.729 2.68-1.459 1.455-1.827 2.954-1.116 4.559Zm12.372-3.227-.005.014a.797.797 0 0 1-.08.157.946.946 0 0 1-.087.113l-.022.024-.035.036c-.213.211-.537.396-.904.566l-.127.056-.042.02a3.831 3.831 0 0 1-.173.073l-.089.036c-.206.085-.417.166-.624.246l-.088.034-.087.034-.172.068-.084.034-.082.034-.041.017a8.185 8.185 0 0 0-.079.034c-.607.26-1.044.525-.952.853.003.01.005.019.009.027a.299.299 0 0 0 .061.105c.108.112.304.095.552.006l.104-.04.021-.01c.057-.023.117-.05.178-.08l.046-.022c.303-.148.646-.347.986-.528.136-.074.274-.143.414-.21.322-.151.625-.259.869-.259.114 0 .215.024.299.077l.014.01a.456.456 0 0 1 .149.173c.121.229.02.465-.216.697-.226.223-.578.441-.978.644l-.09.044c-1.19.585-2.75 1.025-2.771 1.031-.416.108-1.01.249-1.68.355l-.099.015-.016.003a10.865 10.865 0 0 1-.456.06l-.015.001c-.281.033-.564.054-.847.064h-.004a8.538 8.538 0 0 1-.307.006h-.118a7.332 7.332 0 0 1-.468-.021l-.012-.001a4.94 4.94 0 0 1-.452-.054 8.112 8.112 0 0 1-.115-.019l-.052-.01h-.004a4.352 4.352 0 0 1-.164-.035c-.031-.007-.063-.014-.094-.023l-.019-.004-.046-.012-.008-.002-.049-.015-.053-.015-.006-.002-.046-.014-.052-.017-.043-.014-.031-.01-.089-.034-.028-.01-.024-.01a3.401 3.401 0 0 1-.133-.056l-.029-.015-.005-.002-.032-.014-.06-.03-.006-.003-.03-.016a2.558 2.558 0 0 1-.151-.086l-.028-.017-.04-.026-.036-.023-.038-.026-.022-.017a1.769 1.769 0 0 1-.071-.053l-.037-.028-.044-.036a1.978 1.978 0 0 1-.036-.03v-.002a.898.898 0 0 1-.075-.068l-.001-.001-.038-.037-.036-.037a1.937 1.937 0 0 1-.036-.038l-.033-.038-.004-.004-.032-.038a2.732 2.732 0 0 1-.128-.17l-.02-.03a2.907 2.907 0 0 1-.075-.114 1.63 1.63 0 0 1-.054-.085l-.033-.054-.004-.007-.03-.052a.346.346 0 0 1-.016-.028.426.426 0 0 1-.017-.03l-.009-.015-.006-.01-.031-.058-.014-.025-.014-.028-.014-.027a3.59 3.59 0 0 1-.101-.216l-.012-.027a9.9 9.9 0 0 0-.021-.053l-.01-.025a2.135 2.135 0 0 1-.047-.133l-.015-.047a2.755 2.755 0 0 1-.061-.237l-.004-.026a1.828 1.828 0 0 1-.021-.128l-.003-.025-.002-.026a1.136 1.136 0 0 1-.008-.1l-.001-.026-.001-.05c-.009-.676.333-1.325 1.064-2.056 1.302-1.3 2.06-3.204 2.06-3.204s.02-.08.063-.195c.005-.016.012-.033.019-.05a1.9 1.9 0 0 1 .083-.19l.006-.011a1.817 1.817 0 0 1 .182-.288.825.825 0 0 1 .063-.072.683.683 0 0 1 .259-.175l.013-.004a.394.394 0 0 1 .054-.015h.004a.503.503 0 0 1 .063-.009h.002l.033-.001a.401.401 0 0 1 .083.007.563.563 0 0 1 .325.196.928.928 0 0 1 .152.228l.02.041a1.643 1.643 0 0 1 .137.75 1.868 1.868 0 0 1-.193.757c-.013.026-.026.053-.041.079l-.029.052a2.195 2.195 0 0 1-.083.13l-.018.025a2.081 2.081 0 0 1-.232.273 2.467 2.467 0 0 1-.269.232c-.095.07-.185.149-.267.234-.238.25-.293.47-.24.636a.422.422 0 0 0 .09.152l.009.009.008.008.027.024.01.008a.525.525 0 0 0 .095.059.617.617 0 0 0 .085.034l.024.008.011.003.014.003.012.003.013.003.013.003.013.002a.414.414 0 0 0 .028.004l.009.002.016.001.011.001.016.002h.098l.018-.002.022-.002.02-.002.014-.002a.788.788 0 0 0 .185-.05l.025-.01a.742.742 0 0 0 .122-.067.831.831 0 0 0 .103-.08l.022-.02.01-.011.021-.022a.93.93 0 0 0 .131-.183 35.62 35.62 0 0 1 .973-1.663l.046-.074.047-.075.071-.112.023-.037c.079-.123.159-.246.241-.367l.048-.072c.097-.144.193-.283.289-.416l.047-.065c.104-.144.213-.284.325-.421l.045-.054.022-.026.044-.05a.416.416 0 0 1 .022-.025l.042-.048.021-.023.063-.066.041-.042c.08-.082.168-.155.264-.22l.022-.013a.678.678 0 0 1 .066-.04c.373-.212.683-.228.861-.05.108.108.168.287.164.536v.046l-.002.034-.003.042a.567.567 0 0 0-.004.038l-.001.01-.004.034-.001.01a.67.67 0 0 1-.014.087l-.004.023a.734.734 0 0 1-.06.187 1.81 1.81 0 0 1-.132.239 4.563 4.563 0 0 1-.213.296l-.024.03a7.73 7.73 0 0 1-.273.322l-.029.034-.122.134-.031.034-.063.068a5.727 5.727 0 0 1-.065.068l-.065.069-.066.069-.066.069-.134.138c-.642.658-1.317 1.313-1.546 1.722a.836.836 0 0 0-.041.082.34.34 0 0 0-.037.189.16.16 0 0 0 .017.048.311.311 0 0 0 .047.061c.009.008.017.016.027.023.047.033.104.05.161.05h.018l.019-.002.018-.002.016-.003h.006l.014-.004h.004l.016-.004.005-.001a.253.253 0 0 0 .016-.005l.02-.005a.803.803 0 0 0 .144-.059l.021-.01c.051-.026.1-.055.148-.086l.022-.014a.367.367 0 0 0 .021-.014l.021-.014.011-.008.03-.021.082-.06.002-.002.043-.033c.058-.046.113-.092.163-.135l.033-.03.003-.002.017-.016.108-.098.012-.013.03-.028.018-.017.006-.007.002-.001.018-.019.012-.012.001-.001.006-.005.007-.006.002-.002.006-.006.032-.028.018-.016a.537.537 0 0 0 .028-.026l.022-.02a.357.357 0 0 0 .012-.01l.022-.019.033-.03.018-.015.249-.213.039-.033.065-.055.067-.055c.087-.073.18-.15.279-.229l.065-.052c.056-.044.112-.09.17-.134l.071-.055.177-.136c.136-.102.276-.205.418-.305l.06-.042c.043-.03.085-.059.128-.087l.038-.026c.076-.052.153-.102.23-.15l.039-.025.038-.023.114-.07.037-.023.076-.044.074-.042.015-.008.059-.033.073-.038.036-.019.036-.018.036-.017a3.196 3.196 0 0 1 .309-.134l.065-.023.057-.018.006-.002.029-.008.003-.001.06-.016h.001a1.299 1.299 0 0 1 .25-.033h.013c.018 0 .035.001.052.003.008 0 .016.002.023.003h.003a.342.342 0 0 1 .045.008h.003a.415.415 0 0 1 .183.095l.005.004.008.008.007.008a.842.842 0 0 1 .156.226l.006.014a.533.533 0 0 1 .007.404.777.777 0 0 1-.054.113c-.049.083-.107.16-.174.23l-.014.015a2.06 2.06 0 0 1-.097.096l-.032.03-.017.015a3.841 3.841 0 0 1-.203.167 6.564 6.564 0 0 1-.459.323c-.145.095-.292.188-.441.278-.311.192-.656.396-1.023.619l-.096.058-.295.182-.046.029-.089.057-.175.113-.047.03-.068.046-.023.014-.068.046-.036.025-.042.03-.04.027c-.066.046-.127.09-.184.133l-.021.016a3.68 3.68 0 0 0-.232.19l-.019.018a.557.557 0 0 0-.033.03l-.022.022-.01.01a1.395 1.395 0 0 0-.066.07l-.011.012a1.153 1.153 0 0 0-.061.078l-.008.01a.75.75 0 0 0-.038.063l-.008.017-.008.016-.005.011-.004.008-.002.008-.004.01a.393.393 0 0 0-.02.082l-.002.01-.001.009v.05l.001.012.001.008.002.012.003.018.003.017.005.017.011.034.007.02.002.003.006.013.008.018a.386.386 0 0 0 .028.053l.01.018.011.018a.209.209 0 0 0 .006.008l.004.004.004.004.004.003a.072.072 0 0 0 .03.013c.092.02.279-.055.528-.186l.045-.024.076-.041.037-.021.081-.046.05-.028c.329-.19.722-.433 1.129-.671l.115-.067.077-.049.268-.151c.114-.062.228-.123.343-.182l.076-.038.148-.072c.094-.045.19-.088.287-.128l.053-.022.006-.002c.281-.111.535-.18.741-.18a.73.73 0 0 1 .133.011h.001a.7.7 0 0 1 .04.009h.003a.41.41 0 0 1 .305.288l.014.045a.62.62 0 0 1-.009.365Z"
		/><path
			fill="#FFD21E"
			fill-rule="evenodd"
			d="M578.267 31.591v-.077c0-6.618-5.363-11.983-11.982-11.983-6.618 0-11.983 5.365-11.983 11.983v.026a.446.446 0 0 0 0 .051v.078l.001.057.001.02v.028l.001.046.002.061.002.072.001.024.003.075v.004l.005.087v.002l.005.09.005.082v.005l.005.071.001.006.005.069v.004l.003.04.033.341.001.007.01.084.011.088.008.06.003.027.028.193v.005l.009.06c.046.29.102.577.168.862l.001.004.005.02.014.062.009-.01a1.798 1.798 0 0 1 1.405-.646c.448 0 .907.148 1.367.44.305.194.643.537.99.969.321-.447.772-.743 1.287-.824.098-.016.197-.023.297-.023 1.176 0 1.884 1.02 2.151 1.938.133.31.77 1.722 1.73 2.678 1.461 1.459 1.826 2.964 1.104 4.576h.002a6.82 6.82 0 0 0 .237.024h.011l.065.006.06.005.172.012.046.003.036.002.023.001.07.004h.02l.074.004.082.003.067.002h.011l.042.002h.015c.093.002.186.003.28.003h.169l.053-.001h.027l.024-.001h.056l.056-.002.083-.003.092-.004.079-.004.029-.001.042-.003.024-.001.019-.001.085-.006.085-.006.077-.006.054-.005.059-.005c.1-.009.199-.02.298-.031l.067-.008c-.711-1.606-.343-3.105 1.111-4.558.959-.958 1.596-2.37 1.729-2.68.268-.918.975-1.939 2.152-1.939.099 0 .198.008.297.024.514.08.965.377 1.286.824.348-.432.685-.776.99-.97.46-.291.92-.44 1.367-.44.493 0 .939.18 1.277.507l.018-.08.017-.08.018-.088.031-.155.03-.163.005-.03.009-.052.014-.082.002-.01.011-.072.011-.073.023-.16.002-.014.01-.076.008-.064.014-.127.005-.051.002-.014.008-.083v-.002l.006-.066a11.61 11.61 0 0 0 .032-.437v-.001l.005-.078.001-.017.006-.158v-.002l.001-.02.001-.052.001-.007.001-.05v-.014l.001-.05.001-.014V31.591Zm-14.954 11.971c.949-1.391.882-2.436-.42-3.737-1.302-1.302-2.06-3.205-2.06-3.205s-.283-1.105-.928-1.004c-.646.102-1.119 1.754.232 2.765 1.351 1.011-.269 1.697-.789.748-.52-.95-1.939-3.389-2.675-3.855-.736-.467-1.253-.205-1.08.756.086.478.888 1.292 1.636 2.054.76.772 1.465 1.49 1.314 1.743-.299.504-1.353-.592-1.353-.592s-3.301-3.004-4.02-2.221c-.662.721.359 1.335 1.934 2.28l.413.249c1.801 1.09 1.941 1.378 1.685 1.79-.094.153-.697-.21-1.439-.654-1.264-.76-2.931-1.76-3.166-.865-.204.776 1.022 1.25 2.135 1.682.926.359 1.774.687 1.649 1.132-.129.462-.829.077-1.595-.344-.859-.473-1.801-.991-2.109-.407-.583 1.106 4.018 2.407 4.056 2.417 1.486.385 5.261 1.202 6.58-.731Zm6.114 0c-.949-1.391-.882-2.436.421-3.737 1.302-1.302 2.06-3.205 2.06-3.205s.283-1.105.928-1.004c.645.102 1.118 1.754-.233 2.765-1.35 1.011.269 1.697.789.748.52-.95 1.939-3.389 2.675-3.855.735-.467 1.253-.205 1.08.756-.086.478-.888 1.292-1.637 2.054-.759.772-1.465 1.49-1.314 1.743.299.504 1.354-.593 1.354-.593s3.301-3.004 4.02-2.22c.662.72-.359 1.334-1.934 2.28l-.412.248c-1.802 1.09-1.942 1.378-1.686 1.79.094.153.697-.209 1.439-.654 1.264-.759 2.931-1.76 3.167-.864.203.775-1.023 1.25-2.135 1.681-.927.36-1.775.687-1.65 1.133.129.462.829.077 1.595-.345.859-.473 1.801-.991 2.109-.406.582 1.106-4.019 2.406-4.056 2.415-1.486.387-5.261 1.204-6.58-.73Z"
			clip-rule="evenodd"
		/><path
			fill="#32343D"
			fill-rule="evenodd"
			d="M570.177 28.252c.187.066.326.267.458.459.179.259.345.5.601.364a1.722 1.722 0 0 0 .671-2.406 1.716 1.716 0 0 0-1.224-.822 1.726 1.726 0 0 0-1.979 1.786c.012.255.08.504.2.729.118.222.38.117.657.006.217-.086.444-.177.616-.116Zm-8.123 0c-.187.066-.326.268-.459.459-.178.259-.345.5-.6.364a1.724 1.724 0 1 1 2.14-2.62 1.722 1.722 0 0 1 .192 1.907c-.118.222-.381.117-.658.007-.217-.087-.443-.178-.615-.117Zm6.866 7.393c1.288-1.015 1.761-2.67 1.761-3.691 0-.807-.542-.553-1.411-.123l-.049.024c-.797.395-1.859.921-3.024.921s-2.226-.526-3.023-.92c-.897-.445-1.46-.724-1.46.098 0 1.053.504 2.78 1.885 3.785a2.995 2.995 0 0 1 1.83-1.548c.138-.04.28.196.425.44.14.234.284.474.43.474.155 0 .308-.237.457-.467.155-.241.307-.476.454-.43.74.238 1.358.753 1.725 1.437Z"
			clip-rule="evenodd"
		/><path
			fill="#FF323D"
			d="M568.92 35.645c-.67.528-1.562.883-2.723.883-1.09 0-1.943-.313-2.598-.79a2.994 2.994 0 0 1 1.83-1.547c.271-.08.558.913.855.913.317 0 .624-.987.911-.895a3 3 0 0 1 1.725 1.436Z"
		/><path
			fill="#FFAD03"
			fill-rule="evenodd"
			d="M558.975 29.687a1.127 1.127 0 0 1-1.052.104 1.115 1.115 0 0 1-.687-1.146 1.118 1.118 0 0 1 1.909-.683 1.125 1.125 0 0 1-.17 1.725Zm16.036 0a1.127 1.127 0 0 1-1.052.104 1.119 1.119 0 0 1-.147-1.997 1.118 1.118 0 0 1 1.369.169 1.123 1.123 0 0 1-.17 1.724Z"
			clip-rule="evenodd"
		/></g><g filter="url(#g)"><rect
			width="63.25"
			height="63.25"
			x="534.75"
			y="105.012"
			fill="#272935"
			rx="12.65"
		/><path
			fill="#F9AB00"
			d="M566.375 154.752a2.53 2.53 0 0 0 2.53-2.53v-21.927h-5.06v21.927a2.53 2.53 0 0 0 2.53 2.53Z"
		/><path
			fill="#5BB974"
			d="M576.455 138.296a8.768 8.768 0 0 0-10.08-1.659l10.83 10.831c.447.447 1.217.27 1.407-.331a8.763 8.763 0 0 0-2.157-8.841Z"
		/><path
			fill="#129EAF"
			d="M556.295 138.296a8.768 8.768 0 0 1 10.08-1.659l-10.831 10.831c-.447.447-1.216.27-1.406-.331a8.763 8.763 0 0 1 2.157-8.841Z"
		/><path
			fill="#AF5CF7"
			d="M575.652 129.89c-4.31 0-7.968 2.826-9.277 6.747h17.128c.702 0 1.17-.742.852-1.368-1.628-3.194-4.913-5.379-8.703-5.379Z"
		/><path
			fill="#FF8BCB"
			d="M568.165 125.307c-3.049 3.049-3.637 7.63-1.79 11.33l12.112-12.112c.498-.498.304-1.354-.364-1.571-3.412-1.107-7.278-.327-9.958 2.353Z"
		/><path
			fill="#FA7B17"
			d="M564.585 125.307c3.049 3.049 3.637 7.63 1.79 11.33l-12.113-12.112c-.497-.498-.303-1.354.365-1.571 3.411-1.107 7.278-.327 9.958 2.353Z"
		/><path
			fill="#4285F4"
			d="M557.098 129.89c4.31 0 7.968 2.826 9.277 6.747h-17.128c-.702 0-1.171-.742-.852-1.368 1.627-3.194 4.912-5.379 8.703-5.379Z"
		/></g><g filter="url(#h)"><g clip-path="url(#i)"><rect
				width="63.25"
				height="63.25"
				x="534.75"
				y="209.375"
				fill="#272935"
				rx="12.65"
			/><g filter="url(#j)"><rect
					width="63.25"
					height="63.25"
					x="534.75"
					y="209.375"
					fill="#272935"
					rx="12.65"
				/><g clip-path="url(#k)"><mask
						id="l"
						width="41"
						height="42"
						x="546"
						y="220"
						maskUnits="userSpaceOnUse"
						style="mask-type:luminance"
					><path
							fill="#fff"
							d="M586.615 220.76h-40.48v40.48h40.48v-40.48Z"
						/></mask><g mask="url(#l)"><path
							fill="#F8F8F2"
							d="M583.713 237.328a10.083 10.083 0 0 0-.867-8.283 10.198 10.198 0 0 0-10.985-4.893 10.092 10.092 0 0 0-7.606-3.392 10.202 10.202 0 0 0-9.73 7.062 10.087 10.087 0 0 0-6.743 4.891 10.201 10.201 0 0 0 1.255 11.96 10.08 10.08 0 0 0 .866 8.283 10.199 10.199 0 0 0 10.985 4.893 10.079 10.079 0 0 0 7.607 3.39 10.201 10.201 0 0 0 9.733-7.066 10.09 10.09 0 0 0 6.744-4.892 10.202 10.202 0 0 0-1.258-11.955l-.001.002Zm-15.216 21.266a7.559 7.559 0 0 1-4.856-1.755c.062-.033.17-.093.239-.136l8.061-4.655c.412-.234.665-.673.663-1.147v-11.364l3.406 1.967a.119.119 0 0 1 .066.094v9.41a7.595 7.595 0 0 1-7.579 7.586Zm-16.298-6.961a7.555 7.555 0 0 1-.904-5.083c.059.036.164.1.239.143l8.06 4.655c.409.239.915.239 1.325 0l9.84-5.682v3.934a.123.123 0 0 1-.048.105l-8.148 4.705a7.597 7.597 0 0 1-10.364-2.777Zm-2.121-17.595a7.56 7.56 0 0 1 3.948-3.326c0 .07-.004.193-.004.279v9.311c-.003.473.25.912.662 1.146l9.84 5.682-3.407 1.967a.123.123 0 0 1-.115.01l-8.149-4.709a7.594 7.594 0 0 1-2.775-10.36Zm27.989 6.513-9.84-5.682 3.406-1.966a.123.123 0 0 1 .116-.01l8.149 4.705a7.588 7.588 0 0 1-1.172 13.69v-9.59a1.311 1.311 0 0 0-.659-1.147Zm3.391-5.103c-.06-.036-.165-.1-.24-.143l-8.06-4.655a1.314 1.314 0 0 0-1.325 0l-9.84 5.683v-3.935a.122.122 0 0 1 .048-.104l8.148-4.701a7.584 7.584 0 0 1 11.266 7.855h.003Zm-21.317 7.012-3.408-1.967a.117.117 0 0 1-.066-.093v-9.411a7.588 7.588 0 0 1 12.441-5.826 5.86 5.86 0 0 0-.239.135l-8.06 4.655a1.307 1.307 0 0 0-.663 1.146l-.005 11.359v.002Zm1.85-3.989 4.384-2.532 4.383 2.53v5.062l-4.383 2.53-4.384-2.53v-5.06Z"
						/></g></g></g></g></g><g filter="url(#m)"><rect
			width="63.25"
			height="63.25"
			x="534.75"
			y="313.739"
			fill="#272935"
			rx="12.65"
		/><g clip-path="url(#n)"><mask
				id="o"
				width="41"
				height="41"
				x="546"
				y="325"
				maskUnits="userSpaceOnUse"
				style="mask-type:luminance"
			><path
					fill="#fff"
					d="M586.615 325.124h-40.48v40.48h40.48v-40.48Z"
				/></mask><g mask="url(#o)"><path
					fill="#39594D"
					fill-rule="evenodd"
					d="M559.25 349.25c1.08 0 3.239-.054 6.261-1.295 3.509-1.458 10.417-4.049 15.437-6.747 3.508-1.889 5.019-4.372 5.019-7.718 0-4.588-3.724-8.366-8.366-8.366h-19.43c-6.639 0-12.036 5.397-12.036 12.036 0 6.639 5.073 12.09 13.115 12.09Z"
					clip-rule="evenodd"
				/><path
					fill="#D18EE2"
					fill-rule="evenodd"
					d="M562.543 357.508c0-3.238 1.943-6.207 4.965-7.448l6.099-2.537c6.207-2.537 13.008 1.997 13.008 8.69 0 5.182-4.21 9.391-9.391 9.391h-6.639c-4.426 0-8.042-3.616-8.042-8.096Z"
					clip-rule="evenodd"
				/><path
					fill="#FF7759"
					d="M553.097 350.814c-3.832 0-6.962 3.131-6.962 6.963v.917c0 3.779 3.13 6.909 6.962 6.909s6.963-3.13 6.963-6.963v-.917c-.054-3.778-3.131-6.909-6.963-6.909Z"
				/></g></g></g><g filter="url(#p)"><rect
			width="63.25"
			height="63.25"
			x="534.75"
			y="418.101"
			fill="#272935"
			rx="12.65"
		/><g clip-path="url(#q)"><path
				fill="#FAFAF7"
				d="M574.58 436.233h-5.856l10.68 26.986h5.857l-10.681-26.986Zm-16.921 0-10.681 26.986h5.973l2.184-5.667h11.174l2.184 5.667h5.973l-10.681-26.986h-6.126Zm-.592 16.307 3.655-9.484 3.655 9.484h-7.31Z"
			/></g></g><path
		fill="#976FD2"
		d="M515.749 38.934c0 .828 1.015 1.414 1.733 1l11.535-6.66c.718-.415.718-1.586 0-2l-11.535-6.66c-.718-.415-1.733.171-1.733 1v13.32ZM384.034 239.289l-13.268-6.16c-.718-.414-1.732.172-1.732 1v13.321c0 .828 1.014 1.414 1.732 1l13.268-6.161v-3Zm-5.945 3a1.5 1.5 0 1 0 0-3v3Zm11.319-3a1.5 1.5 0 1 0 0 3v-3Zm18.11 3a1.5 1.5 0 1 0 0-3v3Zm11.319-3a1.5 1.5 0 1 0 0 3v-3Zm20.908.083a1.499 1.499 0 1 0-1.396-2.655l1.396 2.655Zm8.074-12.125a1.5 1.5 0 0 0 2.656 1.396l-2.656-1.396Zm5.573-18.689a1.5 1.5 0 1 0-3 0h3Zm-3-10.29a1.5 1.5 0 1 0 3 0h-3Zm3-16.463a1.5 1.5 0 0 0-3 0h3Zm-3-10.289a1.5 1.5 0 1 0 3 0h-3Zm3-16.463a1.5 1.5 0 1 0-3 0h3Zm-3-10.29a1.5 1.5 0 1 0 3 0h-3Zm3-16.463a1.5 1.5 0 0 0-3 0h3Zm-3-10.289a1.5 1.5 0 1 0 3 0h-3Zm3-16.464a1.5 1.5 0 0 0-3 0h3Zm-3-10.29a1.5 1.5 0 1 0 3 0h-3Zm3-16.462a1.5 1.5 0 0 0-3 0h3Zm-3-10.29a1.5 1.5 0 1 0 3 0h-3Zm5.572-18.689a1.5 1.5 0 1 0-2.655-1.396l2.655 1.396Zm8.074-12.125a1.5 1.5 0 0 0 1.396 2.655l-1.396-2.655Zm20.293.083a1.5 1.5 0 1 0 0-3v3Zm10.55-3a1.5 1.5 0 1 0 0 3v-3Zm16.879 3a1.5 1.5 0 1 0 0-3v3Zm10.55-3a1.5 1.5 0 1 0 0 3v-3ZM389.408 242.289h18.11v-3h-18.11v3Zm29.429 0h9.055v-3h-9.055v3Zm9.055 0c4.276 0 8.31-1.053 11.853-2.917l-1.396-2.655a22.399 22.399 0 0 1-10.457 2.572v3Zm22.583-13.646a25.398 25.398 0 0 0 2.917-11.854h-3c0 3.779-.93 7.335-2.573 10.458l2.656 1.396Zm2.917-11.854v-8.231h-3v8.231h3Zm0-18.521v-16.463h-3v16.463h3Zm0-26.752v-16.463h-3v16.463h3Zm0-26.753V128.3h-3v16.463h3Zm0-26.752v-16.464h-3v16.464h3Zm0-26.753V74.795h-3v16.463h3Zm0-26.753v-8.231h-3v8.231h3Zm0-8.231c0-3.779.93-7.335 2.572-10.458l-2.655-1.396a25.387 25.387 0 0 0-2.917 11.854h3Zm12.042-19.928a22.397 22.397 0 0 1 10.458-2.572v-3a25.395 25.395 0 0 0-11.854 2.917l1.396 2.655Zm10.458-2.572h8.439v-3h-8.439v3Zm18.989 0h16.879v-3h-16.879v3Z"
		opacity=".8"
	/><path
		fill="#976FD2"
		d="M515.749 143.297c0 .829 1.015 1.414 1.733 1l11.535-6.66c.718-.414.718-1.586 0-2l-11.535-6.66c-.718-.415-1.733.171-1.733 1v13.32Zm-131.715 95.992-13.268-6.16c-.718-.414-1.732.172-1.732 1v13.321c0 .828 1.014 1.414 1.732 1l13.268-6.161v-3Zm-5.945 3a1.5 1.5 0 1 0 0-3v3Zm11.319-3a1.5 1.5 0 1 0 0 3v-3Zm18.11 3a1.5 1.5 0 1 0 0-3v3Zm11.319-3a1.5 1.5 0 1 0 0 3v-3Zm20.908.083a1.499 1.499 0 1 0-1.396-2.655l1.396 2.655Zm8.074-12.125a1.5 1.5 0 0 0 2.656 1.396l-2.656-1.396Zm5.573-19.096a1.5 1.5 0 1 0-3 0h3Zm-3-10.799a1.5 1.5 0 1 0 3 0h-3Zm3-17.278a1.5 1.5 0 0 0-3 0h3Zm-3-10.798a1.5 1.5 0 1 0 3 0h-3Zm5.572-19.096a1.5 1.5 0 1 0-2.655-1.397l2.655 1.397Zm8.074-12.126a1.5 1.5 0 1 0 1.396 2.655l-1.396-2.655Zm20.293.083a1.5 1.5 0 1 0 0-3v3Zm10.55-3a1.5 1.5 0 1 0 0 3v-3Zm16.879 3a1.5 1.5 0 1 0 0-3v3Zm10.55-3a1.5 1.5 0 1 0 0 3v-3ZM389.408 242.289h18.11v-3h-18.11v3Zm29.429 0h9.055v-3h-9.055v3Zm9.055 0c4.276 0 8.31-1.053 11.853-2.917l-1.396-2.655a22.399 22.399 0 0 1-10.457 2.572v3Zm22.583-13.646a25.398 25.398 0 0 0 2.917-11.854h-3c0 3.779-.93 7.335-2.573 10.458l2.656 1.396Zm2.917-11.854v-8.638h-3v8.638h3Zm0-19.437v-17.278h-3v17.278h3Zm0-28.076v-8.639h-3v8.639h3Zm0-8.639c0-3.778.93-7.335 2.572-10.457l-2.655-1.397a25.39 25.39 0 0 0-2.917 11.854h3Zm12.042-19.928a22.4 22.4 0 0 1 10.458-2.572v-3a25.398 25.398 0 0 0-11.854 2.917l1.396 2.655Zm10.458-2.572h8.439v-3h-8.439v3Zm18.989 0h16.879v-3h-16.879v3Z"
		opacity=".8"
	/><path
		fill="#976FD2"
		d="M515.75 247.45c0 .828 1.014 1.414 1.732 1l11.536-6.66c.717-.415.717-1.586 0-2l-11.536-6.661c-.718-.414-1.732.172-1.732 1v13.321Zm-131.716-8.16-13.268-6.161c-.717-.414-1.732.172-1.732 1v13.321c0 .828 1.015 1.414 1.732 1l13.268-6.16v-3Zm-6.707 3a1.5 1.5 0 0 0 0-3v3Zm10.366-3a1.5 1.5 0 1 0 0 3v-3Zm16.587 3a1.5 1.5 0 0 0 0-3v3Zm10.366-3a1.5 1.5 0 1 0 0 3v-3Zm16.586 3a1.5 1.5 0 1 0 0-3v3Zm10.367-3a1.5 1.5 0 1 0 0 3v-3Zm16.586 3a1.5 1.5 0 0 0 0-3v3Zm10.366-3a1.5 1.5 0 1 0 0 3v-3Zm16.586 3a1.5 1.5 0 1 0 0-3v3Zm10.367-3a1.5 1.5 0 1 0 0 3v-3Zm16.586 3a1.5 1.5 0 1 0 0-3v3Zm10.366-3a1.5 1.5 0 1 0 0 3v-3Zm-134.763 3h16.587v-3h-16.587v3Zm26.953 0h16.586v-3h-16.586v3Zm26.953 0h16.586v-3h-16.586v3Zm26.952 0h16.586v-3h-16.586v3Zm26.953 0h16.586v-3h-16.586v3Z"
		opacity=".8"
	/><path
		fill="#976FD2"
		d="M515.75 352.024c0 .828 1.014 1.414 1.732 1l11.536-6.66c.717-.415.717-1.586 0-2l-11.536-6.661c-.718-.414-1.732.172-1.732 1v13.321ZM384.034 239.29l-13.268-6.161c-.717-.414-1.732.172-1.732 1v13.321c0 .828 1.015 1.414 1.732 1l13.268-6.16v-3Zm-5.945 3a1.5 1.5 0 0 0 0-3v3Zm11.319-3a1.5 1.5 0 1 0 0 3v-3Zm18.11 3a1.5 1.5 0 0 0 0-3v3Zm11.319-3a1.5 1.5 0 1 0 0 3v-3Zm19.512 5.572a1.5 1.5 0 0 0 1.397-2.655l-1.397 2.655Zm12.126 8.074a1.501 1.501 0 0 0-2.656 1.396l2.656-1.396Zm-.083 20.557a1.5 1.5 0 1 0 3 0h-3Zm3 10.88a1.5 1.5 0 1 0-3 0h3Zm-3 17.407a1.5 1.5 0 1 0 3 0h-3Zm3 10.88a1.5 1.5 0 1 0-3 0h3Zm-.083 20.557a1.5 1.5 0 1 0 2.655-1.396l-2.655 1.396Zm12.125 8.074a1.499 1.499 0 1 0-1.396 2.655l1.396-2.655Zm18.897 5.573a1.5 1.5 0 1 0 0-3v3Zm10.55-3a1.5 1.5 0 1 0 0 3v-3Zm16.879 3a1.5 1.5 0 1 0 0-3v3Zm10.55-3a1.5 1.5 0 1 0 0 3v-3ZM389.408 242.29h18.11v-3h-18.11v3Zm29.429 0h9.055v-3h-9.055v3Zm9.055 0c3.778 0 7.334.93 10.457 2.572l1.397-2.655a25.39 25.39 0 0 0-11.854-2.917v3Zm19.927 12.042a22.389 22.389 0 0 1 2.573 10.458h3c0-4.277-1.054-8.311-2.917-11.854l-2.656 1.396Zm2.573 10.458v8.703h3v-8.703h-3Zm0 19.583v17.407h3v-17.407h-3Zm0 28.287v8.704h3v-8.704h-3Zm0 8.704c0 4.276 1.054 8.31 2.917 11.853l2.655-1.396a22.399 22.399 0 0 1-2.572-10.457h-3Zm13.646 22.582a25.39 25.39 0 0 0 11.854 2.918v-3c-3.778 0-7.335-.93-10.458-2.573l-1.396 2.655Zm11.854 2.918h8.439v-3h-8.439v3Zm18.989 0h16.879v-3h-16.879v3Z"
		opacity=".8"
	/><path
		fill="#976FD2"
		d="M515.75 456.386c0 .829 1.014 1.414 1.732 1l11.536-6.66c.717-.414.717-1.586 0-2l-11.536-6.66c-.718-.415-1.732.171-1.732 1v13.32ZM384.034 239.29l-13.268-6.161c-.717-.414-1.732.172-1.732 1v13.321c0 .828 1.015 1.414 1.732 1l13.268-6.16v-3Zm-5.945 3a1.5 1.5 0 0 0 0-3v3Zm11.319-3a1.5 1.5 0 1 0 0 3v-3Zm18.11 3a1.5 1.5 0 0 0 0-3v3Zm11.319-3a1.5 1.5 0 1 0 0 3v-3Zm19.512 5.572a1.5 1.5 0 0 0 1.397-2.655l-1.397 2.655Zm12.126 8.074a1.501 1.501 0 0 0-2.656 1.396l2.656-1.396Zm-.083 20.107a1.5 1.5 0 1 0 3 0h-3Zm3 10.316a1.5 1.5 0 0 0-3 0h3Zm-3 16.506a1.5 1.5 0 1 0 3 0h-3Zm3 10.317a1.5 1.5 0 1 0-3 0h3Zm-3 16.506a1.5 1.5 0 1 0 3 0h-3Zm3 10.317a1.5 1.5 0 1 0-3 0h3Zm-3 16.506a1.5 1.5 0 1 0 3 0h-3Zm3 10.316a1.5 1.5 0 0 0-3 0h3Zm-3 16.507a1.5 1.5 0 1 0 3 0h-3Zm3 10.316a1.5 1.5 0 0 0-3 0h3Zm-3 16.506a1.5 1.5 0 1 0 3 0h-3Zm3 10.317a1.5 1.5 0 1 0-3 0h3Zm-.083 20.107a1.5 1.5 0 1 0 2.655-1.397l-2.655 1.397Zm12.125 8.074a1.499 1.499 0 1 0-1.396 2.655l1.396-2.655Zm18.897 5.572a1.5 1.5 0 1 0 0-3v3Zm10.55-3a1.5 1.5 0 1 0 0 3v-3Zm16.879 3a1.5 1.5 0 1 0 0-3v3Zm10.55-3a1.5 1.5 0 1 0 0 3v-3ZM389.408 242.29h18.11v-3h-18.11v3Zm29.429 0h9.055v-3h-9.055v3Zm9.055 0c3.778 0 7.334.93 10.457 2.572l1.397-2.655a25.39 25.39 0 0 0-11.854-2.917v3Zm19.927 12.042a22.389 22.389 0 0 1 2.573 10.458h3c0-4.277-1.054-8.311-2.917-11.854l-2.656 1.396Zm2.573 10.458v8.253h3v-8.253h-3Zm0 18.569v16.506h3v-16.506h-3Zm0 26.823v16.506h3v-16.506h-3Zm0 26.823v16.506h3v-16.506h-3Zm0 26.822v16.507h3v-16.507h-3Zm0 26.823v16.506h3V390.65h-3Zm0 26.823v8.253h3v-8.253h-3Zm0 8.253c0 4.276 1.054 8.311 2.917 11.854l2.655-1.397a22.396 22.396 0 0 1-2.572-10.457h-3Zm13.646 22.583a25.401 25.401 0 0 0 11.854 2.917v-3c-3.778 0-7.335-.93-10.458-2.572l-1.396 2.655Zm11.854 2.917h8.439v-3h-8.439v3Zm18.989 0h16.879v-3h-16.879v3ZM89.25 176.671a1.5 1.5 0 0 0 0 3v-3Zm174.125 65.618 13.268 6.161c.718.414 1.732-.172 1.732-1v-13.321c0-.828-1.014-1.414-1.732-1l-13.268 6.16v3ZM96.283 179.671a1.5 1.5 0 1 0 0-3v3Zm8.79-3a1.5 1.5 0 1 0 0 3v-3Zm14.064 3a1.5 1.5 0 1 0 0-3v3Zm8.79-3a1.5 1.5 0 1 0 0 3v-3Zm14.064 3a1.5 1.5 0 1 0 0-3v3Zm8.79-3a1.5 1.5 0 1 0 0 3v-3Zm17.489 5.572a1.5 1.5 0 0 0 1.397-2.655l-1.397 2.655Zm12.126 8.074a1.5 1.5 0 0 0-2.655 1.397l2.655-1.397Zm-.083 16.352a1.5 1.5 0 1 0 3 0h-3Zm3 5.623a1.5 1.5 0 1 0-3 0h3Zm-.083 16.351a1.5 1.5 0 1 0 2.655-1.396l-2.655 1.396Zm12.126 8.074a1.5 1.5 0 0 0-1.397 2.655l1.397-2.655Zm17.899 5.572a1.5 1.5 0 1 0 0-3v3Zm9.303-3a1.5 1.5 0 0 0 0 3v-3Zm14.885 3a1.5 1.5 0 1 0 0-3v3Zm9.303-3a1.5 1.5 0 1 0 0 3v-3Zm14.884 3a1.5 1.5 0 1 0 0-3v3Zm9.303-3a1.5 1.5 0 0 0 0 3v-3ZM89.251 179.671h7.032v-3H89.25v3Zm15.822 0h14.064v-3h-14.064v3Zm22.854 0h14.064v-3h-14.064v3Zm22.854 0h7.032v-3h-7.032v3Zm7.032 0c3.778 0 7.335.93 10.457 2.572l1.397-2.655a25.401 25.401 0 0 0-11.854-2.917v3Zm19.928 12.043a22.399 22.399 0 0 1 2.572 10.457h3c0-4.276-1.054-8.311-2.917-11.854l-2.655 1.397Zm2.572 10.457v4.498h3v-4.498h-3Zm0 10.121v4.497h3v-4.497h-3Zm0 4.497c0 4.277 1.054 8.311 2.917 11.854l2.655-1.396a22.4 22.4 0 0 1-2.572-10.458h-3Zm13.646 22.583a25.39 25.39 0 0 0 11.854 2.917v-3c-3.778 0-7.335-.93-10.457-2.572l-1.397 2.655Zm11.854 2.917h7.442v-3h-7.442v3Zm16.745 0h14.885v-3h-14.885v3Zm24.188 0h14.884v-3h-14.884v3Z"
		opacity=".8"
	/><defs><filter
			id="a"
			width="105.417"
			height="105.417"
			x=".917"
			y=".649"
			color-interpolation-filters="sRGB"
			filterUnits="userSpaceOnUse"
		><feFlood flood-opacity="0" result="BackgroundImageFix" /><feColorMatrix
				in="SourceAlpha"
				result="hardAlpha"
				values="0 0 0 0 0 0 0 0 0 0 0 0 0 0 0 0 0 0 127 0"
			/><feOffset dy="21.084" /><feGaussianBlur
				stdDeviation="10.542"
			/><feComposite in2="hardAlpha" operator="out" /><feColorMatrix
				values="0 0 0 0 0 0 0 0 0 0 0 0 0 0 0 0 0 0 0.15 0"
			/><feBlend
				in2="BackgroundImageFix"
				result="effect1_dropShadow_802_53959"
			/><feBlend
				in="SourceGraphic"
				in2="effect1_dropShadow_802_53959"
				result="shape"
			/></filter><filter
			id="b"
			width="100.779"
			height="100.779"
			x="273.315"
			y="192.93"
			color-interpolation-filters="sRGB"
			filterUnits="userSpaceOnUse"
		><feFlood flood-opacity="0" result="BackgroundImageFix" /><feColorMatrix
				in="SourceAlpha"
				result="hardAlpha"
				values="0 0 0 0 0 0 0 0 0 0 0 0 0 0 0 0 0 0 127 0"
			/><feOffset dy="1.687" /><feGaussianBlur
				stdDeviation=".843"
			/><feComposite in2="hardAlpha" operator="out" /><feColorMatrix
				values="0 0 0 0 0 0 0 0 0 0 0 0 0 0 0 0 0 0 0.06 0"
			/><feBlend
				in2="BackgroundImageFix"
				result="effect1_dropShadow_802_53959"
			/><feColorMatrix
				in="SourceAlpha"
				result="hardAlpha"
				values="0 0 0 0 0 0 0 0 0 0 0 0 0 0 0 0 0 0 127 0"
			/><feOffset dy="2.53" /><feGaussianBlur
				stdDeviation="2.53"
			/><feComposite in2="hardAlpha" operator="out" /><feColorMatrix
				values="0 0 0 0 0.611765 0 0 0 0 0.639216 0 0 0 0 0.686275 0 0 0 0.35 0"
			/><feBlend
				in2="effect1_dropShadow_802_53959"
				result="effect2_dropShadow_802_53959"
			/><feBlend
				in="SourceGraphic"
				in2="effect2_dropShadow_802_53959"
				result="shape"
			/></filter><filter
			id="c"
			width="105.417"
			height="105.417"
			x=".917"
			y="146.546"
			color-interpolation-filters="sRGB"
			filterUnits="userSpaceOnUse"
		><feFlood flood-opacity="0" result="BackgroundImageFix" /><feColorMatrix
				in="SourceAlpha"
				result="hardAlpha"
				values="0 0 0 0 0 0 0 0 0 0 0 0 0 0 0 0 0 0 127 0"
			/><feOffset dy="21.084" /><feGaussianBlur
				stdDeviation="10.542"
			/><feComposite in2="hardAlpha" operator="out" /><feColorMatrix
				values="0 0 0 0 0 0 0 0 0 0 0 0 0 0 0 0 0 0 0.15 0"
			/><feBlend
				in2="BackgroundImageFix"
				result="effect1_dropShadow_802_53959"
			/><feBlend
				in="SourceGraphic"
				in2="effect1_dropShadow_802_53959"
				result="shape"
			/></filter><filter
			id="d"
			width="105.417"
			height="105.417"
			x=".917"
			y="418.101"
			color-interpolation-filters="sRGB"
			filterUnits="userSpaceOnUse"
		><feFlood flood-opacity="0" result="BackgroundImageFix" /><feColorMatrix
				in="SourceAlpha"
				result="hardAlpha"
				values="0 0 0 0 0 0 0 0 0 0 0 0 0 0 0 0 0 0 127 0"
			/><feOffset dy="21.084" /><feGaussianBlur
				stdDeviation="10.542"
			/><feComposite in2="hardAlpha" operator="out" /><feColorMatrix
				values="0 0 0 0 0 0 0 0 0 0 0 0 0 0 0 0 0 0 0.15 0"
			/><feBlend
				in2="BackgroundImageFix"
				result="effect1_dropShadow_802_53959"
			/><feBlend
				in="SourceGraphic"
				in2="effect1_dropShadow_802_53959"
				result="shape"
			/></filter><filter
			id="e"
			width="105.417"
			height="105.417"
			x=".917"
			y="273.047"
			color-interpolation-filters="sRGB"
			filterUnits="userSpaceOnUse"
		><feFlood flood-opacity="0" result="BackgroundImageFix" /><feColorMatrix
				in="SourceAlpha"
				result="hardAlpha"
				values="0 0 0 0 0 0 0 0 0 0 0 0 0 0 0 0 0 0 127 0"
			/><feOffset dy="21.084" /><feGaussianBlur
				stdDeviation="10.542"
			/><feComposite in2="hardAlpha" operator="out" /><feColorMatrix
				values="0 0 0 0 0 0 0 0 0 0 0 0 0 0 0 0 0 0 0.15 0"
			/><feBlend
				in2="BackgroundImageFix"
				result="effect1_dropShadow_802_53959"
			/><feBlend
				in="SourceGraphic"
				in2="effect1_dropShadow_802_53959"
				result="shape"
			/></filter><filter
			id="f"
			width="105.417"
			height="105.417"
			x="513.666"
			y=".649"
			color-interpolation-filters="sRGB"
			filterUnits="userSpaceOnUse"
		><feFlood flood-opacity="0" result="BackgroundImageFix" /><feColorMatrix
				in="SourceAlpha"
				result="hardAlpha"
				values="0 0 0 0 0 0 0 0 0 0 0 0 0 0 0 0 0 0 127 0"
			/><feOffset dy="21.084" /><feGaussianBlur
				stdDeviation="10.542"
			/><feComposite in2="hardAlpha" operator="out" /><feColorMatrix
				values="0 0 0 0 0 0 0 0 0 0 0 0 0 0 0 0 0 0 0.15 0"
			/><feBlend
				in2="BackgroundImageFix"
				result="effect1_dropShadow_802_53959"
			/><feBlend
				in="SourceGraphic"
				in2="effect1_dropShadow_802_53959"
				result="shape"
			/></filter><filter
			id="g"
			width="105.417"
			height="105.417"
			x="513.666"
			y="105.012"
			color-interpolation-filters="sRGB"
			filterUnits="userSpaceOnUse"
		><feFlood flood-opacity="0" result="BackgroundImageFix" /><feColorMatrix
				in="SourceAlpha"
				result="hardAlpha"
				values="0 0 0 0 0 0 0 0 0 0 0 0 0 0 0 0 0 0 127 0"
			/><feOffset dy="21.084" /><feGaussianBlur
				stdDeviation="10.542"
			/><feComposite in2="hardAlpha" operator="out" /><feColorMatrix
				values="0 0 0 0 0 0 0 0 0 0 0 0 0 0 0 0 0 0 0.15 0"
			/><feBlend
				in2="BackgroundImageFix"
				result="effect1_dropShadow_802_53959"
			/><feBlend
				in="SourceGraphic"
				in2="effect1_dropShadow_802_53959"
				result="shape"
			/></filter><filter
			id="h"
			width="105.417"
			height="105.417"
			x="513.666"
			y="209.375"
			color-interpolation-filters="sRGB"
			filterUnits="userSpaceOnUse"
		><feFlood flood-opacity="0" result="BackgroundImageFix" /><feColorMatrix
				in="SourceAlpha"
				result="hardAlpha"
				values="0 0 0 0 0 0 0 0 0 0 0 0 0 0 0 0 0 0 127 0"
			/><feOffset dy="21.084" /><feGaussianBlur
				stdDeviation="10.542"
			/><feComposite in2="hardAlpha" operator="out" /><feColorMatrix
				values="0 0 0 0 0 0 0 0 0 0 0 0 0 0 0 0 0 0 0.15 0"
			/><feBlend
				in2="BackgroundImageFix"
				result="effect1_dropShadow_802_53959"
			/><feBlend
				in="SourceGraphic"
				in2="effect1_dropShadow_802_53959"
				result="shape"
			/></filter><filter
			id="j"
			width="105.417"
			height="105.417"
			x="513.666"
			y="209.375"
			color-interpolation-filters="sRGB"
			filterUnits="userSpaceOnUse"
		><feFlood flood-opacity="0" result="BackgroundImageFix" /><feColorMatrix
				in="SourceAlpha"
				result="hardAlpha"
				values="0 0 0 0 0 0 0 0 0 0 0 0 0 0 0 0 0 0 127 0"
			/><feOffset dy="21.084" /><feGaussianBlur
				stdDeviation="10.542"
			/><feComposite in2="hardAlpha" operator="out" /><feColorMatrix
				values="0 0 0 0 0 0 0 0 0 0 0 0 0 0 0 0 0 0 0.15 0"
			/><feBlend
				in2="BackgroundImageFix"
				result="effect1_dropShadow_802_53959"
			/><feBlend
				in="SourceGraphic"
				in2="effect1_dropShadow_802_53959"
				result="shape"
			/></filter><filter
			id="m"
			width="105.417"
			height="105.417"
			x="513.666"
			y="313.739"
			color-interpolation-filters="sRGB"
			filterUnits="userSpaceOnUse"
		><feFlood flood-opacity="0" result="BackgroundImageFix" /><feColorMatrix
				in="SourceAlpha"
				result="hardAlpha"
				values="0 0 0 0 0 0 0 0 0 0 0 0 0 0 0 0 0 0 127 0"
			/><feOffset dy="21.084" /><feGaussianBlur
				stdDeviation="10.542"
			/><feComposite in2="hardAlpha" operator="out" /><feColorMatrix
				values="0 0 0 0 0 0 0 0 0 0 0 0 0 0 0 0 0 0 0.15 0"
			/><feBlend
				in2="BackgroundImageFix"
				result="effect1_dropShadow_802_53959"
			/><feBlend
				in="SourceGraphic"
				in2="effect1_dropShadow_802_53959"
				result="shape"
			/></filter><filter
			id="p"
			width="105.417"
			height="105.417"
			x="513.666"
			y="418.101"
			color-interpolation-filters="sRGB"
			filterUnits="userSpaceOnUse"
		><feFlood flood-opacity="0" result="BackgroundImageFix" /><feColorMatrix
				in="SourceAlpha"
				result="hardAlpha"
				values="0 0 0 0 0 0 0 0 0 0 0 0 0 0 0 0 0 0 127 0"
			/><feOffset dy="21.084" /><feGaussianBlur
				stdDeviation="10.542"
			/><feComposite in2="hardAlpha" operator="out" /><feColorMatrix
				values="0 0 0 0 0 0 0 0 0 0 0 0 0 0 0 0 0 0 0.15 0"
			/><feBlend
				in2="BackgroundImageFix"
				result="effect1_dropShadow_802_53959"
			/><feBlend
				in="SourceGraphic"
				in2="effect1_dropShadow_802_53959"
				result="shape"
			/></filter><clipPath id="i"><rect
				width="63.25"
				height="63.25"
				x="534.75"
				y="209.375"
				fill="#fff"
				rx="12.65"
			/></clipPath><clipPath id="k"><path
				fill="#fff"
				d="M546.135 220.76h40.48v40.48h-40.48z"
			/></clipPath><clipPath id="n"><path
				fill="#fff"
				d="M546.135 325.124h40.48v40.48h-40.48z"
			/></clipPath><clipPath id="q"><path
				fill="#fff"
				d="M546.978 436.233h38.794v26.987h-38.794z"
			/></clipPath></defs></svg>
