<svg
	width="56"
	height="70"
	viewBox="0 0 56 70"
	fill="none"
	xmlns="http://www.w3.org/2000/svg"
>
<path
		d="M27.9975 24.0153C31.8113 22.0686 35.7428 20.2977 39.7868 18.693C27.3792 10.2789 28.6157 10.2789 16.2098 18.693C20.2538 20.2977 24.1836 22.0686 27.9991 24.0153M20.2857 4.87756C22.9151 5.98557 25.4874 7.17905 27.9991 8.46125C30.5126 7.17905 33.0832 5.98557 35.7126 4.87756C28.2797 -1.5592 27.7169 -1.5592 20.284 4.87756M8.80548 15.9834C10.0908 16.4157 11.3643 16.8624 12.6294 17.3253C16.4551 14.6367 20.4302 12.1675 24.5482 9.90956L24.5835 9.8902C15.0505 5.22109 14.4305 6.93552 8.80548 15.9834ZM5.02018 23.1266C6.50708 21.8993 8.02087 20.7074 9.55985 19.5542C6.10889 18.3446 6.39956 20.0268 5.02018 23.1266ZM2.66802 29.3731C2.60921 29.5618 2.55041 29.7521 2.49328 29.9408C5.94256 30.9391 9.32296 32.0439 12.6311 33.2567C16.4567 30.5682 20.4319 28.0989 24.5499 25.841L24.5851 25.8216C12.8495 20.0735 12.2548 20.6235 2.66802 29.3731ZM0.414978 43.0562C3.35518 40.3725 6.40459 37.85 9.55985 35.4856C0.309129 32.2423 0.502344 33.2906 0.414978 43.0562ZM0.784603 48.6382C2.23622 58.4587 2.99228 56.3394 9.55985 51.4155C6.69021 50.4091 3.76345 49.4833 0.784603 48.6382ZM4.73456 59.3909C11.8196 70.0661 15.6049 62.6068 24.5482 57.7022L24.5835 57.6829C20.8738 55.8669 17.0532 54.2137 13.1234 52.7186C10.2369 54.8105 7.44123 57.0329 4.73456 59.3909ZM14.6876 67.5356C18.3418 69.0807 22.7521 69.95 27.9991 69.95C33.2461 69.95 37.6598 69.0823 41.3107 67.5356C27.3809 57.7748 28.6157 57.7748 14.6859 67.5356M51.2637 59.3909C48.5571 57.0329 45.7597 54.8105 42.8749 52.7186C38.9451 54.2137 35.1228 55.8669 31.4148 57.6829L31.4518 57.7022C40.3917 62.6036 44.1854 70.0677 51.2654 59.3909M55.2154 48.6382C52.2365 49.4849 49.3097 50.4091 46.4401 51.4155C53.0043 56.3362 53.7671 58.4603 55.2154 48.6382ZM55.585 43.0562C55.4959 33.2906 55.6908 32.2407 46.4401 35.4856C49.5954 37.8517 52.6448 40.3725 55.585 43.0562ZM53.5084 29.9408C53.4512 29.7521 53.3924 29.5618 53.3336 29.3731C43.7469 20.6235 43.1521 20.0735 31.4165 25.8216L31.4535 25.841C35.5714 28.0989 39.5466 30.5682 43.3722 33.2567C46.6804 32.0439 50.0591 30.9407 53.51 29.9408M50.9815 23.1266C49.6021 20.0268 49.8927 18.3446 46.4418 19.5542C47.9808 20.7074 49.4929 21.8993 50.9815 23.1266ZM47.1962 15.9834C41.5694 6.93552 40.9512 5.22109 31.4182 9.8902L31.4535 9.90956C35.5714 12.1675 39.5466 14.6367 43.3722 17.3253C44.6357 16.8624 45.9109 16.4141 47.1962 15.9834ZM28.0025 55.8749C31.8164 53.9282 35.7478 52.1558 39.7919 50.5526C27.3842 42.1385 28.6208 42.1385 16.2148 50.5526C20.2588 52.1574 24.1886 53.9282 28.0042 55.8749M12.6345 49.1866C16.4601 46.498 20.4353 44.0288 24.5532 41.7708L24.5885 41.7515C12.5807 35.8711 11.9187 36.7614 2.15894 45.7738C5.72583 46.7996 9.21879 47.935 12.6328 49.1866M53.8477 45.7738C44.0879 36.7614 43.426 35.8711 31.4182 41.7515L31.4551 41.7708C35.5731 44.0288 39.5483 46.498 43.3739 49.1866C46.7896 47.935 50.2808 46.798 53.8494 45.7738M28.0042 39.9451C31.818 37.9984 35.7495 36.2259 39.7936 34.6228C27.3859 26.2087 28.6225 26.2087 16.2165 34.6228C20.2605 36.2276 24.1903 37.9984 28.0059 39.9451"
		fill="#BD93F9"
	/>
</svg>
