<svg
	width="200"
	height="200"
	viewBox="0 0 200 200"
	fill="none"
	xmlns="http://www.w3.org/2000/svg"
>
<path
		d="M99.9928 68.5702C110.906 63.0003 122.155 57.9334 133.726 53.3419C98.2237 29.2673 101.762 29.2673 66.2642 53.3419C77.8356 57.9334 89.0801 63.0003 99.9976 68.5702M77.9269 13.8128C85.4505 16.9831 92.8106 20.3979 99.9976 24.0665C107.189 20.3979 114.545 16.9831 122.068 13.8128C100.8 -4.60427 99.19 -4.60427 77.9221 13.8128M45.0781 45.5893C48.7558 46.826 52.3998 48.1042 56.0197 49.4287C66.9661 41.736 78.3404 34.671 90.1232 28.2105L90.2242 28.1551C62.9471 14.7957 61.1732 19.7011 45.0781 45.5893ZM34.2471 66.0275C38.5016 62.5158 42.8331 59.1056 47.2366 55.8061C37.3623 52.3451 38.194 57.1582 34.2471 66.0275ZM27.5168 83.9001C27.3485 84.44 27.1803 84.9845 27.0168 85.5244C36.8864 88.3809 46.5588 91.5419 56.0245 95.0122C66.9709 87.3195 78.3452 80.2545 90.1281 73.794L90.229 73.7386C56.6495 57.292 54.9477 58.8656 27.5168 83.9001ZM21.0701 123.051C29.483 115.372 38.2084 108.155 47.2366 101.39C20.7672 92.1095 21.3201 95.1091 21.0701 123.051ZM22.1277 139.022C26.2813 167.121 28.4446 161.057 47.2366 146.968C39.0256 144.089 30.6512 141.44 22.1277 139.022ZM33.4299 169.788C53.7026 200.332 64.5336 178.99 90.1232 164.956L90.2242 164.901C79.6095 159.705 68.6775 154.975 57.4331 150.697C49.174 156.682 41.1745 163.041 33.4299 169.788ZM61.9088 193.092C72.3648 197.513 84.9842 200 99.9976 200C115.011 200 127.64 197.517 138.086 193.092C98.2285 165.164 101.762 165.164 61.904 193.092M166.565 169.788C158.821 163.041 150.816 156.682 142.562 150.697C131.318 154.975 120.381 159.705 109.771 164.901L109.877 164.956C135.457 178.98 146.312 200.337 166.57 169.788M177.872 139.022C169.349 141.445 160.974 144.089 152.763 146.968C171.546 161.048 173.728 167.125 177.872 139.022ZM178.93 123.051C178.675 95.1091 179.233 92.1049 152.763 101.39C161.792 108.159 170.517 115.372 178.93 123.051ZM172.988 85.5244C172.825 84.9845 172.656 84.44 172.488 83.9001C145.057 58.8656 143.355 57.292 109.776 73.7386L109.882 73.794C121.664 80.2545 133.039 87.3195 143.985 95.0122C153.451 91.5419 163.118 88.3855 172.993 85.5244M165.758 66.0275C161.811 57.1582 162.643 52.3451 152.768 55.8061C157.172 59.1056 161.498 62.5158 165.758 66.0275ZM154.927 45.5893C138.827 19.7011 137.058 14.7957 109.781 28.1551L109.882 28.2105C121.664 34.671 133.039 41.736 143.985 49.4287C147.6 48.1042 151.249 46.8214 154.927 45.5893ZM100.007 159.728C110.92 154.158 122.169 149.087 133.741 144.5C98.2381 120.425 101.776 120.425 66.2787 144.5C77.85 149.091 89.0945 154.158 100.012 159.728M56.0341 140.591C66.9805 132.898 78.3548 125.833 90.1377 119.373L90.2386 119.317C55.8803 102.492 53.9862 105.04 26.0602 130.826C36.2662 133.761 46.2607 137.01 56.0293 140.591M173.959 130.826C146.033 105.04 144.139 102.492 109.781 119.317L109.886 119.373C121.669 125.833 133.043 132.898 143.99 140.591C153.763 137.01 163.753 133.757 173.964 130.826M100.012 114.149C110.925 108.579 122.174 103.508 133.745 98.9208C98.2429 74.8461 101.781 74.8461 66.2835 98.9208C77.8548 103.512 89.0993 108.579 100.017 114.149"
		fill="#BD93F9"
	/>
</svg>
