<svg
	width="72"
	height="62"
	viewBox="0 0 72 62"
	fill="none"
	xmlns="http://www.w3.org/2000/svg"
>
<path
		d="M15.5174 55.4965C16.2903 57.0263 16.9289 60.7996 14.8118 60.2897C13.5013 59.8818 11.4445 56.9651 12.4929 55.4965C12.661 55.1906 13.2188 54.6195 14.106 54.7827"
		stroke="black"
		stroke-width="2"
		stroke-linecap="round"
	/>
<path
		d="M15.5173 48.9701L14.0262 47.9017C13.5346 47.5494 12.8477 47.7145 12.6581 48.2888C12.3457 49.2345 12.1259 50.4902 12.4621 51.5763C12.5336 51.8074 12.7128 51.9904 12.945 52.0585C13.8343 52.319 15.2568 52.2487 15.8198 50.3979"
		stroke="black"
		stroke-width="2"
		stroke-linecap="round"
	/>
<mask id="path-3-inside-1_4542_101165" fill="white">
<ellipse
			cx="1.09811"
			cy="0.738034"
			rx="1.09811"
			ry="0.738034"
			transform="matrix(0.921654 0.388014 -0.38048 0.924789 13.4756 41.6405)"
		/>
</mask>
<path
		d="M13.3756 42.3991C13.6288 41.7838 14.1378 41.6026 14.3273 41.565C14.5316 41.5245 14.6503 41.5666 14.687 41.582L13.1651 45.2812C13.7607 45.5319 14.4484 45.6343 15.1206 45.5009C15.7781 45.3705 16.654 44.9435 17.0622 43.9512L13.3756 42.3991ZM14.687 41.582C14.7237 41.5975 14.8369 41.653 14.9524 41.8282C15.0596 41.9907 15.2913 42.4837 15.0381 43.099L11.3515 41.547C10.9432 42.5392 11.261 43.4689 11.6329 44.0326C12.0131 44.609 12.5694 45.0304 13.1651 45.2812L14.687 41.582ZM15.0381 43.099C14.7849 43.7144 14.2759 43.8955 14.0864 43.9331C13.8821 43.9736 13.7634 43.9316 13.7267 43.9161L15.2486 40.217C14.653 39.9662 13.9653 39.8639 13.2931 39.9972C12.6357 40.1276 11.7597 40.5547 11.3515 41.547L15.0381 43.099ZM13.7267 43.9161C13.69 43.9007 13.5768 43.8451 13.4613 43.6699C13.3541 43.5074 13.1225 43.0145 13.3756 42.3991L17.0622 43.9512C17.4705 42.9589 17.1527 42.0293 16.7809 41.4655C16.4007 40.8891 15.8443 40.4677 15.2486 40.217L13.7267 43.9161Z"
		fill="black"
		mask="url(#path-3-inside-1_4542_101165)"
	/>
<mask id="path-5-inside-2_4542_101165" fill="white">
<ellipse
			cx="1.00988"
			cy="1.0181"
			rx="1.00988"
			ry="1.0181"
			transform="matrix(0.921654 0.388014 -0.38048 0.924789 20.8268 55.2311)"
		/>
</mask>
<path
		d="M20.4576 56.1803C20.6581 55.6929 21.2257 55.4383 21.7438 55.6564L20.2219 59.3555C21.768 60.0065 23.5159 59.2596 24.1442 57.7323L20.4576 56.1803ZM21.7438 55.6564C22.2618 55.8745 22.4832 56.4613 22.2827 56.9486L18.5961 55.3966C17.9677 56.9239 18.6757 58.7046 20.2219 59.3555L21.7438 55.6564ZM22.2827 56.9486C22.0822 57.436 21.5146 57.6906 20.9966 57.4725L22.5185 53.7733C20.9724 53.1224 19.2245 53.8692 18.5961 55.3966L22.2827 56.9486ZM20.9966 57.4725C20.4785 57.2544 20.2571 56.6676 20.4576 56.1803L24.1442 57.7323C24.7726 56.205 24.0646 54.4242 22.5185 53.7733L20.9966 57.4725Z"
		fill="black"
		mask="url(#path-5-inside-2_4542_101165)"
	/>
<mask id="path-7-inside-3_4542_101165" fill="white">
<ellipse
			cx="1.00988"
			cy="1.0181"
			rx="1.00988"
			ry="1.0181"
			transform="matrix(0.921654 0.388014 -0.38048 0.924789 6.2106 36.8336)"
		/>
</mask>
<path
		d="M5.84145 37.7828C6.04196 37.2955 6.60955 37.0409 7.12759 37.259L5.60567 40.9581C7.1518 41.6091 8.89969 40.8622 9.52807 39.3349L5.84145 37.7828ZM7.12759 37.259C7.64563 37.4771 7.86704 38.0639 7.66654 38.5512L3.97993 36.9992C3.35155 38.5265 4.05954 40.3072 5.60567 40.9581L7.12759 37.259ZM7.66654 38.5512C7.46604 39.0385 6.89845 39.2932 6.38041 39.0751L7.90232 35.3759C6.35619 34.725 4.6083 35.4718 3.97993 36.9992L7.66654 38.5512ZM6.38041 39.0751C5.86236 38.857 5.64095 38.2702 5.84145 37.7828L9.52807 39.3349C10.1564 37.8076 9.44846 36.0268 7.90232 35.3759L6.38041 39.0751Z"
		fill="black"
		mask="url(#path-7-inside-3_4542_101165)"
	/>
<path
		d="M31.6479 49.5815C31.5807 50.5673 32.1722 52.3962 35.0756 51.8251"
		stroke="black"
		stroke-width="2"
		stroke-linecap="round"
	/>
<path
		d="M50.9904 34.0214C50.1699 33.4873 48.3973 32.9352 47.8709 34.9997"
		stroke="black"
		stroke-width="2"
		stroke-linecap="round"
	/>
<path
		d="M40.9086 16.8004C40.0882 16.2663 38.3156 15.7142 37.7892 17.7787"
		stroke="black"
		stroke-width="2"
		stroke-linecap="round"
	/>
<path
		d="M27.8502 28.6781C27.1278 29.3416 26.1419 30.9307 27.977 31.9793"
		stroke="black"
		stroke-width="2"
		stroke-linecap="round"
	/>
<path
		d="M62.1917 18.9289C62.4893 17.989 62.5577 16.1141 60.4502 16.1341"
		stroke="black"
		stroke-width="2"
		stroke-linecap="round"
	/>
<ellipse cx="51.2061" cy="21.7403" rx="3.02446" ry="3.05945" fill="black" />
<path
		d="M67.7398 28.9807C68.8249 30.6272 67.6381 31.966 66.8281 32.4903C66.7645 32.5314 66.695 32.563 66.6214 32.5808C65.0504 32.9626 63.6063 30.8834 63.6063 29.3886C63.6064 28.1479 66.3283 26.8391 67.7398 28.9807Z"
		fill="black"
	/>
<path
		d="M58.868 37.9556C57.9809 35.8344 54.6002 37.0718 53.0207 37.9556C51.7101 38.5714 52.0126 40.8111 53.6256 42.6467C54.9161 44.1153 56.5157 43.4626 57.1542 42.9527C58.0951 42.1708 59.7552 40.0768 58.868 37.9556Z"
		fill="black"
	/>
<path
		d="M5.85665 41.1493C5.21042 39.6139 2.74791 40.5096 1.59743 41.1493C0.642774 41.595 0.863078 43.2162 2.03804 44.5449C2.978 45.6079 4.14317 45.1354 4.60826 44.7664C5.29365 44.2004 6.50288 42.6847 5.85665 41.1493Z"
		stroke="black"
		stroke-width="2"
		stroke-linecap="round"
	/>
<path
		d="M45.4596 48.5618C40.9431 47.0117 40.2844 51.0434 40.5197 53.253C40.8221 54.6808 42.4352 54.8847 43.4433 54.5788C45.5677 53.9341 51.1053 50.4995 45.4596 48.5618Z"
		fill="black"
	/>
<ellipse
		cx="2.96295"
		cy="3.45694"
		rx="2.96295"
		ry="3.45694"
		transform="matrix(0.855131 0.518411 -0.509711 0.860345 29.7279 36.2217)"
		fill="black"
	/>
<path
		d="M38.5031 28.4715C39.471 27.1662 37.8982 25.4121 36.9909 24.6982C36.0836 23.9845 34.8335 24.2087 33.8656 25.5141C32.7567 27.0098 37.2934 30.1033 38.5031 28.4715Z"
		fill="black"
	/>
<path
		d="M19.2476 18.2729C16.4247 17.6202 15.7862 19.2247 15.8198 20.1086C16.0215 23.168 20.5582 23.7799 21.6672 22.9641C22.4364 22.3982 22.7761 19.0887 19.2476 18.2729Z"
		fill="black"
	/>
<path
		d="M36.6888 6.13752C35.6403 4.01631 33.2947 4.36984 32.2529 4.81176C28.7042 5.95396 29.3292 7.8712 30.1358 8.48309C31.3456 9.46891 34.2289 11.359 36.0839 11.0326C38.4027 10.6247 37.9994 8.78905 36.6888 6.13752Z"
		fill="black"
	/>
<path
		d="M56.9526 54.2731C57.7591 52.8453 60.2795 50.4182 65.1187 49.276C66.0596 49.14 67.9818 47.9094 68.1431 44.0749C68.3447 39.2818 73.5871 32.245 69.3529 27.4519C67.5382 25.3977 68.4456 22.5568 67.5382 17.0498"
		stroke="black"
		stroke-width="2"
		stroke-linecap="round"
	/>
<path
		d="M66.7316 15.5197C65.1522 13.5821 60.6625 9.23765 55.3395 7.36118C48.703 5.02172 55.8063 3.89966 44.1399 4.09621C44.0816 4.09719 44.0195 4.10404 43.9617 4.11211C43.019 4.24383 40.5102 3.85641 37.2614 1.2967C37.2162 1.26103 37.1681 1.22781 37.1154 1.20466C36.6001 0.978767 35.1744 0.775289 32.9585 1.54825C30.6195 2.36411 24.0531 4.81166 21.0622 5.93346C20.4238 6.2734 19.0056 7.402 18.441 9.19687C17.7353 11.4405 5.93994 22.8624 9.5693 28.2674"
		stroke="black"
		stroke-width="2"
		stroke-linecap="round"
	/>
<path
		d="M10.4767 29.4916C11.9083 29.6765 14.6209 30.7327 15.0562 33.4804C15.1369 33.9896 15.5068 34.4279 16.0078 34.5495C18.8252 35.2335 22.6445 37.7446 20.8121 43.8034C20.7217 44.1024 20.7652 44.4279 20.9158 44.7015C21.7326 46.1854 22.3669 48.7894 20.6724 51.0818C20.1262 51.8208 20.4166 53.1852 21.2912 53.4675C23.3726 54.1394 25.8397 55.3282 27.2661 57.1762C27.5532 57.5481 28.0338 57.7364 28.4955 57.6494C30.4141 57.2878 33.9492 57.3208 37.2936 59.5762C42.1328 62.8396 42.3344 59.3722 48.6858 60.0861C53.7669 60.6572 55.7764 57.6725 56.1461 56.1088"
		stroke="black"
		stroke-width="2"
		stroke-linecap="round"
	/>
</svg>
