<svg
	width="16"
	height="16"
	viewBox="0 0 16 16"
	fill="none"
	xmlns="http://www.w3.org/2000/svg"
>
    <g clip-path="url(#clip0_1183_12111)">
        <path
			d="M14.853 6.54857C15.216 5.45907 15.091 4.26557 14.5105 3.27457C13.6375 1.75457 11.8825 0.972574 10.1685 1.34057C9.40602 0.481574 8.31052 -0.00692579 7.16202 7.42116e-05C5.41002 -0.00392579 3.85552 1.12407 3.31652 2.79107C2.19102 3.02157 1.21952 3.72607 0.651016 4.72457C-0.228484 6.24057 -0.0279836 8.15157 1.14702 9.45157C0.784016 10.5411 0.909016 11.7346 1.48952 12.7256C2.36252 14.2456 4.11752 15.0276 5.83152 14.6596C6.59352 15.5186 7.68952 16.0071 8.83802 15.9996C10.591 16.0041 12.146 14.8751 12.685 13.2066C13.8105 12.9761 14.782 12.2716 15.3505 11.2731C16.229 9.75707 16.028 7.84757 14.8535 6.54757L14.853 6.54857ZM8.83902 14.9541C8.13752 14.9551 7.45802 14.7096 6.91952 14.2601C6.94402 14.2471 6.98652 14.2236 7.01402 14.2066L10.2 12.3666C10.363 12.2741 10.463 12.1006 10.462 11.9131V7.42157L11.8085 8.19907C11.823 8.20607 11.8325 8.22007 11.8345 8.23607V11.9556C11.8325 13.6096 10.493 14.9506 8.83902 14.9541ZM2.39702 12.2026C2.04552 11.5956 1.91902 10.8841 2.03952 10.1936C2.06302 10.2076 2.10452 10.2331 2.13402 10.2501L5.32002 12.0901C5.48152 12.1846 5.68152 12.1846 5.84352 12.0901L9.73302 9.84407V11.3991C9.73402 11.4151 9.72652 11.4306 9.71402 11.4406L6.49352 13.3001C5.05902 14.1261 3.22702 13.6351 2.39752 12.2026H2.39702ZM1.55852 5.24807C1.90852 4.64007 2.46102 4.17507 3.11902 3.93357C3.11902 3.96107 3.11752 4.00957 3.11752 4.04357V7.72407C3.11652 7.91107 3.21652 8.08457 3.37902 8.17707L7.26852 10.4226L5.92202 11.2001C5.90852 11.2091 5.89152 11.2106 5.87652 11.2041L2.65552 9.34307C1.22402 8.51407 0.733016 6.68257 1.55802 5.24857L1.55852 5.24807ZM12.6215 7.82257L8.73202 5.57657L10.0785 4.79957C10.092 4.79057 10.109 4.78907 10.124 4.79557L13.345 6.65507C14.779 7.48357 15.2705 9.31807 14.442 10.7521C14.0915 11.3591 13.5395 11.8241 12.882 12.0661V8.27557C12.8835 8.08857 12.784 7.91557 12.622 7.82257H12.6215ZM13.9615 5.80557C13.938 5.79107 13.8965 5.76607 13.867 5.74907L10.681 3.90907C10.5195 3.81457 10.3195 3.81457 10.1575 3.90907L6.26802 6.15507V4.60007C6.26702 4.58407 6.27452 4.56857 6.28702 4.55857L9.50752 2.70057C10.942 1.87307 12.776 2.36557 13.603 3.80057C13.9525 4.40657 14.079 5.11607 13.9605 5.80557H13.9615ZM5.53602 8.57707L4.18902 7.79957C4.17452 7.79257 4.16502 7.77857 4.16302 7.76257V4.04307C4.16402 2.38707 5.50752 1.04507 7.16352 1.04607C7.86402 1.04607 8.54202 1.29207 9.08052 1.74007C9.05602 1.75307 9.01402 1.77657 8.98602 1.79357L5.80002 3.63357C5.63702 3.72607 5.53702 3.89907 5.53802 4.08657L5.53602 8.57607V8.57707ZM6.26752 7.00007L8.00002 5.99957L9.73252 6.99957V9.00007L8.00002 10.0001L6.26752 9.00007V7.00007Z"
			fill="#F8F8F2"
		/>
    </g>
    <defs>
        <clipPath id="clip0_1183_12111">
            <rect width="16" height="16" fill="white" />
        </clipPath>
    </defs>
</svg>
