<?xml version="1.0" standalone="no" ?>
<!DOCTYPE svg PUBLIC "-//W3C//DTD SVG 20010904//EN"
	"http://www.w3.org/TR/2001/REC-SVG-20010904/DTD/svg10.dtd">
<svg
	version="1.0"
	xmlns="http://www.w3.org/2000/svg"
	width="500.000000pt"
	height="500.000000pt"
	viewBox="0 0 500.000000 500.000000"
	preserveAspectRatio="xMidYMid meet"
>

<g
		transform="translate(0.000000,500.000000) scale(0.100000,-0.100000)"
		fill="#000000"
		stroke="none"
	>
<path
			d="M0 2500 l0 -2500 2500 0 2500 0 0 2500 0 2500 -2500 0 -2500 0 0
-2500z m2578 1572 c114 -37 213 -95 295 -171 l62 -59 60 10 c127 21 314 -7
449 -66 240 -106 423 -350 466 -619 15 -90 8 -235 -14 -317 -13 -48 -13 -57 0
-75 150 -206 202 -361 190 -570 -7 -129 -25 -197 -87 -323 -98 -197 -274 -347
-486 -412 -69 -21 -71 -22 -88 -68 -44 -121 -159 -270 -271 -352 -71 -53 -180
-106 -271 -132 -66 -19 -101 -23 -223 -22 -135 0 -152 3 -240 32 -119 40 -206
90 -290 168 l-65 62 -88 -11 c-231 -29 -486 62 -658 233 -85 85 -161 210 -201
330 -30 90 -32 103 -32 245 0 112 5 163 17 200 l16 49 -38 51 c-345 457 -137
1110 406 1275 l71 21 22 59 c52 140 207 316 343 392 151 83 260 109 437 104
106 -3 139 -8 218 -34z"
		/>
<path
			d="M2230 3893 c-46 -8 -124 -36 -185 -66 -84 -42 -211 -171 -252 -258
-61 -128 -63 -145 -63 -607 l0 -421 127 -73 c70 -40 131 -74 135 -76 4 -2 9
206 10 462 3 449 4 465 23 492 12 16 155 105 345 215 179 104 330 191 335 193
31 15 -136 107 -238 131 -58 14 -179 18 -237 8z"
		/>
<path
			d="M2985 3635 c-96 -21 -132 -39 -490 -245 l-340 -196 -3 -158 c-2 -145
-1 -158 14 -152 10 4 180 100 378 215 437 252 422 244 457 237 15 -3 177 -91
360 -197 261 -151 333 -188 341 -178 17 26 2 190 -27 274 -52 156 -154 273
-300 346 -131 64 -261 83 -390 54z"
		/>
<path
			d="M1451 3290 c-172 -95 -278 -235 -317 -421 -42 -197 33 -424 187 -562
31 -29 124 -90 206 -137 81 -47 236 -136 343 -199 107 -62 200 -114 205 -114
10 0 254 138 267 151 4 4 -170 108 -385 232 -215 124 -402 236 -414 249 l-23
24 0 403 c0 222 -3 404 -7 404 -5 0 -32 -14 -62 -30z"
		/>
<path
			d="M2795 3074 c-72 -42 -133 -79 -137 -82 -4 -4 91 -63 210 -131 527
-303 589 -340 600 -366 9 -18 12 -141 12 -421 l0 -394 37 15 c148 62 280 211
334 377 36 110 33 253 -7 368 -36 104 -87 182 -160 249 -58 53 -91 73 -479
296 -132 76 -249 144 -260 151 -18 12 -34 5 -150 -62z"
		/>
<path
			d="M2325 2802 l-170 -98 0 -204 0 -204 173 -99 172 -99 173 100 172 99
0 203 0 204 -170 98 c-93 54 -172 98 -175 98 -3 0 -82 -44 -175 -98z"
		/>
<path
			d="M2998 2146 c-3 -447 -4 -466 -23 -491 -12 -16 -158 -107 -352 -219
-183 -105 -333 -194 -333 -198 0 -16 111 -80 180 -104 333 -116 697 84 785
431 12 48 15 137 15 476 l0 418 -127 73 c-70 40 -131 74 -135 76 -4 2 -9 -206
-10 -462z"
		/>
<path
			d="M2440 1893 c-343 -198 -410 -234 -436 -230 -26 5 -217 111 -596 333
l-107 63 -7 -36 c-11 -58 4 -188 29 -262 111 -318 467 -488 779 -371 46 17
719 398 741 419 4 4 6 77 5 163 l-3 155 -405 -234z"
		/>
</g>
</svg>
