<svg
	xmlns="http://www.w3.org/2000/svg"
	xmlns:xlink="http://www.w3.org/1999/xlink"
	xml:space="preserve"
	width="192"
	height="192"
	viewBox="0 0 192 182"
><symbol id="c" viewBox="-96 -96 192 192"><g opacity=".4"><defs><path
					id="a"
					d="M-96 96V-96H96V96H-96z"
					opacity=".4"
				/></defs><clipPath id="b"><use
					xlink:href="#a"
					overflow="visible"
				/></clipPath><g clip-path="url(#b)"><path
					d="M95.75 95.75v-191.5h-191.5v191.5h191.5M96 96H-96V-96H96V96z"
				/><circle
					r="64"
					fill="none"
					stroke="#000"
					stroke-miterlimit="10"
					stroke-width=".25"
				/></g><circle
				r="88"
				fill="none"
				stroke="#000"
				stroke-miterlimit="10"
				stroke-width=".25"
				clip-path="url(#b)"
			/><path
				fill="none"
				stroke="#000"
				stroke-miterlimit="10"
				stroke-width=".25"
				d="M64 76H-64c-6.6 0-12-5.4-12-12V-64c0-6.6 5.4-12 12-12H64c6.6 0 12 5.4 12 12V64c0 6.6-5.4 12-12 12z"
				clip-path="url(#b)"
			/><path
				fill="none"
				stroke="#000"
				stroke-miterlimit="10"
				stroke-width=".25"
				d="M52 88H-52c-6.6 0-12-5.4-12-12V-76c0-6.6 5.4-12 12-12H52c6.6 0 12 5.4 12 12V76c0 6.6-5.4 12-12 12z"
				clip-path="url(#b)"
			/><path
				fill="none"
				stroke="#000"
				stroke-miterlimit="10"
				stroke-width=".25"
				d="M76 64H-76c-6.6 0-12-5.4-12-12V-52c0-6.6 5.4-12 12-12H76c6.6 0 12 5.4 12 12V52c0 6.6-5.4 12-12 12z"
				clip-path="url(#b)"
			/></g></symbol><path
		fill="#F9AB00"
		d="M96 181.92c6.63 0 12-5.37 12-12v-104H84v104c0 6.63 5.37 12 12 12z"
	/><path
		fill="#5BB974"
		d="M143.81 103.87C130.87 90.94 111.54 88.32 96 96l51.37 51.37c2.12 2.12 5.77 1.28 6.67-1.57 4.52-14.31 1.11-30.58-10.23-41.93z"
	/><path
		fill="#129EAF"
		d="M48.19 103.87C61.13 90.94 80.46 88.32 96 96l-51.37 51.37c-2.12 2.12-5.77 1.28-6.67-1.57-4.52-14.31-1.11-30.58 10.23-41.93z"
	/><path
		fill="#AF5CF7"
		d="M140 64c-20.44 0-37.79 13.4-44 32h81.24c3.33 0 5.55-3.52 4.04-6.49C173.56 74.36 157.98 64 140 64z"
	/><path
		fill="#FF8BCB"
		d="M104.49 42.26C90.03 56.72 87.24 78.45 96 96l57.45-57.45c2.36-2.36 1.44-6.42-1.73-7.45-16.18-5.25-34.52-1.55-47.23 11.16z"
	/><path
		fill="#FA7B17"
		d="M87.51 42.26C101.97 56.72 104.76 78.45 96 96L38.55 38.55c-2.36-2.36-1.44-6.42 1.73-7.45 16.18-5.25 34.52-1.55 47.23 11.16z"
	/><path
		fill="#4285F4"
		d="M52 64c20.44 0 37.79 13.4 44 32H14.76c-3.33 0-5.55-3.52-4.04-6.49C18.44 74.36 34.02 64 52 64z"
	/></svg>
