<svg
	width="524"
	height="148"
	viewBox="0 0 524 148"
	fill="none"
	xmlns="http://www.w3.org/2000/svg"
>
<g filter="url(#filter0_dd_605_13101)">
<rect
			x="6"
			y="3"
			width="512"
			height="136"
			rx="30"
			fill="#272935"
			shape-rendering="crispEdges"
		/>
<path
			opacity="0.8"
			d="M71.6506 50H70.358L74.0966 39.8182H75.3693L79.108 50H77.8153L74.7727 41.429H74.6932L71.6506 50ZM72.1278 46.0227H77.3381V47.1165H72.1278V46.0227ZM80.7639 50V39.8182H84.2042C85.003 39.8182 85.6559 39.9624 86.163 40.2507C86.6735 40.5357 87.0513 40.9219 87.2966 41.4091C87.5418 41.8963 87.6645 42.4399 87.6645 43.0398C87.6645 43.6397 87.5418 44.1849 87.2966 44.6754C87.0546 45.166 86.6801 45.5571 86.173 45.8487C85.6659 46.1371 85.0163 46.2812 84.2241 46.2812H81.7582V45.1875H84.1843C84.7312 45.1875 85.1704 45.093 85.5018 44.9041C85.8333 44.7152 86.0736 44.46 86.2227 44.1385C86.3752 43.8137 86.4514 43.4474 86.4514 43.0398C86.4514 42.6321 86.3752 42.2675 86.2227 41.946C86.0736 41.6245 85.8316 41.3726 85.4968 41.1903C85.1621 41.0047 84.718 40.9119 84.1645 40.9119H81.9968V50H80.7639ZM90.9536 39.8182V50H89.7206V39.8182H90.9536ZM105.696 43H104.463C104.391 42.6454 104.263 42.3338 104.081 42.0653C103.902 41.7969 103.683 41.5715 103.424 41.3892C103.169 41.2036 102.886 41.0644 102.574 40.9716C102.263 40.8788 101.938 40.8324 101.6 40.8324C100.983 40.8324 100.425 40.9882 99.9244 41.2997C99.4272 41.6113 99.0311 42.0703 98.7361 42.6768C98.4445 43.2834 98.2986 44.0275 98.2986 44.9091C98.2986 45.7907 98.4445 46.5348 98.7361 47.1413C99.0311 47.7479 99.4272 48.2069 99.9244 48.5185C100.425 48.83 100.983 48.9858 101.6 48.9858C101.938 48.9858 102.263 48.9394 102.574 48.8466C102.886 48.7538 103.169 48.6162 103.424 48.4339C103.683 48.2483 103.902 48.0213 104.081 47.7528C104.263 47.4811 104.391 47.1695 104.463 46.8182H105.696C105.604 47.3385 105.435 47.8042 105.189 48.2152C104.944 48.6262 104.639 48.9759 104.274 49.2642C103.91 49.5492 103.501 49.7663 103.047 49.9155C102.596 50.0646 102.114 50.1392 101.6 50.1392C100.731 50.1392 99.9592 49.9271 99.283 49.5028C98.6069 49.0786 98.0749 48.4754 97.6871 47.6932C97.2994 46.911 97.1055 45.983 97.1055 44.9091C97.1055 43.8352 97.2994 42.9072 97.6871 42.125C98.0749 41.3428 98.6069 40.7396 99.283 40.3153C99.9592 39.8911 100.731 39.679 101.6 39.679C102.114 39.679 102.596 39.7536 103.047 39.9027C103.501 40.0518 103.91 40.2706 104.274 40.5589C104.639 40.844 104.944 41.192 105.189 41.603C105.435 42.0107 105.604 42.4763 105.696 43ZM109.847 50.179C109.363 50.179 108.924 50.0878 108.529 49.9055C108.135 49.7199 107.822 49.4531 107.59 49.1051C107.358 48.7538 107.242 48.3295 107.242 47.8324C107.242 47.3949 107.328 47.0402 107.5 46.7685C107.673 46.4934 107.903 46.2779 108.191 46.1222C108.48 45.9664 108.798 45.8504 109.146 45.7741C109.497 45.6946 109.85 45.6316 110.205 45.5852C110.669 45.5256 111.045 45.4808 111.333 45.451C111.625 45.4179 111.837 45.3632 111.97 45.2869C112.106 45.2107 112.174 45.0781 112.174 44.8892V44.8494C112.174 44.3589 112.039 43.9777 111.771 43.706C111.506 43.4342 111.103 43.2983 110.563 43.2983C110.003 43.2983 109.563 43.4209 109.245 43.6662C108.927 43.9115 108.703 44.1733 108.574 44.4517L107.46 44.054C107.659 43.59 107.924 43.2287 108.256 42.9702C108.591 42.7083 108.955 42.526 109.35 42.4233C109.747 42.3172 110.138 42.2642 110.523 42.2642C110.768 42.2642 111.05 42.294 111.368 42.3537C111.69 42.41 112 42.5277 112.298 42.7067C112.599 42.8857 112.85 43.1558 113.049 43.517C113.247 43.8783 113.347 44.3622 113.347 44.9688V50H112.174V48.9659H112.114C112.034 49.1316 111.902 49.3089 111.716 49.4979C111.531 49.6868 111.284 49.8475 110.975 49.9801C110.667 50.1127 110.291 50.179 109.847 50.179ZM110.026 49.125C110.49 49.125 110.881 49.0339 111.199 48.8516C111.521 48.6693 111.763 48.4339 111.925 48.1456C112.091 47.8572 112.174 47.554 112.174 47.2358V46.1619C112.124 46.2216 112.014 46.2763 111.845 46.326C111.68 46.3724 111.487 46.4138 111.269 46.4503C111.053 46.4834 110.843 46.5133 110.637 46.5398C110.435 46.563 110.271 46.5829 110.145 46.5994C109.84 46.6392 109.555 46.7038 109.29 46.7933C109.028 46.8795 108.816 47.0104 108.654 47.1861C108.495 47.3584 108.415 47.5937 108.415 47.892C108.415 48.2997 108.566 48.608 108.867 48.8168C109.172 49.0223 109.558 49.125 110.026 49.125ZM116.732 39.8182V50H115.558V39.8182H116.732ZM120.124 39.8182V50H118.951V39.8182H120.124ZM127.752 44.0739L126.698 44.3722C126.632 44.1965 126.534 44.0258 126.405 43.8601C126.279 43.6911 126.106 43.5518 125.888 43.4425C125.669 43.3331 125.389 43.2784 125.047 43.2784C124.58 43.2784 124.191 43.3861 123.879 43.6016C123.571 43.8137 123.417 44.0838 123.417 44.4119C123.417 44.7036 123.523 44.9339 123.735 45.103C123.947 45.272 124.278 45.4129 124.729 45.5256L125.863 45.804C126.546 45.9697 127.054 46.2232 127.389 46.5646C127.724 46.9027 127.891 47.3385 127.891 47.8722C127.891 48.3097 127.765 48.7008 127.513 49.0455C127.265 49.3902 126.917 49.6619 126.469 49.8608C126.022 50.0597 125.501 50.1591 124.908 50.1591C124.129 50.1591 123.485 49.9901 122.974 49.652C122.464 49.3139 122.141 48.8201 122.005 48.1705L123.118 47.892C123.224 48.303 123.425 48.6113 123.72 48.8168C124.018 49.0223 124.408 49.125 124.888 49.125C125.435 49.125 125.869 49.009 126.191 48.777C126.516 48.5417 126.678 48.2599 126.678 47.9318C126.678 47.6667 126.585 47.4446 126.4 47.2656C126.214 47.0833 125.929 46.9474 125.545 46.858L124.272 46.5597C123.572 46.3939 123.059 46.1371 122.731 45.7891C122.406 45.4377 122.243 44.9986 122.243 44.4716C122.243 44.0407 122.364 43.6596 122.606 43.3281C122.852 42.9967 123.185 42.7365 123.606 42.5476C124.03 42.3587 124.51 42.2642 125.047 42.2642C125.803 42.2642 126.396 42.4299 126.827 42.7614C127.261 43.0928 127.57 43.5303 127.752 44.0739Z"
			fill="#D6D7DB"
		/>
<path
			opacity="0.8"
			d="M79.7692 84.2983C78.2351 84.2983 76.8714 84.0355 75.6783 83.5099C74.4922 82.9844 73.5547 82.2528 72.8658 81.3153C72.1768 80.3778 71.8111 79.2947 71.7685 78.0661H75.7741C75.8097 78.6555 76.005 79.1705 76.3601 79.6108C76.7152 80.044 77.1875 80.3814 77.777 80.6229C78.3665 80.8643 79.027 80.9851 79.7585 80.9851C80.5398 80.9851 81.2322 80.8501 81.8359 80.5803C82.4396 80.3033 82.9119 79.9197 83.2528 79.4297C83.5938 78.9396 83.7607 78.375 83.7536 77.7358C83.7607 77.0753 83.5902 76.4929 83.2422 75.9886C82.8942 75.4844 82.3899 75.0902 81.7294 74.8061C81.076 74.522 80.2876 74.38 79.3643 74.38H77.4361V71.3331H79.3643C80.1243 71.3331 80.7884 71.2017 81.3565 70.9389C81.9318 70.6761 82.3828 70.3068 82.7095 69.831C83.0362 69.348 83.196 68.7905 83.1889 68.1584C83.196 67.5405 83.0575 67.0043 82.7734 66.5497C82.4964 66.0881 82.1023 65.7294 81.5909 65.4737C81.0866 65.218 80.4936 65.0902 79.8118 65.0902C79.1442 65.0902 78.5263 65.2109 77.9581 65.4524C77.3899 65.6939 76.9318 66.0384 76.5838 66.4858C76.2358 66.9261 76.0511 67.4517 76.0298 68.0625H72.2266C72.255 66.8409 72.6065 65.7685 73.2812 64.8452C73.9631 63.9148 74.8722 63.1903 76.0085 62.6719C77.1449 62.1463 78.4197 61.8835 79.8331 61.8835C81.2891 61.8835 82.5533 62.157 83.6257 62.7038C84.7053 63.2436 85.5398 63.9716 86.1293 64.8878C86.7188 65.804 87.0135 66.8161 87.0135 67.924C87.0206 69.1527 86.6584 70.1825 85.9268 71.0135C85.2024 71.8445 84.2507 72.3878 83.0717 72.6435V72.8139C84.6058 73.027 85.7813 73.5952 86.598 74.5185C87.4219 75.4347 87.8303 76.5746 87.8232 77.9382C87.8232 79.1598 87.4751 80.2536 86.7791 81.2195C86.0902 82.1783 85.1385 82.9311 83.924 83.478C82.7166 84.0249 81.3317 84.2983 79.7692 84.2983ZM91.6299 84V81.1449L99.2045 73.7195C99.9289 72.9879 100.533 72.3381 101.016 71.7699C101.499 71.2017 101.861 70.6513 102.102 70.1186C102.344 69.5859 102.464 69.0178 102.464 68.4141C102.464 67.7251 102.308 67.1357 101.996 66.6456C101.683 66.1484 101.254 65.7649 100.707 65.495C100.16 65.2251 99.5383 65.0902 98.8423 65.0902C98.125 65.0902 97.4964 65.2393 96.9566 65.5376C96.4169 65.8288 95.9978 66.2443 95.6995 66.7841C95.4083 67.3239 95.2627 67.9666 95.2627 68.7124H91.5021C91.5021 67.3274 91.8181 66.1236 92.4502 65.1009C93.0824 64.0781 93.9524 63.2862 95.0603 62.7251C96.1754 62.1641 97.4538 61.8835 98.8956 61.8835C100.359 61.8835 101.644 62.157 102.752 62.7038C103.86 63.2507 104.719 64 105.33 64.9517C105.948 65.9034 106.257 66.9901 106.257 68.2116C106.257 69.0284 106.101 69.831 105.788 70.6193C105.476 71.4077 104.925 72.2812 104.137 73.2401C103.356 74.1989 102.258 75.3601 100.845 76.7237L97.0845 80.5483V80.6974H106.587V84H91.6299ZM110.626 84V62.1818H114.578V72.2067H114.845L123.357 62.1818H128.183L119.745 71.9723L128.257 84H123.506L116.997 74.6463L114.578 77.5014V84H110.626Z"
			fill="#D6D7DB"
		/>
<path
			opacity="0.8"
			d="M72.9276 100.729L72.4162 100.222L77.6577 94.9759H73.4645L73.473 94.2727H78.8679V99.6761H78.1562L78.1648 95.4872L72.9276 100.729ZM88.669 94.2727V103H87.8721V95.108H87.821L85.7755 96.4673V95.6406L87.838 94.2727H88.669ZM94.1281 103.119C93.7673 103.116 93.4151 103.044 93.0713 102.902C92.7276 102.757 92.4179 102.526 92.1423 102.207C91.8668 101.886 91.648 101.463 91.4861 100.938C91.3242 100.412 91.2432 99.7656 91.2432 98.9986C91.2432 98.2884 91.3057 97.6378 91.4307 97.0469C91.5557 96.456 91.7432 95.9446 91.9932 95.5128C92.2432 95.081 92.5557 94.7472 92.9307 94.5114C93.3057 94.2727 93.7446 94.1534 94.2475 94.1534C94.719 94.1534 95.1352 94.2514 95.496 94.4474C95.8568 94.6406 96.1494 94.9105 96.3739 95.2571C96.5983 95.6037 96.7389 96.0028 96.7958 96.4545H96.0117C95.9321 95.9943 95.7432 95.6151 95.4449 95.3168C95.1466 95.0185 94.7475 94.8693 94.2475 94.8693C93.5315 94.8693 92.9776 95.2017 92.5855 95.8665C92.1935 96.5284 91.996 97.4688 91.9932 98.6875H92.0486C92.1878 98.429 92.3668 98.206 92.5855 98.0185C92.8071 97.8281 93.0585 97.6804 93.3398 97.5753C93.621 97.4673 93.9165 97.4134 94.2262 97.4134C94.7119 97.4134 95.1565 97.5369 95.56 97.7841C95.9634 98.0284 96.2858 98.3651 96.5273 98.794C96.7688 99.2202 96.8895 99.7074 96.8895 100.256C96.8895 100.776 96.7744 101.254 96.5443 101.692C96.3171 102.129 95.996 102.477 95.5813 102.736C95.1693 102.994 94.685 103.122 94.1281 103.119ZM94.1281 102.403C94.5088 102.403 94.8483 102.307 95.1466 102.114C95.4477 101.92 95.685 101.662 95.8583 101.338C96.0315 101.011 96.1182 100.651 96.1182 100.256C96.1182 99.8608 96.0315 99.5028 95.8583 99.1818C95.685 98.8608 95.4477 98.6051 95.1466 98.4148C94.8483 98.2244 94.5088 98.1293 94.1281 98.1293C93.8384 98.1293 93.5685 98.1889 93.3185 98.3082C93.0685 98.4247 92.8512 98.5852 92.6665 98.7898C92.4847 98.9915 92.3455 99.223 92.2489 99.4844C92.1551 99.7457 92.1196 100.02 92.1423 100.307C92.1736 100.707 92.2773 101.067 92.4534 101.385C92.6324 101.7 92.8654 101.949 93.1523 102.131C93.4421 102.312 93.7673 102.403 94.1281 102.403ZM99.6331 101.807L99.5564 102.263C99.5081 102.57 99.4399 102.908 99.3518 103.277C99.2638 103.646 99.1729 103.997 99.0791 104.33C98.9854 104.662 98.9044 104.929 98.8362 105.131H98.2524C98.2893 104.938 98.3362 104.692 98.393 104.393C98.4527 104.095 98.5138 103.764 98.5763 103.401C98.6388 103.04 98.6956 102.668 98.7467 102.284L98.8064 101.807H99.6331ZM104.018 103.119C103.405 103.119 102.881 102.943 102.446 102.591C102.014 102.236 101.682 101.723 101.449 101.053C101.219 100.382 101.104 99.5767 101.104 98.6364C101.104 97.6989 101.219 96.8963 101.449 96.2287C101.682 95.5582 102.016 95.0455 102.45 94.6903C102.888 94.3324 103.41 94.1534 104.018 94.1534C104.626 94.1534 105.148 94.3324 105.582 94.6903C106.02 95.0455 106.354 95.5582 106.584 96.2287C106.817 96.8963 106.933 97.6989 106.933 98.6364C106.933 99.5767 106.817 100.382 106.584 101.053C106.354 101.723 106.021 102.236 105.587 102.591C105.155 102.943 104.632 103.119 104.018 103.119ZM104.018 102.403C104.692 102.403 105.217 102.075 105.595 101.419C105.973 100.76 106.162 99.8324 106.162 98.6364C106.162 97.8409 106.075 97.1619 105.902 96.5994C105.731 96.0341 105.486 95.6023 105.165 95.304C104.847 95.0057 104.464 94.8565 104.018 94.8565C103.351 94.8565 102.827 95.1889 102.446 95.8537C102.065 96.5156 101.875 97.4432 101.875 98.6364C101.875 99.4318 101.96 100.111 102.131 100.673C102.304 101.236 102.55 101.665 102.868 101.96C103.189 102.256 103.572 102.403 104.018 102.403ZM111.438 103.119C110.824 103.119 110.3 102.943 109.865 102.591C109.433 102.236 109.101 101.723 108.868 101.053C108.638 100.382 108.523 99.5767 108.523 98.6364C108.523 97.6989 108.638 96.8963 108.868 96.2287C109.101 95.5582 109.435 95.0455 109.87 94.6903C110.307 94.3324 110.83 94.1534 111.438 94.1534C112.046 94.1534 112.567 94.3324 113.002 94.6903C113.439 95.0455 113.773 95.5582 114.003 96.2287C114.236 96.8963 114.353 97.6989 114.353 98.6364C114.353 99.5767 114.236 100.382 114.003 101.053C113.773 101.723 113.441 102.236 113.006 102.591C112.574 102.943 112.051 103.119 111.438 103.119ZM111.438 102.403C112.111 102.403 112.637 102.075 113.014 101.419C113.392 100.76 113.581 99.8324 113.581 98.6364C113.581 97.8409 113.495 97.1619 113.321 96.5994C113.151 96.0341 112.905 95.6023 112.584 95.304C112.266 95.0057 111.884 94.8565 111.438 94.8565C110.77 94.8565 110.246 95.1889 109.865 95.8537C109.485 96.5156 109.294 97.4432 109.294 98.6364C109.294 99.4318 109.38 100.111 109.55 100.673C109.723 101.236 109.969 101.665 110.287 101.96C110.608 102.256 110.992 102.403 111.438 102.403ZM118.857 103.119C118.243 103.119 117.719 102.943 117.285 102.591C116.853 102.236 116.52 101.723 116.288 101.053C116.057 100.382 115.942 99.5767 115.942 98.6364C115.942 97.6989 116.057 96.8963 116.288 96.2287C116.52 95.5582 116.854 95.0455 117.289 94.6903C117.726 94.3324 118.249 94.1534 118.857 94.1534C119.465 94.1534 119.986 94.3324 120.421 94.6903C120.859 95.0455 121.192 95.5582 121.422 96.2287C121.655 96.8963 121.772 97.6989 121.772 98.6364C121.772 99.5767 121.655 100.382 121.422 101.053C121.192 101.723 120.86 102.236 120.425 102.591C119.993 102.943 119.471 103.119 118.857 103.119ZM118.857 102.403C119.53 102.403 120.056 102.075 120.434 101.419C120.812 100.76 121.001 99.8324 121.001 98.6364C121.001 97.8409 120.914 97.1619 120.741 96.5994C120.57 96.0341 120.324 95.6023 120.003 95.304C119.685 95.0057 119.303 94.8565 118.857 94.8565C118.19 94.8565 117.665 95.1889 117.285 95.8537C116.904 96.5156 116.714 97.4432 116.714 98.6364C116.714 99.4318 116.799 100.111 116.969 100.673C117.143 101.236 117.388 101.665 117.707 101.96C118.028 102.256 118.411 102.403 118.857 102.403ZM127.346 98.6364C127.346 97.6136 127.476 96.6477 127.734 95.7386C127.993 94.8295 128.363 93.9773 128.846 93.1818H129.537C129.329 93.517 129.139 93.8963 128.966 94.3196C128.795 94.7429 128.648 95.1946 128.523 95.6747C128.398 96.1548 128.301 96.6463 128.233 97.1491C128.165 97.6491 128.131 98.1449 128.131 98.6364C128.131 99.2926 128.19 99.9545 128.31 100.622C128.429 101.29 128.594 101.923 128.804 102.523C129.017 103.122 129.261 103.645 129.537 104.091H128.846C128.363 103.293 127.993 102.439 127.734 101.53C127.476 100.621 127.346 99.6562 127.346 98.6364ZM133.915 94.2727V103H133.118V95.108H133.067L131.021 96.4673V95.6406L133.084 94.2727H133.915ZM139.335 103.119C138.722 103.119 138.198 102.943 137.763 102.591C137.331 102.236 136.999 101.723 136.766 101.053C136.536 100.382 136.421 99.5767 136.421 98.6364C136.421 97.6989 136.536 96.8963 136.766 96.2287C136.999 95.5582 137.333 95.0455 137.767 94.6903C138.205 94.3324 138.727 94.1534 139.335 94.1534C139.943 94.1534 140.465 94.3324 140.899 94.6903C141.337 95.0455 141.671 95.5582 141.901 96.2287C142.134 96.8963 142.25 97.6989 142.25 98.6364C142.25 99.5767 142.134 100.382 141.901 101.053C141.671 101.723 141.338 102.236 140.904 102.591C140.472 102.943 139.949 103.119 139.335 103.119ZM139.335 102.403C140.009 102.403 140.534 102.075 140.912 101.419C141.29 100.76 141.479 99.8324 141.479 98.6364C141.479 97.8409 141.392 97.1619 141.219 96.5994C141.048 96.0341 140.803 95.6023 140.482 95.304C140.164 95.0057 139.781 94.8565 139.335 94.8565C138.668 94.8565 138.144 95.1889 137.763 95.8537C137.382 96.5156 137.192 97.4432 137.192 98.6364C137.192 99.4318 137.277 100.111 137.448 100.673C137.621 101.236 137.867 101.665 138.185 101.96C138.506 102.256 138.889 102.403 139.335 102.403ZM146.755 103.119C146.141 103.119 145.617 102.943 145.182 102.591C144.751 102.236 144.418 101.723 144.185 101.053C143.955 100.382 143.84 99.5767 143.84 98.6364C143.84 97.6989 143.955 96.8963 144.185 96.2287C144.418 95.5582 144.752 95.0455 145.187 94.6903C145.624 94.3324 146.147 94.1534 146.755 94.1534C147.363 94.1534 147.884 94.3324 148.319 94.6903C148.756 95.0455 149.09 95.5582 149.32 96.2287C149.553 96.8963 149.67 97.6989 149.67 98.6364C149.67 99.5767 149.553 100.382 149.32 101.053C149.09 101.723 148.758 102.236 148.323 102.591C147.891 102.943 147.368 103.119 146.755 103.119ZM146.755 102.403C147.428 102.403 147.954 102.075 148.331 101.419C148.709 100.76 148.898 99.8324 148.898 98.6364C148.898 97.8409 148.812 97.1619 148.638 96.5994C148.468 96.0341 148.222 95.6023 147.901 95.304C147.583 95.0057 147.201 94.8565 146.755 94.8565C146.087 94.8565 145.563 95.1889 145.182 95.8537C144.802 96.5156 144.611 97.4432 144.611 98.6364C144.611 99.4318 144.697 100.111 144.867 100.673C145.04 101.236 145.286 101.665 145.604 101.96C145.925 102.256 146.309 102.403 146.755 102.403ZM155.879 101.381V100.984C155.879 100.658 155.944 100.364 156.075 100.102C156.205 99.8381 156.391 99.6293 156.633 99.4759C156.874 99.3224 157.161 99.2457 157.494 99.2457C157.829 99.2457 158.116 99.3224 158.355 99.4759C158.593 99.6293 158.776 99.8381 158.904 100.102C159.032 100.364 159.096 100.658 159.096 100.984V101.381C159.096 101.707 159.031 102.001 158.9 102.263C158.772 102.524 158.589 102.733 158.35 102.889C158.112 103.043 157.826 103.119 157.494 103.119C157.156 103.119 156.866 103.043 156.624 102.889C156.386 102.733 156.201 102.524 156.07 102.263C155.943 102.001 155.879 101.707 155.879 101.381ZM156.548 100.984V101.381C156.548 101.702 156.626 101.976 156.782 102.203C156.941 102.428 157.178 102.54 157.494 102.54C157.801 102.54 158.032 102.428 158.188 102.203C158.345 101.976 158.423 101.702 158.423 101.381V100.984C158.423 100.663 158.346 100.391 158.193 100.166C158.039 99.9389 157.806 99.8253 157.494 99.8253C157.184 99.8253 156.948 99.9389 156.786 100.166C156.627 100.391 156.548 100.663 156.548 100.984ZM151.481 96.2884V95.892C151.481 95.5653 151.546 95.2713 151.677 95.0099C151.808 94.7486 151.994 94.5412 152.235 94.3878C152.477 94.2315 152.764 94.1534 153.096 94.1534C153.431 94.1534 153.718 94.2315 153.957 94.3878C154.195 94.5412 154.379 94.7486 154.507 95.0099C154.634 95.2713 154.698 95.5653 154.698 95.892V96.2884C154.698 96.6151 154.633 96.9105 154.502 97.1747C154.374 97.4361 154.191 97.6435 153.953 97.7969C153.714 97.9503 153.428 98.027 153.096 98.027C152.758 98.027 152.468 97.9503 152.227 97.7969C151.988 97.6435 151.803 97.4361 151.673 97.1747C151.545 96.9105 151.481 96.6151 151.481 96.2884ZM152.15 95.892V96.2884C152.15 96.6094 152.228 96.8835 152.384 97.1108C152.543 97.3352 152.781 97.4474 153.096 97.4474C153.403 97.4474 153.634 97.3352 153.791 97.1108C153.947 96.8835 154.025 96.6094 154.025 96.2884V95.892C154.025 95.571 153.948 95.2983 153.795 95.0739C153.641 94.8466 153.409 94.733 153.096 94.733C152.786 94.733 152.551 94.8466 152.389 95.0739C152.23 95.2983 152.15 95.571 152.15 95.892ZM151.873 103L157.869 94.2727H158.623L152.627 103H151.873ZM162.992 98.6364C162.992 99.6591 162.863 100.625 162.605 101.534C162.346 102.443 161.975 103.295 161.492 104.091H160.802C161.009 103.756 161.198 103.376 161.369 102.953C161.542 102.53 161.691 102.078 161.816 101.598C161.941 101.118 162.038 100.626 162.106 100.124C162.174 99.6207 162.208 99.125 162.208 98.6364C162.208 97.9801 162.149 97.3182 162.029 96.6506C161.91 95.983 161.744 95.3494 161.531 94.75C161.32 94.1506 161.078 93.6278 160.802 93.1818H161.492C161.975 93.9801 162.346 94.8338 162.605 95.7429C162.863 96.652 162.992 97.6165 162.992 98.6364Z"
			fill="#D6D7DB"
		/>
<path
			fill-rule="evenodd"
			clip-rule="evenodd"
			d="M190 62C190.154 62.0001 190.305 62.0476 190.431 62.1362C190.557 62.2248 190.653 62.35 190.705 62.495L196 77.054L198.295 70.742C198.348 70.5976 198.444 70.473 198.57 70.385C198.696 70.297 198.846 70.2498 199 70.25H204.25C204.449 70.25 204.64 70.329 204.78 70.4697C204.921 70.6103 205 70.8011 205 71C205 71.1989 204.921 71.3897 204.78 71.5303C204.64 71.671 204.449 71.75 204.25 71.75H199.525L196.705 79.505C196.652 79.6498 196.557 79.7749 196.43 79.8633C196.304 79.9517 196.154 79.9991 196 79.9991C195.846 79.9991 195.696 79.9517 195.57 79.8633C195.443 79.7749 195.348 79.6498 195.295 79.505L190 64.946L187.705 71.2565C187.652 71.4012 187.556 71.5261 187.43 71.6144C187.304 71.7027 187.154 71.75 187 71.75H181.75C181.551 71.75 181.36 71.671 181.22 71.5303C181.079 71.3897 181 71.1989 181 71C181 70.8011 181.079 70.6103 181.22 70.4697C181.36 70.329 181.551 70.25 181.75 70.25H186.475L189.295 62.495C189.347 62.35 189.443 62.2248 189.569 62.1362C189.695 62.0476 189.846 62.0001 190 62Z"
			fill="#BD93F9"
		/>
<rect x="261.5" y="47" width="1" height="48" fill="#E5E7EB" />
<path
			opacity="0.8"
			d="M325.733 39.8182H327.205L330.665 48.2699H330.784L334.244 39.8182H335.716V50H334.562V42.2642H334.463L331.281 50H330.168L326.986 42.2642H326.886V50H325.733V39.8182ZM341.201 50.1591C340.512 50.1591 339.907 49.995 339.387 49.6669C338.87 49.3388 338.465 48.8797 338.174 48.2898C337.885 47.6998 337.741 47.0104 337.741 46.2216C337.741 45.4261 337.885 44.7318 338.174 44.1385C338.465 43.5452 338.87 43.0845 339.387 42.7564C339.907 42.4283 340.512 42.2642 341.201 42.2642C341.891 42.2642 342.494 42.4283 343.011 42.7564C343.531 43.0845 343.936 43.5452 344.224 44.1385C344.516 44.7318 344.661 45.4261 344.661 46.2216C344.661 47.0104 344.516 47.6998 344.224 48.2898C343.936 48.8797 343.531 49.3388 343.011 49.6669C342.494 49.995 341.891 50.1591 341.201 50.1591ZM341.201 49.1051C341.725 49.1051 342.156 48.9709 342.494 48.7024C342.832 48.4339 343.082 48.081 343.245 47.6435C343.407 47.206 343.488 46.732 343.488 46.2216C343.488 45.7112 343.407 45.2356 343.245 44.7947C343.082 44.3539 342.832 43.9976 342.494 43.7259C342.156 43.4541 341.725 43.3182 341.201 43.3182C340.678 43.3182 340.247 43.4541 339.909 43.7259C339.571 43.9976 339.32 44.3539 339.158 44.7947C338.995 45.2356 338.914 45.7112 338.914 46.2216C338.914 46.732 338.995 47.206 339.158 47.6435C339.32 48.081 339.571 48.4339 339.909 48.7024C340.247 48.9709 340.678 49.1051 341.201 49.1051ZM349.406 50.1591C348.77 50.1591 348.208 49.9983 347.721 49.6768C347.233 49.352 346.852 48.8946 346.577 48.3047C346.302 47.7114 346.165 47.0104 346.165 46.2017C346.165 45.3996 346.302 44.7036 346.577 44.1136C346.852 43.5237 347.235 43.0679 347.726 42.7464C348.216 42.425 348.783 42.2642 349.426 42.2642C349.923 42.2642 350.316 42.3471 350.604 42.5128C350.896 42.6752 351.118 42.8608 351.27 43.0696C351.426 43.2751 351.547 43.4441 351.633 43.5767H351.733V39.8182H352.906V50H351.772V48.8267H351.633C351.547 48.9659 351.424 49.1416 351.265 49.3537C351.106 49.5625 350.879 49.7498 350.584 49.9155C350.289 50.0779 349.897 50.1591 349.406 50.1591ZM349.565 49.1051C350.036 49.1051 350.433 48.9825 350.758 48.7372C351.083 48.4886 351.33 48.1456 351.499 47.7081C351.668 47.2673 351.753 46.7585 351.753 46.1818C351.753 45.6117 351.67 45.1129 351.504 44.6854C351.338 44.2545 351.093 43.9197 350.768 43.6811C350.443 43.4392 350.042 43.3182 349.565 43.3182C349.068 43.3182 348.654 43.4458 348.322 43.701C347.994 43.9529 347.747 44.2959 347.581 44.7301C347.419 45.161 347.338 45.6449 347.338 46.1818C347.338 46.7254 347.421 47.2192 347.586 47.6634C347.755 48.1042 348.004 48.4555 348.332 48.7173C348.664 48.9759 349.075 49.1051 349.565 49.1051ZM358.489 50.1591C357.754 50.1591 357.119 49.9967 356.585 49.6719C356.055 49.3438 355.646 48.8864 355.357 48.2997C355.072 47.7098 354.93 47.0237 354.93 46.2415C354.93 45.4593 355.072 44.7699 355.357 44.1733C355.646 43.5734 356.047 43.1061 356.56 42.7713C357.078 42.4332 357.681 42.2642 358.37 42.2642C358.768 42.2642 359.161 42.3305 359.548 42.4631C359.936 42.5956 360.289 42.8111 360.607 43.1094C360.926 43.4044 361.179 43.7955 361.368 44.2827C361.557 44.7699 361.651 45.3698 361.651 46.0824V46.5795H355.765V45.5653H360.458C360.458 45.1345 360.372 44.75 360.2 44.4119C360.031 44.0739 359.789 43.8071 359.474 43.6115C359.162 43.416 358.794 43.3182 358.37 43.3182C357.903 43.3182 357.498 43.4342 357.157 43.6662C356.819 43.8949 356.559 44.1932 356.377 44.5611C356.194 44.929 356.103 45.3234 356.103 45.7443V46.4205C356.103 46.9972 356.203 47.486 356.401 47.8871C356.604 48.2848 356.884 48.5881 357.242 48.7969C357.6 49.0024 358.016 49.1051 358.489 49.1051C358.798 49.1051 359.076 49.062 359.325 48.9759C359.577 48.8864 359.794 48.7538 359.976 48.5781C360.158 48.3991 360.299 48.1771 360.399 47.9119L361.532 48.2301C361.413 48.6146 361.212 48.9527 360.931 49.2443C360.649 49.5327 360.301 49.758 359.886 49.9205C359.472 50.0795 359.007 50.1591 358.489 50.1591ZM364.68 39.8182V50H363.506V39.8182H364.68ZM372.308 44.0739L371.254 44.3722C371.187 44.1965 371.09 44.0258 370.96 43.8601C370.834 43.6911 370.662 43.5518 370.443 43.4425C370.224 43.3331 369.944 43.2784 369.603 43.2784C369.136 43.2784 368.746 43.3861 368.435 43.6016C368.126 43.8137 367.972 44.0838 367.972 44.4119C367.972 44.7036 368.078 44.9339 368.291 45.103C368.503 45.272 368.834 45.4129 369.285 45.5256L370.418 45.804C371.101 45.9697 371.61 46.2232 371.945 46.5646C372.279 46.9027 372.447 47.3385 372.447 47.8722C372.447 48.3097 372.321 48.7008 372.069 49.0455C371.82 49.3902 371.472 49.6619 371.025 49.8608C370.577 50.0597 370.057 50.1591 369.464 50.1591C368.685 50.1591 368.04 49.9901 367.53 49.652C367.019 49.3139 366.696 48.8201 366.56 48.1705L367.674 47.892C367.78 48.303 367.981 48.6113 368.276 48.8168C368.574 49.0223 368.963 49.125 369.444 49.125C369.991 49.125 370.425 49.009 370.746 48.777C371.071 48.5417 371.234 48.2599 371.234 47.9318C371.234 47.6667 371.141 47.4446 370.955 47.2656C370.77 47.0833 370.485 46.9474 370.1 46.858L368.827 46.5597C368.128 46.3939 367.614 46.1371 367.286 45.7891C366.961 45.4377 366.799 44.9986 366.799 44.4716C366.799 44.0407 366.92 43.6596 367.162 43.3281C367.407 42.9967 367.74 42.7365 368.161 42.5476C368.585 42.3587 369.066 42.2642 369.603 42.2642C370.359 42.2642 370.952 42.4299 371.383 42.7614C371.817 43.0928 372.125 43.5303 372.308 44.0739ZM386.643 43H385.41C385.337 42.6454 385.209 42.3338 385.027 42.0653C384.848 41.7969 384.629 41.5715 384.371 41.3892C384.115 41.2036 383.832 41.0644 383.521 40.9716C383.209 40.8788 382.884 40.8324 382.546 40.8324C381.93 40.8324 381.371 40.9882 380.871 41.2997C380.374 41.6113 379.977 42.0703 379.682 42.6768C379.391 43.2834 379.245 44.0275 379.245 44.9091C379.245 45.7907 379.391 46.5348 379.682 47.1413C379.977 47.7479 380.374 48.2069 380.871 48.5185C381.371 48.83 381.93 48.9858 382.546 48.9858C382.884 48.9858 383.209 48.9394 383.521 48.8466C383.832 48.7538 384.115 48.6162 384.371 48.4339C384.629 48.2483 384.848 48.0213 385.027 47.7528C385.209 47.4811 385.337 47.1695 385.41 46.8182H386.643C386.55 47.3385 386.381 47.8042 386.136 48.2152C385.89 48.6262 385.585 48.9759 385.221 49.2642C384.856 49.5492 384.447 49.7663 383.993 49.9155C383.542 50.0646 383.06 50.1392 382.546 50.1392C381.678 50.1392 380.905 49.9271 380.229 49.5028C379.553 49.0786 379.021 48.4754 378.633 47.6932C378.246 46.911 378.052 45.983 378.052 44.9091C378.052 43.8352 378.246 42.9072 378.633 42.125C379.021 41.3428 379.553 40.7396 380.229 40.3153C380.905 39.8911 381.678 39.679 382.546 39.679C383.06 39.679 383.542 39.7536 383.993 39.9027C384.447 40.0518 384.856 40.2706 385.221 40.5589C385.585 40.844 385.89 41.192 386.136 41.603C386.381 42.0107 386.55 42.4763 386.643 43ZM391.648 50.1591C390.959 50.1591 390.354 49.995 389.834 49.6669C389.317 49.3388 388.912 48.8797 388.621 48.2898C388.332 47.6998 388.188 47.0104 388.188 46.2216C388.188 45.4261 388.332 44.7318 388.621 44.1385C388.912 43.5452 389.317 43.0845 389.834 42.7564C390.354 42.4283 390.959 42.2642 391.648 42.2642C392.338 42.2642 392.941 42.4283 393.458 42.7564C393.978 43.0845 394.383 43.5452 394.671 44.1385C394.963 44.7318 395.108 45.4261 395.108 46.2216C395.108 47.0104 394.963 47.6998 394.671 48.2898C394.383 48.8797 393.978 49.3388 393.458 49.6669C392.941 49.995 392.338 50.1591 391.648 50.1591ZM391.648 49.1051C392.172 49.1051 392.603 48.9709 392.941 48.7024C393.279 48.4339 393.529 48.081 393.692 47.6435C393.854 47.206 393.935 46.732 393.935 46.2216C393.935 45.7112 393.854 45.2356 393.692 44.7947C393.529 44.3539 393.279 43.9976 392.941 43.7259C392.603 43.4541 392.172 43.3182 391.648 43.3182C391.125 43.3182 390.694 43.4541 390.356 43.7259C390.018 43.9976 389.767 44.3539 389.605 44.7947C389.443 45.2356 389.361 45.7112 389.361 46.2216C389.361 46.732 389.443 47.206 389.605 47.6435C389.767 48.081 390.018 48.4339 390.356 48.7024C390.694 48.9709 391.125 49.1051 391.648 49.1051ZM402.379 44.0739L401.325 44.3722C401.258 44.1965 401.161 44.0258 401.031 43.8601C400.905 43.6911 400.733 43.5518 400.514 43.4425C400.295 43.3331 400.015 43.2784 399.674 43.2784C399.207 43.2784 398.817 43.3861 398.506 43.6016C398.197 43.8137 398.043 44.0838 398.043 44.4119C398.043 44.7036 398.149 44.9339 398.362 45.103C398.574 45.272 398.905 45.4129 399.356 45.5256L400.489 45.804C401.172 45.9697 401.681 46.2232 402.016 46.5646C402.35 46.9027 402.518 47.3385 402.518 47.8722C402.518 48.3097 402.392 48.7008 402.14 49.0455C401.891 49.3902 401.543 49.6619 401.096 49.8608C400.648 50.0597 400.128 50.1591 399.535 50.1591C398.756 50.1591 398.111 49.9901 397.601 49.652C397.09 49.3139 396.767 48.8201 396.631 48.1705L397.745 47.892C397.851 48.303 398.052 48.6113 398.347 48.8168C398.645 49.0223 399.034 49.125 399.515 49.125C400.062 49.125 400.496 49.009 400.817 48.777C401.142 48.5417 401.305 48.2599 401.305 47.9318C401.305 47.6667 401.212 47.4446 401.026 47.2656C400.841 47.0833 400.556 46.9474 400.171 46.858L398.898 46.5597C398.199 46.3939 397.685 46.1371 397.357 45.7891C397.032 45.4377 396.87 44.9986 396.87 44.4716C396.87 44.0407 396.991 43.6596 397.233 43.3281C397.478 42.9967 397.811 42.7365 398.232 42.5476C398.657 42.3587 399.137 42.2642 399.674 42.2642C400.43 42.2642 401.023 42.4299 401.454 42.7614C401.888 43.0928 402.196 43.5303 402.379 44.0739ZM407.675 42.3636V43.358H403.718V42.3636H407.675ZM404.871 40.5341H406.044V47.8125C406.044 48.1439 406.092 48.3925 406.188 48.5582C406.288 48.7206 406.414 48.83 406.566 48.8864C406.722 48.9394 406.886 48.9659 407.058 48.9659C407.188 48.9659 407.294 48.9593 407.377 48.946C407.46 48.9295 407.526 48.9162 407.576 48.9062L407.814 49.9602C407.735 49.9901 407.624 50.0199 407.481 50.0497C407.339 50.0829 407.158 50.0994 406.939 50.0994C406.608 50.0994 406.283 50.0282 405.965 49.8857C405.65 49.7431 405.388 49.526 405.179 49.2344C404.974 48.9427 404.871 48.5748 404.871 48.1307V40.5341Z"
			fill="#D6D7DB"
		/>
<path
			opacity="0.8"
			d="M335.313 62.1818V84H331.361V66.0277H331.233L326.13 69.2876V65.6655L331.553 62.1818H335.313ZM341.003 84V81.1449L348.578 73.7195C349.302 72.9879 349.906 72.3381 350.389 71.7699C350.872 71.2017 351.234 70.6513 351.475 70.1186C351.717 69.5859 351.837 69.0178 351.837 68.4141C351.837 67.7251 351.681 67.1357 351.369 66.6456C351.056 66.1484 350.627 65.7649 350.08 65.495C349.533 65.2251 348.911 65.0902 348.215 65.0902C347.498 65.0902 346.869 65.2393 346.33 65.5376C345.79 65.8288 345.371 66.2443 345.073 66.7841C344.781 67.3239 344.636 67.9666 344.636 68.7124H340.875C340.875 67.3274 341.191 66.1236 341.823 65.1009C342.455 64.0781 343.325 63.2862 344.433 62.7251C345.548 62.1641 346.827 61.8835 348.269 61.8835C349.732 61.8835 351.017 62.157 352.125 62.7038C353.233 63.2507 354.092 64 354.703 64.9517C355.321 65.9034 355.63 66.9901 355.63 68.2116C355.63 69.0284 355.474 69.831 355.161 70.6193C354.849 71.4077 354.298 72.2812 353.51 73.2401C352.729 74.1989 351.632 75.3601 350.218 76.7237L346.458 80.5483V80.6974H355.96V84H341.003ZM367.85 84.4155C366.096 84.4155 364.59 83.9716 363.333 83.0838C362.083 82.1889 361.121 80.8999 360.446 79.2166C359.779 77.5263 359.445 75.4915 359.445 73.1122C359.452 70.733 359.789 68.7088 360.457 67.0398C361.132 65.3636 362.094 64.0852 363.344 63.2045C364.601 62.3239 366.103 61.8835 367.85 61.8835C369.598 61.8835 371.1 62.3239 372.357 63.2045C373.614 64.0852 374.576 65.3636 375.244 67.0398C375.919 68.7159 376.256 70.7401 376.256 73.1122C376.256 75.4986 375.919 77.5369 375.244 79.2273C374.576 80.9105 373.614 82.196 372.357 83.0838C371.107 83.9716 369.605 84.4155 367.85 84.4155ZM367.85 81.081C369.214 81.081 370.29 80.4098 371.078 79.0675C371.874 77.718 372.272 75.733 372.272 73.1122C372.272 71.3793 372.09 69.9233 371.728 68.7443C371.366 67.5653 370.855 66.6776 370.194 66.081C369.534 65.4773 368.752 65.1754 367.85 65.1754C366.494 65.1754 365.421 65.8501 364.633 67.1996C363.845 68.5419 363.447 70.5128 363.44 73.1122C363.433 74.8523 363.607 76.3153 363.962 77.5014C364.324 78.6875 364.836 79.5824 365.496 80.1861C366.157 80.7827 366.941 81.081 367.85 81.081ZM386.977 86.7273V59.4545H388.724V86.7273H386.977ZM392.016 68.1797C391.916 67.2493 391.497 66.5249 390.759 66.0064C390.027 65.4879 389.076 65.2287 387.904 65.2287C387.08 65.2287 386.373 65.353 385.784 65.6016C385.194 65.8501 384.743 66.1875 384.431 66.6136C384.118 67.0398 383.958 67.5263 383.951 68.0732C383.951 68.5277 384.054 68.9219 384.26 69.2557C384.473 69.5895 384.761 69.8736 385.123 70.108C385.485 70.3352 385.887 70.527 386.327 70.6832C386.767 70.8395 387.211 70.9709 387.659 71.0774L389.704 71.5888C390.528 71.7805 391.32 72.0398 392.08 72.3665C392.847 72.6932 393.532 73.1051 394.136 73.6023C394.747 74.0994 395.23 74.6996 395.585 75.4027C395.94 76.1058 396.117 76.9297 396.117 77.8743C396.117 79.1527 395.791 80.2784 395.137 81.2514C394.484 82.2173 393.539 82.9737 392.304 83.5206C391.075 84.0604 389.587 84.3303 387.84 84.3303C386.142 84.3303 384.669 84.0675 383.419 83.5419C382.176 83.0163 381.203 82.2493 380.5 81.2408C379.804 80.2322 379.427 79.0036 379.37 77.5547H383.259C383.316 78.3146 383.55 78.9467 383.962 79.451C384.374 79.9553 384.91 80.3317 385.571 80.5803C386.238 80.8288 386.984 80.9531 387.808 80.9531C388.667 80.9531 389.42 80.8253 390.066 80.5696C390.72 80.3068 391.231 79.9446 391.6 79.483C391.97 79.0142 392.158 78.4673 392.165 77.8423C392.158 77.2741 391.991 76.8054 391.664 76.4361C391.338 76.0597 390.88 75.7472 390.29 75.4986C389.708 75.2429 389.026 75.0156 388.245 74.8168L385.762 74.1776C383.965 73.7159 382.545 73.0163 381.501 72.0788C380.464 71.1342 379.946 69.8807 379.946 68.3182C379.946 67.0327 380.294 65.907 380.99 64.9411C381.693 63.9751 382.648 63.2259 383.855 62.6932C385.063 62.1534 386.43 61.8835 387.957 61.8835C389.505 61.8835 390.862 62.1534 392.027 62.6932C393.198 63.2259 394.118 63.968 394.786 64.9197C395.453 65.8643 395.798 66.951 395.819 68.1797H392.016Z"
			fill="#D6D7DB"
		/>
<path
			opacity="0.8"
			d="M327.428 100.729L326.916 100.222L332.158 94.9759H327.964L327.973 94.2727H333.368V99.6761H332.656L332.665 95.4872L327.428 100.729ZM343.224 103.119C342.864 103.116 342.511 103.044 342.168 102.902C341.824 102.757 341.514 102.526 341.239 102.207C340.963 101.886 340.744 101.463 340.582 100.938C340.42 100.412 340.339 99.7656 340.339 98.9986C340.339 98.2884 340.402 97.6378 340.527 97.0469C340.652 96.456 340.839 95.9446 341.089 95.5128C341.339 95.081 341.652 94.7472 342.027 94.5114C342.402 94.2727 342.841 94.1534 343.344 94.1534C343.815 94.1534 344.231 94.2514 344.592 94.4474C344.953 94.6406 345.246 94.9105 345.47 95.2571C345.695 95.6037 345.835 96.0028 345.892 96.4545H345.108C345.028 95.9943 344.839 95.6151 344.541 95.3168C344.243 95.0185 343.844 94.8693 343.344 94.8693C342.628 94.8693 342.074 95.2017 341.682 95.8665C341.29 96.5284 341.092 97.4688 341.089 98.6875H341.145C341.284 98.429 341.463 98.206 341.682 98.0185C341.903 97.8281 342.155 97.6804 342.436 97.5753C342.717 97.4673 343.013 97.4134 343.322 97.4134C343.808 97.4134 344.253 97.5369 344.656 97.7841C345.06 98.0284 345.382 98.3651 345.624 98.794C345.865 99.2202 345.986 99.7074 345.986 100.256C345.986 100.776 345.871 101.254 345.641 101.692C345.413 102.129 345.092 102.477 344.678 102.736C344.266 102.994 343.781 103.122 343.224 103.119ZM343.224 102.403C343.605 102.403 343.945 102.307 344.243 102.114C344.544 101.92 344.781 101.662 344.955 101.338C345.128 101.011 345.214 100.651 345.214 100.256C345.214 99.8608 345.128 99.5028 344.955 99.1818C344.781 98.8608 344.544 98.6051 344.243 98.4148C343.945 98.2244 343.605 98.1293 343.224 98.1293C342.935 98.1293 342.665 98.1889 342.415 98.3082C342.165 98.4247 341.947 98.5852 341.763 98.7898C341.581 98.9915 341.442 99.223 341.345 99.4844C341.251 99.7457 341.216 100.02 341.239 100.307C341.27 100.707 341.374 101.067 341.55 101.385C341.729 101.7 341.962 101.949 342.249 102.131C342.538 102.312 342.864 102.403 343.224 102.403ZM350.559 103.119C349.945 103.119 349.421 102.943 348.986 102.591C348.554 102.236 348.222 101.723 347.989 101.053C347.759 100.382 347.644 99.5767 347.644 98.6364C347.644 97.6989 347.759 96.8963 347.989 96.2287C348.222 95.5582 348.556 95.0455 348.99 94.6903C349.428 94.3324 349.951 94.1534 350.559 94.1534C351.166 94.1534 351.688 94.3324 352.122 94.6903C352.56 95.0455 352.894 95.5582 353.124 96.2287C353.357 96.8963 353.473 97.6989 353.473 98.6364C353.473 99.5767 353.357 100.382 353.124 101.053C352.894 101.723 352.561 102.236 352.127 102.591C351.695 102.943 351.172 103.119 350.559 103.119ZM350.559 102.403C351.232 102.403 351.757 102.075 352.135 101.419C352.513 100.76 352.702 99.8324 352.702 98.6364C352.702 97.8409 352.615 97.1619 352.442 96.5994C352.272 96.0341 352.026 95.6023 351.705 95.304C351.387 95.0057 351.005 94.8565 350.559 94.8565C349.891 94.8565 349.367 95.1889 348.986 95.8537C348.605 96.5156 348.415 97.4432 348.415 98.6364C348.415 99.4318 348.5 100.111 348.671 100.673C348.844 101.236 349.09 101.665 349.408 101.96C349.729 102.256 350.113 102.403 350.559 102.403ZM359.048 98.6364C359.048 97.6136 359.177 96.6477 359.436 95.7386C359.694 94.8295 360.065 93.9773 360.548 93.1818H361.238C361.031 93.517 360.84 93.8963 360.667 94.3196C360.497 94.7429 360.349 95.1946 360.224 95.6747C360.099 96.1548 360.002 96.6463 359.934 97.1491C359.866 97.6491 359.832 98.1449 359.832 98.6364C359.832 99.2926 359.892 99.9545 360.011 100.622C360.13 101.29 360.295 101.923 360.505 102.523C360.718 103.122 360.963 103.645 361.238 104.091H360.548C360.065 103.293 359.694 102.439 359.436 101.53C359.177 100.621 359.048 99.6562 359.048 98.6364ZM365.616 94.2727V103H364.819V95.108H364.768L362.723 96.4673V95.6406L364.785 94.2727H365.616ZM371.037 103.119C370.423 103.119 369.899 102.943 369.464 102.591C369.033 102.236 368.7 101.723 368.467 101.053C368.237 100.382 368.122 99.5767 368.122 98.6364C368.122 97.6989 368.237 96.8963 368.467 96.2287C368.7 95.5582 369.034 95.0455 369.469 94.6903C369.906 94.3324 370.429 94.1534 371.037 94.1534C371.645 94.1534 372.166 94.3324 372.601 94.6903C373.038 95.0455 373.372 95.5582 373.602 96.2287C373.835 96.8963 373.952 97.6989 373.952 98.6364C373.952 99.5767 373.835 100.382 373.602 101.053C373.372 101.723 373.04 102.236 372.605 102.591C372.173 102.943 371.65 103.119 371.037 103.119ZM371.037 102.403C371.71 102.403 372.236 102.075 372.614 101.419C372.991 100.76 373.18 99.8324 373.18 98.6364C373.18 97.8409 373.094 97.1619 372.92 96.5994C372.75 96.0341 372.504 95.6023 372.183 95.304C371.865 95.0057 371.483 94.8565 371.037 94.8565C370.369 94.8565 369.845 95.1889 369.464 95.8537C369.084 96.5156 368.893 97.4432 368.893 98.6364C368.893 99.4318 368.979 100.111 369.149 100.673C369.322 101.236 369.568 101.665 369.886 101.96C370.207 102.256 370.591 102.403 371.037 102.403ZM378.456 103.119C377.843 103.119 377.318 102.943 376.884 102.591C376.452 102.236 376.12 101.723 375.887 101.053C375.656 100.382 375.541 99.5767 375.541 98.6364C375.541 97.6989 375.656 96.8963 375.887 96.2287C376.12 95.5582 376.453 95.0455 376.888 94.6903C377.326 94.3324 377.848 94.1534 378.456 94.1534C379.064 94.1534 379.585 94.3324 380.02 94.6903C380.458 95.0455 380.791 95.5582 381.022 96.2287C381.254 96.8963 381.371 97.6989 381.371 98.6364C381.371 99.5767 381.254 100.382 381.022 101.053C380.791 101.723 380.459 102.236 380.024 102.591C379.593 102.943 379.07 103.119 378.456 103.119ZM378.456 102.403C379.129 102.403 379.655 102.075 380.033 101.419C380.411 100.76 380.6 99.8324 380.6 98.6364C380.6 97.8409 380.513 97.1619 380.34 96.5994C380.169 96.0341 379.924 95.6023 379.603 95.304C379.284 95.0057 378.902 94.8565 378.456 94.8565C377.789 94.8565 377.264 95.1889 376.884 95.8537C376.503 96.5156 376.313 97.4432 376.313 98.6364C376.313 99.4318 376.398 100.111 376.568 100.673C376.742 101.236 376.987 101.665 377.306 101.96C377.627 102.256 378.01 102.403 378.456 102.403ZM387.58 101.381V100.984C387.58 100.658 387.645 100.364 387.776 100.102C387.907 99.8381 388.093 99.6293 388.334 99.4759C388.576 99.3224 388.863 99.2457 389.195 99.2457C389.53 99.2457 389.817 99.3224 390.056 99.4759C390.295 99.6293 390.478 99.8381 390.606 100.102C390.734 100.364 390.797 100.658 390.797 100.984V101.381C390.797 101.707 390.732 102.001 390.601 102.263C390.474 102.524 390.29 102.733 390.052 102.889C389.813 103.043 389.528 103.119 389.195 103.119C388.857 103.119 388.567 103.043 388.326 102.889C388.087 102.733 387.903 102.524 387.772 102.263C387.644 102.001 387.58 101.707 387.58 101.381ZM388.249 100.984V101.381C388.249 101.702 388.327 101.976 388.484 102.203C388.643 102.428 388.88 102.54 389.195 102.54C389.502 102.54 389.734 102.428 389.89 102.203C390.046 101.976 390.124 101.702 390.124 101.381V100.984C390.124 100.663 390.047 100.391 389.894 100.166C389.741 99.9389 389.508 99.8253 389.195 99.8253C388.886 99.8253 388.65 99.9389 388.488 100.166C388.329 100.391 388.249 100.663 388.249 100.984ZM383.182 96.2884V95.892C383.182 95.5653 383.248 95.2713 383.378 95.0099C383.509 94.7486 383.695 94.5412 383.937 94.3878C384.178 94.2315 384.465 94.1534 384.797 94.1534C385.133 94.1534 385.42 94.2315 385.658 94.3878C385.897 94.5412 386.08 94.7486 386.208 95.0099C386.336 95.2713 386.4 95.5653 386.4 95.892V96.2884C386.4 96.6151 386.334 96.9105 386.204 97.1747C386.076 97.4361 385.893 97.6435 385.654 97.7969C385.415 97.9503 385.13 98.027 384.797 98.027C384.459 98.027 384.17 97.9503 383.928 97.7969C383.689 97.6435 383.505 97.4361 383.374 97.1747C383.246 96.9105 383.182 96.6151 383.182 96.2884ZM383.851 95.892V96.2884C383.851 96.6094 383.93 96.8835 384.086 97.1108C384.245 97.3352 384.482 97.4474 384.797 97.4474C385.104 97.4474 385.336 97.3352 385.492 97.1108C385.648 96.8835 385.726 96.6094 385.726 96.2884V95.892C385.726 95.571 385.65 95.2983 385.496 95.0739C385.343 94.8466 385.11 94.733 384.797 94.733C384.488 94.733 384.252 94.8466 384.09 95.0739C383.931 95.2983 383.851 95.571 383.851 95.892ZM383.574 103L389.57 94.2727H390.324L384.329 103H383.574ZM394.694 98.6364C394.694 99.6591 394.564 100.625 394.306 101.534C394.047 102.443 393.677 103.295 393.194 104.091H392.503C392.711 103.756 392.9 103.376 393.07 102.953C393.243 102.53 393.393 102.078 393.518 101.598C393.643 101.118 393.739 100.626 393.807 100.124C393.876 99.6207 393.91 99.125 393.91 98.6364C393.91 97.9801 393.85 97.3182 393.731 96.6506C393.611 95.983 393.445 95.3494 393.232 94.75C393.022 94.1506 392.779 93.6278 392.503 93.1818H393.194C393.677 93.9801 394.047 94.8338 394.306 95.7429C394.564 96.652 394.694 97.6165 394.694 98.6364Z"
			fill="#D6D7DB"
		/>
<path
			d="M442 74C442.796 74 443.559 73.6839 444.121 73.1213C444.684 72.5587 445 71.7956 445 71C445 70.2044 444.684 69.4413 444.121 68.8787C443.559 68.3161 442.796 68 442 68C441.204 68 440.441 68.3161 439.879 68.8787C439.316 69.4413 439 70.2044 439 71C439 71.7956 439.316 72.5587 439.879 73.1213C440.441 73.6839 441.204 74 442 74V74Z"
			fill="#BD93F9"
		/>
<path
			d="M430 65C430 64.6022 430.158 64.2206 430.439 63.9393C430.721 63.658 431.102 63.5 431.5 63.5H452.5C452.898 63.5 453.279 63.658 453.561 63.9393C453.842 64.2206 454 64.6022 454 65V77C454 77.3978 453.842 77.7794 453.561 78.0607C453.279 78.342 452.898 78.5 452.5 78.5H431.5C431.102 78.5 430.721 78.342 430.439 78.0607C430.158 77.7794 430 77.3978 430 77V65ZM434.5 65C434.5 65.7956 434.184 66.5587 433.621 67.1213C433.059 67.6839 432.296 68 431.5 68V74C432.296 74 433.059 74.3161 433.621 74.8787C434.184 75.4413 434.5 76.2044 434.5 77H449.5C449.5 76.2044 449.816 75.4413 450.379 74.8787C450.941 74.3161 451.704 74 452.5 74V68C451.704 68 450.941 67.6839 450.379 67.1213C449.816 66.5587 449.5 65.7956 449.5 65H434.5Z"
			fill="#BD93F9"
		/>
</g>
<defs>
<filter
			id="filter0_dd_605_13101"
			x="0"
			y="0"
			width="524"
			height="148"
			filterUnits="userSpaceOnUse"
			color-interpolation-filters="sRGB"
		>
<feFlood flood-opacity="0" result="BackgroundImageFix" />
<feColorMatrix
				in="SourceAlpha"
				type="matrix"
				values="0 0 0 0 0 0 0 0 0 0 0 0 0 0 0 0 0 0 127 0"
				result="hardAlpha"
			/>
<feOffset dy="2" />
<feGaussianBlur stdDeviation="1" />
<feComposite in2="hardAlpha" operator="out" />
<feColorMatrix
				type="matrix"
				values="0 0 0 0 0 0 0 0 0 0 0 0 0 0 0 0 0 0 0.06 0"
			/>
<feBlend
				mode="normal"
				in2="BackgroundImageFix"
				result="effect1_dropShadow_605_13101"
			/>
<feColorMatrix
				in="SourceAlpha"
				type="matrix"
				values="0 0 0 0 0 0 0 0 0 0 0 0 0 0 0 0 0 0 127 0"
				result="hardAlpha"
			/>
<feOffset dy="3" />
<feGaussianBlur stdDeviation="3" />
<feComposite in2="hardAlpha" operator="out" />
<feColorMatrix
				type="matrix"
				values="0 0 0 0 0.611765 0 0 0 0 0.639216 0 0 0 0 0.686275 0 0 0 0.35 0"
			/>
<feBlend
				mode="normal"
				in2="effect1_dropShadow_605_13101"
				result="effect2_dropShadow_605_13101"
			/>
<feBlend
				mode="normal"
				in="SourceGraphic"
				in2="effect2_dropShadow_605_13101"
				result="shape"
			/>
</filter>
</defs>
</svg>
