<svg xmlns="http://www.w3.org/2000/svg" width="524" height="148" fill="none"><g
		filter="url(#a)"
	><rect
			width="512"
			height="136"
			x="6"
			y="3"
			fill="#272935"
			rx="30"
			shape-rendering="crispEdges"
		/><path
			fill="#D6D7DB"
			d="M71.65 50h-1.292l3.739-10.182h1.272L79.108 50h-1.293l-3.042-8.571h-.08L71.651 50Zm.478-3.977h5.21v1.093h-5.21v-1.093ZM80.764 50V39.818h3.44c.799 0 1.452.144 1.959.433.51.285.888.67 1.134 1.158.245.487.368 1.03.368 1.63 0 .6-.123 1.146-.368 1.636-.242.491-.617.882-1.124 1.174-.507.288-1.157.432-1.949.432h-2.466v-1.093h2.426c.547 0 .986-.095 1.318-.284a1.69 1.69 0 0 0 .72-.766c.153-.324.23-.69.23-1.098 0-.408-.077-.773-.23-1.094a1.631 1.631 0 0 0-.725-.756c-.335-.185-.779-.278-1.332-.278h-2.168V50h-1.233Zm10.19-10.182V50H89.72V39.818h1.233ZM105.696 43h-1.233a2.552 2.552 0 0 0-1.039-1.61 2.777 2.777 0 0 0-.85-.418 3.39 3.39 0 0 0-.974-.14c-.617 0-1.175.156-1.676.468-.497.311-.893.77-1.188 1.377-.291.606-.437 1.35-.437 2.232 0 .882.145 1.626.437 2.232.295.607.691 1.066 1.188 1.378.501.311 1.059.467 1.676.467.338 0 .663-.047.974-.14.312-.092.595-.23.85-.412a2.599 2.599 0 0 0 1.039-1.616h1.233c-.092.52-.261.986-.507 1.397a3.807 3.807 0 0 1-2.142 1.7 4.58 4.58 0 0 1-1.447.224c-.869 0-1.64-.212-2.317-.636-.676-.424-1.208-1.028-1.596-1.81-.388-.782-.581-1.71-.581-2.784 0-1.074.193-2.002.581-2.784.388-.782.92-1.385 1.596-1.81.676-.424 1.448-.636 2.317-.636.514 0 .996.075 1.447.224.454.149.863.368 1.227.656.365.285.67.633.915 1.044.246.408.415.873.507 1.397Zm4.151 7.179c-.484 0-.923-.091-1.318-.273a2.262 2.262 0 0 1-.939-.8c-.232-.352-.348-.776-.348-1.274 0-.437.086-.792.258-1.063.173-.276.403-.491.691-.647.289-.156.607-.272.955-.348.351-.08.704-.142 1.059-.189.464-.06.84-.104 1.128-.134.292-.033.504-.088.637-.164.136-.076.204-.209.204-.398v-.04c0-.49-.135-.871-.403-1.143-.265-.272-.668-.408-1.208-.408-.56 0-1 .123-1.318.368-.318.245-.542.507-.671.786l-1.114-.398c.199-.464.464-.825.796-1.084a2.978 2.978 0 0 1 1.094-.547 4.53 4.53 0 0 1 1.173-.159c.245 0 .527.03.845.09.322.056.632.174.93.353.301.179.552.449.751.81.198.361.298.845.298 1.452V50h-1.173v-1.034h-.06a2.07 2.07 0 0 1-.398.532c-.185.189-.432.35-.741.482-.308.133-.684.199-1.128.199Zm.179-1.054c.464 0 .855-.091 1.173-.273.322-.183.564-.418.726-.706.166-.289.249-.592.249-.91v-1.074c-.05.06-.16.114-.329.164a5.531 5.531 0 0 1-.576.124 26.457 26.457 0 0 1-1.124.15c-.305.04-.59.104-.855.193a1.47 1.47 0 0 0-.636.393c-.159.172-.239.408-.239.706 0 .408.151.716.452.925.305.205.691.308 1.159.308Zm6.706-9.307V50h-1.174V39.818h1.174Zm3.392 0V50h-1.173V39.818h1.173Zm7.628 4.256-1.054.298a1.955 1.955 0 0 0-.293-.512 1.43 1.43 0 0 0-.517-.417c-.219-.11-.499-.165-.841-.165-.467 0-.856.108-1.168.324-.308.212-.462.482-.462.81 0 .292.106.522.318.691.212.169.543.31.994.423l1.134.278c.683.166 1.191.42 1.526.76.335.339.502.775.502 1.308 0 .438-.126.829-.378 1.173-.248.345-.596.617-1.044.816-.447.199-.968.298-1.561.298-.779 0-1.423-.169-1.934-.507-.51-.338-.833-.832-.969-1.482l1.113-.278c.106.411.307.72.602.925.298.205.688.308 1.168.308.547 0 .981-.116 1.303-.348.325-.235.487-.517.487-.845a.89.89 0 0 0-.278-.666c-.186-.183-.471-.319-.855-.408l-1.273-.298c-.7-.166-1.213-.423-1.541-.77-.325-.352-.488-.791-.488-1.318 0-.431.121-.812.363-1.144a2.477 2.477 0 0 1 1-.78 3.504 3.504 0 0 1 1.441-.284c.756 0 1.349.166 1.78.497.434.332.743.77.925 1.313ZM79.77 84.298c-1.535 0-2.899-.263-4.092-.788-1.186-.526-2.123-1.257-2.812-2.195-.69-.937-1.055-2.02-1.097-3.249h4.005c.036.59.231 1.105.586 1.545.355.433.828.77 1.417 1.012.59.241 1.25.362 1.981.362.782 0 1.474-.135 2.078-.405.604-.277 1.076-.66 1.417-1.15.34-.49.508-1.055.5-1.694.008-.66-.163-1.243-.51-1.747-.349-.505-.853-.899-1.514-1.183-.653-.284-1.441-.426-2.365-.426h-1.928v-3.047h1.928c.76 0 1.424-.131 1.992-.394.576-.263 1.027-.632 1.354-1.108.326-.483.486-1.04.479-1.673.007-.618-.131-1.154-.416-1.608a2.806 2.806 0 0 0-1.182-1.076c-.504-.256-1.097-.384-1.78-.384a4.69 4.69 0 0 0-1.853.362 3.373 3.373 0 0 0-1.374 1.034c-.348.44-.533.966-.554 1.576h-3.803c.028-1.221.38-2.293 1.054-3.217.682-.93 1.591-1.655 2.727-2.173 1.137-.526 2.412-.788 3.825-.788 1.456 0 2.72.273 3.793.82 1.08.54 1.914 1.268 2.503 2.184.59.916.884 1.928.884 3.036.008 1.229-.355 2.258-1.086 3.09-.725.83-1.676 1.374-2.855 1.63v.17c1.534.213 2.71.781 3.526 1.705.824.916 1.232 2.056 1.225 3.42 0 1.22-.348 2.315-1.044 3.28-.689.96-1.64 1.712-2.855 2.259-1.207.547-2.592.82-4.155.82ZM91.63 84v-2.855l7.575-7.425a35.76 35.76 0 0 0 1.811-1.95c.483-.568.845-1.119 1.086-1.651.242-.533.362-1.101.362-1.705 0-.689-.156-1.278-.468-1.768a3.119 3.119 0 0 0-1.289-1.151c-.547-.27-1.169-.405-1.865-.405-.717 0-1.346.15-1.885.448a3.08 3.08 0 0 0-1.257 1.246c-.292.54-.437 1.183-.437 1.928h-3.76c0-1.385.315-2.588.947-3.611a6.4 6.4 0 0 1 2.61-2.376c1.115-.56 2.394-.842 3.836-.842 1.463 0 2.748.274 3.856.82 1.108.548 1.967 1.297 2.578 2.249.618.951.927 2.038.927 3.26 0 .816-.156 1.619-.469 2.407-.312.789-.863 1.662-1.651 2.621-.781.959-1.879 2.12-3.292 3.484l-3.76 3.824v.15h9.502V84H91.63Zm18.996 0V62.182h3.952v10.025h.267l8.512-10.025h4.826l-8.438 9.79L128.257 84h-4.751l-6.509-9.354-2.419 2.855V84h-3.952ZM72.928 100.729l-.512-.507 5.242-5.246h-4.193l.008-.703h5.395v5.403h-.712l.009-4.189-5.237 5.242Zm15.741-6.456V103h-.797v-7.892h-.051l-2.046 1.36v-.827l2.063-1.368h.831Zm5.46 8.846a2.806 2.806 0 0 1-1.058-.217 2.522 2.522 0 0 1-.929-.695c-.275-.321-.494-.744-.656-1.269-.162-.526-.243-1.172-.243-1.94 0-.71.063-1.36.188-1.951a5.19 5.19 0 0 1 .562-1.534c.25-.432.563-.766.938-1.002.375-.238.814-.358 1.317-.358.471 0 .887.098 1.248.294.36.194.653.463.878.81.224.347.365.746.422 1.197h-.784c-.08-.46-.269-.839-.567-1.137-.298-.298-.697-.448-1.197-.448-.717 0-1.27.333-1.663.998-.391.661-.589 1.602-.592 2.82h.056c.139-.258.318-.481.536-.668.222-.19.474-.339.755-.444.281-.108.576-.162.886-.162.486 0 .93.124 1.334.371.403.244.726.581.967 1.01.242.426.362.913.362 1.462 0 .52-.115.998-.345 1.436a2.65 2.65 0 0 1-.963 1.044c-.412.258-.896.386-1.453.383Zm0-.716c.38 0 .72-.096 1.018-.289.3-.194.538-.452.711-.776.173-.327.26-.687.26-1.082s-.087-.753-.26-1.074a2.033 2.033 0 0 0-.711-.767 1.852 1.852 0 0 0-1.019-.286c-.29 0-.56.06-.81.18-.25.116-.467.276-.651.48a2.13 2.13 0 0 0-.418.695c-.094.262-.13.536-.107.823.032.4.135.76.311 1.078.18.315.412.564.7.746.29.181.614.272.975.272Zm5.504-.596-.077.456c-.048.307-.116.645-.204 1.014-.088.369-.18.72-.273 1.053-.094.332-.175.599-.243.801h-.584l.141-.738c.06-.298.12-.629.183-.992.063-.361.12-.733.17-1.117l.06-.477h.827Zm4.385 1.312c-.613 0-1.137-.176-1.572-.528-.432-.355-.764-.868-.997-1.538-.23-.671-.345-1.476-.345-2.417 0-.937.115-1.74.345-2.407.233-.67.567-1.183 1.001-1.539.438-.358.96-.537 1.568-.537.608 0 1.13.18 1.564.537.438.356.772.868 1.002 1.539.233.667.349 1.47.349 2.407 0 .94-.116 1.746-.349 2.417-.23.67-.563 1.183-.997 1.538-.432.352-.955.528-1.569.528Zm0-.716c.674 0 1.199-.328 1.577-.984.378-.659.567-1.587.567-2.783 0-.795-.087-1.474-.26-2.037-.171-.565-.416-.997-.737-1.295a1.618 1.618 0 0 0-1.147-.448c-.667 0-1.191.333-1.572.998-.381.662-.571 1.59-.571 2.782 0 .796.085 1.475.256 2.037.173.563.419.992.737 1.287.321.296.704.443 1.15.443Zm7.42.716c-.614 0-1.138-.176-1.573-.528-.432-.355-.764-.868-.997-1.538-.23-.671-.345-1.476-.345-2.417 0-.937.115-1.74.345-2.407.233-.67.567-1.183 1.002-1.539.437-.358.96-.537 1.568-.537.608 0 1.129.18 1.564.537.437.356.771.868 1.001 1.539.233.667.35 1.47.35 2.407 0 .94-.117 1.746-.35 2.417-.23.67-.562 1.183-.997 1.538-.432.352-.955.528-1.568.528Zm0-.716c.673 0 1.199-.328 1.576-.984.378-.659.567-1.587.567-2.783 0-.795-.086-1.474-.26-2.037-.17-.565-.416-.997-.737-1.295a1.616 1.616 0 0 0-1.146-.448c-.668 0-1.192.333-1.573.998-.38.662-.571 1.59-.571 2.782 0 .796.086 1.475.256 2.037.173.563.419.992.737 1.287.321.296.705.443 1.151.443Zm7.419.716c-.614 0-1.138-.176-1.572-.528-.432-.355-.765-.868-.997-1.538-.231-.671-.346-1.476-.346-2.417 0-.937.115-1.74.346-2.407.232-.67.566-1.183 1.001-1.539.437-.358.96-.537 1.568-.537.608 0 1.129.18 1.564.537.438.356.771.868 1.001 1.539.233.667.35 1.47.35 2.407 0 .94-.117 1.746-.35 2.417-.23.67-.562 1.183-.997 1.538-.432.352-.954.528-1.568.528Zm0-.716c.673 0 1.199-.328 1.577-.984.378-.659.567-1.587.567-2.783 0-.795-.087-1.474-.26-2.037-.171-.565-.417-.997-.738-1.295a1.616 1.616 0 0 0-1.146-.448c-.667 0-1.192.333-1.572.998-.381.662-.571 1.59-.571 2.782 0 .796.085 1.475.255 2.037.174.563.419.992.738 1.287.321.296.704.443 1.15.443Zm8.489-3.767c0-1.022.13-1.988.388-2.897.259-.91.629-1.762 1.112-2.557h.691a7.633 7.633 0 0 0-.571 1.138c-.171.423-.318.875-.443 1.355s-.222.971-.29 1.474a11.027 11.027 0 0 0 .077 3.473c.119.668.284 1.301.494 1.901.213.599.457 1.122.733 1.568h-.691a10.454 10.454 0 0 1-1.112-2.561 10.553 10.553 0 0 1-.388-2.894Zm6.569-4.363V103h-.797v-7.892h-.051l-2.046 1.36v-.827l2.063-1.368h.831Zm5.42 8.846c-.613 0-1.137-.176-1.572-.528-.432-.355-.764-.868-.997-1.538-.23-.671-.345-1.476-.345-2.417 0-.937.115-1.74.345-2.407.233-.67.567-1.183 1.001-1.539.438-.358.96-.537 1.568-.537.608 0 1.13.18 1.564.537.438.356.772.868 1.002 1.539.233.667.349 1.47.349 2.407 0 .94-.116 1.746-.349 2.417-.23.67-.563 1.183-.997 1.538-.432.352-.955.528-1.569.528Zm0-.716c.674 0 1.199-.328 1.577-.984.378-.659.567-1.587.567-2.783 0-.795-.087-1.474-.26-2.037-.171-.565-.416-.997-.737-1.295a1.618 1.618 0 0 0-1.147-.448c-.667 0-1.191.333-1.572.998-.381.662-.571 1.59-.571 2.782 0 .796.085 1.475.256 2.037.173.563.419.992.737 1.287.321.296.704.443 1.15.443Zm7.42.716c-.614 0-1.138-.176-1.573-.528-.431-.355-.764-.868-.997-1.538-.23-.671-.345-1.476-.345-2.417 0-.937.115-1.74.345-2.407.233-.67.567-1.183 1.002-1.539.437-.358.96-.537 1.568-.537.608 0 1.129.18 1.564.537.437.356.771.868 1.001 1.539.233.667.35 1.47.35 2.407 0 .94-.117 1.746-.35 2.417-.23.67-.562 1.183-.997 1.538-.432.352-.955.528-1.568.528Zm0-.716c.673 0 1.199-.328 1.576-.984.378-.659.567-1.587.567-2.783 0-.795-.086-1.474-.26-2.037-.17-.565-.416-.997-.737-1.295a1.616 1.616 0 0 0-1.146-.448c-.668 0-1.192.333-1.573.998-.38.662-.571 1.59-.571 2.782 0 .796.086 1.475.256 2.037.173.563.419.992.737 1.287.321.296.705.443 1.151.443Zm9.124-1.022v-.397c0-.326.065-.62.196-.882.13-.264.316-.473.558-.626.241-.154.528-.23.861-.23.335 0 .622.076.861.23.238.153.421.362.549.626.128.262.192.556.192.882v.397c0 .326-.065.62-.196.882-.128.261-.311.47-.55.626-.238.154-.524.23-.856.23-.338 0-.628-.076-.87-.23a1.584 1.584 0 0 1-.554-.626 1.996 1.996 0 0 1-.191-.882Zm.669-.397v.397c0 .321.078.595.234.822.159.225.396.337.712.337.307 0 .538-.112.694-.337.157-.227.235-.501.235-.822v-.397c0-.321-.077-.593-.23-.818-.154-.227-.387-.34-.699-.34-.31 0-.546.113-.708.34a1.38 1.38 0 0 0-.238.818Zm-5.067-4.696v-.396c0-.327.065-.62.196-.882.131-.261.317-.469.558-.622.242-.157.529-.235.861-.235.335 0 .622.078.861.235.238.153.422.36.55.622.127.261.191.555.191.882v.396c0 .327-.065.623-.196.887a1.52 1.52 0 0 1-.549.622c-.239.153-.525.23-.857.23-.338 0-.628-.077-.869-.23a1.539 1.539 0 0 1-.554-.622 2.006 2.006 0 0 1-.192-.887Zm.669-.396v.396c0 .321.078.596.234.823.159.224.397.336.712.336.307 0 .538-.112.695-.336.156-.228.234-.502.234-.823v-.396c0-.321-.077-.594-.23-.818-.154-.227-.386-.341-.699-.341-.31 0-.545.114-.707.34a1.379 1.379 0 0 0-.239.819Zm-.277 7.108 5.996-8.727h.754L152.627 103h-.754Zm11.119-4.364c0 1.023-.129 1.989-.387 2.898-.259.909-.63 1.761-1.113 2.557h-.69c.207-.335.396-.715.567-1.138.173-.423.322-.875.447-1.355s.222-.972.29-1.474a11.1 11.1 0 0 0-.077-3.473 11.908 11.908 0 0 0-.498-1.901 8.07 8.07 0 0 0-.729-1.568h.69a10.46 10.46 0 0 1 1.113 2.56c.258.91.387 1.874.387 2.894Z"
			opacity=".8"
		/><path
			fill="#BD93F9"
			fill-rule="evenodd"
			d="M190 62a.751.751 0 0 1 .705.495L196 77.054l2.295-6.312a.751.751 0 0 1 .705-.492h5.25a.748.748 0 0 1 .75.75.749.749 0 0 1-.75.75h-4.725l-2.82 7.755a.748.748 0 0 1-1.135.358.748.748 0 0 1-.275-.358L190 64.946l-2.295 6.31a.753.753 0 0 1-.705.494h-5.25A.748.748 0 0 1 181 71a.749.749 0 0 1 .75-.75h4.725l2.82-7.755A.748.748 0 0 1 190 62Z"
			clip-rule="evenodd"
		/><path fill="#E5E7EB" d="M261.5 47h1v48h-1z" /><path
			fill="#D6D7DB"
			d="M325.733 39.818h1.472l3.46 8.452h.119l3.46-8.452h1.472V50h-1.154v-7.736h-.099L331.281 50h-1.113l-3.182-7.736h-.1V50h-1.153V39.818Zm15.468 10.341c-.689 0-1.294-.164-1.814-.492a3.34 3.34 0 0 1-1.213-1.377c-.289-.59-.433-1.28-.433-2.068 0-.796.144-1.49.433-2.084a3.333 3.333 0 0 1 1.213-1.382c.52-.328 1.125-.492 1.814-.492.69 0 1.293.164 1.81.492.52.328.925.79 1.213 1.383.292.593.437 1.287.437 2.083 0 .788-.145 1.478-.437 2.068a3.298 3.298 0 0 1-1.213 1.377c-.517.328-1.12.492-1.81.492Zm0-1.054c.524 0 .955-.134 1.293-.403a2.38 2.38 0 0 0 .751-1.058c.162-.438.243-.912.243-1.422 0-.51-.081-.986-.243-1.427a2.41 2.41 0 0 0-.751-1.07c-.338-.27-.769-.407-1.293-.407-.523 0-.954.136-1.292.408a2.402 2.402 0 0 0-.751 1.069c-.163.44-.244.916-.244 1.427 0 .51.081.984.244 1.422.162.437.413.79.751 1.058.338.269.769.403 1.292.403Zm8.205 1.054c-.636 0-1.198-.16-1.685-.482-.488-.325-.869-.782-1.144-1.372-.275-.594-.412-1.295-.412-2.103 0-.802.137-1.498.412-2.088.275-.59.658-1.046 1.149-1.368.49-.321 1.057-.482 1.7-.482.497 0 .89.083 1.178.249.292.162.514.348.666.557.156.205.277.374.363.507h.1v-3.759h1.173V50h-1.134v-1.173h-.139a7.5 7.5 0 0 1-.368.527 2.182 2.182 0 0 1-.681.562c-.295.162-.687.243-1.178.243Zm.159-1.054c.471 0 .868-.122 1.193-.368.325-.248.572-.591.741-1.029.169-.44.254-.95.254-1.526 0-.57-.083-1.07-.249-1.497-.166-.43-.411-.765-.736-1.004-.325-.242-.726-.363-1.203-.363-.497 0-.911.128-1.243.383a2.295 2.295 0 0 0-.741 1.03 4.1 4.1 0 0 0-.243 1.45c0 .544.083 1.038.248 1.482.169.441.418.793.746 1.054.332.259.743.388 1.233.388Zm8.924 1.054c-.735 0-1.37-.162-1.904-.487a3.276 3.276 0 0 1-1.228-1.372c-.285-.59-.427-1.276-.427-2.058 0-.783.142-1.472.427-2.069.289-.6.69-1.067 1.203-1.402.518-.338 1.121-.507 1.81-.507.398 0 .791.066 1.178.2.388.132.741.347 1.059.645.319.295.572.686.761 1.174.189.487.283 1.087.283 1.8v.497h-5.886v-1.015h4.693c0-.43-.086-.815-.258-1.153a1.948 1.948 0 0 0-.726-.8c-.312-.196-.68-.294-1.104-.294-.467 0-.872.116-1.213.348a2.286 2.286 0 0 0-.78.895 2.62 2.62 0 0 0-.274 1.183v.676c0 .577.1 1.066.298 1.467.203.398.483.701.841.91.358.205.774.308 1.247.308.309 0 .587-.043.836-.13.252-.089.469-.221.651-.397.182-.179.323-.4.423-.666l1.133.318c-.119.385-.32.723-.601 1.014-.282.289-.63.514-1.045.676a3.87 3.87 0 0 1-1.397.24Zm6.191-10.34V50h-1.174V39.818h1.174Zm7.628 4.255-1.054.298a1.96 1.96 0 0 0-.294-.512 1.421 1.421 0 0 0-.517-.417c-.219-.11-.499-.165-.84-.165-.467 0-.857.108-1.168.324-.309.212-.463.482-.463.81 0 .292.106.522.319.691.212.169.543.31.994.423l1.133.278c.683.166 1.192.42 1.527.76.334.339.502.775.502 1.308 0 .438-.126.829-.378 1.173-.249.345-.597.617-1.044.816-.448.199-.968.298-1.561.298-.779 0-1.424-.169-1.934-.507-.511-.338-.834-.832-.97-1.482l1.114-.278c.106.411.307.72.602.925.298.205.687.308 1.168.308.547 0 .981-.116 1.302-.348.325-.235.488-.517.488-.845a.887.887 0 0 0-.279-.666c-.185-.183-.47-.319-.855-.408l-1.273-.298c-.699-.166-1.213-.423-1.541-.77-.325-.352-.487-.791-.487-1.318 0-.431.121-.812.363-1.144.245-.331.578-.592.999-.78a3.51 3.51 0 0 1 1.442-.284c.756 0 1.349.166 1.78.497.434.332.742.77.925 1.313ZM386.643 43h-1.233a2.57 2.57 0 0 0-1.039-1.61 2.8 2.8 0 0 0-.85-.418 3.402 3.402 0 0 0-.975-.14c-.616 0-1.175.156-1.675.468-.497.311-.894.77-1.189 1.377-.291.606-.437 1.35-.437 2.232 0 .882.146 1.626.437 2.232.295.607.692 1.066 1.189 1.378.5.311 1.059.467 1.675.467.338 0 .663-.047.975-.14.311-.092.594-.23.85-.412a2.618 2.618 0 0 0 1.039-1.616h1.233c-.093.52-.262.986-.507 1.397a3.84 3.84 0 0 1-.915 1.05 4.014 4.014 0 0 1-1.228.65 4.58 4.58 0 0 1-1.447.224c-.868 0-1.641-.212-2.317-.636-.676-.424-1.208-1.028-1.596-1.81-.387-.782-.581-1.71-.581-2.784 0-1.074.194-2.002.581-2.784.388-.782.92-1.385 1.596-1.81.676-.424 1.449-.636 2.317-.636.514 0 .996.075 1.447.224.454.149.863.368 1.228.656.364.285.669.633.915 1.044.245.408.414.873.507 1.397Zm5.005 7.16c-.689 0-1.294-.165-1.814-.493a3.34 3.34 0 0 1-1.213-1.377c-.289-.59-.433-1.28-.433-2.068 0-.796.144-1.49.433-2.084a3.333 3.333 0 0 1 1.213-1.382c.52-.328 1.125-.492 1.814-.492.69 0 1.293.164 1.81.492.52.328.925.79 1.213 1.383.292.593.437 1.287.437 2.083 0 .788-.145 1.478-.437 2.068a3.298 3.298 0 0 1-1.213 1.377c-.517.328-1.12.492-1.81.492Zm0-1.055c.524 0 .955-.134 1.293-.403a2.38 2.38 0 0 0 .751-1.058c.162-.438.243-.912.243-1.422 0-.51-.081-.986-.243-1.427a2.41 2.41 0 0 0-.751-1.07c-.338-.27-.769-.407-1.293-.407-.523 0-.954.136-1.292.408a2.402 2.402 0 0 0-.751 1.069c-.162.44-.244.916-.244 1.427 0 .51.082.984.244 1.422.162.437.413.79.751 1.058.338.269.769.403 1.292.403Zm10.731-5.031-1.054.298a1.96 1.96 0 0 0-.294-.512 1.421 1.421 0 0 0-.517-.417c-.219-.11-.499-.165-.84-.165-.467 0-.857.108-1.168.324-.309.212-.463.482-.463.81 0 .292.106.522.319.691.212.169.543.31.994.423l1.133.278c.683.166 1.192.42 1.527.76.334.339.502.775.502 1.308 0 .438-.126.829-.378 1.173-.249.345-.597.617-1.044.816-.448.199-.968.298-1.561.298-.779 0-1.424-.169-1.934-.507-.511-.338-.834-.832-.97-1.482l1.114-.278c.106.411.307.72.602.925.298.205.687.308 1.168.308.547 0 .981-.116 1.302-.348.325-.235.488-.517.488-.845a.887.887 0 0 0-.279-.666c-.185-.183-.47-.319-.855-.408l-1.273-.298c-.699-.166-1.213-.423-1.541-.77-.325-.352-.487-.791-.487-1.318 0-.431.121-.812.363-1.144.245-.331.578-.592.999-.78a3.513 3.513 0 0 1 1.442-.284c.756 0 1.349.166 1.78.497.434.332.742.77.925 1.313Zm5.296-1.71v.994h-3.957v-.994h3.957Zm-2.804-1.83h1.173v7.279c0 .33.048.58.144.745.1.163.226.272.378.328.156.053.32.08.492.08.13 0 .236-.007.319-.02l.199-.04.238 1.054c-.079.03-.19.06-.333.09-.142.033-.323.05-.542.05a2.36 2.36 0 0 1-.974-.214 1.939 1.939 0 0 1-.786-.652c-.205-.291-.308-.66-.308-1.103v-7.597ZM335.313 62.182V84h-3.952V66.028h-.128l-5.103 3.26v-3.623l5.423-3.483h3.76ZM341.003 84v-2.855l7.575-7.425a35.89 35.89 0 0 0 1.811-1.95c.483-.568.845-1.119 1.086-1.651.242-.533.362-1.101.362-1.705 0-.689-.156-1.278-.468-1.768a3.119 3.119 0 0 0-1.289-1.151c-.547-.27-1.169-.405-1.865-.405-.717 0-1.346.15-1.885.448-.54.29-.959.706-1.257 1.246-.292.54-.437 1.183-.437 1.928h-3.761c0-1.385.316-2.588.948-3.611.632-1.023 1.502-1.815 2.61-2.376 1.115-.56 2.394-.842 3.836-.842 1.463 0 2.748.274 3.856.82 1.108.548 1.967 1.297 2.578 2.249.618.951.927 2.038.927 3.26 0 .816-.156 1.619-.469 2.407-.312.789-.863 1.662-1.651 2.621-.781.959-1.878 2.12-3.292 3.484l-3.76 3.824v.15h9.502V84h-14.957Zm26.847.415c-1.754 0-3.26-.443-4.517-1.331-1.25-.895-2.212-2.184-2.887-3.867-.667-1.69-1.001-3.725-1.001-6.105.007-2.379.344-4.403 1.012-6.072.675-1.676 1.637-2.955 2.887-3.836 1.257-.88 2.759-1.32 4.506-1.32 1.748 0 3.25.44 4.507 1.32 1.257.881 2.219 2.16 2.887 3.836.675 1.676 1.012 3.7 1.012 6.072 0 2.387-.337 4.425-1.012 6.115-.668 1.683-1.63 2.969-2.887 3.857-1.25.888-2.752 1.331-4.507 1.331Zm0-3.334c1.364 0 2.44-.671 3.228-2.014.796-1.349 1.194-3.334 1.194-5.955 0-1.733-.182-3.189-.544-4.368-.362-1.179-.873-2.066-1.534-2.663a3.358 3.358 0 0 0-2.344-.906c-1.356 0-2.429.675-3.217 2.025-.788 1.342-1.186 3.313-1.193 5.912-.007 1.74.167 3.203.522 4.39.362 1.186.874 2.08 1.534 2.684.661.597 1.445.895 2.354.895Zm19.127 5.646V59.455h1.747v27.272h-1.747Zm5.039-18.547c-.1-.93-.519-1.655-1.257-2.174-.732-.518-1.683-.777-2.855-.777-.824 0-1.531.124-2.12.373-.59.248-1.041.585-1.353 1.012a2.458 2.458 0 0 0-.48 1.46c0 .454.103.848.309 1.182.213.334.501.618.863.852a6.09 6.09 0 0 0 1.204.575c.44.156.884.288 1.332.394l2.045.512c.824.192 1.616.45 2.376.778a8.377 8.377 0 0 1 2.056 1.235 5.48 5.48 0 0 1 1.449 1.8c.355.704.532 1.528.532 2.472 0 1.279-.326 2.404-.98 3.377-.653.966-1.598 1.723-2.833 2.27-1.229.54-2.717.81-4.464.81-1.698 0-3.171-.264-4.421-.79-1.243-.525-2.216-1.292-2.919-2.3-.696-1.009-1.073-2.237-1.13-3.686h3.889c.057.76.291 1.392.703 1.896s.948.88 1.609 1.13c.667.248 1.413.372 2.237.372.859 0 1.612-.128 2.258-.383.654-.263 1.165-.625 1.534-1.087a2.62 2.62 0 0 0 .565-1.64c-.007-.569-.174-1.038-.501-1.407-.326-.376-.784-.689-1.374-.937a13.223 13.223 0 0 0-2.045-.682l-2.483-.64c-1.797-.461-3.217-1.16-4.261-2.098-1.037-.945-1.555-2.198-1.555-3.76 0-1.286.348-2.412 1.044-3.378.703-.966 1.658-1.715 2.865-2.248 1.208-.54 2.575-.81 4.102-.81 1.548 0 2.905.27 4.07.81 1.171.533 2.091 1.275 2.759 2.227.667.944 1.012 2.031 1.033 3.26h-3.803ZM327.428 100.729l-.512-.507 5.242-5.246h-4.194l.009-.703h5.395v5.403h-.712l.009-4.189-5.237 5.242Zm15.796 2.39a2.802 2.802 0 0 1-1.056-.217 2.515 2.515 0 0 1-.929-.695c-.276-.321-.495-.744-.657-1.269-.162-.526-.243-1.172-.243-1.94 0-.71.063-1.36.188-1.951s.312-1.102.562-1.534c.25-.432.563-.766.938-1.002.375-.238.814-.358 1.317-.358.471 0 .887.098 1.248.294.361.194.654.463.878.81.225.347.365.746.422 1.197h-.784c-.08-.46-.269-.839-.567-1.137-.298-.298-.697-.448-1.197-.448-.716 0-1.27.333-1.662.998-.392.661-.59 1.602-.593 2.82h.056c.139-.258.318-.481.537-.668.221-.19.473-.339.754-.444a2.45 2.45 0 0 1 .886-.162c.486 0 .931.124 1.334.371.404.244.726.581.968 1.01.241.426.362.913.362 1.462 0 .52-.115.998-.345 1.436a2.66 2.66 0 0 1-.963 1.044c-.412.258-.897.386-1.454.383Zm0-.716c.381 0 .721-.096 1.019-.289.301-.194.538-.452.712-.776.173-.327.259-.687.259-1.082s-.086-.753-.259-1.074a2.04 2.04 0 0 0-.712-.767 1.852 1.852 0 0 0-1.019-.286c-.289 0-.559.06-.809.18a2.01 2.01 0 0 0-.652.48 2.134 2.134 0 0 0-.418.695 1.944 1.944 0 0 0-.106.823c.031.4.135.76.311 1.078.179.315.412.564.699.746.289.181.615.272.975.272Zm7.335.716c-.614 0-1.138-.176-1.573-.528-.432-.355-.764-.868-.997-1.538-.23-.671-.345-1.476-.345-2.417 0-.937.115-1.74.345-2.407.233-.67.567-1.183 1.001-1.539.438-.358.961-.537 1.569-.537.607 0 1.129.18 1.563.537.438.356.772.868 1.002 1.539.233.667.349 1.47.349 2.407 0 .94-.116 1.746-.349 2.417-.23.67-.563 1.183-.997 1.538-.432.352-.955.528-1.568.528Zm0-.716c.673 0 1.198-.328 1.576-.984.378-.659.567-1.587.567-2.783 0-.795-.087-1.474-.26-2.037-.17-.565-.416-.997-.737-1.295a1.616 1.616 0 0 0-1.146-.448c-.668 0-1.192.333-1.573.998-.381.662-.571 1.59-.571 2.782 0 .796.085 1.475.256 2.037.173.563.419.992.737 1.287.321.296.705.443 1.151.443Zm8.489-3.767c0-1.022.129-1.988.388-2.897.258-.91.629-1.762 1.112-2.557h.69a7.73 7.73 0 0 0-.571 1.138c-.17.423-.318.875-.443 1.355s-.222.971-.29 1.474a11.027 11.027 0 0 0 .077 3.473c.119.668.284 1.301.494 1.901a8.26 8.26 0 0 0 .733 1.568h-.69a10.416 10.416 0 0 1-1.112-2.561 10.514 10.514 0 0 1-.388-2.894Zm6.568-4.363V103h-.797v-7.892h-.051l-2.045 1.36v-.827l2.062-1.368h.831Zm5.421 8.846c-.614 0-1.138-.176-1.573-.528-.431-.355-.764-.868-.997-1.538-.23-.671-.345-1.476-.345-2.417 0-.937.115-1.74.345-2.407.233-.67.567-1.183 1.002-1.539.437-.358.96-.537 1.568-.537.608 0 1.129.18 1.564.537.437.356.771.868 1.001 1.539.233.667.35 1.47.35 2.407 0 .94-.117 1.746-.35 2.417-.23.67-.562 1.183-.997 1.538-.432.352-.955.528-1.568.528Zm0-.716c.673 0 1.199-.328 1.577-.984.377-.659.566-1.587.566-2.783 0-.795-.086-1.474-.26-2.037-.17-.565-.416-.997-.737-1.295a1.616 1.616 0 0 0-1.146-.448c-.668 0-1.192.333-1.573.998-.38.662-.571 1.59-.571 2.782 0 .796.086 1.475.256 2.037.173.563.419.992.737 1.287.321.296.705.443 1.151.443Zm7.419.716c-.613 0-1.138-.176-1.572-.528-.432-.355-.764-.868-.997-1.538-.231-.671-.346-1.476-.346-2.417 0-.937.115-1.74.346-2.407.233-.67.566-1.183 1.001-1.539.438-.358.96-.537 1.568-.537.608 0 1.129.18 1.564.537.438.356.771.868 1.002 1.539.232.667.349 1.47.349 2.407 0 .94-.117 1.746-.349 2.417-.231.67-.563 1.183-.998 1.538-.431.352-.954.528-1.568.528Zm0-.716c.673 0 1.199-.328 1.577-.984.378-.659.567-1.587.567-2.783 0-.795-.087-1.474-.26-2.037-.171-.565-.416-.997-.737-1.295a1.62 1.62 0 0 0-1.147-.448c-.667 0-1.192.333-1.572.998-.381.662-.571 1.59-.571 2.782 0 .796.085 1.475.255 2.037.174.563.419.992.738 1.287.321.296.704.443 1.15.443Zm9.124-1.022v-.397c0-.326.065-.62.196-.882.131-.264.317-.473.558-.626.242-.154.529-.23.861-.23.335 0 .622.076.861.23.239.153.422.362.55.626.128.262.191.556.191.882v.397c0 .326-.065.62-.196.882-.127.261-.311.47-.549.626-.239.154-.524.23-.857.23-.338 0-.628-.076-.869-.23a1.576 1.576 0 0 1-.554-.626 1.983 1.983 0 0 1-.192-.882Zm.669-.397v.397c0 .321.078.595.235.822.159.225.396.337.711.337.307 0 .539-.112.695-.337.156-.227.234-.501.234-.822v-.397c0-.321-.077-.593-.23-.818-.153-.227-.386-.34-.699-.34-.309 0-.545.113-.707.34a1.38 1.38 0 0 0-.239.818Zm-5.067-4.696v-.396c0-.327.066-.62.196-.882.131-.261.317-.469.559-.622.241-.157.528-.235.86-.235.336 0 .623.078.861.235.239.153.422.36.55.622.128.261.192.555.192.882v.396c0 .327-.066.623-.196.887a1.515 1.515 0 0 1-.55.622 1.55 1.55 0 0 1-.857.23c-.338 0-.627-.077-.869-.23a1.546 1.546 0 0 1-.554-.622 2.006 2.006 0 0 1-.192-.887Zm.669-.396v.396c0 .321.079.596.235.823.159.224.396.336.711.336.307 0 .539-.112.695-.336.156-.228.234-.502.234-.823v-.396c0-.321-.076-.594-.23-.818-.153-.227-.386-.341-.699-.341-.309 0-.545.114-.707.34a1.379 1.379 0 0 0-.239.819Zm-.277 7.108 5.996-8.727h.754L384.329 103h-.755Zm11.12-4.364c0 1.023-.13 1.989-.388 2.898a10.393 10.393 0 0 1-1.112 2.557h-.691a7.36 7.36 0 0 0 .567-1.138c.173-.423.323-.875.448-1.355s.221-.972.289-1.474a10.94 10.94 0 0 0-.076-3.473 12.016 12.016 0 0 0-.499-1.901 8.011 8.011 0 0 0-.729-1.568h.691c.483.798.853 1.652 1.112 2.56.258.91.388 1.874.388 2.894Z"
			opacity=".8"
		/><path
			fill="#BD93F9"
			d="M442 74a2.998 2.998 0 0 0 3-3 2.999 2.999 0 0 0-5.121-2.121A2.999 2.999 0 0 0 442 74Z"
		/><path
			fill="#BD93F9"
			d="M430 65a1.501 1.501 0 0 1 1.5-1.5h21A1.502 1.502 0 0 1 454 65v12a1.501 1.501 0 0 1-1.5 1.5h-21A1.502 1.502 0 0 1 430 77V65Zm4.5 0a2.999 2.999 0 0 1-3 3v6a2.998 2.998 0 0 1 3 3h15a2.999 2.999 0 0 1 3-3v-6a2.998 2.998 0 0 1-3-3h-15Z"
		/></g><defs><filter
			id="a"
			width="524"
			height="148"
			x="0"
			y="0"
			color-interpolation-filters="sRGB"
			filterUnits="userSpaceOnUse"
		><feFlood flood-opacity="0" result="BackgroundImageFix" /><feColorMatrix
				in="SourceAlpha"
				result="hardAlpha"
				values="0 0 0 0 0 0 0 0 0 0 0 0 0 0 0 0 0 0 127 0"
			/><feOffset dy="2" /><feGaussianBlur stdDeviation="1" /><feComposite
				in2="hardAlpha"
				operator="out"
			/><feColorMatrix
				values="0 0 0 0 0 0 0 0 0 0 0 0 0 0 0 0 0 0 0.06 0"
			/><feBlend
				in2="BackgroundImageFix"
				result="effect1_dropShadow_605_13101"
			/><feColorMatrix
				in="SourceAlpha"
				result="hardAlpha"
				values="0 0 0 0 0 0 0 0 0 0 0 0 0 0 0 0 0 0 127 0"
			/><feOffset dy="3" /><feGaussianBlur stdDeviation="3" /><feComposite
				in2="hardAlpha"
				operator="out"
			/><feColorMatrix
				values="0 0 0 0 0.611765 0 0 0 0 0.639216 0 0 0 0 0.686275 0 0 0 0.35 0"
			/><feBlend
				in2="effect1_dropShadow_605_13101"
				result="effect2_dropShadow_605_13101"
			/><feBlend
				in="SourceGraphic"
				in2="effect2_dropShadow_605_13101"
				result="shape"
			/></filter></defs></svg>
