<svg
	xmlns="http://www.w3.org/2000/svg"
	data-name="Layer 1"
	viewBox="0 0 600 600"
><defs><clipPath id="a"><path
				d="M0 0h600v600H0z"
				style="fill:none"
			/></clipPath></defs><path
		d="M0 0h600v600H0z"
		style="fill:#242630"
	/><g style="clip-path:url(#a);fill:none"><path
			d="M300 226.9c22.7-12.07 46.1-23.05 70.17-33-73.85-52.17-66.49-52.17-140.33 0 24.07 9.95 47.46 20.93 70.17 33M254.1 108.24a679.247 679.247 0 0 1 45.91 22.22 681.571 681.571 0 0 1 45.91-22.22c-44.24-39.91-47.59-39.91-91.83 0m-68.32 68.86c7.65 2.68 15.23 5.45 22.76 8.32 22.77-16.67 46.43-31.98 70.94-45.98l.21-.12c-56.74-28.95-60.43-18.32-93.91 37.78m-22.53 44.29c8.85-7.61 17.86-15 27.02-22.15-20.54-7.5-18.81 2.93-27.02 22.15m-14 38.73c-.35 1.17-.7 2.35-1.04 3.52 20.53 6.19 40.65 13.04 60.34 20.56 22.77-16.67 46.43-31.98 70.94-45.98l.21-.12c-69.85-35.64-73.39-32.23-130.45 22.02m-13.41 84.84a737.783 737.783 0 0 1 54.43-46.94c-55.06-20.11-53.91-13.61-54.43 46.94m2.2 34.61c8.64 60.89 13.14 47.75 52.23 17.22a874.405 874.405 0 0 0-52.23-17.22m23.51 66.67c42.17 66.19 64.7 19.94 117.93-10.47l.21-.12c-22.08-11.26-44.82-21.51-68.21-30.78a717.893 717.893 0 0 0-49.93 41.37m59.24 50.5c21.75 9.58 48 14.97 79.23 14.97 31.23 0 57.5-5.38 79.23-14.97-82.91-60.52-75.56-60.52-158.47 0m217.71-50.5a720.243 720.243 0 0 0-49.93-41.37c-23.39 9.27-46.14 19.52-68.21 30.78l.22.12c53.21 30.39 75.79 76.67 117.93 10.47M462 379.57c-17.73 5.25-35.15 10.98-52.23 17.22 39.07 30.51 43.61 43.68 52.23-17.22m2.2-34.61c-.53-60.55.63-67.06-54.43-46.94a740.18 740.18 0 0 1 54.43 46.94m-12.36-81.32c-.34-1.17-.69-2.35-1.04-3.52-57.06-54.25-60.6-57.66-130.45-22.02l.22.12c24.51 14 48.17 29.31 70.94 45.98 19.69-7.52 39.8-14.36 60.34-20.56m-15.05-42.25c-8.21-19.22-6.48-29.65-27.02-22.15 9.16 7.15 18.16 14.54 27.02 22.15m-22.53-44.29c-33.49-56.1-37.17-66.73-93.91-37.78l.21.12c24.51 14 48.17 29.31 70.94 45.98a842.05 842.05 0 0 1 22.76-8.32M300.03 424.44c22.7-12.07 46.1-23.06 70.17-33-73.85-52.17-66.49-52.17-140.33 0 24.07 9.95 47.46 20.93 70.17 33m-91.48-41.47c22.77-16.67 46.43-31.98 70.94-45.98l.21-.12c-71.47-36.46-75.41-30.94-133.5 24.94 21.23 6.36 42.02 13.4 62.34 21.16m245.31-21.16c-58.09-55.88-62.03-61.4-133.5-24.94l.22.12c24.51 14 48.17 29.31 70.94 45.98a888.123 888.123 0 0 1 62.35-21.16m-153.83-36.14c22.7-12.07 46.1-23.06 70.17-33-73.85-52.17-66.49-52.17-140.33 0 24.07 9.95 47.46 20.93 70.17 33"
			style="fill:#bd93f9"
		/></g></svg>
